<svg fill="none" height="379" viewBox="0 0 363 379" width="363" xmlns="http://www.w3.org/2000/svg" xmlns:xlink="http://www.w3.org/1999/xlink"><radialGradient id="a" cx="0" cy="0" gradientTransform="matrix(23.22840675 176.70178947 -158.13254541 20.7873791 157.149 120.742)" gradientUnits="userSpaceOnUse" r="1"><stop offset="0" stop-color="#fff" stop-opacity="0"/><stop offset="1" stop-color="#eff1f4"/></radialGradient><radialGradient id="b" cx="0" cy="0" gradientTransform="matrix(-12.00387996 79.79010095 -63.21739795 -9.51062911 197.519 132.292)" gradientUnits="userSpaceOnUse" r="1"><stop offset=".0895392" stop-color="#7f52ff"/><stop offset="1" stop-color="#ff8c7c"/></radialGradient><path d="m212.233 5.6359c70.789 20.9264 113.92 118.0261 21.212 182.8741-.141.099-.312.164-.483.18l-54.161 5.096c-.109.01-.218.003-.325-.022-1.708-.403-4.285-.984-6.058-1.036-2.116-.063-2.593.476-3.505.958-.15.079-.321.111-.487.08-.901-.171-2.627-.795-4.428.57-.061.046-.114.099-.162.159-2.241 2.84-6.561 8.784-6.454 10.547.134 2.227 2.677 1.871 4.492 1.217 1.198-.432 2.753-1.555 3.888-2.603.456-.42.852-.229 1.222.268.184.248.49.438 1.025.438.785 0 2.005-.466 2.923-1.062.395-.256.913-.287 1.304-.025 2.565 1.718 4.795 2.383 7.885 1.192.173-.066.361-.09.544-.06l3.426.556c.309.05.577.242.724.519l1.485 2.804c.242.457.093 1.025-.339 1.31-19.709 13.043-32.988 29.488-34.56 39.97-1.071 7.137-.422 16.862 1.756 22.036.229.544.033 1.177-.523 1.373-22.747 8.019-108.5298-1.369-112.2215-66.716-3.4566-61.186 59.7075-57.258 47.7812-105.303-18.1764-73.2222 53.1933-116.2631 124.0393-95.3201z" fill="url(#a)"/><path d="m1.04004 302.904c14.22146-64.689 44.48706-41.544 75.21156-68.469 15.666-13.728 0-26.93-6.69-4.676-9.1331 30.38 41.5664 4.676 74.4804-20.185" stroke="#afc1dc" stroke-width="1.5"/><path d="m301.879 201.237c-22.785-13.261-71.785 51.197-35.058 53.422 36.728 2.225 57.843-40.161 35.058-53.422z" fill="#f4f5f7"/><path d="m174.418 209.508h-85.5988c-.3821 0-.7307-.218-.8985-.561l-23.2692-47.613c-.3246-.665.1591-1.439.8985-1.439h60.701c.377 0 .722.212.892.548l23.12 45.742c.17.336.515.549.892.549h23.263c.553 0 1 .447 1 1v.774c0 .552-.447 1-1 1z" fill="#fff" stroke="#167dff" stroke-linecap="round" stroke-linejoin="round" stroke-width="1.5"/><path d="m99.1444 187.586c-.2956-1.609-.3328-5.267 1.1836-7.953.165-.292.482-.463.816-.431 2.666.249 5.925 2.289 7.016 4.779.114.26.087.56-.09.78-1.437 1.784-5.593 2.97-8.028 3.4-.421.074-.8204-.155-.8976-.575z" stroke="#167dff" stroke-linecap="round" stroke-linejoin="round" stroke-width="1.5"/><path d="m200.375 145.113c36.471 0 47.277-79.9648 93.297-87.5899 24.761-4.1026 15.845 20.0521 8.551 23.294-10.61 4.7154 5-25.7827 23.503-29.4466 27.285-5.4031 35.93-14.8578 35.93-23.7728" stroke="#afc1dc" stroke-width="1.5"/><path d="m124.347 160.129 24.945 48.958" stroke="#167dff" stroke-linecap="round" stroke-linejoin="round" stroke-width="1.5"/><path d="m238.399 202.917c2.847 4.046-.899 6.068-30.492 2.172l26.222-6.218c.474 0 1.993.809 4.27 4.046z" fill="#0c0c0d"/><path d="m251.026 295.284c0 3.274-2.654 5.928-5.928 5.928-1.102 0-2.135-.301-3.019-.825.677-5.103.989-7.72 1.204-10.749.572-.183 1.182-.283 1.815-.283 3.274 0 5.928 2.655 5.928 5.929z" fill="#ffbd00"/><path d="m211.234 329.951c-1.926 2.504-5.517 2.974-8.022 1.048-.538-.414-.983-.905-1.329-1.445 2.352-2.542 5.217-6.752 6.748-8.476.545.196 1.07.479 1.554.851 2.505 1.926 2.974 5.517 1.049 8.022z" fill="#ffbd00"/><path d="m256.534 320.785c.704-5.276-4.457-9.382-14.192-19.469" stroke="#ffbd00" stroke-linecap="round" stroke-width="1.5"/><path d="m194.551 351.483c6.132-3.115 5.526-9.737 4.859-19.538" stroke="#ffbd00" stroke-linecap="round" stroke-width="1.5"/><path d="m249.39 306.176c-2.324-6.322-.963-14.979-3.564-18.586-.168-.232-.445-.352-.731-.352h-.51c-.498 0-.92.366-.99.858l-2.69 18.739c-.045.311.06.626.283.848 3.839 3.814 11.251 10.798 12.816 10.798 2.019 0-2.211-5.768-4.614-12.305z" fill="#0c0c0d" fill-opacity=".3"/><path d="m202.539 335.306c2.391-5.948 7.791-8.88 8.686-12.88.08-.359-.092-.719-.396-.927l-.995-.681c-.443-.304-1.047-.205-1.373.222-2 2.62-8.791 11.299-14.147 15.55-.244.194-.387.484-.389.796-.029 4.191-.387 9.689.623 10.796 1.312 1.44 4.361-3.841 7.991-12.876z" fill="#0c0c0d" fill-opacity=".3"/><path d="m240.942 307.922c10.031 9.546 14.074 9.548 18.766 18.121s4.294 14.173 9.801 14.173" stroke="#0c0c0d" stroke-linecap="round" stroke-width="1.5"/><path d="m189.134 373.37c-3.58-3.926.671-7.284 3.732-16.203 2.614-7.615 1.081-10.831.753-19.921" stroke="#0c0c0d" stroke-linecap="round" stroke-width="1.5"/><path d="m243.83 287.406c4.559.5 4.892-2.036 9.196-2.035" stroke="#0c0c0d" stroke-linecap="round" stroke-width="1.5"/><path d="m209.294 320.445c2.608 3.576 4.729.929 8.528 5.573" stroke="#0c0c0d" stroke-linecap="round" stroke-width="1.5"/><path d="m270.061 337.852c-.9 4.524 3.975 4.216 3.332-.767 0-15.474-5.406-26.594-7.671-31.609s-.924-15.185-2.38-19.717c-1.439-4.479-8.045-5.39-9.881-.185-.042.12-.106.234-.179.339-2.425 3.487 4.555 14.198 9.176 21.688 4.692 7.603 8.618 25.152 7.603 30.251z" stroke="#0c0c0d" stroke-linecap="round" stroke-width="1.5"/><path d="m189.227 373.968c-1.274 2.301.663 5.968 7.089-.485 6.903-6.932 13.022-20.529 15.124-25.404 2.103-4.875 10.225-10.532 12.51-14.517 2.232-3.893-1.997-10.637-5.91-7.614-.183.141-.405.228-.63.277-3.959.869-6.647 13.075-9.607 20.909-6.101 16.147-14.12 25.863-17.654 26.36-.361.05-.745.155-.922.474z" stroke="#0c0c0d" stroke-linecap="round" stroke-width="1.5"/><path d="m191.311 194.164c4.424 1.927 6.239 9.945 6.012 11.004" stroke="#0c0c0d" stroke-linecap="round" stroke-width="1.5"/><path d="m196.738 193.473c4.893.762 6.631 10.148 6.404 11.207" stroke="#0c0c0d" stroke-linecap="round" stroke-width="1.5"/><path d="m184.603 205.281c2.94 5.766 7.538 10.063 8.367 10.403" stroke="#0c0c0d" stroke-linecap="round" stroke-width="1.5"/><path d="m199.188 211.227c-25.653 20.523-45.497 36.419-37.893 53.374 7.605 16.955 66.386 55.46 71.87 55.46 9.133 0 11.971-44.124 10.603-48.228-16.016-4.949-34.204-13.682-41.729-15.05" stroke="#0c0c0d" stroke-linecap="round" stroke-width="1.5"/><path d="m186.469 209.055c-23.725 17.671-41.638 35.589-34.694 57.708s17.08 53.573 24.658 73.552c1.891 4.984 17.29 4.142 35.488-24.54.626-.986.614-2.26-.059-3.215-1.405-1.996-4.026-5.566-6.946-8.785" stroke="#0c0c0d" stroke-linecap="round" stroke-width="1.5"/><path d="m206.507 252.878c2.39 2.307 3.652 4.111 4.253 5.288.313.614 1.128 1.036 1.753.747 12.728-5.877 35.09-21.502 31.913-41.784-2.886-18.432-14.554-20.096-22.121-22.121" stroke="#0c0c0d" stroke-linecap="round" stroke-width="1.5"/><path d="m125.705 59.2886-.72.211zm5.53 10.8726.248.7078c.206-.0723.371-.2311.45-.4349.08-.2037.067-.432-.036-.6252zm2.978-1.6184-.67.3374c.172.3404.571.4981.929.3665zm-7.35-5.2127-.628.4098zm-2.016 2.4806.661-.3538zm8.011 18.2268.712-.2354-.01-.0287-.012-.0279zm-1.964-13.7571-.652.3693c.178.3159.558.4585.9.3385zm4.233-1.2746c.388-.143.588-.5741.445-.9628-.143-.3888-.575-.588-.963-.445zm2.419 34.9992c.109.4.521.636.92.528.4-.108.636-.52.528-.92zm-8.146-46.3387c-.735-1.2489-2.024-1.8323-3.151-1.4441-.562.194-1.019.6207-1.254 1.2202-.232.5901-.233 1.2954-.01 2.0572l1.44-.4219c-.156-.53-.115-.8816-.035-1.0864.077-.1954.205-.3015.348-.351.287-.0987.9-.0114 1.369.7863zm-4.415 1.8333c.329 1.1213 1.234 2.9358 2.271 4.8895.526.9907 1.098 2.038 1.666 3.078.569 1.0416 1.134 2.0756 1.651 3.0464l1.324-.7046c-.521-.9794-1.091-2.0211-1.658-3.0608-.569-1.0414-1.137-2.0809-1.658-3.0625-1.057-1.9908-1.879-3.6624-2.156-4.6079zm3.122-1.073c.588 1 1.941 3.6008 3.16 5.9777.606 1.1828 1.176 2.3019 1.593 3.1254.209.4117.38.7494.498.9842.059.1174.106.209.137.2713.016.0311.028.0549.036.0709.004.008.007.014.009.0181.001.002.002.0035.002.0045.001.0005.001.0009.001.0012v.0002c0 .0001 0 .0001.67-.3373s.67-.3374.67-.3375 0-.0002-.001-.0003c0-.0003 0-.0007 0-.0012-.001-.001-.001-.0026-.002-.0046-.003-.0041-.006-.0102-.01-.0183-.008-.0161-.02-.04-.036-.0713-.031-.0625-.078-.1544-.137-.272-.119-.2354-.29-.5738-.499-.9862-.418-.8248-.989-1.9461-1.596-3.1316-1.211-2.3596-2.587-5.007-3.202-6.0535zm-.616 4.4938c-.698-1.0695-2.087-1.3026-3.029-.6195-1.031.7472-1.159 2.2156-.277 3.8637l1.323-.7077c-.721-1.3468-.309-1.8377-.166-1.9415.232-.168.652-.144.893.2245zm-3.306 3.2442c1.609 3.0058 5.051 11.2313 7.982 18.1649l1.381-.584c-2.908-6.8797-6.389-15.2036-8.04-18.2886zm6.802 3.2888-.341.1191.496 1.4157.341-.1192zm-.093.827c.653-.3694.653-.3694.653-.3694 0-.0001 0-.0001 0-.0002 0-.0002 0-.0005 0-.0008-.001-.0008-.001-.0018-.002-.0032-.002-.0029-.004-.007-.007-.0126-.007-.011-.016-.0274-.028-.0489-.024-.0429-.06-.1059-.106-.1864-.091-.1612-.222-.3926-.382-.6739-.32-.5624-.754-1.3245-1.212-2.1227-.909-1.5837-1.93-3.3455-2.319-3.9419l-1.256.8195c.359.5508 1.353 2.2641 2.274 3.8687.456.796.889 1.5564 1.209 2.1178.159.2807.29.5116.381.6723.046.0803.082.1431.106.1858.012.0214.021.0377.027.0486.003.0055.006.0097.007.0124.001.0014.002.0025.002.0032v.0007c.001.0001.001.0002.001.0002 0 .0001 0 .0001.652-.3692zm3.578-1.0337.655-.2409-.518-1.4078-.655.2409zm-2.326 15.0263c1.558 4.712 3.188 11.5682 5.4 19.732l1.448-.392c-2.191-8.0867-3.849-15.0482-5.424-19.8109z" fill="#0c0c0d"/><path d="m171.845 202.574c2.461 3.256 7.037 2.461 8.73 1.985" stroke="#0c0c0d" stroke-linecap="round" stroke-width="1.5"/><path d="m156.594 203.393c-.054-1.571 3.577-9.43 6.667-8.402l-3.902 6.668-1.897 3.306c-.271 0-.824-.314-.868-1.572z" fill="#0c0c0d"/><path d="m176.783 192.616c-1.478-2.111-3.692-11.209-4.621-14.701-22.041-5.936-32.455-41.435-39.048-79.5533-.178-1.0322.037-2.1867.989-2.6233.431-.1975.895-.267 1.275-.016l1.614 4.3216c4.867 3.204 8.728-2.1767 12.622-7.0206 7.84 14.1676 18.318 33.5106 37.809 45.8806 0 0 5.068-2.449 13.571-1.675 26.647 2.426 54.922 35.349 49.473 50.925-5.224 14.932-32.049 17.599-40.522 16.172 0-3.203-4.473-9.141-6.709-11.71-2.019.777-7.264 1.64-10.034 1.778-3.461.173-14.572.861-16.419-1.778z" fill="url(#b)"/><path d="m181.06 124.051c1.907 2.396 6.993.635 8.283 0" stroke="#0c0c0d" stroke-linecap="round" stroke-width="1.5"/><path d="m174.101 112.272c3.219-2.442 5.406-2.165 6.712-.973" stroke="#0c0c0d" stroke-linecap="round" stroke-width="2"/><path d="m188.746 111.411c2.73-2.224 6.679-.022 8.079.792" stroke="#0c0c0d" stroke-linecap="round" stroke-width="2"/><path d="m217.5 96.0009c-2.386-2.6011-8.042-3.1977-11.058 6.3951-.578 1.097-.146 2.452 5.849 3.11 7.494.822 8.169-6.2778 5.209-9.5051z" fill="#0c0c0d"/><path d="m189.647 94.8479c-.044-7.5386-7.174-7.3945-10.041-4.0835-1.865 2.1554-2.187 6.2803 2.962 8.7852 2.866-1.0725 4.053-.0001 7.024-2.5488.04-.6259.059-1.3399.055-2.1529z" fill="#0c0c0d"/><path d="m201.079 125.366c-3.875 4.951-10.508 9.779-16.529 9.049-8.406-1.02-15.27-14.588-8.406-28.878 6.863-14.2898 22.083-10.8801 26.522-8.3298" stroke="#000" stroke-linecap="round" stroke-width="1.5"/><path d="m183.531 103.117c-4.231 0-7.37 2.814-7.37 2.814 1.831-4.715 6.907-11.2696 15.554-11.5426 8.646-.273 20.011 2.544 17.307 18.6046-3.938-1.144-7.244-1.728-8.62 2.326-3.877-11.075-11.278-11.238-14.063-11.954-.427-.11-.644-.546-.504-.964.582-1.736 1.95-3.4978 3.24-4.3517-2.961 1.5886-4.659 5.0677-5.544 5.0677z" fill="#0c0c0d"/><g stroke-width="1.5"><path d="m200.163 115.349c1.158-1.869 3.227-3.115 5.587-3.115 3.627 0 6.567 2.94 6.567 6.567s-2.94 6.567-6.567 6.567h-4.624" stroke="#0c0c0d" stroke-linecap="round"/><path d="m173.743 112.953c-2.125 1.088-3.58 3.299-3.58 5.85 0 2.849 1.815 5.275 4.352 6.184" stroke="#0c0c0d" stroke-linecap="round"/><path d="m171.895 167.281c-.75 7.456.21 11.829.526 12.777" stroke="#0c0c0d" stroke-linecap="round"/><path d="m137.332 77.6446c.681-1.9205 2.45-3.3026 6.072-4.9006 1.36-.9457.999-3.6348 3.117-6.3009 1.779-2.2413 4.49-.542 2.914 2.2952-.767 1.3805-.973 4.3649-1.5 7.5992-.605 3.7174-.915 7.6066.279 11.1787 1.089 3.2594 2.759 7.7174 5.294 13.1348" stroke="#0c0c0d" stroke-linecap="round"/><path d="m135.264 68.1723c-1.578-5.8285-3.369-10.6737-3.805-12.6726-.573-2.6337 2.188-3.4546 3.311-.7191.756 1.8438 2.575 7.986 4.27 12.3597l.619-.3713c-1.503-8.1429-2.921-10.4762-.97-10.8572 1.362-.2657 2.721 2.1157 4.878 11.6861.03.4579.417 1.3559.901 2.7109" stroke="#0c0c0d" stroke-linecap="round" stroke-linejoin="round"/><path d="m187.372 138.711c-17.319 14.644-8.115 17.513.989 8.309" stroke="#0c0c0d" stroke-linecap="round"/><path d="m203.175 192.012c-8.854 2.858-18.861 3.133-24.479 2.097-6.072-1.119-7.701-2.283-9.986 0-2.285 2.284-6.99 8.661-8.288 9.903-1.37 1.311 1.178 4.594 6.075-1.025" stroke="#0c0c0d" stroke-linecap="round"/><path d="m174.158 194.969c-3.399.22-5.173 5.765-6.873 6.949-1.171.815.222 3.25 2.882 1.477 2.369-1.579 3.684-3.627 5.143-4.475.322-.186.728-.099.915.222.779 1.338.892 3.853 4.584 5.361 4.198 1.715 22.934.542 31.26 0" stroke="#0c0c0d" stroke-linecap="round"/><path d="m198.939 192.483c-.705-4.025-.001-4.437 3.702-6.48 4.94-2.725 1.412-5.847 7.335-8.809 5.924-2.961 19.136-3.036 24.319-1.186" stroke="#0c0c0d" stroke-linecap="round"/><path d="m214.989 169.301c-8.583 4.394-9.339 8.93-7.073 8.998" stroke="#0c0c0d" stroke-linecap="round"/><path d="m168.952 193.754c-2.156-.77-4.157-.921-6.005 2.542-1.682 3.153-4.97 7.046-5.347 8.051s.706 2.475 3.067 1.677" stroke="#0c0c0d" stroke-linecap="round"/><path d="m203.512 121.753c2.008-5.429 4.48-6.108 5.457-5.863" stroke="#000" stroke-linecap="round"/><path d="m184.987 100.715c-2.385 3.428-7.368 5.292-9.331 6.186" stroke="#000" stroke-linecap="round"/><path d="m187.459 100.922c-5.133 5.676 7.452 2.968 13.424 13.401" stroke="#000" stroke-linecap="round"/><path d="m208.588 104.707c2.11 1.653 2.733 2.97 2.78 3.422" stroke="#0c0c0d" stroke-linecap="round"/></g><ellipse cx="179.166" cy="116.059" fill="#0c0c0d" rx="1.15527" ry="2.45312"/><ellipse cx="192.549" cy="116.059" fill="#0c0c0d" rx="1.15527" ry="2.45312"/><path d="m185.228 128.908c1.864-.52 4.681-3.617 4.39-5.772-.052-.38-.421-.6-.805-.6-1.86 0-5.097-.002-7.16-.001-.602.001-1.066.531-.925 1.117.628 2.598 2.309 5.867 4.5 5.256z" stroke="#0c0c0d" stroke-linecap="round" stroke-width="1.5"/><path d="m191.356 195.701-2.441-.92c-.387-.145-.643-.515-.643-.928 0-.517.397-.947.913-.989l5.603-.451c.055-.005.11-.004.165 0l5.322.448c.518.043.916.477.916.996v.047c0 .514-.388.944-.899.995l-8.483.861c-.154.016-.309-.005-.453-.059z" fill="#0c0c0d"/><path d="m210.084 310.51c-12.165-4.872-26.664-13.277-43.988-38.002 0 0 25.76 23.383 38.933 31.142 2.077 2.6 5.055 6.86 5.055 6.86z" fill="#0c0c0d"/><rect height="10.875" rx="3" stroke="#167dff" stroke-width="1.5" transform="matrix(.94868191 -.31623192 .31623192 .94868191 -38.45787 34.015211)" width="64.752" x="85.5752" y="135.5"/><path d="m96.3049 136.378-1.5287 3.057-3.0574-1.529" stroke="#167dff" stroke-linecap="round" stroke-linejoin="round" stroke-width="1.5"/><path d="m70.5453 105.688c-.0891-1.627 1.1381-3.029 2.7635-3.155l39.6712-3.0766c1.679-.1302 3.136 1.1456 3.228 2.8266l.266 4.866c.09 1.628-1.138 3.03-2.763 3.156l-39.6717 3.077c-1.6784.13-3.1354-1.146-3.2275-2.827z" stroke="#167dff" stroke-width="1.5"/><path d="m80.5027 106.439-2.2813 2.545-2.5456-2.281" stroke="#167dff" stroke-linecap="round" stroke-linejoin="round" stroke-width="1.5"/><path d="m202.666 25.1016 1.391 5.5056 5.172-2.345-3.437 4.5204 5.058 2.5815-5.677.1312 1.135 5.564-3.642-4.3568-3.642 4.3568 1.135-5.564-5.677-.1312 5.058-2.5815-3.437-4.5204 5.172 2.345z" stroke="#afc1dc" stroke-linejoin="round" stroke-width="1.5"/><path d="m299.668 161.777 1.248 4.936 4.636-2.102-3.081 4.052 4.534 2.314-5.089.117 1.017 4.988-3.265-3.905-3.264 3.905 1.017-4.988-5.089-.117 4.534-2.314-3.081-4.052 4.636 2.102z" fill="#167dff"/><path d="m264.883 108.222-3.298-4.537c-.569-.783.194-1.837 1.116-1.54l6.02 1.943c.722.233.932 1.153.383 1.676l-2.722 2.594c-.438.418-1.143.354-1.499-.136z" stroke="#0c0c0d" stroke-width="1.5"/><path d="m124.444 264.656 1.514 6.702 5.809-3.668-3.668 5.809 6.702 1.514-6.702 1.514 3.668 5.81-5.809-3.669-1.514 6.702-1.514-6.702-5.81 3.669 3.669-5.81-6.702-1.514 6.702-1.514-3.669-5.809 5.81 3.668z" stroke="#ffbd00" stroke-linejoin="round" stroke-width="1.5"/><rect height="12.0391" rx="3" stroke="#afc1dc" stroke-width="1.5" transform="matrix(.83034311 -.55725247 .55725247 .83034311 -66.369993 47.330117)" width="12.0391" x="44.5449" y="132.664"/><path d="m27.9364 89.0183c-4.9668-1.5553-10.4622-9.3781-3.1568-16.6831s32.0784-3.6113 30.9949 8.9851c-.8979 10.4395-15.1109 10.0737-19.5168 9.312l-7.7764 4.1297c-.7426.3944-1.6108-.2482-1.4507-1.0736z" fill="#a67dff"/></svg>