<svg viewBox="0 0 2804 1924" fill="none" xmlns="http://www.w3.org/2000/svg"><g clip-path="url(#a)"><path d="M2334.89 1014.62 2724.5 530.5 2401.39-67c-81.95 280.491-258.68 610.527-511.43 1010.081-57.08 90.229-166.1 315.769-217.34 423.669-3.5 2.83-28.99 4.61-28.99 9.75 0 5.15 8.13 22.43 8.13 28-79.76 74.5-129.57 129.91-175.21 185.14-37.3 45.12-15.99 73.33 0 81.66-12.24 16.14-52.39 58.22-59.59 89.08-7.2 30.86 6.65 51.86 22.29 51.09 4.02 16.96 5.56 31.89 23.15 41.15 17.6 9.26 20.97 8.34 70.36-27.67 49.38-36.01 257.75-109.53 357.2-141.68 22.73 27.58 51.34 10.92 79.11-36.41 20.58-35.06 81.98-80.27 142.6-127.17l2.87-1.97c63.95-43.82 80.56-55.2 108.15-104.39 39.5-70.41 90.2-300.43 112.2-398.71Z" fill="url(#b)"/><path d="M469.493 1026.76 61.979 529.764 249.856-470.499l153.139 415.63c81.946 280.49 258.675 610.527 511.431 1010.081 57.077 90.228 166.093 315.768 217.343 423.668 3.5 2.83 28.98 4.61 28.98 9.75 0 5.15-8.13 22.43-8.13 28 31.86 33.33 137.81 124.03 175.22 185.14 30.24 49.41 15.98 73.33 0 81.66 12.23 16.15 52.39 58.22 59.59 89.08 7.2 30.86-6.66 51.86-22.3 51.09-4.02 16.96-5.55 31.89-23.15 41.15-17.59 9.26-14.91 10.29-64.29-25.72-49.39-36.01-263.81-111.48-363.263-143.63-22.73 27.58-51.339 10.92-79.116-36.4-20.58-35.07-81.973-80.27-142.6-127.18l-2.866-1.97c-63.951-43.82-80.556-55.2-108.151-104.39-39.497-70.41-90.199-300.43-112.201-398.7Z" fill="url(#c)"/><path d="M1529.36 1799.15c23.28-2.78 60.99-56 77.62-63.21 16.63-7.21 222.88-74.85 234.52-84.27 11.64-9.43 4.43-28.83 13.86-20.52 9.43 8.32 6.66 23.29 21.63 6.1" stroke="url(#d)" stroke-width="4" stroke-linecap="round"/><path d="M1517.26 1638.41c-16.6 9.55-56.63 18.47-62.27-5.28" stroke="url(#e)" stroke-width="4" stroke-linecap="round"/><path d="M1969.74 1426.62c12.18-32.99-16.86-135.03-9.75-246.49 0 0 19.39 151.34 32.65 201.34 13.25 50-4.85 62.63-39.76 100.61-103.01 112.05-69.4 175.69-63.37 197.38-10.36 14.11-33.68-26.51-25.19-83.82 10.01-67.47 91.52-131.35 105.42-169.02ZM1666.81 1500.5c-20.49 14.07-57.1 73.38-48.55 76.59 8.01-9.8 27.56-32.48 41.66-44.88 17.63-15.49 57.1-49.6 69.98-62.5 8.02-13.35-18.22-47.11-40.13-54.06-21.9-6.94 17.51 57.08-22.96 84.85ZM1536.46 1825.63c-15.62-6.14-47.91-26.16-6.36-107.64-33.63 79.9 5.8 86.56 16.55 86.56s23.43-12.4 50.8-22.93c21.9-8.42 138.82-49.83 194.54-69.49 0 0-64.97 28.6-129.18 52.72-64.21 24.12-126.35 60.78-126.35 60.78Z" fill="#0C0C0D" fill-opacity=".4"/><path d="M1451.85 1841.53c38.84 0 51.01-40.25 71.14-45.4" stroke="url(#f)" stroke-width="4" stroke-linecap="round"/><path d="M1719.91 1440.13c.61 3.69 17.21 25.22 8.61 32.6-8.61 7.38-89.7 74.45-111.5 105.34-37.25 23.62-110.27 49.72-176.25 137.19-39.07 51.78-30.78 92.09 0 97.96" stroke="#0C0C0D" stroke-width="4" stroke-linecap="round" stroke-linejoin="round"/><path d="M1866.6 1690.86c-57.74 16.42-225.17 66.37-307.22 108.88-50.99 26.41-71.52-70.49 16.53-119.64 64.41-35.55 210.03-97.96 233.43-101.86 22.1-29.9 77.84-78.01 101.65-100.11" stroke="#0C0C0D" stroke-width="4" stroke-linecap="round" stroke-linejoin="round"/><path d="M1782.09 1512c-22.89 23-66.41 71.64-77.81 88.3-14.25 20.83-237.43 105.84-261.94 202.7-9.82 52.63 37.17 62.77 51.4 50.06 14.08-12.57 91.35-71.24 396.26-168.89" stroke="#0C0C0D" stroke-width="4" stroke-linecap="round" stroke-linejoin="round"/><path d="M2630.5 468.697c-49.06 73.489-386.23 476.274-395.58 492.124-7.07 11.967 16.79 10.919 16.79 20.158 0 5.459-22.18-5.442-20.15 14.278 14.65 142.383-66.98 364.713-97.51 423.213-37.14 44.5-157.16 113.62-217.84 198.06-6.45 27.03 1.54 76.6-15.96 75.96" stroke="url(#g)" stroke-width="4" stroke-linecap="round"/><path d="M1908.12 1694.36c10.86 0 15.78-20.56 15.78-66.95 0-43.62 206.66-177.41 222.95-204.56 16.28-27.15 101.43-230.88 101.43-408.73 0-40.833 14.28-15.655 25.14-27.872 10.86-12.216-31.93-18.877-25.14-24.306 6.79-5.43 303.61-382.537 380.58-463.579" stroke="url(#h)" stroke-width="4" stroke-linecap="round"/><path d="M1962.8 1178.22s9.73 126.33 31.93 213.15c6.33 24.74-.55 51.6-19.08 69.17-72.2 68.49-106.87 130.34-96.32 187.7 11.99 65.2 49.72 61.49 83.47 8.48 33.75-53.02 167.44-153 215.08-184.28 81.35-68.49 113.31-267.26 157.88-458.3l150.19-183.201" stroke="#0C0C0D" stroke-width="4" stroke-linecap="round" stroke-linejoin="round"/><path d="M1264.47 1831.3c15.62-6.14 41.2-34.71 10.41-100.31 33.71 86.56-5.8 86.56-16.55 86.56-10.74 0-23.43-12.4-50.8-22.93-21.9-8.42-138.81-49.83-194.53-69.49 0 0 64.96 28.6 129.17 52.72 64.22 24.12 122.3 53.45 122.3 53.45Z" fill="#0C0C0D" fill-opacity=".4"/><path d="M1275.62 1811.15c-23.28-2.78-60.99-56-77.62-63.21-16.63-7.21-222.876-74.85-234.519-84.27-11.643-9.43-4.434-28.83-13.859-20.52-9.425 8.32-6.656 23.29-21.626 6.1" stroke="url(#i)" stroke-width="4" stroke-linecap="round"/><path d="M1353.13 1853.53c-38.85 0-51.02-40.25-71.14-45.4" stroke="url(#j)" stroke-width="4" stroke-linecap="round"/><path d="M835.239 1439.62c-12.177-32.99 16.866-135.03 9.749-246.49 0 0-19.39 151.34-32.642 201.34-13.252 50 4.846 62.63 39.759 100.61 103.012 112.05 69.397 175.69 63.371 197.38 10.359 14.11 33.681-26.51 25.184-83.82-10.004-67.47-91.513-131.35-105.421-169.02Z" fill="#0C0C0D" fill-opacity=".4"/><path d="M1084.08 1452.13c-.62 3.69-17.22 25.22-8.61 32.6 8.61 7.38 89.69 74.45 111.49 105.34 37.25 23.62 110.28 49.72 176.26 137.19 39.06 51.78 30.77 92.09 0 97.96" stroke="#0C0C0D" stroke-width="4" stroke-linecap="round" stroke-linejoin="round"/><path d="M938.387 1702.86c57.733 16.42 225.163 66.37 307.223 108.88 50.98 26.41 71.51-70.49-16.53-119.64-64.42-35.55-210.03-97.96-233.436-101.86-22.104-29.9-77.846-78.01-101.648-100.11" stroke="#0C0C0D" stroke-width="4" stroke-linecap="round" stroke-linejoin="round"/><path d="M1021.82 1524.13c22.87 22.87 66.36 71.25 77.76 87.82 14.24 20.71 237.25 105.26 261.74 201.58 9.82 52.35-37.14 62.43-51.36 49.79-14.07-12.51-91.29-70.85-395.964-167.96" stroke="#0C0C0D" stroke-width="4" stroke-linecap="round" stroke-linejoin="round"/><path d="M189.281 480.161c49.061 73.489 371.431 476.81 380.789 492.661 7.066 11.967-16.798 10.919-16.798 20.158 0 5.459 22.188-5.443 20.158 14.28-14.655 142.38 66.972 364.71 97.511 423.21 37.138 44.5 157.15 113.62 217.836 198.06 6.447 27.03-1.546 76.6 15.962 75.96" stroke="url(#k)" stroke-width="4" stroke-linecap="round"/><path d="M896.868 1707.36c-10.859 0-15.78-20.56-15.78-66.95 0-43.62-206.657-177.41-222.946-204.56-16.289-27.15-101.433-230.88-101.433-408.73 0-40.832-14.286-15.65-25.145-27.871-10.859-12.217 31.935-18.877 25.145-24.307-6.79-5.43-294.982-391.205-371.947-472.247" stroke="url(#l)" stroke-width="4" stroke-linecap="round"/><path d="M842.189 1190.22s-9.734 126.33-31.936 213.15c-6.328 24.74.55 51.6 19.079 69.17 72.21 68.49 106.871 130.34 96.325 187.7-11.989 65.2-49.718 61.49-83.468 8.48-33.751-53.02-167.445-153-215.08-184.28-81.357-68.49-113.31-267.26-157.884-458.3L337.699 867.287" stroke="#0C0C0D" stroke-width="4" stroke-linecap="round" stroke-linejoin="round"/></g><defs><linearGradient id="d" x1="1519.16" y1="1797.59" x2="1551.41" y2="1416.38" gradientUnits="userSpaceOnUse"><stop offset=".119" stop-color="#FFBD00"/><stop offset="1" stop-color="#01154E"/></linearGradient><linearGradient id="e" x1="1530.97" y1="1643.52" x2="1500.46" y2="1607.46" gradientUnits="userSpaceOnUse"><stop stop-color="#FFBD00"/><stop offset="1" stop-color="#01144B"/></linearGradient><linearGradient id="f" x1="1450.91" y1="1846.68" x2="1520.65" y2="1789.58" gradientUnits="userSpaceOnUse"><stop stop-color="#FFBD00"/><stop offset="1" stop-color="#011856" stop-opacity=".4"/></linearGradient><linearGradient id="g" x1="1969.62" y1="1618.95" x2="2350.81" y2="575.938" gradientUnits="userSpaceOnUse"><stop offset=".182" stop-color="#FFBD00"/><stop offset="1" stop-color="#010E36" stop-opacity=".22"/></linearGradient><linearGradient id="h" x1="2123.63" y1="1586.97" x2="2599.19" y2="532.974" gradientUnits="userSpaceOnUse"><stop offset=".098" stop-color="#FFBD00"/><stop offset=".886" stop-color="#010C30" stop-opacity=".38"/></linearGradient><linearGradient id="i" x1="1285.82" y1="1809.59" x2="1253.57" y2="1428.38" gradientUnits="userSpaceOnUse"><stop offset=".119" stop-color="#FFBD00"/><stop offset="1" stop-color="#01154E"/></linearGradient><linearGradient id="j" x1="1354.06" y1="1858.68" x2="1284.33" y2="1801.58" gradientUnits="userSpaceOnUse"><stop stop-color="#FFBD00"/><stop offset="1" stop-color="#011856" stop-opacity=".4"/></linearGradient><linearGradient id="k" x1="907.316" y1="1724.18" x2="327.21" y2="419.517" gradientUnits="userSpaceOnUse"><stop offset=".182" stop-color="#FFBD00"/><stop offset="1" stop-color="#010D32" stop-opacity=".48"/></linearGradient><linearGradient id="l" x1="683.206" y1="1556.05" x2="256.595" y2="508.912" gradientUnits="userSpaceOnUse"><stop stop-color="#FFBD00"/><stop offset="1" stop-color="#010D32" stop-opacity=".5"/></linearGradient><radialGradient id="b" cx="0" cy="0" r="1" gradientUnits="userSpaceOnUse" gradientTransform="matrix(1040.48854 -1025.59551 761.75904 772.8208 1638.44 1366.78)"><stop offset=".216" stop-color="#FFBD00"/><stop offset=".562" stop-color="#3E5B8D" stop-opacity=".67"/><stop offset=".891"/></radialGradient><radialGradient id="c" cx="0" cy="0" r="1" gradientUnits="userSpaceOnUse" gradientTransform="rotate(-130.217 876.856 366.862) scale(1633.5 1196.53)"><stop offset=".216" stop-color="#FFBD00"/><stop offset=".562" stop-color="#3E5B8D" stop-opacity=".67"/><stop offset=".77"/></radialGradient><clipPath id="a"><path fill="#fff" d="M0 0h2804v1924H0z"/></clipPath></defs></svg>