<svg fill="none" height="48" viewBox="0 0 48 48" width="48" xmlns="http://www.w3.org/2000/svg"><g clip-rule="evenodd" fill="#fff" fill-rule="evenodd"><path d="m3.22705 11.203v24.098l20.77295-11.2035 20.773 11.2035v-24.098l-20.773-11.203z" fill-opacity=".3"/><path d="m24.0002 26.9419-16.82202-9.917 16.82202-9.07205 16.8215 9.07205zm17.5803-9.918v20.1521c0 .0885-.0465.1705-.123.2155l-17.3305 10.2265c-.0077.0045-.0157.0086-.0238.0123-.0327.0149-.0678.0224-.1033.0224-.044 0-.088-.012-.127-.035l-17.33047-10.2265c-.076-.045-.123-.127-.123-.215v-20.161c0-.0287.00496-.0568.01427-.0832.01857-.0529.05473-.0987.10347-.1289.00271-.0017.00547-.0033.00826-.0049.0033-.0019.00663-.0037.00998-.0054l17.32579-9.34395c.0745-.04.1635-.04.2375 0l17.3192 9.34045c.0056.0026.0112.0055.0166.0087.048.0273.0846.0692.1057.1184.0126.0293.0198.0611.0205.094.0001.0045 0 .009-.0002.0135zm-17.3305 10.3606v19.58l16.8305-9.931v-19.5805zm-17.33057 9.6487 16.83047 9.9315v-19.5805l-16.83047-9.931z"/></g></svg>