<svg fill="none" height="48" viewBox="0 0 48 48" width="48" xmlns="http://www.w3.org/2000/svg"><path clip-rule="evenodd" d="m2.5 21v24.5h24z" fill="#fff" fill-opacity=".6" fill-rule="evenodd"/><path clip-rule="evenodd" d="m31.7246 27.4163c-.883-.003-1.4255.805-1.429 1.909l-.0005.049c-.0035 1.079.632 1.915 1.4415 1.9175.834.003 1.4255-.805 1.429-1.8835v-.0495c.0035-1.104-.607-1.94-1.441-1.9425zm-10.9905-7.443.0005-.049c.0035-1.1035-.607-1.9395-1.441-1.9425-.8585-.0025-1.4255.805-1.429 1.9085v.049c-.0035 1.0795.6315 1.9155 1.441 1.9185.834.0025 1.425-.805 1.4285-1.8845zm10.9695 14.017c-2.6495-.0085-4.409-2.0995-4.401-4.601v-.049c.0085-2.5265 1.7565-4.6065 4.455-4.598 2.6735.009 4.4085 2.075 4.4005 4.6015v.049c-.008 2.502-1.8055 4.606-4.4545 4.5975zm-12.9235-1.136-1.7285-1.74 14.8045-14.711 1.7285 1.74zm-3.908-12.9v-.049c.0085-2.526 1.781-4.6055 4.4545-4.597 2.674.0085 4.409 2.0745 4.401 4.601l-.0005.049c-.0075 2.502-1.805 4.581-4.4545 4.5725-2.6245-.008-4.4085-2.074-4.4005-4.5765z" fill="#fff" fill-opacity=".6" fill-rule="evenodd"/><g stroke="#fff" stroke-linecap="round"><path d="m45.292 26.0989-18.6656 18.694-23.6264-23.5861v-18.20519l19.0998.06131z"/><path clip-rule="evenodd" d="m9.30779 12.7656c-1.539-.005-2.7825-1.2565-2.7775-2.79555.005-1.5385 1.2565-2.782 2.7955-2.777 1.53851.005 2.78201 1.256 2.77701 2.795-.0045 1.53905-1.256 2.78255-2.79501 2.77755z" fill-rule="evenodd"/></g></svg>