<svg fill="none" height="48" viewBox="0 0 48 48" width="48" xmlns="http://www.w3.org/2000/svg" xmlns:xlink="http://www.w3.org/1999/xlink"><mask id="a" fill="#fff"><path clip-rule="evenodd" d="m27 35.5h-6v6.418h-5.004c-3.588 0-6.496 2.7232-6.496 6.082h29c0-3.3588-2.908-6.082-6.4955-6.082h-5.0045zm-.5142 7h5.5142c3.1275 0 5.723 2.1589 6 5h-28c.277-2.8411 2.8355-5 5.9634-5h5.5137l.0185-6.5h5.0088z" fill="#fff" fill-rule="evenodd"/></mask><path clip-rule="evenodd" d="m23.75 21.5-7.75-7.5h15.5zm-5.25 6h12v-3h-12zm-10 3h31v-21h-31z" fill="#fff" fill-rule="evenodd"/><path d="m27 35.5h1v-1h-1zm-6 0v-1h-1v1zm0 6.418v1h1v-1zm-11.5 6.082h-1v1h1zm29 0v1h1v-1zm-11.5-6.082h-1v1h1zm-.5142.582-.9999-.0029-.0029 1.0029h1.0028zm11.5142 5v1h1.1022l-.1069-1.097zm-28 0-.99528-.097-.10695 1.097h1.10223zm11.4771-5v1h.9971l.0029-.9971zm.0185-6.5v-1h-.9971l-.0029.9971zm5.0088 0 1 .0029.0028-1.0029h-1.0028zm.4956-1.5h-6v2h6zm-7 1v6.418h2v-6.418zm1 5.418h-5.004v2h5.004zm-5.004 0c-4.0773 0-7.496 3.11-7.496 7.082h2c0-2.7455 2.3973-5.082 5.496-5.082zm-6.496 8.082h29v-2h-29zm30-1c0-3.972-3.4187-7.082-7.4955-7.082v2c3.0982 0 5.4955 2.3364 5.4955 5.082zm-7.4955-7.082h-5.0045v2h5.0045zm-4.0045 1v-6.418h-2v6.418zm-1.5142 1.582h5.5142v-2h-5.5142zm5.5142 0c2.6908 0 4.7849 1.8423 5.0047 4.097l1.9906-.194c-.3342-3.4275-3.4311-5.903-6.9953-5.903zm6 3h-28v2h28zm-27.0047 1.097c.2205-2.262 2.2848-4.097 4.9681-4.097v-2c-3.5726 0-6.62524 2.4827-6.95868 5.903zm4.9681-4.097h5.5137v-2h-5.5137zm6.5137-.9971.0185-6.5-2-.0058-.0185 6.5zm-.9815-5.5029h5.0088v-2h-5.0088zm4.0088-1.0029-.0185 6.5 1.9999.0058.0186-6.5z" fill="#fff" mask="url(#a)"/><path d="m40.3824 4c.0001 0 .0001 0 .0001-.5v.5c2.5785 0 4.6175 1.96248 4.6175 4.32229v22.85541c0 2.3598-2.039 4.3223-4.6175 4.3223h-32.76501c-2.57896 0-4.61749-1.9624-4.61749-4.3223v-22.85541c0-2.35985 2.03853-4.32229 4.61749-4.32229v-.5c0 .5.00004.5.00013.5h.0004.00066.00092.00119.00145.0017.00197.00223.00249.00274.003.00326.00351.00376.00402.00427.00453.00477.00503.00528.00552.00578.00602.00627.00651.00676.007.00725.00749.00773.00797.00821.00846.00869.00893.00917.0094.00964.00988.0101.01035.01057.01081.01104.01127.01149.01173.01196.01218.01241.01263.01286.01308.01331.01353.01375.01398.01419.01441.01463.01485.01507.01528.0155.01571.01593.01614.01635.01656.01678.01698.0172.0174.01761.01782.01802.01823.01844.01864.01884.01904.01925.01944.01965.01985.02004.02024.02044.02064.02083.02102.02122.02141.02161.02179.02199.02218.02236.02256.02274.02293.02311.0233.02349.02366.02385.02404.02421.0244.02457.02476.02493.02511.02528.02547.02563.02582.02598.02616.02633.0265.02668.02684.02701.02718.02734.02752.02768.02784.02801.02817.02834.02849.02866.02882.02898.02913.0293.02945.02961.02976.02992.03008.03025.0304.0305.0307.0308.031.0311.0313.0314.0316.0317.0319.032.0321.0323.0325.0325.0327.0329.033.0331.0333.0334.0335.0337.0338.034.034.0342.0344.0345.0346.0347.0348.035.0351.0352.0354.0355.0356.0357.0359.0359.0361.0362.0363.0365.0366.0366.0368.0369.037.0372.0372.0374.0374.0376.0377.0378.0379.038.0381.0382.0384.0384.0385.0387.0387.0388.039.039.0391.0393.0393.0394.0395.0396.0397.0398.0399.04.0401.0401.0403.0403.0404.0406.0406.0406.0408.0409.0409.041.0411.0412.0412.0414.0414.0415.0415.0417.0417.0418.0418.042.042.0421.0421.0422.0423.0424.0424.0425.0425.0427.0426.0428.0428.0429.0429.043.043.0432.0431.0432.0433.0434.0434.0434.0435.0435.0436.0437.0437.0438.0438.0438.0439.0439.044.0441.044.0441.0442.0442.0442.0443.0443.0444.0444.0444.0445.0445.0446.0445.0446.0447.0446.0447.0448.0447.0448.0448.0449.0448.0449.0449.045.0449.045.045.0451.045.0451.0451.0451.0451.0451.0452.0451.0452.0452.0452.0452.0452.0453.0452.0452.0453.0453.0452.0453.0453.0453.0452.0453.0453.0453.0453.0453.0453.0452.0453.0453.0452.0453.0453.0452.0452.0453.0452.0452.0452.0452.0452.0451.0452.0451.0451.0451.0451.045.0451.045.045.045.0449.0449.045.0448.0449.0448.0448.0448.0448.0447.0447.0446.0447.0446.0445.0445.0445.0445.0444.0444.0443.0444.0442.0443.0441.0442.0441.0441.044.0439.044.0438.0439.0438.0437.0437.0436.0436.0435.0435.0434.0434.0433.0433.0432.0431.0431.0431.0429.0429.0429.0428.0427.0427.0426.0425.0425.0424.0423.0423.0422.0421.042.042.0419.0419.0417.0417.0417.0415.0415.0413.0414.0412.0411.0411.041.0409.0408.0408.0406.0406.0405.0404.0403.0402.0401.0401.0399.0399.0397.0397.0396.0395.0394.0392.0392.0391.039.0389.0388.0387.0386.0385.0384.0383.0382.0381.038.0378.0378.0376.0376.0374.0373.0372.0371.037.0369.0367.0367.0365.0364.0363.0361.0361.0359.0358.0357.0356.0354.0353.0352.0351.0349.0348.0347.0346.0344.0343.0341.0341.0301.0302.0303.0304.0306.0306.0308.0309.031.0311.0312.0314.0314.0316.0316.0318.0319.0319.0321.0322.0323.0324.0325.0326.0327.0328.0329.033.0331.0332.0332.0334.0335.0336.0337.0337.0339.0339.034.0342.0342.0343.0344.0345.0345.0347.0347.0349.0349.035.035.0352.0352.0354.0354.0354.0356.0356.0358.0358.0358.036.036.0361.0361.0363.0363.0364.0364.0365.0366.0367.0367.0368.0369.0369.037.0371.0371.0372.0372.0373.0374.0374.0375.0375.0376.0377.0377.0378.0378.0379.038.038.038.0381.0381.0382.0383.0383.0383.0384.0385.0385.0385.0386.0386.0387.0387.0387.0388.0389.0389.0389.0389.039.039.0391.0391.0392.0391.0392.0393.0393.0393.0393.0394.0394.0394.0395.0394.0396.0395.0396.0395.0397.0396.0397.0396.0398.0397.0397.0398.0398.0398.0398.0398.0399.0399.0399.0399.0399.0399.0399.04.0399.04.04.04.04.04.04.04.04.0401.04.04.0401.04.04.0401.04.04.0401.04.04.0401.04.04.04.04.04.04.04.04.0399.04.0399.04.0399.0399.0399.0399.0398.0399.0398.0398.0398.0398.0397.0398.0397.0397.0396.0397.0396.0396.0396.0395.0395.0395.0395.0394.0394.0394.0394.0393.0393.0392.0392.0392.0392.0391.0391.039.039.039.0389.0389.0389.0388.0387.0388.0386.0387.0386.0385.0385.0385.0384.0384.0383.0383.0382.0381.0381.0381.038.038.0379.0378.0378.0378.0376.0377.0375.0375.0375.0374.0373.0373.0372.0371.0371.037.037.0368.0369.0367.0367.0366.0365.0365.0364.0364.0362.0362.0361.0361.0359.0359.0359.0357.0357.0356.0355.0354.0353.0353.0352.0351.035.035.0348.0348.0347.0346.0345.0344.0343.0343.0341.0341.034.0339.0338.0337.0336.0335.0334.0333.0332.0331.0331.0329.0328.0328.0326.0325.0325.0323.0322.0321.032.0319.0318.0317.0316.0315.0314.0312.0312.031.0309.0309.0307.0305.0305.0304.0302.0301.0301.0299.0297.0297.0295.0294.0293.0292.029.029.0288.0286.0286.0284.0283.0282.028.0279.0278.0277.0275.0274.0273.0271.027.0268.0268.0266.0264.0263.0262.026.0259.0258.0256.0255.0253.0252.0251.0249.0248.0246.0245.0243.0242.024.0239.0237.0236.0234.0233.0231.023.0228.0227.0225.0224.0222.022.0219.0217.0216.0214.0212.0211.021.0207.0206.0205.0202.0201.02.0198.0196.0194.0193.0191.0189.0188.0185.0185.0182.0181.0179.0177.0175.0174.0172.017.0169.0166.0165.0163.0161.016.0157.0156.0154.0152.015.0148.0147.0144.0143.0141.0139.0137.0135.0133.0131.013.0127.0126.0123.0122.0119.0118.0116.0113.0112.011.0107.0106.0104.0101.01.0098.0095.0094.0091.009.0087.0085.0083.0081.0079.0077.0075.0072.0071.0068.0067.0064.0062.0059.0058.0055.0053.0052.0048.0047.0045.0042.004.0038.0035.0033.0031.0029.0027.0024.0022.002.0017.0015.0013.001.0009.0005z" stroke="#fff"/></svg>