<?xml version="1.0" encoding="UTF-8"?>
<!DOCTYPE svg PUBLIC "-//W3C//DTD SVG 1.1//EN" "http://www.w3.org/Graphics/SVG/1.1/DTD/svg11.dtd">
<svg xmlns="http://www.w3.org/2000/svg" version="1.1" width="125px" height="125px" style="shape-rendering:geometricPrecision; text-rendering:geometricPrecision; image-rendering:optimizeQuality; fill-rule:evenodd; clip-rule:evenodd" xmlns:xlink="http://www.w3.org/1999/xlink">
<g><path style="opacity:1" fill="#90a9c0" d="M 50.5,38.5 C 48.5956,38.7376 47.2623,39.7376 46.5,41.5C 39.8549,48.4795 33.1882,55.4795 26.5,62.5C 34.5153,72.1809 43.1819,81.1809 52.5,89.5C 52.8235,96.0221 52.4902,102.355 51.5,108.5C 42.1932,99.5275 32.8599,90.5275 23.5,81.5C 22.8333,78.8333 21.1667,77.1667 18.5,76.5C 13.6571,72.4905 9.32379,67.9905 5.5,63C 11.3252,56.0081 17.6586,49.5081 24.5,43.5C 32.7448,36.7601 40.5782,29.4268 48,21.5C 48.4643,20.9056 48.631,20.2389 48.5,19.5C 49.4006,17.2729 51.0672,16.2729 53.5,16.5C 53.6662,22.8421 53.4995,29.1754 53,35.5C 52.6232,36.9423 51.7899,37.9423 50.5,38.5 Z"/></g>
<g><path style="opacity:1" fill="#90a6bd" d="M 73.5,17.5 C 89.0062,32.1729 104.006,47.3395 118.5,63C 105.487,77.0125 92.1538,90.6792 78.5,104C 76.34,105.332 74.34,106.832 72.5,108.5C 71.5098,102.355 71.1765,96.0221 71.5,89.5C 80.8181,81.1809 89.4847,72.1809 97.5,62.5C 91.1451,55.8129 84.8118,49.1462 78.5,42.5C 76.7607,39.7573 74.4274,37.7573 71.5,36.5C 70.8771,29.7453 71.5437,23.412 73.5,17.5 Z"/></g>
<g><path style="opacity:0.186" fill="#ba9da6" d="M 73.5,17.5 C 71.5437,23.412 70.8771,29.7453 71.5,36.5C 70.5093,30.021 70.176,23.3543 70.5,16.5C 71.791,16.2627 72.791,16.596 73.5,17.5 Z"/></g>
<g><path style="opacity:1" fill="#9db2c7" d="M 48.5,19.5 C 48.631,20.2389 48.4643,20.9056 48,21.5C 40.5782,29.4268 32.7448,36.7601 24.5,43.5C 32.1667,35.1667 40.1667,27.1667 48.5,19.5 Z"/></g>
<g><path style="opacity:0.969" fill="#ad9fad" d="M 71.5,36.5 C 74.4274,37.7573 76.7607,39.7573 78.5,42.5C 75.5726,41.2427 73.2393,39.2427 71.5,36.5 Z"/></g>
<g><path style="opacity:0.255" fill="#b9c8d7" d="M 50.5,38.5 C 49.7377,40.2624 48.4044,41.2624 46.5,41.5C 47.2623,39.7376 48.5956,38.7376 50.5,38.5 Z"/></g>
<g><path style="opacity:1" fill="#8fa7bf" d="M 66.5,43.5 C 67.1667,46.1667 68.8333,47.8333 71.5,48.5C 73.5,52.5 76.5,55.5 80.5,57.5C 81.9599,59.4628 83.6266,61.2962 85.5,63C 77.9578,70.8771 70.1244,78.3771 62,85.5C 53.8756,78.3771 46.0422,70.8771 38.5,63C 40.0375,61.2927 41.7041,59.7927 43.5,58.5C 46.8333,55.8333 49.8333,52.8333 52.5,49.5C 55.5,47.1667 58.1667,44.5 60.5,41.5C 60.7828,40.7109 61.2828,40.0442 62,39.5C 63.6667,40.7332 65.1667,42.0665 66.5,43.5 Z"/></g>
<g><path style="opacity:0.949" fill="#aeb1c0" d="M 66.5,43.5 C 68.5,44.8333 70.1667,46.5 71.5,48.5C 68.8333,47.8333 67.1667,46.1667 66.5,43.5 Z"/></g>
<g><path style="opacity:0.937" fill="#aabccd" d="M 60.5,41.5 C 58.1667,44.5 55.5,47.1667 52.5,49.5C 52.1667,49.5 51.8333,49.5 51.5,49.5C 53.8998,46.0969 56.8998,43.4302 60.5,41.5 Z"/></g>
<g><path style="opacity:0.957" fill="#aba5b4" d="M 71.5,48.5 C 74.8333,51.1667 77.8333,54.1667 80.5,57.5C 76.5,55.5 73.5,52.5 71.5,48.5 Z"/></g>
<g><path style="opacity:0.973" fill="#a7a8b8" d="M 51.5,49.5 C 51.8333,49.5 52.1667,49.5 52.5,49.5C 49.8333,52.8333 46.8333,55.8333 43.5,58.5C 45.4302,54.8998 48.0969,51.8998 51.5,49.5 Z"/></g>
<g><path style="opacity:0.933" fill="#afc0d0" d="M 18.5,76.5 C 21.1667,77.1667 22.8333,78.8333 23.5,81.5C 21.5,80.1667 19.8333,78.5 18.5,76.5 Z"/></g>
<g><path style="opacity:0.146" fill="#b0c0d0" d="M 52.5,89.5 C 53.8181,96.0112 53.8181,102.678 52.5,109.5C 51.8933,109.376 51.56,109.043 51.5,108.5C 52.4902,102.355 52.8235,96.0221 52.5,89.5 Z"/></g>
<g><path style="opacity:0.247" fill="#b09eab" d="M 71.5,89.5 C 71.1765,96.0221 71.5098,102.355 72.5,108.5C 72.44,109.043 72.1067,109.376 71.5,109.5C 70.1819,102.678 70.1819,96.0112 71.5,89.5 Z"/></g>
</svg>
