<svg viewBox="0 0 2803 2048" fill="none" xmlns="http://www.w3.org/2000/svg"><g clip-path="url(#a)"><g filter="url(#b)"><path fill="url(#c)" d="M433.445 785.236h1928.01v1105.32H433.445z"/></g><g filter="url(#d)"><circle cx="1401.18" cy="1322.66" r="354.427" fill="#fff"/></g><g filter="url(#e)"><path fill-rule="evenodd" clip-rule="evenodd" d="M1118.24 1109.46c-234.351-31.9-422.4 91.36-429.654 189.73-7.51 101.85 86.086 164.48 148.875 206.49 39.321 26.31 66.562 44.54 49.326 59.25-36.747 31.37-162.446 11.2-280.668-7.76-105.608-16.95-359.393-136.33-384.33-113.77-71.974 65.12-135.863 449.81 102.48 471.21 141.628 33.54 731.161 13.56 957.731-128.53 226.58-142.09-128.6-239.28-213.72-342.68-34.99-86.52-27.85-234.16 49.96-333.94Zm-23.52 408.05c89.72 73.27 195.49 112.61 168.13 175.54-27.36 62.93-181.16 137.77-425.389 152.4 190.179-34.06 292.499-68.87 346.979-123.23 54.48-54.36 16.1-103.3-12.4-116.4-6.07-4.49-73.53-85.22-77.32-88.31Z" fill="url(#f)"/></g><g filter="url(#g)"><circle cx="1401.16" cy="1322.66" r="377.624" stroke="#fff" stroke-width="6"/></g><path d="M689.03 1068.7c-67.297-52.59-320.64-179.925-396.327-263.515v-301.25c43.216-24.88 179.624 51.01 190.627 108.225 1.914 9.951 12.746 74.62 18.168 107.469h7.654l-17.7-100.941c4.585 7.661 19.107 27.362 40.514 44.877 26.759 21.894 204.341 86.359 251.611 97.306 47.269 10.947 266.133 16.48 354.023 35.994 57.32 12.728 198.93 74.434 289.4 123.208 21.08 3.961 42.73 21.854 69 34.504 26.27 12.65 76.57 44.117 67.8 53.313-33.66-18.357-52.37-24.297-85.38-30.265 22.97 11.182 67.15 17.067 46.87 28.625-12.57 7.16-35.39-8.768-54.16-5.09-30.65 3.17-67.49-6.188-83.6-31.339-58.45-14.79-238.38-57.885-269-61.066-59.13-6.143-73.92-7.132-147.29-7.132 0 0 10.871-18.986 12.913-33.059 2.043-14.072-25.707-58.719-52.998-63.378-34.114-5.825-98.183-25.794-139.785-8.321-41.603 17.473-25.192 76.699-17.451 107.231 4.639 18.297 8.162 30.432 17.188 44.188 6.035 9.198 14.689 17.556 27.193 34.749 40.707 55.967 22.867 146.727 68.656 260.327 31.449 78.03 124.094 191.8 169.454 230.63 3.74.66 14.26 3.69 26.41 10.56 15.18 8.58 25.74 29.04 29.7 39.6 3.96 10.56 20.72 26.82 25.34 32.1 3.7 4.23 5.98 8.63 6.64 13.25l48.35 38.66c6.73 5.44 1.51 17.21-9.1 10.43-215.867-85.02-348.673-225.71-388.676-285.17-58.515-98.52-81.242-233.72-106.044-264.72Z" fill="url(#h)"/><path d="M689.03 1068.7c-67.297-52.59-320.64-179.925-396.327-263.515v-301.25c43.216-24.88 179.624 51.01 190.627 108.225 1.914 9.951 12.746 74.62 18.168 107.469h7.654l-17.7-100.941c4.585 7.661 19.107 27.362 40.514 44.877 26.759 21.894 204.341 86.359 251.611 97.306 47.269 10.947 266.133 16.48 354.023 35.994 57.32 12.728 198.93 74.434 289.4 123.208 21.08 3.961 42.73 21.854 69 34.504 26.27 12.65 76.57 44.117 67.8 53.313-33.66-18.357-52.37-24.297-85.38-30.265 22.97 11.182 67.15 17.067 46.87 28.625-12.57 7.16-35.39-8.768-54.16-5.09-30.65 3.17-67.49-6.188-83.6-31.339-58.45-14.79-238.38-57.885-269-61.066-59.13-6.143-73.92-7.132-147.29-7.132 0 0 10.871-18.986 12.913-33.059 2.043-14.072-25.707-58.719-52.998-63.378-34.114-5.825-98.183-25.794-139.785-8.321-41.603 17.473-25.192 76.699-17.451 107.231 4.639 18.297 8.162 30.432 17.188 44.188 6.035 9.198 14.689 17.556 27.193 34.749 40.707 55.967 22.867 146.727 68.656 260.327 31.449 78.03 124.094 191.8 169.454 230.63 3.74.66 14.26 3.69 26.41 10.56 15.18 8.58 25.74 29.04 29.7 39.6 3.96 10.56 20.72 26.82 25.34 32.1 3.7 4.23 5.98 8.63 6.64 13.25l48.35 38.66c6.73 5.44 1.51 17.21-9.1 10.43-215.867-85.02-348.673-225.71-388.676-285.17-58.515-98.52-81.242-233.72-106.044-264.72Z" fill="url(#i)"/><path d="M689.03 1068.7c-67.297-52.59-320.64-179.925-396.327-263.515v-301.25c43.216-24.88 179.624 51.01 190.627 108.225 1.914 9.951 12.746 74.62 18.168 107.469h7.654l-17.7-100.941c4.585 7.661 19.107 27.362 40.514 44.877 26.759 21.894 204.341 86.359 251.611 97.306 47.269 10.947 266.133 16.48 354.023 35.994 57.32 12.728 198.93 74.434 289.4 123.208 21.08 3.961 42.73 21.854 69 34.504 26.27 12.65 76.57 44.117 67.8 53.313-33.66-18.357-52.37-24.297-85.38-30.265 22.97 11.182 67.15 17.067 46.87 28.625-12.57 7.16-35.39-8.768-54.16-5.09-30.65 3.17-67.49-6.188-83.6-31.339-58.45-14.79-238.38-57.885-269-61.066-59.13-6.143-73.92-7.132-147.29-7.132 0 0 10.871-18.986 12.913-33.059 2.043-14.072-25.707-58.719-52.998-63.378-34.114-5.825-98.183-25.794-139.785-8.321-41.603 17.473-25.192 76.699-17.451 107.231 4.639 18.297 8.162 30.432 17.188 44.188 6.035 9.198 14.689 17.556 27.193 34.749 40.707 55.967 22.867 146.727 68.656 260.327 31.449 78.03 124.094 191.8 169.454 230.63 3.74.66 14.26 3.69 26.41 10.56 15.18 8.58 25.74 29.04 29.7 39.6 3.96 10.56 20.72 26.82 25.34 32.1 3.7 4.23 5.98 8.63 6.64 13.25l48.35 38.66c6.73 5.44 1.51 17.21-9.1 10.43-215.867-85.02-348.673-225.71-388.676-285.17-58.515-98.52-81.242-233.72-106.044-264.72Z" fill="url(#j)"/><path d="M527.126 657.969c27.808 38.367 55.584 49.457 62.367 61.809 10.16 18.5-76.474 95.534-95.304 95.626-18.831.093-62.768-20.528-92.99-14.205" stroke="url(#k)" stroke-width="3" stroke-linecap="round"/><path d="M868.953 1382.82c29.976 38.54 139.987 115.86 139.987 128.27 1.35 1.76-.31 16.05-10.188 9.79-47.505-30.12-106.056-76.93-145.432-118.59-42.496-44.96-64.797-83.64-78.584-108.92 35.376-24.81 60.44 46.02 94.217 89.45Z" fill="url(#l)" fill-opacity=".4"/><path d="M804.319 753.61c-47.537 39.714-61.574 20.533-63.583-15.373" stroke="#6B13DB" stroke-width="3" stroke-linecap="round"/><path d="M982.248 871.055c-2.241 23.105-20.796 43.346-30.765 60.309-.854 11.488-4.832 41.441-9.52 48.203-4.423 9.233-25.302-3.887-25.302-3.887s-57.269 48.36-91.076 22.738m-36.905-51.699c-3.804-7.512-7.257-16.548-9.506-25.398M732.853 743.751c-53.792-16.251-180.677-61.343-206.191-86.3-9.04-8.843-21.123-23.63-36.146-40.104m-7.894-8.505c-14.478-31.473-46.149-69.072-88.112-83.102" stroke="#0C0C0D" stroke-width="3" stroke-linecap="round"/><path d="M912.031 994.603c5.161-2.485 9.071-12.654 4.905-21.315-24.868.825-6.46-8.555-29.911-14.691-10.193-2.667-30.422-36.67-30-56.279.268-12.448-3.614-17.688-8.359-19.151-4.745-1.464-10.988 11.696-19.396 21.812-11.353 13.658-31.309 27.335-28.789 53.618 9.375 8.651 14.345 23.125 25.828 47.573 8.948 19.06 9.676 21.29 12.225 27.3 16.922 12.84 30.134-3.91 36.05-9.11 10.594-9.3 18.093-6.82 18.037-27.896 2.278.934 8.843 3.226 19.41-1.861Z" fill="#6B13DB"/><path d="M938.513 914.829c5.89 9.924 16.22 5.029 20.859-1.353.906-1.247 1.046-2.888.259-4.212-2.802-4.71-10.14-11.225-18.178-15.632-11.709-6.421-24.773-7.434-28.724-2.499-3.952 4.936 19.276 12.733 25.784 23.696Z" fill="#0C0C0D"/><path d="M370.447 867.639c121.265 90.056 210.177 121.929 316.657 199.471 32.641 37.54 45.976 170.63 113.725 271.89 67.749 101.26 221.701 214.39 351.301 266.16" stroke="#0C0C0D" stroke-width="3" stroke-linecap="round"/><path d="M936.479 919.954c1.178 2.12-3.153 6.775-9.672 10.399-6.52 3.623-12.76 4.842-13.938 2.722-1.178-2.12 3.152-6.775 9.672-10.398 6.52-3.623 12.76-4.842 13.938-2.723Z" fill="#0C0C0D"/><path d="M886.168 991.35c-1.217-1.88-4.209-7.934-6.432-17.113" stroke="#0C0C0D" stroke-width="3" stroke-linecap="round"/><path fill-rule="evenodd" clip-rule="evenodd" d="M839.501 877.747c13.984 2.965 49.121-17.127 54.394-38.065 4.859-19.293-1.681-25.556-5.151-28.879-1.502-1.438-2.428-2.326-1.606-3.481 1.646-2.314 10.025 6.434 18.885 15.685 6.284 6.561 12.811 13.375 17.351 16.675 10.94 7.955 22.428 14.622 27.754 11.695 3.866-2.125-6.039-15.831-11.037-22.747-1.887-2.612-3.075-4.255-2.557-3.941l.076.046c2.193 1.327 21.296 12.888 28.346 30.183 4.179 10.253 9.677 13.139 13.114 14.944 2.436 1.279 3.838 2.015 3.003 4.443-3.061 8.906 10.654.834 7.788-29.059-3.703-38.629-24.117-83.771-80.243-100.706-37.204-11.226-71.551-1.065-83.104 5.001 12.708-62.201 2.687-60.836-11.972-58.839-3.475.473-7.21.982-10.965.688-19.82-1.55-16.422-10.489-13.612-17.882 2.346-6.171 4.282-11.264-8.038-10.083-27.079 2.597-39.739 28.36-41.608 46.201-4.179 39.879-7.243 80.925 69.544 47.376-32.452 18.754-82.371 73.655-32.526 167.664 6.711 8.375 11.121-3.062 15.492-14.396a301.065 301.065 0 0 1 2.051-5.221c-20.983-20.922-19.891-74.856 17.535-74.856 23.357 2.848 30.176 29.709 27.086 47.554Zm-26.09-142.233c2.119-13.358 3.401-21.441-7.181-24.697-6.564-2.02-11.528-3.94-15.854-5.614-5.083-1.966-9.285-3.592-14.166-4.637-4.411-.945-2.437.188 2.142 2.815 6.066 3.481 16.703 9.585 23.119 16.955 7.202 8.273 8.249 18.426 8.949 25.213.26 2.525.472 4.584.935 5.907.475-5.97 1.316-11.278 2.056-15.942Z" fill="#6B13DB"/><path d="m814.736 843.237 3.682 38.4" stroke="#0C0C0D" stroke-width="3" stroke-linecap="round"/><path d="m806.736 758.635 25.715-12.398" stroke="url(#m)" stroke-width="3"/><path d="M893.42 823.803c5.657 53.972-41.357 54.615-52.029 53.972M804.942 752.246c-21.56 15.848-65.02 33.654-70.114 8.142-3.557-17.817 2.098-25.5 9.434-57.151" stroke="#6B13DB" stroke-width="3" stroke-linecap="round"/><path d="M497.666 699.772c-8.067-1.953-15.546-.636-20.105 4.328-8.186 8.912-3.86 26.206 9.662 38.626 13.522 12.42 31.12 15.263 39.306 6.351 8.186-8.912 3.86-26.205-9.662-38.625-3.632-3.336-7.558-5.982-11.517-7.894" stroke="#FFBD00" stroke-width="3"/><path d="M497.722 701.6c-4.823-1.05-9.112-.288-11.702 2.533-5.126 5.58-1.66 17.105 7.742 25.74 9.401 8.636 21.178 11.112 26.304 5.531 5.126-5.58 1.66-17.105-7.742-25.74-2.329-2.14-4.804-3.901-7.288-5.255" stroke="#A67DFF" stroke-width="3"/><path d="M782.396 1101.59c-19.385-14.19-5.801-38.5-26.643-73.92-18.518-31.478-38.654-51.076-42.548-64.123-7.019-23.52 23.833-44.297 42.548-28.863 46.034 27.785 68.531 125.526 65.779 150.346-2.751 24.81-26.671 25.69-39.136 16.56Z" stroke="#0C0C0D" stroke-width="3" stroke-linecap="round"/><path d="M1098.75 1570.23c35.04 28.3 80.87 49.6 91.31 51 7.96 1.07 7.65-10.84-2.66-18.39-10.3-7.56-32.9-22.84-44.4-35.34" stroke="#000" stroke-width="3" stroke-linecap="round"/><path d="M509.621 719.455c-23.213-84.588-40.678-264.214-5.596-383.653 9.787-33.319 20.537-54.428 31.151-66.858m-508.149-7.975c181.58 0 165.037-148.849 265.14-214.472C436.788-48.31 527.44 123.766 534.721 260.97m.455 7.974c1.613 26.341 4.099 47.3 8.714 59.799 15.248 41.297 58.799 21.967 53.245-35.962-2.286-23.839-31.56-59.44-61.959-23.837Z" stroke="url(#n)" stroke-width="3" stroke-linecap="round"/><path d="M502.406 718.996c-23.213-84.587-40.677-264.214-5.595-383.652 9.786-33.319 20.537-54.428 31.15-66.858.127-.149.254-.297.381-.443m-508.53-7.532c181.58 0 165.037-148.849 265.14-214.472 144.62-94.808 236.108 84.801 243.39 222.004m0 0c30.262-34.863 59.302.54 61.578 24.28 5.554 57.929-37.997 77.258-53.245 35.961-3.35-9.074-6.041-33.443-7.628-50.258m-.705-9.983v.001" stroke="url(#o)" stroke-width="3" stroke-linecap="round"/><path d="M1126.6 893.979c-44.68-5.361-83.13 2.991-104.86 7.046 23.58 1.669 86.92 7.119 90.37 6.774 3.46-.345 93.82 17.893 138.57 27.056-33.25-12.652-73.93-34.857-124.08-40.876Z" fill="#0C0C0D" fill-opacity=".3"/><path d="M1056.51 1475.27c-10.62 1.68-25.15 2.23-37.45-5.59-12.29-7.83-122.347-102.68-137.33-155.31-6.231-21.89 2.971-45.68 16.173-48.13" stroke="url(#p)" stroke-width="3"/><path d="M1425.67 919.313c-8.74 18.252-78.65-11.603-127.36-30.337-48.71-18.735-111.47-30.911-121.77-44.963-11.05-15.069-1.11-32.351.06-35.628" stroke="url(#q)" stroke-width="3"/><path d="M1386.42 970.22c12.77-25.873-160.99-62.901-189.97-69.045-29.87-6.331-57.07-12.744-59.7 10.077" stroke="url(#r)" stroke-width="3"/><path d="M740.736 907.237c56.547 40.391 86.606 75.682 102.928 144.653 8.035 33.95 10.904 131.55 54.505 214.18 58.266 110.42 143.891 200.21 158.331 209.52 29.45 4.44 41.52 20.36 55.2 47.31 16.64 32.78 26.6 27.59 30.71 42.75 2.92 10.77-2.24 17.75-13.53 9.73-20.74-14.74-36.89-34.74-36.89-34.74" stroke="#0C0C0D" stroke-width="3" stroke-linecap="round"/><path d="M648.176 795.398a3.549 3.549 0 0 1 1.136 4.887l-19.701 31.631a3.547 3.547 0 0 1-4.886 1.136l-31.632-19.701a3.546 3.546 0 0 1-1.135-4.886l19.7-31.632a3.547 3.547 0 0 1 4.886-1.135l31.632 19.7Z" fill="url(#s)"/><path d="M692.395 823.067a3.548 3.548 0 0 1 1.135 4.887l-19.7 31.631a3.548 3.548 0 0 1-4.886 1.136l-31.632-19.701a3.548 3.548 0 0 1-1.136-4.886l19.701-31.632a3.547 3.547 0 0 1 4.886-1.135l31.632 19.7Z" fill="url(#t)"/><path d="M620.608 841.388a3.546 3.546 0 0 1 1.136 4.886l-19.701 31.631a3.546 3.546 0 0 1-4.886 1.136l-31.631-19.701a3.546 3.546 0 0 1-1.136-4.886l19.701-31.631a3.546 3.546 0 0 1 4.886-1.136l31.631 19.701Z" fill="url(#u)"/><path d="M663.547 899.653a3.547 3.547 0 0 1-2.652 4.258l-36.297 8.436a3.547 3.547 0 0 1-4.258-2.652l-8.437-36.297a3.547 3.547 0 0 1 2.652-4.258l36.298-8.437a3.548 3.548 0 0 1 4.258 2.652l8.436 36.298Z" fill="url(#v)"/><path d="M1464.93 972.392c16.46 8.23 58.58 21.787 62.45 23.723 3.88 1.937 2.37 9.265-1.37 10.265-23.35 6.22-31.76-7.16-46.42-6.3-14.66.85-30.35 3.99-56.16-3.965-16.03-4.935-27.46-17.023-36.33-26.433-68.2-20.484-232.16-55.5-265.89-60.713-44-6.8-106.59-8.92-149.474-7.122M839.628 878.216c.55-3.046.824-6.23.788-9.504-.237-21.614-13.917-38.988-30.554-38.805-16.638.182-29.933 17.852-29.696 39.466.108 9.856 3.011 18.831 7.716 25.661l6.38 9.991" stroke="#0C0C0D" stroke-width="3" stroke-linecap="round"/><path d="M979.183 852.469c4.433 17.037 11.592 54.646 4.771 68.788-5.406 11.207-10.489 12.446-15.552 12.932" stroke="#6B13DB" stroke-width="3" stroke-linecap="round"/><path d="M825.993 745.777c1.9-9.046 17.7-48.884 4.507-58.147-10.204-7.165-29.803 4.202-37.764 2.573" stroke="#6B13DB" stroke-width="3"/><g filter="url(#w)"><path d="M2442.45 718.008c-409.1-71.658-771.64 137.646-771.64 375.132 197.92 234.77-24.46 531.36-296.06 506.58 34.26 8.13 67.44 14.92 99.52 20.46 22.04 3.8 44.35 5.57 66.7 4.86 74.96-2.36 198.03-15.18 293.45-74.55 221.37-137.73 63.89-391.11 63.89-391.11.9.37 1.8.75 2.7 1.13 26.34 11.38 50.67 27.99 76.09 41.3 302.01 158.15-60.08 355.99-271.73 397.91 452.19-42.31 612.68-302.7 384-440.34-124.49-74.93 31.28-174.497 307.28-116.05 125.49 0 145.83-243.747 45.8-325.322Z" fill="url(#x)"/></g></g><defs><linearGradient id="k" x1="573.775" y1="777.572" x2="485.508" y2="703.377" gradientUnits="userSpaceOnUse"><stop stop-color="#FFBD00"/><stop offset=".792" stop-color="#7F52FF"/></linearGradient><linearGradient id="l" x1="808.256" y1="1463.41" x2="922.77" y2="1354.07" gradientUnits="userSpaceOnUse"><stop offset=".439" stop-color="#7F328B"/><stop offset=".959" stop-color="#FF6C8C"/></linearGradient><linearGradient id="m" x1="831.5" y1="761.048" x2="806.786" y2="753.591" gradientUnits="userSpaceOnUse"><stop stop-color="#8B4EAF"/><stop offset=".484" stop-color="#FFB07E"/></linearGradient><linearGradient id="n" x1="49.524" y1="274.676" x2="515.525" y2="596.056" gradientUnits="userSpaceOnUse"><stop offset=".038"/><stop offset=".428" stop-color="#A67DFF"/><stop offset="1" stop-color="#FFBD00"/></linearGradient><linearGradient id="o" x1="42.353" y1="274.241" x2="508.353" y2="595.621" gradientUnits="userSpaceOnUse"><stop offset=".038"/><stop offset=".428" stop-color="#A67DFF"/><stop offset="1" stop-color="#FFBD00"/></linearGradient><linearGradient id="p" x1="851.183" y1="1246.6" x2="1026.74" y2="1492.53" gradientUnits="userSpaceOnUse"><stop stop-color="#FF8C7C"/><stop offset="1" stop-color="#A156A0"/></linearGradient><linearGradient id="r" x1="1377.83" y1="984.819" x2="1165.43" y2="881.663" gradientUnits="userSpaceOnUse"><stop stop-color="#8B4EAF"/><stop offset=".484" stop-color="#FFB07E"/></linearGradient><linearGradient id="s" x1="614.438" y1="901.69" x2="685.594" y2="783.096" gradientUnits="userSpaceOnUse"><stop stop-color="#A462AE"/><stop offset="1" stop-color="#A462AE" stop-opacity="0"/></linearGradient><linearGradient id="t" x1="614.438" y1="901.69" x2="685.594" y2="783.096" gradientUnits="userSpaceOnUse"><stop stop-color="#A462AE"/><stop offset="1" stop-color="#A462AE" stop-opacity="0"/></linearGradient><linearGradient id="u" x1="614.438" y1="901.69" x2="685.594" y2="783.096" gradientUnits="userSpaceOnUse"><stop stop-color="#A462AE"/><stop offset="1" stop-color="#A462AE" stop-opacity="0"/></linearGradient><linearGradient id="v" x1="614.438" y1="901.69" x2="685.594" y2="783.096" gradientUnits="userSpaceOnUse"><stop stop-color="#A462AE"/><stop offset="1" stop-color="#A462AE" stop-opacity="0"/></linearGradient><radialGradient id="c" cx="0" cy="0" r="1" gradientUnits="userSpaceOnUse" gradientTransform="rotate(33.283 -1005.965 1248.619) scale(1960.96 777.625)"><stop offset=".536" stop-color="#A67DFF"/><stop offset=".979" stop-color="#A67DFF" stop-opacity="0"/></radialGradient><radialGradient id="f" cx="0" cy="0" r="1" gradientUnits="userSpaceOnUse" gradientTransform="rotate(-21.596 4563.55 -6.932) scale(941.226 1246.62)"><stop offset=".195" stop-color="#7F52FF" stop-opacity="0"/><stop offset=".605" stop-color="#7F52FF" stop-opacity=".49"/><stop offset="1" stop-color="#51CCFF" stop-opacity=".22"/></radialGradient><radialGradient id="h" cx="0" cy="0" r="1" gradientUnits="userSpaceOnUse" gradientTransform="matrix(-640.24834 -542.52837 335.30323 -395.6979 1025.87 1095.04)"><stop offset=".182" stop-color="#FFBD00"/><stop offset=".51" stop-color="#FAA"/><stop offset=".872" stop-color="#360BB2"/><stop offset="1" stop-color="#0C0C0D" stop-opacity="0"/></radialGradient><radialGradient id="i" cx="0" cy="0" r="1" gradientUnits="userSpaceOnUse" gradientTransform="matrix(-65.49994 50.50005 -57.83632 -75.01529 1133 1487)"><stop stop-color="#fff"/><stop offset="1" stop-color="#fff" stop-opacity="0"/></radialGradient><radialGradient id="j" cx="0" cy="0" r="1" gradientUnits="userSpaceOnUse" gradientTransform="matrix(-3 -128.49999 147.1679 -3.43582 1446.5 1051.5)"><stop stop-color="#fff"/><stop offset="1" stop-color="#fff" stop-opacity="0"/></radialGradient><radialGradient id="q" cx="0" cy="0" r="1" gradientUnits="userSpaceOnUse" gradientTransform="rotate(28.282 -1024.783 2745.991) scale(272.4 60.8)"><stop stop-color="#6B51A3"/><stop offset=".484" stop-color="#FFB07E"/><stop offset=".942" stop-color="#9C75EE"/></radialGradient><radialGradient id="x" cx="0" cy="0" r="1" gradientUnits="userSpaceOnUse" gradientTransform="rotate(-12.574 6662.515 -6803.682) scale(891.754 598.548)"><stop offset=".192" stop-color="#A67DFF"/><stop offset=".729" stop-color="#51CCFF" stop-opacity=".22"/><stop offset=".992" stop-opacity="0"/></radialGradient><filter id="b" x="261.445" y="613.236" width="2272.01" height="1449.32" filterUnits="userSpaceOnUse" color-interpolation-filters="sRGB"><feFlood flood-opacity="0" result="BackgroundImageFix"/><feBlend mode="normal" in="SourceGraphic" in2="BackgroundImageFix" result="shape"/><feGaussianBlur stdDeviation="86" result="effect1_foregroundBlur_3159_21333"/></filter><filter id="d" x="1024.75" y="946.237" width="752.855" height="752.855" filterUnits="userSpaceOnUse" color-interpolation-filters="sRGB"><feFlood flood-opacity="0" result="BackgroundImageFix"/><feColorMatrix in="SourceAlpha" type="matrix" values="0 0 0 0 0 0 0 0 0 0 0 0 0 0 0 0 0 0 127 0" result="hardAlpha"/><feOffset/><feGaussianBlur stdDeviation="11"/><feColorMatrix type="matrix" values="0 0 0 0 1 0 0 0 0 1 0 0 0 0 1 0 0 0 1 0"/><feBlend mode="normal" in2="BackgroundImageFix" result="effect1_dropShadow_3159_21333"/><feBlend mode="normal" in="SourceGraphic" in2="effect1_dropShadow_3159_21333" result="shape"/></filter><filter id="e" x="126.201" y="1074.33" width="1260.21" height="884.401" filterUnits="userSpaceOnUse" color-interpolation-filters="sRGB"><feFlood flood-opacity="0" result="BackgroundImageFix"/><feBlend mode="normal" in="SourceGraphic" in2="BackgroundImageFix" result="shape"/><feGaussianBlur stdDeviation="15" result="effect1_foregroundBlur_3159_21333"/></filter><filter id="g" x="998.541" y="920.041" width="805.248" height="805.247" filterUnits="userSpaceOnUse" color-interpolation-filters="sRGB"><feFlood flood-opacity="0" result="BackgroundImageFix"/><feColorMatrix in="SourceAlpha" type="matrix" values="0 0 0 0 0 0 0 0 0 0 0 0 0 0 0 0 0 0 127 0" result="hardAlpha"/><feOffset/><feGaussianBlur stdDeviation="11"/><feColorMatrix type="matrix" values="0 0 0 0 1 0 0 0 0 1 0 0 0 0 1 0 0 0 1 0"/><feBlend mode="normal" in2="BackgroundImageFix" result="effect1_dropShadow_3159_21333"/><feBlend mode="normal" in="SourceGraphic" in2="effect1_dropShadow_3159_21333" result="shape"/></filter><filter id="w" x="1334.75" y="663.726" width="1211.19" height="1001.47" filterUnits="userSpaceOnUse" color-interpolation-filters="sRGB"><feFlood flood-opacity="0" result="BackgroundImageFix"/><feBlend mode="normal" in="SourceGraphic" in2="BackgroundImageFix" result="shape"/><feGaussianBlur stdDeviation="20" result="effect1_foregroundBlur_3159_21333"/></filter><clipPath id="a"><path fill="#fff" d="M0 0h2803v2048H0z"/></clipPath></defs></svg>