<svg viewBox="0 0 65 80" fill="none" xmlns="http://www.w3.org/2000/svg"><circle cx="34.363" cy="43.824" r="12.506" transform="rotate(131.058 34.363 43.824)" stroke="#21D789"/><g filter="url(#a)"><circle cx="34.363" cy="43.824" r="12.506" transform="rotate(131.058 34.363 43.824)" fill="#21D789" fill-opacity=".6"/></g><circle cx="34.938" cy="43.017" r="12.506" transform="rotate(131.058 34.938 43.017)" stroke="#21D789" stroke-width=".3" stroke-linecap="round" stroke-dasharray=".1 15"/><path d="M27.565 54.633c-5.208-4.537-8.797-7.31-6.604-13.87 2.193-6.558 15.036-12.363 20.244-7.826s8.541 15.272 4.004 20.48c-4.536 5.208-12.436 5.752-17.644 1.216Z" stroke="#ADF03E" stroke-width=".3" stroke-linecap="round" stroke-dasharray=".1 9"/><circle cx="33.069" cy="43.214" r="13.341" transform="rotate(131.058 33.069 43.214)" stroke="#21D789" stroke-width=".2"/><circle cx="33.93" cy="42.002" r="13.341" transform="rotate(131.058 33.93 42.002)" stroke="#21D789" stroke-width=".2" stroke-linejoin="round" stroke-dasharray=".2 10"/><circle cx="33.1" cy="44.75" r="12.506" transform="rotate(131.058 33.1 44.75)" stroke="#21D789" stroke-width=".3"/><circle cx="55.103" cy="3.543" r="1.753" transform="rotate(131.058 55.103 3.543)" stroke="#21D789" stroke-width=".2"/><circle cx="12.971" cy="68.287" r="2.631" transform="rotate(131.058 12.971 68.287)" stroke="#21D789" stroke-width=".2"/><circle cx="47.868" cy="18.501" r=".879" transform="rotate(131.058 47.868 18.501)" stroke="#21D789" stroke-width=".2"/><defs><filter id="a" x="1.857" y="11.318" width="65.012" height="65.013" filterUnits="userSpaceOnUse" color-interpolation-filters="sRGB"><feFlood flood-opacity="0" result="BackgroundImageFix"/><feBlend mode="normal" in="SourceGraphic" in2="BackgroundImageFix" result="shape"/><feGaussianBlur stdDeviation="10" result="effect1_foregroundBlur_3289_10933"/></filter></defs></svg>