<svg viewBox="0 0 521 744" fill="none" xmlns="http://www.w3.org/2000/svg"><path d="M201.663 258.403c19.918-.91 37.25-.202 51.864 1.355-77.781 36.606-100.888 190.22-104.567 261.348H50c4.053-127.331 50.525-258.084 151.663-262.703Z" fill="url(#a)"/><path d="M258.8 260.417c.028-.011.056-.023.083-.036 33.062 4.173 50.724 12.591 51.231 14.999l.365 4.661-2.686 10.492 11.305 13.477c-12.987-7.137-8.67 16.446-7.384 21.678-50.923 52.562-86.31 125.774-100.608 196.769l-58.093-1.351c4.707-76.669 28.371-226.629 105.787-260.689Z" fill="url(#b)"/><path d="M203.338 594.735h68.004s21.698-105.652 31.35-141.087c7.58-27.832 9.798-34.512 6.737-50.233 0-10.193 1.3-22.525 3.061-30.505 6.608-17.412 5.025-22.777-.024-44.106-67.996 71.25-98.996 169.335-109.128 265.931Z" fill="url(#c)"/><circle cx="306.728" cy="297.345" r="17.047" transform="rotate(-174.305 306.728 297.345)" stroke="#21D789" stroke-width=".675"/><g filter="url(#d)"><circle cx="306.728" cy="297.345" r="17.047" transform="rotate(-174.305 306.728 297.345)" fill="#21D789" fill-opacity=".6"/></g><circle cx="307.728" cy="297.345" r="17.047" transform="rotate(-174.305 307.728 297.345)" stroke="#21D789" stroke-width=".203" stroke-linecap="round" stroke-dasharray=".07 10.13"/><path d="M289.349 298.612c.934-9.369 1.186-15.547 10.207-18.283 9.021-2.737 25.606 6.96 24.672 16.329-.934 9.368-10.239 21.543-19.607 20.609-9.369-.934-16.206-9.287-15.272-18.655Z" stroke="#ADF03E" stroke-width=".203" stroke-linecap="round" stroke-dasharray=".07 6.08"/><circle cx="305.709" cy="295.1" r="18.185" transform="rotate(-174.305 305.709 295.1)" stroke="#21D789" stroke-width=".135"/><circle cx="307.709" cy="295.1" r="18.185" transform="rotate(-174.305 307.709 295.1)" stroke="#21D789" stroke-width=".135" stroke-linejoin="round" stroke-dasharray=".14 6.75"/><circle cx="304.728" cy="296.345" r="17.047" transform="rotate(-174.305 304.728 296.345)" stroke="#21D789" stroke-width=".203"/><path d="M268.287 683.833c-4.675-10.388-14.947-29.249-5.282-83.308 13.827-62.515 49.699-170.787 48.213-189.78-1.858-23.741-2.872-28.215 6.182-53.926-5.58-33.784-8.21-44.356-5.58-51.537 1.129-3.084 4.551-4.313 6.225-3.458-1.875-1.995-3.74-3.373-7.629-8.99-4.459-6.441-1.555-12.131 1.404-13.026-1.514-2.133-5.45-5.959 0-9.593 5.45-3.633 16.791 1.679 20.644 5.464-.275-.757.661-1.816 6.606 0 5.946 1.817 24.934 22.07 33.685 31.969 11.498 4.878 56.763 37.494 76.857 88.14 21.335 53.772-10.23 191.532-46.077 262.276-13.417 22.888-52.241 82.795-88.221 80.314-34.934-2.409-40.102-39.159-47.027-54.545Z" fill="url(#e)"/><path d="M285.584 255.054c-24.751-11.977-29.967-30.282-32.489-70.342V147.49L243 80.303C285.689 56.96 373.464 18.225 383.053 50.02c13.085 13.512 31.544 78.228 41.323 97.469l-32.806 82.014c-17.348 13.879-64.95 45.406-105.986 25.55Z" fill="url(#f)"/><path d="M310.466 306c4.251 24.366 11.12 44.808 11.938 51.186.817 6.378-4.58 4.579-2.29 6.705 2.29 2.126 5.232 2.453 3.761 3.597-1.471 1.145-3.761-1.308-3.761 2.29s-3.762 17.334 0 34.669c3.009 13.867 1.253 24.36 0 27.872L276 584.275" stroke="url(#g)" stroke-width="1.351"/><path d="M318.832 578.957c-.312-43.227 19.301-137.708 21.23-151.282 3.841-27.032 25.356-34.191 32.506-34.191 7.15 0 14.298 2.844 14.298 14.685-.082 27.198 1.185 90.909-.082 138.85-1.267 47.94-5.225 48.96-4.437 63.357.002 9.926-63.192 13.439-63.515-31.419Z" fill="url(#h)" fill-opacity=".8"/><path d="M397.342 667.556c-7.034 7.303-37.11 48.812-78.872 46.16C276.707 711.065 258.469 640 258.469 640c-2.314 8.176 3.95 44.271 18.39 68.708 18.049 30.545 33.785 33.785 62.479 23.603 33.968-12.053 55.591-60.806 58.004-64.755Z" fill="url(#i)"/><path d="M453.383 414.78c-3.709-21.015-24.65-23.074-24.653 16.72-.007 77.237-8.39 106.563.002 118.114 5.255 7.232 10.925 4.17 12.813-4.138" stroke="#02196B" stroke-width="2.702" stroke-linecap="round" stroke-linejoin="round"/><path d="M338.645 357.416c-3.229-17.222-9.546-34.937-15.93-48.389-2.774-5.844-9.566-10.436-12.2-3.645-1.94 5.001 0 11.725 6.781 46.482 1.545 7.92-11.661 29.407-6.778 58.261 4.883 28.853-66.347 198.923-50.104 255.591 17.941 62.588 37.128 85.933 81.166 65.29" stroke="#0C0C0D" stroke-width="2.702" stroke-linecap="round" stroke-linejoin="round"/><path d="M253.232 187.818c-4.893-18.325-7.232-50.544-7.232-61.995l9.585-3.823-2.353 65.818Z" fill="#0C0C0D" stroke="#0C0C0D" stroke-width="2.702" stroke-linecap="round" stroke-linejoin="round"/><path d="M235.992 107.535c-9.604-.98-12.543-13.329-3.92-18.817L267.749 65l8.036 5.684c-2.679.523-8.899 3.725-12.349 12.35-4.312 10.78-6.272 29.598-8.624 42.731-2.353 13.133-26.269 22.934-28.621 10.781-2.352-12.153 17.838-2.549 14.701-13.721-2.178-7.761 2.283-13.621 5.763-16.398-1.826.877-5.228 1.663-10.663 1.108Z" fill="#00197D"/><path d="M268.774 75.089c-12.094 12.766-15.015 46.837-15.014 74.739.001 27.902-8.535 97.603 39.169 108.354 43.738 9.856 78.625-12.465 97.938-29.63" stroke="#0C0C0D" stroke-width="2.702" stroke-miterlimit="10" stroke-linecap="round"/><path d="M312.64 221.237c-4.109.171-25.741-9.221-35.64-13.237l.55 1.412a12.233 12.233 0 0 0 7.073 6.989c5.138 1.946 11.59 4.427 14.802 5.786 5.562 2.353 21.501.309 19.878-2.044-1.822-2.642-1.528.88-6.663 1.094ZM385 593c1.868 9.13 5.146 20.307 5.146 41.313" stroke="#0C0C0D" stroke-width="2.702" stroke-linecap="round" stroke-linejoin="round"/><path d="M281.346 146.3c-.317 7.176-2.911 14.064-5.912 13.932-3.001-.133-5.273-7.236-4.956-14.412.317-7.175 3.103-11.706 6.104-11.573 3.001.132 5.081 4.878 4.764 12.053ZM350.311 165.083c-.338 7.65-2.952 15.002-5.953 14.869-3.001-.133-5.253-7.699-4.915-15.349.338-7.651 3.138-12.489 6.139-12.356 3.001.132 5.067 5.185 4.729 12.836ZM330.213 137.232c-7.799-4.474-7.438-11.461-3.398-16.529 4.04-5.067 26.173-3.274 38.62 7.622 7.611 6.663 14.453 24.091 10.633 23.416-4.57-.809-13.813-8.99-20.81-11.106-6.997-2.115-12.421-3.403-25.045-3.403ZM284.855 127.046c8.842-.639 11.218-6.789 9.497-12.802-1.722-6.013-21.773-13.526-37.339-9.282-.975 4.227-1.499 14.543-1.499 14.543 1.859-.085 3.628-.057 5.19.172 7.198 1.058 12.642 2.182 24.151 7.369Z" fill="#0C0C0D"/><path d="M468.176 160.751c5.528-21.529-13.183-28.241-23.015-14.857-13.098 17.829-30.958 70.57-19.482 69.21" stroke="#0CB0F2" stroke-width="2.702" stroke-linecap="round"/><path d="M467.117 164.345c6.82-21.849-8.659-27.46-18.293-14.346-12.834 17.469-26.197 64.101-18.617 62.207M432 204.461l3.913-8.461M439 204.723l5.155-8.723" stroke="#0CB0F2" stroke-width="2.702" stroke-linecap="round"/><path d="M380.278 348.557c-3.989-20.938-8.059-40.97-15.288-49.185-17.902-20.347-27.519-25.999-33.99-23.992" stroke="#0C0C0D" stroke-width="2.702" stroke-linecap="round"/><path d="M371.27 342.013c-2.486-17.404-11.314-34.372-14.454-41.435-3.14-7.063-26.498-26.981-37.087-30.772-10.59-3.79-11.413 6.842-7.77 9.946" stroke="#0C0C0D" stroke-width="2.702" stroke-linecap="round" stroke-linejoin="round"/><path d="M308 287c2.857 6.855 16.759 13.901 19.996 20.757 3.237 6.855 9.711 30.658 9.711 46.274" stroke="url(#j)" stroke-width="1.351"/><path d="M358.541 345.121c-3.418-16.472-10.333-32.263-13.82-38.645-4.403-8.061-20.085-22.164-28.829-25.911-7.293-3.127-10.633 7.487-5.212 13.336 7.871 8.493 9.481 10.697 9.481 10.697" stroke="#0C0C0D" stroke-width="2.702" stroke-linecap="round" stroke-linejoin="round"/><path d="M327 31.48c7.48-6.648 23.226-19.3 25.757-20.142 6.049-2.015 36.969 5.525 40.902 8.298 3.036 2.141-2.703 7.26-14.203 23.654" stroke="#51CCFF" stroke-width="2.702" stroke-linecap="round" stroke-linejoin="round"/><path d="M295.346 157 286 190.792" stroke="#0C0C0D" stroke-width="2.702" stroke-linecap="round"/><path d="M355.765 22.885c.517.123 1.07.154 1.62.09l-3.064 3.265a.156.156 0 0 0-.05.074.118.118 0 0 0 .005.08.147.147 0 0 0 .058.066.228.228 0 0 0 .096.032l5.018 1.232a3.557 3.557 0 0 0-1.235.81c-.805.86-.539 1.78.59 2.058 1.129.279 2.702-.193 3.508-1.051.291-.293.454-.643.463-.999l5.02 1.233a.533.533 0 0 0 .245-.005.467.467 0 0 0 .207-.11l3.015-3.212a2.52 2.52 0 0 0 1.061.509c1.312.327 2.94-.016 3.636-.755.697-.74.194-1.601-1.12-1.924a4.423 4.423 0 0 0-.956-.12c-.223-.004-.338-.136-.217-.263l2.785-2.967a.155.155 0 0 0 .05-.074.118.118 0 0 0-.005-.08.147.147 0 0 0-.058-.066.227.227 0 0 0-.096-.032l-5.043-1.24c.001.366-.162.729-.462 1.03-.806.86-2.376 1.334-3.508 1.05-1.132-.284-1.396-1.199-.59-2.057a3.547 3.547 0 0 1 1.28-.828l-5.043-1.238a.533.533 0 0 0-.245.005.462.462 0 0 0-.207.11l-3.093 3.294c-.288-.282-.688-.488-1.146-.59-1.314-.328-2.94.015-3.637.754-.696.74-.193 1.597 1.118 1.92Z" fill="#51CCFF"/><path d="m360.81 445.856-1.471 26.22M352 500c7.132.541 29.48 2.611 36.045 3.277M382.848 472.841l.001-25.033c0-5.969-4.839-10.808-10.808-10.808H371" stroke="#164DA6" stroke-width="1.351" stroke-linecap="round"/><path d="M380.674 611.362c-34.88 7.372-56.949-8.551-58.747-32.38-1.798-23.83 18.184-143.553 19.767-153.662 1.81-11.558 3.287-15.005 7.329-21.326" stroke="url(#k)" stroke-width="1.351" stroke-linecap="round"/><circle cx="381.854" cy="484.184" r="6.528" transform="rotate(-2.94 381.854 484.184)" fill="#164DA6"/><path d="M373 655.588c20.765-75.144 14.365-169.154 14.365-235.074 0-31.865 2.182-82.098-14.365-105.514" stroke="#0C0C0D" stroke-width="2.702" stroke-linecap="round"/><circle cx="360.854" cy="437.184" r="6.528" transform="rotate(-2.94 360.854 437.184)" fill="#164DA6"/><circle cx="358.854" cy="482.184" r="6.528" transform="rotate(-2.94 358.854 482.184)" fill="#164DA6"/><path d="M419.68 113.7c5.803 32.982-13.013 89.977-29.231 115.926 20.959 0 51.619-23.762 66.363-46.652 14.744-22.889 35.3-70.604 10.308-123.086C434.888-7.8 339.282-5.082 308.148 12.95c-14.767 8.554-38.54 28.606-33.445 28.606 24.651-14.92 129.328-16.786 144.977 72.143Z" stroke="#0CB0F2" stroke-width="2.702" stroke-linejoin="round"/><path d="M375.564 53.053c2.949 2.065 2.706 7.992 2.216 10.697 3.43-1.322 10.683-2.831 12.254 1.707 1.963 5.672-5.673 6.444-14.47 25.09s2.216 28.799 7.27 29.889c5.055 1.091 7.2-1.09 8.291-7.636 2.836 11.782 24.089 12.247 25.235 21.133 1.147 8.886-22.262 16.721-18.822 27.517 2.751 8.638 11.402 2.58 15.383-1.528-.956 2.325-2.064 7.567 1.146 9.936 3.211 2.37 5.824-.336 6.73-1.984l2.886-10.851c9.588-6.445 25.841-24.144 14.146-43.384-14.618-24.05-4.715-2.829-33.009-49.89-28.294-47.06-99.972-35.463-107.984-36.878-8.012-1.415-45.121-12.202-55.649 3.773-12.727 19.309 15.954 23.132 5.079 27.482-10.875 4.35-21.025-7.25-27.913 1.45-5.509 6.96 7.13 11.116 14.138 12.325-6.524 2.356-21.961 13.05-9.966 19.755 11.112 6.213 34.132-8.941 46.395-19.755-.241 1.71.834 5.516 7.069 7.068 6.235 1.553 16.496-1.77 20.847-3.625 1.565 3.625 5.929 8.44 26.821 7.069 9.551-.626 21.75-5.86 26.643-8.881-1.691 2.779-4.06 8.953 0 11.418 5.075 3.082 12.725-.175 18.996-7.921 6.271-7.746 2.582-26.558 6.268-23.976Z" fill="#001156"/><g filter="url(#l)"><path d="M208.479 316.739c0 8.141-6.599 14.74-14.74 14.74-8.14 0-14.739-6.599-14.739-14.74 0-8.14 6.599-14.739 14.739-14.739 8.141 0 14.74 6.599 14.74 14.739Z" fill="#17E6E8" fill-opacity=".6"/><path d="M208.479 316.739c0 8.141-6.599 14.74-14.74 14.74-8.14 0-14.739-6.599-14.739-14.74 0-8.14 6.599-14.739 14.739-14.739 8.141 0 14.74 6.599 14.74 14.739Z" stroke="#17E6E8" stroke-width=".675"/></g><circle cx="193.739" cy="316.739" r="14.739" stroke="#21D789" stroke-width=".675"/><circle cx="193.739" cy="317.739" r="14.739" stroke="#21D789" stroke-width=".068"/><circle cx="192.739" cy="316.739" r="14.739" stroke="#fff" stroke-width=".203" stroke-linecap="round" stroke-dasharray=".07 10.13"/><path d="M208.84 314.739c0 8.141.313 13.478-7.213 16.606-7.526 3.129-22.627-3.792-22.627-11.932S185.96 300 194.101 300c8.14 0 14.739 6.599 14.739 14.739Z" stroke="#ADF03E" stroke-width=".203" stroke-linecap="round" stroke-dasharray=".07 6.08"/><circle cx="192.723" cy="316.723" r="15.723" stroke="#21D789" stroke-width=".135"/><circle cx="195.739" cy="317.739" r="14.739" stroke="#21D789" stroke-width=".203"/><circle cx="176.796" cy="239.871" r="14.739" transform="rotate(-174.305 176.796 239.871)" stroke="#21D789" stroke-width=".675"/><circle cx="177.796" cy="240.871" r="14.739" transform="rotate(-174.305 177.796 240.871)" stroke="#21D789" stroke-width=".203" stroke-linecap="round" stroke-dasharray=".07 10.13"/><path d="M161.77 241.372c.808-8.1 1.026-13.441 8.825-15.808 7.8-2.366 22.139 6.019 21.331 14.119-.807 8.1-8.852 18.626-16.952 17.819-8.1-.808-14.012-8.03-13.204-16.13Z" stroke="#ADF03E" stroke-width=".203" stroke-linecap="round" stroke-dasharray=".07 6.08"/><circle cx="177.915" cy="240.795" r="15.723" transform="rotate(-174.305 177.915 240.795)" stroke="#21D789" stroke-width=".135"/><g filter="url(#m)" transform="rotate(180 176.159 240.159)"><circle cx="176.159" cy="240.159" r="12.841" fill="#51CCFF" fill-opacity=".6"/><circle cx="176.159" cy="240.159" r="12.841" stroke="#51CCFF" stroke-width=".135"/></g><circle cx="175.796" cy="239.871" r="14.739" transform="rotate(-174.305 175.796 239.871)" stroke="#21D789" stroke-width=".203"/><path d="M182.273 326.344a.439.439 0 1 0-.546-.688l.546.688Zm-.546-.688c-1.679 1.331-3.963 2.251-6.788 2.984-2.823.732-6.143 1.268-9.876 1.856-7.452 1.172-16.493 2.541-26.214 6.092l.302.824c9.629-3.517 18.589-4.875 26.049-6.049 3.723-.586 7.087-1.128 9.96-1.873 2.87-.745 5.292-1.703 7.113-3.146l-.546-.688Z" fill="#21D789"/><path d="M183.278 327.34a.44.44 0 0 0-.556-.68l.556.68Zm-.556-.68c-1.702 1.391-4.035 2.36-6.928 3.144-2.892.783-6.299 1.37-10.128 2.023-7.645 1.304-16.914 2.861-26.827 6.764l.322.818c9.818-3.867 19.003-5.412 26.653-6.716 3.818-.652 7.269-1.246 10.209-2.042 2.938-.796 5.412-1.804 7.255-3.311l-.556-.68Z" fill="#21D789"/><circle cx="153.133" cy="265.277" r="4.316" transform="rotate(-174.305 153.133 265.277)" stroke="#21D789" stroke-width=".135"/><circle cx="200.174" cy="287.769" r="2.038" transform="rotate(-174.305 200.174 287.769)" stroke="#21D789" stroke-width=".135"/><path d="M175.923 255C171 293.255 154.171 313.745 139 326.725" stroke="#21D789" stroke-width=".878" stroke-linecap="round"/><path d="M177.478 255c-4.94 38.385-22.194 59.604-37.478 72.91M179 225.083c8.875-31.939 49.906-28.966 60.728-9.351" stroke="#21D789" stroke-width=".878" stroke-linecap="round"/><path d="M238.813 214.933c-6.058-12.474-45.83-25.315-57.813 10.026M237.98 245c-2.763 9.18-7.565 27.632 7.448 39.33 18.768 14.623 37.943.532 44.245 10.189" stroke="#21D789" stroke-width=".878" stroke-linecap="round"/><path d="M238.977 245c-3.357 10.434-6.622 27.598 6.658 37.947 18.766 14.624 36.529-.157 44.509 10.067" stroke="#21D789" stroke-width=".878" stroke-linecap="round"/><circle cx="236.796" cy="230.871" r="14.739" transform="rotate(-174.305 236.796 230.871)" stroke="#21D789" stroke-width=".675"/><g filter="url(#n)"><circle cx="237.019" cy="230.479" r="17.839" transform="rotate(-174.305 237.019 230.479)" fill="#21D789" fill-opacity=".5"/></g><circle cx="238.796" cy="230.871" r="14.739" transform="rotate(-174.305 238.796 230.871)" stroke="#21D789" stroke-width=".203" stroke-linecap="round" stroke-dasharray=".07 10.13"/><path d="M221.77 231.372c.808-8.1 1.026-13.441 8.825-15.808 7.8-2.366 22.139 6.019 21.331 14.119-.807 8.1-8.852 18.626-16.952 17.819-8.1-.808-14.012-8.03-13.204-16.13Z" stroke="#ADF03E" stroke-width=".203" stroke-linecap="round" stroke-dasharray=".07 6.08"/><circle cx="236.915" cy="229.795" r="15.723" transform="rotate(-174.305 236.915 229.795)" stroke="#21D789" stroke-width=".135"/><circle cx="237.915" cy="228.795" r="15.723" transform="rotate(-174.305 237.915 228.795)" stroke="#21D789" stroke-width=".135" stroke-linejoin="round" stroke-dasharray=".14 6.75"/><circle cx="234.796" cy="230.871" r="14.739" transform="rotate(-174.305 234.796 230.871)" stroke="#21D789" stroke-width=".203"/><circle cx="494.909" cy="223.452" r="12.381" transform="rotate(-174.305 494.909 223.452)" stroke="#21D789" stroke-width=".675"/><g filter="url(#o)"><circle cx="494.909" cy="223.452" r="12.381" transform="rotate(-174.305 494.909 223.452)" fill="#17E6E8" fill-opacity=".6"/></g><circle cx="495.909" cy="223.452" r="12.381" transform="rotate(-174.305 495.909 223.452)" stroke="#21D789" stroke-width=".203" stroke-linecap="round" stroke-dasharray=".07 10.13"/><path d="M482.288 224.193c.678-6.804.861-11.29 7.413-13.278 6.551-1.987 18.596 5.055 17.917 11.859-.678 6.804-7.436 15.646-14.239 14.967-6.804-.678-11.77-6.744-11.091-13.548Z" stroke="#ADF03E" stroke-width=".203" stroke-linecap="round" stroke-dasharray=".07 6.08"/><circle cx="495.169" cy="222.548" r="13.207" transform="rotate(-174.305 495.169 222.548)" stroke="#21D789" stroke-width=".135"/><circle cx="495.169" cy="221.548" r="13.207" transform="rotate(-174.305 495.169 221.548)" stroke="#21D789" stroke-width=".135" stroke-linejoin="round" stroke-dasharray=".14 6.75"/><circle cx="493.909" cy="223.452" r="12.381" transform="rotate(-174.305 493.909 223.452)" stroke="#21D789" stroke-width=".203"/><circle cx="413.836" cy="285.141" r="13.579" transform="rotate(-174.305 413.836 285.141)" stroke="#21D789" stroke-width=".675"/><g filter="url(#p)"><circle cx="413.971" cy="284.862" r="15.661" transform="rotate(-174.305 413.971 284.862)" fill="#17E6E8" fill-opacity=".6"/></g><circle cx="414.836" cy="285.141" r="13.579" transform="rotate(-174.305 414.836 285.141)" stroke="#21D789" stroke-width=".203" stroke-linecap="round" stroke-dasharray=".07 10.13"/><path d="M399.993 285.76c.744-7.462.945-12.383 8.13-14.562 7.186-2.18 20.396 5.544 19.652 13.006-.744 7.462-8.156 17.16-15.618 16.416-7.462-.745-12.908-7.397-12.164-14.86Z" stroke="#ADF03E" stroke-width=".203" stroke-linecap="round" stroke-dasharray=".07 6.08"/><circle cx="414.024" cy="283.15" r="14.485" transform="rotate(-174.305 414.024 283.15)" stroke="#21D789" stroke-width=".135"/><circle cx="415.024" cy="283.15" r="14.485" transform="rotate(-174.305 415.024 283.15)" stroke="#21D789" stroke-width=".135" stroke-linejoin="round" stroke-dasharray=".14 6.75"/><circle cx="412.836" cy="284.141" r="13.579" transform="rotate(-174.305 412.836 284.141)" stroke="#21D789" stroke-width=".203"/><defs><linearGradient id="f" x1="241.578" y1="226.887" x2="356.716" y2="124.672" gradientUnits="userSpaceOnUse"><stop stop-color="#61FF58" stop-opacity=".76"/><stop offset=".578" stop-color="#3C4ACB" stop-opacity=".78"/></linearGradient><linearGradient id="g" x1="300.135" y1="306" x2="300.135" y2="584.275" gradientUnits="userSpaceOnUse"><stop stop-color="#21D789"/><stop offset="1" stop-color="#167DFF" stop-opacity="0"/></linearGradient><linearGradient id="h" x1="343.749" y1="396.113" x2="364.303" y2="616.854" gradientUnits="userSpaceOnUse"><stop stop-color="#167DFF"/><stop offset="1" stop-color="#167DFF" stop-opacity="0"/></linearGradient><linearGradient id="i" x1="333.073" y1="653.607" x2="304.164" y2="741.104" gradientUnits="userSpaceOnUse"><stop stop-color="#167DFF"/><stop offset=".781" stop-color="#031558"/></linearGradient><linearGradient id="j" x1="308.382" y1="287.762" x2="352.942" y2="351.936" gradientUnits="userSpaceOnUse"><stop offset=".163" stop-color="#21D789"/><stop offset="1" stop-color="#167DFF" stop-opacity="0"/></linearGradient><linearGradient id="k" x1="340.372" y1="391.809" x2="361.03" y2="613.668" gradientUnits="userSpaceOnUse"><stop offset=".155" stop-color="#1C61C8"/><stop offset="1" stop-color="#08246A"/></linearGradient><filter id="d" x="276.17" y="266.786" width="61.117" height="61.117" filterUnits="userSpaceOnUse" color-interpolation-filters="sRGB"><feFlood flood-opacity="0" result="BackgroundImageFix"/><feBlend mode="normal" in="SourceGraphic" in2="BackgroundImageFix" result="shape"/><feGaussianBlur stdDeviation="6.755" result="effect1_foregroundBlur_3159_21334"/></filter><filter id="l" x="165.828" y="288.828" width="55.823" height="55.823" filterUnits="userSpaceOnUse" color-interpolation-filters="sRGB"><feFlood flood-opacity="0" result="BackgroundImageFix"/><feBlend mode="normal" in="SourceGraphic" in2="BackgroundImageFix" result="shape"/><feGaussianBlur stdDeviation="6.417" result="effect1_foregroundBlur_3159_21334"/></filter><filter id="m" x="149.74" y="213.741" width="52.838" height="52.837" filterUnits="userSpaceOnUse" color-interpolation-filters="sRGB"><feFlood flood-opacity="0" result="BackgroundImageFix"/><feBlend mode="normal" in="SourceGraphic" in2="BackgroundImageFix" result="shape"/><feGaussianBlur stdDeviation="6.755" result="effect1_foregroundBlur_3159_21334"/></filter><filter id="n" x="209.045" y="202.505" width="55.947" height="55.946" filterUnits="userSpaceOnUse" color-interpolation-filters="sRGB"><feFlood flood-opacity="0" result="BackgroundImageFix"/><feBlend mode="normal" in="SourceGraphic" in2="BackgroundImageFix" result="shape"/><feGaussianBlur stdDeviation="5.066" result="effect1_foregroundBlur_3159_21334"/></filter><filter id="o" x="469.017" y="197.561" width="51.783" height="51.783" filterUnits="userSpaceOnUse" color-interpolation-filters="sRGB"><feFlood flood-opacity="0" result="BackgroundImageFix"/><feBlend mode="normal" in="SourceGraphic" in2="BackgroundImageFix" result="shape"/><feGaussianBlur stdDeviation="6.755" result="effect1_foregroundBlur_3159_21334"/></filter><filter id="p" x="384.799" y="255.691" width="58.344" height="58.344" filterUnits="userSpaceOnUse" color-interpolation-filters="sRGB"><feFlood flood-opacity="0" result="BackgroundImageFix"/><feBlend mode="normal" in="SourceGraphic" in2="BackgroundImageFix" result="shape"/><feGaussianBlur stdDeviation="6.755" result="effect1_foregroundBlur_3159_21334"/></filter><radialGradient id="a" cx="0" cy="0" r="1" gradientUnits="userSpaceOnUse" gradientTransform="matrix(195.9931 -237.7206 222.634 183.55468 88.427 493.12)"><stop offset=".476" stop-color="#051D60" stop-opacity=".42"/><stop offset="1" stop-color="#2A8BFF"/></radialGradient><radialGradient id="b" cx="0" cy="0" r="1" gradientUnits="userSpaceOnUse" gradientTransform="matrix(195.9931 -237.7206 222.634 183.55468 88.427 493.12)"><stop offset=".476" stop-color="#051D60" stop-opacity=".42"/><stop offset="1" stop-color="#2A8BFF"/></radialGradient><radialGradient id="c" cx="0" cy="0" r="1" gradientUnits="userSpaceOnUse" gradientTransform="matrix(195.9931 -237.7206 222.634 183.55468 88.427 493.12)"><stop offset=".476" stop-color="#051D60" stop-opacity=".42"/><stop offset="1" stop-color="#2A8BFF"/></radialGradient><radialGradient id="e" cx="0" cy="0" r="1" gradientUnits="userSpaceOnUse" gradientTransform="rotate(93.041 16.36 292.591) scale(511.814 216.554)"><stop offset=".057" stop-color="#21D789"/><stop offset=".181" stop-color="#2A8BFF" stop-opacity=".74"/><stop offset=".76" stop-color="#021454"/></radialGradient></defs></svg>