<svg viewBox="0 0 174 52" fill="none" xmlns="http://www.w3.org/2000/svg"><path d="M60.119 8.914c-1.307 0-9.117 8.199-14.439 12.242-1.209 0-2.033 1.652-6.387 5.049-4.355 3.397-8.137 12.091-10.617 16.472 13.183.606 33.73 2.021 42.873 2.83 9.145.809 20.564-.809 21.471-2.83 6.592 1.684 13.727 3.113 18.807 4.245 5.08 1.132 8.621-2.648 9.347-4.535.544.606 2.237 1.306 6.8 3.12 5.08 2.02 12.157 4.65 15.603-1.01 11.631 2.425 8.416-9.43 6.712-11.525-.621-.764 4.464-17.504.954-20.245-10.975-8.57-12.249-4.844-19.691 5.63-6.264-4.448-12.36-8.42-15.19-9.443-5.37-1.94-14.695-1.887-18.687-1.617-2.056-.809-7.003-2.588-10.341-3.235C83.996 3.415 73 7.971 67.92 10.33c-2.056-.471-6.495-1.415-7.802-1.415Z" fill="url(#a)"/><path d="M131.35 18.277c2.032-3.756 5.515-10.224 9.188-10.224 4.59 0 10.85 3.547 11.476 6.468.501 2.338-.765 14.05-1.46 19.615M66.504 9.572c5.94-2.283 18.524-5.91 23.112-4.631 5.737 1.598 28.677 10.043 30.111 11.64 1.433 1.598 20.687 16.205 24.578 20.542 2.049 2.282-1.024 12.325-10.036 10.042-7.21-1.826-11.47-3.956-12.699-4.793M50 22.297c-10.428-1.09-19.012 13.165-22 20.428 23.357 3.33 61.974 4.51 64.75-.56 5.173-9.446-1.904-11.222-14.533-12.13-12.629-.908-20.696-6.952-28.216-7.738Z" stroke="#0C0C0D" stroke-width="2.702" stroke-linecap="round" stroke-linejoin="round"/><path d="M50.291 39.801c2.743 1.668 9.704 4.44 13.26 5.215M42.185 23.944c5.53-5.605 15.427-15.215 19.968-15.215 8.248 2.176 24.463 5.456 28.87 7.982 7.281 4.172 25.107 14.237 30.196 17.64 3.287 2.197-.369 12.474-7.124 12.474-6.756 0-14.009-2.641-21.29-4.11M96.225 6.702c3.951 0 13.054.68 18.733 2.122 10.707 2.721 24.368 16.754 32.346 22.088 6.954 4.65 5.134 15.438-3.484 13.675" stroke="#0C0C0D" stroke-width="2.702" stroke-linecap="round" stroke-linejoin="round"/><defs><linearGradient id="a" x1="86.296" y1="4" x2="86.296" y2="47.913" gradientUnits="userSpaceOnUse"><stop stop-color="#167DFF"/><stop offset=".792" stop-color="#021C74"/></linearGradient></defs></svg>