<svg viewBox="0 0 326 380" fill="none" xmlns="http://www.w3.org/2000/svg"><g clip-path="url(#a)"><path d="M301.833 225.66 122.767 339.166a3 3 0 0 0-1.394 2.533v74.834c0 1.406.976 2.623 2.348 2.928l71.354 15.899a3 3 0 0 0 2.262-.397l180.501-114.806v-78.773l-73.759-16.121a3.001 3.001 0 0 0-2.246.397Z" fill="#191919"/><path d="M301.833 225.66 122.767 339.166a3 3 0 0 0-1.394 2.533v74.834c0 1.406.976 2.623 2.348 2.928l71.354 15.899a3 3 0 0 0 2.262-.397l180.501-114.806v-78.773l-73.759-16.121a3.001 3.001 0 0 0-2.246.397Z" fill="url(#b)"/><path d="M301.833 225.66 122.767 339.166a3 3 0 0 0-1.394 2.533v74.834c0 1.406.976 2.623 2.348 2.928l71.354 15.899a3 3 0 0 0 2.262-.397l180.501-114.806v-78.773l-73.759-16.121a3.001 3.001 0 0 0-2.246.397Z" fill="url(#c)"/><path d="M301.833 131.66 122.767 245.166a3 3 0 0 0-1.394 2.533v74.834c0 1.406.976 2.623 2.348 2.928l71.354 15.899a3 3 0 0 0 2.262-.397l180.501-114.806v-78.773l-73.759-16.121a3.001 3.001 0 0 0-2.246.397Z" fill="#191919"/><path d="M301.833 131.66 122.767 245.166a3 3 0 0 0-1.394 2.533v74.834c0 1.406.976 2.623 2.348 2.928l71.354 15.899a3 3 0 0 0 2.262-.397l180.501-114.806v-78.773l-73.759-16.121a3.001 3.001 0 0 0-2.246.397Z" fill="url(#d)"/><path d="M301.833 131.66 122.767 245.166a3 3 0 0 0-1.394 2.533v74.834c0 1.406.976 2.623 2.348 2.928l71.354 15.899a3 3 0 0 0 2.262-.397l180.501-114.806v-78.773l-73.759-16.121a3.001 3.001 0 0 0-2.246.397Z" fill="url(#e)"/><path d="M195.787 435.292v-78.825l181.749-115.166" stroke="#000" stroke-opacity=".5" stroke-width="2" stroke-linecap="round"/><path d="m249.842 361.059 69.379-43.962" stroke="#000" stroke-width="2" stroke-linecap="round"/><ellipse cx="225.391" cy="377.096" rx="3.969" ry="7.245" fill="#000"/><ellipse cx="240.459" cy="366.867" rx="3.969" ry="7.245" fill="#000"/><path d="M196.16 334.486v-71.845l181.749-115.166M250.215 267.232l69.379-43.963M179.413 261.307l-46.415-10.314" stroke="#000" stroke-opacity=".5" stroke-width="2" stroke-linecap="round"/><ellipse cx="225.764" cy="283.269" rx="3.969" ry="7.245" fill="#000"/><ellipse cx="240.832" cy="273.041" rx="3.969" ry="7.245" fill="#000"/><path d="M301.833 38.66 122.767 152.166a3 3 0 0 0-1.394 2.533v74.834c0 1.406.976 2.623 2.348 2.928l71.354 15.899a3 3 0 0 0 2.262-.397l180.501-114.806V54.384l-73.759-16.12a2.998 2.998 0 0 0-2.246.396Z" fill="#191919"/><path d="M301.833 38.66 122.767 152.166a3 3 0 0 0-1.394 2.533v74.834c0 1.406.976 2.623 2.348 2.928l71.354 15.899a3 3 0 0 0 2.262-.397l180.501-114.806V54.384l-73.759-16.12a2.998 2.998 0 0 0-2.246.396Z" fill="url(#f)"/><path d="M301.833 38.66 122.767 152.166a3 3 0 0 0-1.394 2.533v74.834c0 1.406.976 2.623 2.348 2.928l71.354 15.899a3 3 0 0 0 2.262-.397l180.501-114.806V54.384l-73.759-16.12a2.998 2.998 0 0 0-2.246.396Z" fill="url(#g)"/><path d="M374 58 195 170" stroke="#000" stroke-width="2" stroke-linecap="round"/><path d="m250.215 174.163 69.379-43.962" stroke="#000" stroke-opacity=".5" stroke-width="2" stroke-linecap="round"/><ellipse cx="225.548" cy="189.86" rx="3.969" ry="7.245" transform="rotate(2.557 225.548 189.86)" fill="#000"/><ellipse cx="241.056" cy="180.311" rx="3.969" ry="7.245" transform="rotate(2.557 241.056 180.311)" fill="#000"/></g><defs><radialGradient id="c" cx="0" cy="0" r="1" gradientUnits="userSpaceOnUse" gradientTransform="matrix(93.99965 -38.99995 47.48675 114.45495 110 403)"><stop stop-color="#fff" stop-opacity=".12"/><stop offset="1" stop-color="#fff" stop-opacity="0"/></radialGradient><radialGradient id="e" cx="0" cy="0" r="1" gradientUnits="userSpaceOnUse" gradientTransform="matrix(93.99965 -38.99995 47.48675 114.45495 110 309)"><stop stop-color="#fff" stop-opacity=".12"/><stop offset="1" stop-color="#fff" stop-opacity="0"/></radialGradient><radialGradient id="g" cx="0" cy="0" r="1" gradientUnits="userSpaceOnUse" gradientTransform="matrix(93.99965 -38.99995 47.48675 114.45495 110 216)"><stop stop-color="#fff" stop-opacity=".12"/><stop offset="1" stop-color="#fff" stop-opacity="0"/></radialGradient><linearGradient id="b" x1="255.5" y1="397.5" x2="236" y2="361" gradientUnits="userSpaceOnUse"><stop stop-color="#fff" stop-opacity=".07"/><stop offset="1" stop-color="#fff" stop-opacity="0"/></linearGradient><linearGradient id="d" x1="255.5" y1="303.5" x2="236" y2="267" gradientUnits="userSpaceOnUse"><stop stop-color="#fff" stop-opacity=".07"/><stop offset="1" stop-color="#fff" stop-opacity="0"/></linearGradient><linearGradient id="f" x1="255.5" y1="210.5" x2="236" y2="174" gradientUnits="userSpaceOnUse"><stop stop-color="#fff" stop-opacity=".07"/><stop offset="1" stop-color="#fff" stop-opacity="0"/></linearGradient><clipPath id="a"><path fill="#fff" d="M0 0h326v380H0z"/></clipPath></defs></svg>