<svg viewBox="0 0 741 723" fill="none" xmlns="http://www.w3.org/2000/svg"><g clip-path="url(#a)"><path fill="#192EC5" d="M0 0h741v723H0z"/><path d="M343.938 179.687v766.904h541V-21.832H659.39L343.938 179.687Z" fill="#fff" fill-opacity=".12"/><path d="M668.261 524.508 442.126 667.849a3 3 0 0 0-1.394 2.534v95.292a3 3 0 0 0 2.348 2.928l90.782 20.227a3 3 0 0 0 2.262-.397l227.582-144.751V544.48l-93.199-20.369a2.997 2.997 0 0 0-2.246.397Z" fill="#17E6E8" fill-opacity=".24"/><path d="M668.261 524.508 442.126 667.849a3 3 0 0 0-1.394 2.534v95.292a3 3 0 0 0 2.348 2.928l90.782 20.227a3 3 0 0 0 2.262-.397l227.582-144.751V544.48l-93.199-20.369a2.997 2.997 0 0 0-2.246.397Z" fill="url(#b)"/><path d="m758.213 549.927-224 140M602.986 695.32l87.372-55.363" stroke="#192EC5" stroke-width="2" stroke-linecap="round"/><ellipse cx="591.459" cy="703.065" rx="4.998" ry="9.124" transform="rotate(2.557 591.459 703.065)" fill="#192EC5"/><ellipse cx="701.531" cy="623.519" rx="1.743" ry="3.183" fill="#192EC5"/><ellipse cx="710.366" cy="633.062" rx="1.743" ry="3.183" fill="#192EC5"/><ellipse cx="712.96" cy="617.156" rx="1.743" ry="3.183" fill="#192EC5"/><ellipse cx="721.798" cy="626.699" rx="1.743" ry="3.183" fill="#192EC5"/><ellipse cx="724.384" cy="610.44" rx="1.743" ry="3.183" fill="#192EC5"/><ellipse cx="733.226" cy="619.983" rx="1.743" ry="3.183" fill="#192EC5"/><ellipse cx="735.816" cy="603.901" rx="1.743" ry="3.183" fill="#192EC5"/><path d="m669.783 392.927-228.57 144.885v99.347l94.343 21.02 228.631-145.418v-99.202l-94.404-20.632Z" fill="#727FDC"/><path d="m669.783 392.927-228.57 144.885v99.347l94.343 21.02 228.631-145.418v-99.202l-94.404-20.632Z" fill="url(#c)"/><path d="m669.783 392.927-228.57 144.885v99.347l94.343 21.02 228.631-145.418v-99.202l-94.404-20.632Z" fill="url(#d)"/><path d="m669.783 261.927-228.57 144.885v99.347l94.343 21.02 228.631-145.418v-99.202l-94.404-20.632Z" fill="#408C81"/><path d="m669.783 261.927-228.57 144.885v99.347l94.343 21.02 228.631-145.418v-99.202l-94.404-20.632Z" fill="url(#e)"/><path d="m669.783 261.927-228.57 144.885v99.347l94.343 21.02 228.631-145.418v-99.202l-94.404-20.632Z" fill="url(#f)"/><path d="m669.783 129.927-228.57 144.885v99.347l94.343 21.02 228.631-145.418v-99.202l-94.404-20.632Z" fill="#6E62E6"/><path d="m669.783 129.927-228.57 144.885v99.347l94.343 21.02 228.631-145.418v-99.202l-94.404-20.632Z" fill="url(#g)"/><path d="m669.783 129.927-228.57 144.885v99.347l94.343 21.02 228.631-145.418v-99.202l-94.404-20.632Z" fill="url(#h)"/><path d="M534.904 657.675v-99.266l228.882-145.032M602.971 564.189l87.371-55.363" stroke="#192EC5" stroke-width="2" stroke-linecap="round"/><ellipse cx="572.188" cy="584.386" rx="4.998" ry="9.124" fill="#192EC5"/><ellipse cx="591.164" cy="571.506" rx="4.998" ry="9.124" fill="#192EC5"/><ellipse cx="701.517" cy="492.389" rx="1.743" ry="3.183" fill="#192EC5"/><ellipse cx="710.355" cy="501.932" rx="1.743" ry="3.183" fill="#192EC5"/><ellipse cx="712.947" cy="486.026" rx="1.743" ry="3.183" fill="#192EC5"/><ellipse cx="721.784" cy="495.569" rx="1.743" ry="3.183" fill="#192EC5"/><ellipse cx="724.37" cy="479.308" rx="1.743" ry="3.183" fill="#192EC5"/><ellipse cx="733.212" cy="488.851" rx="1.743" ry="3.183" fill="#192EC5"/><ellipse cx="735.798" cy="472.771" rx="1.743" ry="3.183" fill="#192EC5"/><path d="M535.367 517.754v-90.476l228.882-145.032M603.436 433.059l87.371-55.363M514.274 424.338l-58.452-12.988" stroke="#192EC5" stroke-width="2" stroke-linecap="round"/><ellipse cx="572.653" cy="453.255" rx="4.998" ry="9.124" fill="#192EC5"/><ellipse cx="591.631" cy="440.374" rx="4.998" ry="9.124" fill="#192EC5"/><ellipse cx="701.982" cy="361.258" rx="1.743" ry="3.183" fill="#192EC5"/><ellipse cx="710.82" cy="370.801" rx="1.743" ry="3.183" fill="#192EC5"/><ellipse cx="713.413" cy="354.894" rx="1.743" ry="3.183" fill="#192EC5"/><ellipse cx="722.249" cy="364.438" rx="1.743" ry="3.183" fill="#192EC5"/><ellipse cx="724.835" cy="348.178" rx="1.743" ry="3.183" fill="#192EC5"/><ellipse cx="733.677" cy="357.721" rx="1.743" ry="3.183" fill="#192EC5"/><ellipse cx="736.267" cy="341.64" rx="1.743" ry="3.183" fill="#192EC5"/><path d="m759.213 155.927-224 140M603.436 301.928l87.371-55.363" stroke="#192EC5" stroke-width="2" stroke-linecap="round"/><ellipse cx="572.372" cy="321.694" rx="4.998" ry="9.124" transform="rotate(2.557 572.372 321.694)" fill="#192EC5"/><ellipse cx="591.909" cy="309.673" rx="4.998" ry="9.124" transform="rotate(2.557 591.909 309.673)" fill="#192EC5"/><ellipse cx="701.982" cy="230.127" rx="1.743" ry="3.183" fill="#192EC5"/><ellipse cx="710.82" cy="239.67" rx="1.743" ry="3.183" fill="#192EC5"/><ellipse cx="713.413" cy="223.765" rx="1.743" ry="3.183" fill="#192EC5"/><ellipse cx="722.249" cy="233.307" rx="1.743" ry="3.183" fill="#192EC5"/><ellipse cx="724.837" cy="217.048" rx="1.743" ry="3.183" fill="#192EC5"/><ellipse cx="733.679" cy="226.591" rx="1.743" ry="3.183" fill="#192EC5"/><ellipse cx="736.267" cy="210.51" rx="1.743" ry="3.183" fill="#192EC5"/></g><defs><radialGradient id="b" cx="0" cy="0" r="1" gradientUnits="userSpaceOnUse" gradientTransform="matrix(132.99974 -88.99994 108.36702 161.94153 441.213 777.927)"><stop stop-color="#98CEEE"/><stop offset="1" stop-color="#98CEEF" stop-opacity="0"/></radialGradient><radialGradient id="d" cx="0" cy="0" r="1" gradientUnits="userSpaceOnUse" gradientTransform="matrix(118.99994 -87.0001 105.93213 144.89543 441.213 632.427)"><stop stop-color="#D1D5F2"/><stop offset="1" stop-color="#ABB3EA" stop-opacity="0"/></radialGradient><radialGradient id="f" cx="0" cy="0" r="1" gradientUnits="userSpaceOnUse" gradientTransform="matrix(118.99994 -87.0001 105.93213 144.89543 441.213 501.427)"><stop stop-color="#BFFFA1"/><stop offset="1" stop-color="#BFFFA1" stop-opacity="0"/></radialGradient><radialGradient id="h" cx="0" cy="0" r="1" gradientUnits="userSpaceOnUse" gradientTransform="rotate(-43.176 687.426 -372.817) scale(111.072 135.242)"><stop stop-color="#E1D3FF"/><stop offset="1" stop-color="#BB9CFF" stop-opacity="0"/></radialGradient><linearGradient id="c" x1="661.213" y1="576.427" x2="630.713" y2="525.927" gradientUnits="userSpaceOnUse"><stop stop-color="#6D9AE1"/><stop offset="1" stop-color="#6D9AE1" stop-opacity="0"/></linearGradient><linearGradient id="e" x1="661.213" y1="445.427" x2="630.713" y2="394.927" gradientUnits="userSpaceOnUse"><stop stop-color="#67AE8B"/><stop offset="1" stop-color="#67AE8B" stop-opacity="0"/></linearGradient><linearGradient id="g" x1="661.213" y1="313.427" x2="630.713" y2="262.927" gradientUnits="userSpaceOnUse"><stop stop-color="#97CAC7"/><stop offset="1" stop-color="#71C9A4" stop-opacity="0"/></linearGradient><clipPath id="a"><path fill="#fff" d="M0 0h741v723H0z"/></clipPath></defs></svg>