<svg viewBox="0 0 326 381" fill="none" xmlns="http://www.w3.org/2000/svg"><g clip-path="url(#a)"><path d="M357.513 67.202a56.983 56.983 0 0 0 3.929-20.861c0-31.553-25.579-57.131-57.131-57.131-31.553 0-57.131 25.578-57.131 57.13 0 25.36 16.522 46.86 39.389 54.323A251.831 251.831 0 0 1 300.4 86.657c13.86-12.998 36.171-23.703 57.113-19.455Z" fill="#696969"/><path d="M400.087 15.818c-1.37-3.699-21.188-.018-48.267 7.972M216.48 83.84c-1.229-3.317 11.863-11.52 33.154-21.532M400.093 15.817c2.092 5.647-37.314 25.451-88.016 44.235-50.701 18.784-93.499 29.434-95.591 23.788" stroke="#393939" stroke-width="2"/><path d="M157.674 257.225c-15.647 6.902-27.301 22.672-27.301 22.672" stroke="#000" stroke-width="2" stroke-linecap="round"/><path opacity=".3" d="M225.573 28.167c.446 1.635 1.487 9.663-5.35 12.932 4.4 1.07 6.837 3.717 7.729 12.19 0-3.27 0-12.19 5.202-13.527-6.54-1.19-6.54-8.176-7.581-11.595ZM237.76 45.306c0 1.592.777 5.054-2.799 6.764 2.302.56 3.576 1.944 4.043 6.376 0-1.71 0-6.376 2.721-7.075-3.421-.622-3.683-4.473-3.965-6.065Z" fill="#fff"/><path d="M300.4 86.657c17.153-16.087 47.251-28.66 71.677-13.725v150.471c-3.708 11.982-8.683 21.242-15.192 28.63-9.803-5.327-23.266-7.026-40.81-3.532-26.516 5.281-48.989 17.753-66.303 33.549-11.722-36.227-71.98-37.459-92.391-24.736.478-6.224-.756-21.834-10.842-34.125 4.347-14.751 11.818-29.384 28.807-41.979 18.974-14.067 36.113-10.446 48.167-7.899 5.141 1.086 9.357 1.977 12.397 1.217 4.743-1.186 8.022-7.685 13.192-17.936 8.114-16.087 20.888-41.413 51.298-69.935Z" fill="#262626"/><path d="M300.4 86.657c17.153-16.087 47.251-28.66 71.677-13.725v150.471c-3.708 11.982-8.683 21.242-15.192 28.63-9.803-5.327-23.266-7.026-40.81-3.532-26.516 5.281-48.989 17.753-66.303 33.549-11.722-36.227-71.98-37.459-92.391-24.736.478-6.224-.756-21.834-10.842-34.125 4.347-14.751 11.818-29.384 28.807-41.979 18.974-14.067 36.113-10.446 48.167-7.899 5.141 1.086 9.357 1.977 12.397 1.217 4.743-1.186 8.022-7.685 13.192-17.936 8.114-16.087 20.888-41.413 51.298-69.935Z" fill="url(#b)" fill-opacity=".2"/><path d="M241.519 170.127c-10.124-14.029-30.559-35.337-61.29-35.337-15.214 0-29.267 2.004-34.88 6.013 0-22.853-13.227-69.76-69.157-69.76-43.472.002-68.282 25.644-77.73 66.355 17.641-3.834 39.875-1.077 57.285 11.669 26.941 19.725 34.948 52.714 33.946 65.544 8.018-5.813 27.6-12.697 47.234 0a41.544 41.544 0 0 1 9.612 8.578c4.347-14.751 11.818-29.384 28.807-41.979 18.974-14.067 36.113-10.446 48.167-7.899 5.141 1.086 9.357 1.977 12.397 1.217 2.053-.513 3.832-2.022 5.609-4.401Z" fill="#191919"/><path d="M316.075 248.501c-108.995 21.707-149.666 164.926-44.59 160.976 105.075-3.95 153.586-182.683 44.59-160.976Z" fill="#383838"/><path d="M-23 148.266c15.145-15.528 53.642-19.724 80.583 0 26.942 19.725 34.949 52.715 33.946 65.544 8.019-5.813 27.6-12.697 47.235 0 18.952 12.256 21.054 34.885 20.453 42.703 20.404-12.719 80.627-11.491 92.379 24.698-17.558 16.074-29.786 35.565-35.513 54.415-21.102 8.504-47.123 11.155-66.956 7.115-33.292-6.782-49.246-19.676-51.25-23.083-20.647 14.232-72.406 33.316-114.261-4.21L-23 148.266Z" fill="#333232"/></g><defs><radialGradient id="b" cx="0" cy="0" r="1" gradientUnits="userSpaceOnUse" gradientTransform="matrix(19 67.99996 -71.07075 19.85802 311.5 77.5)"><stop stop-color="#fff"/><stop offset="1" stop-color="#fff" stop-opacity="0"/></radialGradient><clipPath id="a"><path fill="#fff" transform="translate(0 .145)" d="M0 0h326v380H0z"/></clipPath></defs></svg>