<svg viewBox="0 0 742 724" fill="none" xmlns="http://www.w3.org/2000/svg"><g clip-path="url(#a)"><path fill="#043E68" d="M.787.073h741v723h-741z"/><path d="M711.622 189.58c.456-3.966.69-8 .69-12.088 0-57.878-46.92-104.797-104.798-104.797s-104.797 46.919-104.797 104.797c0 52.871 39.151 96.596 90.043 103.767 13.108-17.459 29.536-36.344 50.56-56.063 17.42-16.338 42.12-30.7 68.302-35.616Z" fill="#F90"/><path d="M783.207 119.668c-2.513-6.784-38.865-.033-88.539 14.625M446.41 244.444c-2.255-6.084 21.761-21.131 60.814-39.496M783.215 119.67c3.837 10.358-68.447 46.686-161.451 81.142-93.004 34.456-171.509 53.992-175.346 43.635" stroke="#FFBD00" stroke-width="2"/><path d="M461.251 144.157c.818 2.999 2.726 17.724-9.815 23.722 8.071 1.962 12.541 6.817 14.177 22.359 0-5.998 0-22.359 9.543-24.812-11.997-2.181-11.997-14.997-13.905-21.269ZM483.609 175.595c0 2.921 1.426 9.272-5.134 12.409 4.222 1.027 6.56 3.566 7.416 11.696 0-3.138 0-11.696 4.991-12.979-6.275-1.141-6.755-8.205-7.273-11.126Z" fill="#fff"/><path d="M672.068 522.074c-199.934 39.817-274.538 302.53-81.795 295.284 192.744-7.245 281.73-335.102 81.795-295.284Z" fill="#fff" fill-opacity=".16"/><path d="M672.068 522.074c-199.934 39.817-274.538 302.53-81.795 295.284 192.744-7.245 281.73-335.102 81.795-295.284Z" fill="url(#b)" fill-opacity=".2"/><path d="M194.605 339.806c49.42 36.182 64.108 96.696 62.269 120.229 14.708-10.663 50.628-23.29 86.643 0 34.767 22.482 38.622 63.992 37.519 78.333 37.441-23.339 147.972-21.078 169.476 45.371-32.296 29.463-54.807 65.229-65.384 99.836-38.668 15.53-86.289 20.36-122.601 12.963-61.068-12.44-90.333-36.091-94.01-42.342-37.874 26.107-205 66.595-280.303-23.883-75.304-90.478 9.572-434.605 206.391-290.507Z" fill="#fff" fill-opacity=".13"/><path d="M194.605 339.806c49.42 36.182 64.108 96.696 62.269 120.229 14.708-10.663 50.628-23.29 86.643 0 34.767 22.482 38.622 63.992 37.519 78.333 37.441-23.339 147.972-21.078 169.476 45.371-32.296 29.463-54.807 65.229-65.384 99.836-38.668 15.53-86.289 20.36-122.601 12.963-61.068-12.44-90.333-36.091-94.01-42.342-37.874 26.107-205 66.595-280.303-23.883-75.304-90.478 9.572-434.605 206.391-290.507Z" fill="url(#c)" fill-opacity=".15"/><path d="M643.32 225.196c31.464-29.509 86.673-52.572 131.479-25.177v276.015c-6.802 21.982-15.928 38.967-27.868 52.52-17.983-9.773-42.68-12.89-74.862-6.48-48.63 9.685-89.846 32.556-121.603 61.523-21.616-66.31-132.016-68.551-169.43-45.229.879-11.432-1.392-40.128-19.961-62.688 7.973-27.071 21.675-53.928 52.853-77.042 34.806-25.804 66.243-19.162 88.355-14.489 9.43 1.992 17.164 3.626 22.74 2.233 8.701-2.176 14.714-14.098 24.198-32.901 14.884-29.509 38.316-75.966 94.099-128.285Z" fill="#fff" fill-opacity=".12"/><path d="M643.32 225.196c31.464-29.509 86.673-52.572 131.479-25.177v276.015c-6.802 21.982-15.928 38.967-27.868 52.52-17.983-9.773-42.68-12.89-74.862-6.48-48.63 9.685-89.846 32.556-121.603 61.523-21.616-66.31-132.016-68.551-169.43-45.229.879-11.432-1.392-40.128-19.961-62.688 7.973-27.071 21.675-53.928 52.853-77.042 34.806-25.804 66.243-19.162 88.355-14.489 9.43 1.992 17.164 3.626 22.74 2.233 8.701-2.176 14.714-14.098 24.198-32.901 14.884-29.509 38.316-75.966 94.099-128.285Z" fill="url(#d)" fill-opacity=".2"/><path d="M643.32 225.196c31.464-29.509 86.673-52.572 131.479-25.177v276.015c-6.802 21.982-15.928 38.967-27.868 52.52-17.983-9.773-42.68-12.89-74.862-6.48-48.63 9.685-89.846 32.556-121.603 61.523-21.616-66.31-132.016-68.551-169.43-45.229.879-11.432-1.392-40.128-19.961-62.688 7.973-27.071 21.675-53.928 52.853-77.042 34.806-25.804 66.243-19.162 88.355-14.489 9.43 1.992 17.164 3.626 22.74 2.233 8.701-2.176 14.714-14.098 24.198-32.901 14.884-29.509 38.316-75.966 94.099-128.285Z" fill="url(#e)" fill-opacity=".95"/><path fill-rule="evenodd" clip-rule="evenodd" d="M535.311 378.309c-18.571-25.734-56.056-64.821-112.426-64.821-27.907 0-53.685 3.677-63.981 11.031 0-41.921-24.264-127.965-126.858-127.962-75.112.001-119.851 41.734-139.276 108.99 29.453-3.449 63.496 6.11 101.771 34.133 49.42 36.182 64.108 96.695 62.269 120.229 14.709-10.664 50.628-23.29 86.644 0a76.245 76.245 0 0 1 17.631 15.735c7.975-27.059 21.679-53.902 52.842-77.006 34.806-25.804 66.244-19.162 88.356-14.489 9.43 1.992 17.164 3.626 22.739 2.233 3.767-.942 7.03-3.711 10.289-8.073Z" fill="#fff" fill-opacity=".07"/><path d="M380.735 537c-28.703 12.662-50.08 41.589-50.08 41.589" stroke="#22557A" stroke-width="2" stroke-linecap="round"/></g><defs><radialGradient id="b" cx="0" cy="0" r="1" gradientUnits="userSpaceOnUse" gradientTransform="matrix(-186.00048 -91.49939 81.67532 -166.03006 691.499 721)"><stop stop-color="#fff"/><stop offset="1" stop-color="#fff" stop-opacity="0"/></radialGradient><radialGradient id="c" cx="0" cy="0" r="1" gradientUnits="userSpaceOnUse" gradientTransform="matrix(-71.80867 163.80995 -244.51514 -107.18707 327.563 536.126)"><stop stop-color="#fff"/><stop offset="1" stop-color="#fff" stop-opacity="0"/></radialGradient><radialGradient id="d" cx="0" cy="0" r="1" gradientUnits="userSpaceOnUse" gradientTransform="matrix(-286.49992 30.5017 -31.88122 -299.4577 775 401)"><stop stop-color="#fff"/><stop offset="1" stop-color="#fff" stop-opacity="0"/></radialGradient><radialGradient id="e" cx="0" cy="0" r="1" gradientUnits="userSpaceOnUse" gradientTransform="rotate(56.748 139.462 674.436) scale(163.225 170.608)"><stop stop-color="#F90" stop-opacity=".47"/><stop offset="1" stop-color="#F90" stop-opacity="0"/></radialGradient><clipPath id="a"><path fill="#fff" transform="translate(.787 .073)" d="M0 0h741v723H0z"/></clipPath></defs></svg>