<svg fill="none" height="80" viewBox="0 0 128 80" width="128" xmlns="http://www.w3.org/2000/svg"><path d="m73.8551 39.0127c0-19.6663-15.865-35.60902-35.4354-35.60902-19.5704.00001-35.43533 15.94272-35.43533 35.60902s15.86493 35.609 35.43533 35.609 35.4354-15.9427 35.4354-35.609z" fill="#fff" fill-opacity=".2"/><g stroke="#fff" stroke-linecap="round" stroke-linejoin="round" stroke-width="2"><path d="m54.8545 25.8197c2.4756-9.2844-3.0073-18.82766-12.2464-21.31542-9.2392-2.48776-18.7359 3.02203-21.2115 12.30642-2.4756 9.2845 3.0073 18.8277 12.2464 21.3155 9.2392 2.4877 18.7359-3.0221 21.2115-12.3065z"/><path d="m54.8545 59.8197c2.4756-9.2844-3.0073-18.8277-12.2464-21.3154-9.2392-2.4878-18.7359 3.022-21.2115 12.3064-2.4756 9.2845 3.0073 18.8277 12.2464 21.3155 9.2392 2.4877 18.7359-3.0221 21.2115-12.3065z"/><path d="m37.9405 42.8198c2.4756-9.2844-3.0073-18.8276-12.2465-21.3154s-18.73586 3.022-21.21148 12.3065c-2.47563 9.2844 3.0073 18.8277 12.24648 21.3154 9.2391 2.4878 18.7358-3.022 21.2115-12.3065z"/><path d="m72.7686 42.8197c2.4756-9.2844-3.0073-18.8277-12.2465-21.3154-9.2391-2.4878-18.7358 3.022-21.2115 12.3064-2.4756 9.2845 3.0073 18.8277 12.2465 21.3155 9.2391 2.4877 18.7359-3.0221 21.2115-12.3065z"/></g></svg>