<svg fill="none" height="80" viewBox="0 0 128 80" width="128" xmlns="http://www.w3.org/2000/svg"><g fill="#fff"><path clip-rule="evenodd" d="m6.90757 76.4885c.03063.0014.06145.0021.09243.0021h1.03352c.15261.0203.30832.0308.46648.0308h38.6501c.1581 0 .3138-.0105.4664-.0308h6.0923v-3h-3.0899c.0205-.1534.0312-.3101.0312-.4692v-37.0214c0-1.933-1.5671-3.5-3.5-3.5h-38.6501c-.16976 0-.3367.0121-.5.0354v-3.4745h-3v6.4962h.02775c-.01831.1451-.02775.2929-.02775.4429v38.4906c0 .031.0007.0618.0021.0925.01992.4378.1806.8389.43786 1.1591.0913.1137.19476.2172.30841.3085.32024.2572.72137.4179 1.1592.4378zm40.41573-2.9979c.1907-.0704.3268-.2539.3268-.4692v-37.0214c0-.2761-.2239-.5-.5-.5h-38.6501c-.27614 0-.5.2239-.5.5v37.0214c0 .2153.13602.3988.32679.4692h1.92881v.0308h2.1794v-.0308h6.5113v.0308h2.1794v-.0308h6.5112v.0308h2.1794v-.0308h6.5112v.0308h2.1794v-.0308h6.5113v.0308h2.1319c.016 0 .0318-.0007.0475-.0022v-.0286z" fill-rule="evenodd"/><path d="m62.3994 73.4906v3h-6.5112v-3z"/><path d="m71.0901 73.4906v3h-6.5113v-3z"/><path d="m75.5251 62.8062h3v6.4962h-3z"/><path d="m75.5251 54.3698h3v6.4963h-3z"/><path d="m75.5251 45.9335h3v6.4963h-3z"/><path d="m75.5251 37.4972h3v6.4962h-3z"/><path d="m75.5251 29.0609h3v6.4962h-3z"/><path d="m75.5251 20.6245h3v6.4963h-3z"/><path d="m75.5251 12.1882h3v6.4963h-3z"/><path d="m64.5788 8v-3h6.5113v3z"/><path d="m55.8882 8v-3h6.5112v3z"/><path d="m47.1976 8v-3h6.5112v3z"/><path d="m38.5069 8v-3h6.5113v3z"/><path d="m29.8163 8v-3h6.5112v3z"/><path d="m21.1257 8v-3h6.5112v3z"/><path d="m12.435 8v-3h6.5112v3z"/><path d="m8 10.2481h-3v-3.2481c0-.03098.0007-.0618.0021-.09244.01992-.43782.1806-.83895.43786-1.15919.0913-.11365.19476-.21711.30841-.30841.32024-.25726.72137-.41794 1.1592-.43786.03063-.0014.06145-.0021.09243-.0021h3.2556v3h-2.2556z"/><path d="m8 12.1882h-3v6.4963h3z"/><path d="m8 20.6245h-3v6.4963h3z"/><path d="m76.5251 5h-3.2556v3h2.2556v2.2481h3v-3.2481c0-.03098-.0007-.0618-.0021-.09243-.0199-.43783-.1806-.83896-.4379-1.1592-.0913-.11365-.1947-.21711-.3084-.30841-.3202-.25726-.7214-.41794-1.1592-.43786-.0306-.0014-.0614-.0021-.0924-.0021z"/><path d="m78.5251 74.4906v-3.2481h-3v2.2481h-2.2556v3h3.2556c.031 0 .0618-.0007.0924-.0021.4378-.0199.839-.1806 1.1592-.4378.1137-.0913.2171-.1948.3084-.3085.2573-.3202.418-.7213.4379-1.1591.0014-.0307.0021-.0615.0021-.0925z"/><g fill-opacity=".5"><path d="m15 43c0-.5523.4477-1 1-1h6.7327c.5523 0 1 .4477 1 1v6.7327c0 .5523-.4477 1-1 1h-6.7327c-.5523 0-1-.4477-1-1z"/><path d="m15 59c0-.5523.4477-1 1-1h6.7327c.5523 0 1 .4477 1 1v6.7327c0 .5523-.4477 1-1 1h-6.7327c-.5523 0-1-.4477-1-1z"/><path d="m30 43c0-.5523.4477-1 1-1h6.7327c.5523 0 1 .4477 1 1v6.7327c0 .5523-.4477 1-1 1h-6.7327c-.5523 0-1-.4477-1-1z"/><path d="m30 59c0-.5523.4477-1 1-1h6.7327c.5523 0 1 .4477 1 1v6.7327c0 .5523-.4477 1-1 1h-6.7327c-.5523 0-1-.4477-1-1z"/></g><path d="m71 13c0-.5523-.4477-1-1-1h-3.848c-.8909 0-1.3371 1.0771-.7071 1.7071l.8831.8831-10.7378 10.7378-.8831-.8831c-.63-.63-1.7071-.1838-1.7071.7071v3.848c0 .5523.4477 1 1 1h3.848c.8909 0 1.3371-1.0771.7071-1.7071l-.8435-.8436 10.7377-10.7377.8436.8435c.63.63 1.7071.1838 1.7071-.7071z"/></g></svg>