<svg fill="none" height="80" viewBox="0 0 128 80" width="128" xmlns="http://www.w3.org/2000/svg"><g fill="#fff"><path d="m58 25.318c0 7.1137-3.9809 13.3294-9.9084 16.682-2.7318-4.2553-6.6986-5.704-10.3794-5.704s-6.8386 1.5759-9.8038 5.704c-5.9275-3.3526-9.9084-9.5683-9.9084-16.682 0-10.6691 8.9543-19.318 20-19.318s20 8.6489 20 19.318z" fill-opacity=".4"/><circle cx="38" cy="25" r="7"/><path clip-rule="evenodd" d="m9.13637 68.1957c1.11593.1791 2.44403.1355 3.79723-.25-.3102 1.4708-.4336 2.9752-.4336 4.395 0 1.1926.9667 2.1593 2.1593 2.1593h48.2964c.7665 0 1.4097-.5779 1.4914-1.34 0 0-.0098.1328.0113-.1215.0056-.0687.0127-.1645.0193-.2848.0134-.2403.0253-.5794.0216-.9939-.007-.8076-.0732-1.918-.3102-3.1519l.0452.0114c1.207.3017 2.4778.307 3.513-.136.531-.2273 1.0472-.5958 1.4045-1.1507.3677-.5711.498-1.2344.4127-1.9047-.1596-1.2544-1.0488-2.4541-2.327-3.5616-10.4515-9.0556-16.9728-16.9819-20.327-21.538-2.125-2.8864-5.4936-4.8283-9.194-4.8283-3.6245 0-6.9391 1.8675-9.0527 4.6821-3.5858 4.7751-10.7453 13.3685-22.1311 23.0805-.46564.3972-.88269.9677-.95537 1.7088-.07391.7537.23763 1.3796.61613 1.8129.70139.803 1.84851 1.2357 2.94291 1.4114zm28.58013-29.6957c-2.5786 0-5.0425 1.3378-6.6538 3.4835-3.6414 4.8492-10.782 13.4178-22.05234 23.107.17031.0562.3716.1062.6014.1431 1.33734.2146 3.24834-.0699 4.85264-1.4419.9913-1.7226 2.4279-3.1769 4.4609-4.0812 3.3891-1.5075 7.9087-2.0754 12.2459 1.1165 5.4805 4.0333 8.8674 5.636 10.9566 6.4777.4591.185.8588.3346 1.2253.4718l.1733.0649c.3981.1493.7924.2994 1.139.4629.7579.3576 1.4449.8539 1.8631 1.8002.1977.4473.248.9299.1965 1.3955h14.7691c-.0186-.6559-.086-1.4912-.2646-2.3953-.4163-2.1085-1.3935-4.3977-3.5511-5.8162-2.448-1.6094-5.4537-1.8247-7.9951-1.5683-1.2523.1264-2.3424.3626-3.118.5672-.3865.102-.6917.1953-.8961.2616-.1021.033-.1788.0593-.2276.0764-.0245.0086-.0419.0148-.052.0185l-.009.0033c-.7756.2901-1.6396-.1031-1.9302-.8786-.2907-.7757.1025-1.6402.8783-1.9309 0 0-.13.0444.1206-.0434.0701-.0246.1692-.0584.295-.0992.2513-.0815.6099-.1908 1.0557-.3084.8892-.2346 2.1379-.5056 3.5821-.6513.1786-.0181.361-.0342.5468-.0482-.2419-.3014-.498-.6258-.7632-.9695-1.4879-1.9283-3.315-4.5285-4.5211-7.0758-.3545-.7487-.0349-1.6431.7138-1.9976.7488-.3545 1.6431-.035 1.9977.7138 1.0683 2.2563 2.7412 4.6561 4.1847 6.5269.7153.927 1.3615 1.7078 1.8279 2.2557.233.2738.4206.4888.5489.6342.0091.0102.0178.0202.0263.0297 1.7984.2613 3.6652.8481 5.3826 1.9771 1.6131 1.0606 2.7251 2.4334 3.4907 3.8599.7254.5586 1.4769.9004 2.1444 1.0672.801.2002 1.3586.122 1.6053.0164l.0024-.001c-.0701-.2264-.3492-.7699-1.2964-1.5905-10.6394-9.2186-17.3088-17.3141-20.7783-22.0268-1.6302-2.2143-4.1445-3.6069-6.7781-3.6069zm-20.8497 27.1589c-.8452 1.6282-1.2665 3.6556-1.3508 5.8411h27.8948c.0981 0 .1429-.0226.1647-.0359.0293-.0179.0673-.0519.1033-.1113.0261-.0431.0434-.0874.0535-.1245-.0447-.0475-.1364-.1114-.3468-.2107-.2184-.103-.4998-.2124-.9129-.3674l-.1672-.0626c-.3661-.137-.8024-.3002-1.2988-.5002-2.3385-.9423-5.9446-2.6722-11.6135-6.8442-3.2102-2.3625-6.5106-2.0095-9.2485-.7917-1.3665.6079-2.3935 1.6307-3.1296 2.9338zm26.9128 5.647c.0016.0036.0032.0074.0049.0112l-.0016-.0038-.0042-.0102-.0054-.0129c.002.0051.0041.0103.0063.0157z" fill-rule="evenodd"/></g></svg>