<svg fill="none" height="80" viewBox="0 0 128 80" width="128" xmlns="http://www.w3.org/2000/svg"><g clip-rule="evenodd" fill="#fff" fill-rule="evenodd"><path d="m83.6514 34.5c-19.9658 0-36.1514 16.1855-36.1514 36.1514 0 .8285-.6716 1.5-1.5 1.5s-1.5-.6715-1.5-1.5c0-21.6227 17.5287-39.1514 39.1514-39.1514.8285 0 1.5.6716 1.5 1.5s-.6715 1.5-1.5 1.5zm.1342 12c-13.4126 0-24.2856 10.873-24.2856 24.2856 0 .8284-.6716 1.5-1.5 1.5s-1.5-.6716-1.5-1.5c0-15.0694 12.2162-27.2856 27.2856-27.2856.8284 0 1.5.6716 1.5 1.5s-.6716 1.5-1.5 1.5zm.0922 13c-6.2838 0-11.3778 5.094-11.3778 11.3778 0 .8285-.6716 1.5-1.5 1.5s-1.5-.6715-1.5-1.5c0-7.9406 6.4372-14.3778 14.3778-14.3778.8285 0 1.5.6716 1.5 1.5s-.6715 1.5-1.5 1.5z"/><path d="m26.8778 9v4c0 9.3214-7.5564 16.8778-16.8778 16.8778h-4v-8h4c4.9031 0 8.8778-3.9747 8.8778-8.8778v-4zm13 .09222v3.99998c0 16.4502-13.3354 29.7856-29.7856 29.7856h-3.99998v-8h3.99998c12.0319 0 21.7856-9.7537 21.7856-21.7856v-3.99998zm12 .13417v4.00001c0 23.0035-18.648 41.6514-41.6514 41.6514h-4.00001v-8h4.00001c18.5852 0 33.6514-15.0662 33.6514-33.6514v-4.00001z" fill-opacity=".5"/></g></svg>