<svg fill="none" height="80" viewBox="0 0 128 80" width="128" xmlns="http://www.w3.org/2000/svg"><g fill="#fff"><path d="m4 4h72v72h-72z" fill-opacity=".2"/><path d="m40 63.625h-28.125v4.5h28.125z"/><path d="m27.2556 17.8605v-5.4604h-14.8572v5.4604h4.1905v18.7936h-4.1905v5.4603h14.8572v-5.4603h-4.1905v-18.7936z"/><path d="m41.6098 42.6224c-2.2857 0-4.3175-.381-5.8413-1.2699s-2.9206-1.9047-3.9365-3.1746l4.1905-4.5714c.8889.8889 1.6508 1.6508 2.5397 2.1587.8889.508 1.7778.7619 2.9206.7619 1.2699 0 2.2857-.3809 2.9207-1.1428.7619-.7619 1.0158-2.0318 1.0158-3.8096v-19.1746h6.7302v19.5556c0 1.7778-.254 3.3016-.7619 4.6984-.508 1.2699-1.1429 2.4127-2.0318 3.3016s-2.0317 1.6508-3.3016 2.0317c-1.3968.381-2.7936.635-4.4444.635z"/></g></svg>