<svg fill="none" height="80" viewBox="0 0 128 80" width="128" xmlns="http://www.w3.org/2000/svg"><g fill="#fff"><path d="m61.3672 52.6902h9.8119c.1022 2.219.971 3.9736 2.6063 5.2637 1.6864 1.2386 3.8839 1.8579 6.5924 1.8579 2.8107 0 4.9826-.6451 6.5157-1.9353 1.5842-1.2901 2.3763-3.0189 2.3763-5.1863 0-1.9095-.5876-3.5609-1.763-4.9542-1.1754-1.3934-2.8363-2.4255-4.9826-3.0964l-5.8259-1.703c-9.5053-2.6319-14.2579-8.1537-14.2579-16.5654 0-3.8705 1.0987-7.0959 3.2962-9.6762 2.1974-2.6319 5.2637-4.3865 9.1986-5.2638l-.1533-1.2385v-6.1927h9.582v6.1927l-.0767 1.0063c4.0883.6709 7.359 2.2965 9.812 4.8768 2.4529 2.5803 3.7816 5.9347 3.9861 10.0631h-9.7353c-.1022-2.1158-.9199-3.7672-2.453-4.9541-1.5331-1.187-3.475-1.7804-5.8258-1.7804-2.5041 0-4.4716.5934-5.9025 1.7804-1.4309 1.1869-2.1464 2.7609-2.1464 4.7219 0 3.7156 2.223 6.2185 6.6691 7.5087l6.1324 1.7029c4.5994 1.2902 8.1 3.406 10.5018 6.3476 2.4019 2.8899 3.6029 6.4765 3.6029 10.7598 0 4.1801-1.2776 7.6635-3.8328 10.4502-2.5041 2.7351-5.9792 4.4639-10.4252 5.1864l.1533 1.9352v6.1927h-9.5819v-6.1927l.2299-1.9352c-4.1394-.7741-7.4611-2.4771-9.9652-5.109s-3.8839-5.9863-4.1394-10.0631z" fill-opacity=".2"/><path d="m32.6484 52.6902h9.812c.1022 2.219.9709 3.9736 2.6063 5.2637 1.6864 1.2386 3.8838 1.8579 6.5923 1.8579 2.8107 0 4.9827-.6451 6.5158-1.9353 1.5842-1.2901 2.3763-3.0189 2.3763-5.1863 0-1.9095-.5877-3.5609-1.7631-4.9542-1.1754-1.3934-2.8362-2.4255-4.9826-3.0964l-5.8258-1.703c-9.5053-2.6319-14.258-8.1537-14.258-16.5654 0-3.8705 1.0987-7.0959 3.2962-9.6762 2.1975-2.6319 5.2637-4.3865 9.1987-5.2638l-.1533-1.2385v-6.1927h9.5819v6.1927l-.0766 1.0063c4.0883.6709 7.3589 2.2965 9.8119 4.8768s3.7817 5.9347 3.9861 10.0631h-9.7353c-.1022-2.1158-.9198-3.7672-2.453-4.9541-1.5331-1.187-3.475-1.7804-5.8258-1.7804-2.5041 0-4.4716.5934-5.9025 1.7804-1.4309 1.1869-2.1463 2.7609-2.1463 4.7219 0 3.7156 2.223 6.2185 6.669 7.5087l6.1325 1.7029c4.5993 1.2902 8.0999 3.406 10.5018 6.3476 2.4019 2.8899 3.6028 6.4765 3.6028 10.7598 0 4.1801-1.2776 7.6635-3.8328 10.4502-2.5041 2.7351-5.9791 4.4639-10.4251 5.1864l.1533 1.9352v6.1927h-9.582v-6.1927l.23-1.9352c-4.1394-.7741-7.4612-2.4771-9.9653-5.109-2.504-2.6319-3.8838-5.9863-4.1394-10.0631z" fill-opacity=".5"/><path d="m4.92188 52.6902h9.81192c.1022 2.219.971 3.9736 2.6063 5.2637 1.6864 1.2386 3.8839 1.8579 6.5924 1.8579 2.8107 0 4.9826-.6451 6.5157-1.9353 1.5842-1.2901 2.3763-3.0189 2.3763-5.1863 0-1.9095-.5877-3.5609-1.763-4.9542-1.1754-1.3934-2.8363-2.4255-4.9827-3.0964l-5.8258-1.703c-9.5053-2.6319-14.25795-8.1537-14.25795-16.5654 0-3.8705 1.09874-7.0959 3.2962-9.6762 2.19745-2.6319 5.26365-4.3865 9.19865-5.2638l-.1533-1.2385v-6.1927h9.582v6.1927l-.0767 1.0063c4.0883.6709 7.359 2.2965 9.8119 4.8768 2.453 2.5803 3.7817 5.9347 3.9861 10.0631h-9.7352c-.1022-2.1158-.9199-3.7672-2.453-4.9541-1.5331-1.187-3.4751-1.7804-5.8258-1.7804-2.5041 0-4.4716.5934-5.9025 1.7804-1.4309 1.1869-2.1464 2.7609-2.1464 4.7219 0 3.7156 2.223 6.2185 6.6691 7.5087l6.1324 1.7029c4.5993 1.2902 8.1 3.406 10.5018 6.3476 2.4019 2.8899 3.6029 6.4765 3.6029 10.7598 0 4.1801-1.2776 7.6635-3.8328 10.4502-2.5041 2.7351-5.9792 4.4639-10.4252 5.1864l.1533 1.9352v6.1927h-9.582v-6.1927l.23-1.9352c-4.1394-.7741-7.4611-2.4771-9.96522-5.109-2.50408-2.6319-3.88389-5.9863-4.1394-10.0631z"/></g></svg>