<svg fill="none" height="80" viewBox="0 0 128 80" width="128" xmlns="http://www.w3.org/2000/svg"><g fill="#fff"><path d="m29.5098 78.2257 31.6018-10.0964-9.1113-12.0276-18.9286 6.0292-16.666-21.5434-12.4057 3.9635z" fill-opacity=".5"/><path clip-rule="evenodd" d="m6.56998 28.0983c.14692-.4641.50987-.828.97353-.9761l19.65679-6.2802.913 2.8577-17.6377 5.6351 23.5889 31.139 28.5716-9.1283-6.0807-8.0269 2.3913-1.8115 7.3606 9.7165c.2939.3879.3813.8944.2344 1.3585-.1469.464-.5099.8279-.9735.9761l-31.6018 10.0964c-.606.1936-1.2681-.0161-1.6522-.5231l-25.50985-33.6747c-.29391-.388-.38129-.8945-.23437-1.3585z" fill-rule="evenodd"/><path d="m21.1375 56.008c-2.0184-2.666-.7948-6.5266 2.3907-7.5433.3783-.1207.7912.0165 1.0221.3395l8.9133 12.471 11.3547-3.7616c.4067-.1348.8548-.0254 1.1537.2816 1.9144 1.966 1.0919 5.2592-1.522 6.0944l-7.7691 2.4821c-3.7138 1.1865-7.7721-.099-10.1255-3.2074z" fill-opacity=".5"/><path d="m34.7859 36.7269-1.8617-2.3449-12.5101 4.1458 2.3001 3.3126c.315.4537.9381.5661 1.3917.2511.4537-.315.5661-.9381.2511-1.3917l-.7743-1.1151 2.7042-.8962 8.5957 10.642-1.1855.3772c-.5263.1675-.8172.7299-.6498 1.2562.1675.5262.7299.8171 1.2562.6497l5.2184-1.6604c.5263-.1675.8172-.7298.6497-1.2561-.1674-.5263-.7298-.8172-1.2561-.6498l-1.974.6281c-.0358-.097-.0882-.1905-.1578-.2766l-8.4035-10.404 3.8466-1.2748.9927 1.2505c.3434.4325.9725.5048 1.405.1614s.5048-.9725.1614-1.405z"/></g><path d="m19.8519 13.6774c-.4166-.5499-.1644-1.3464.4927-1.5564l30.0098-9.58778c.8079-.25811 1.6908.02141 2.2029.69746l24.6917 32.59472c.4165.5499.1643 1.3464-.4928 1.5564l-30.6839 9.8031c-.404.1291-.8454-.0107-1.1015-.3487z" fill="#666"/><path clip-rule="evenodd" d="m38.4255 17.8747c-1.9127-2.4932-.8465-6.1267 2.1102-7.1911 2.5754-.92713 5.4547-.0822 7.1207 2.0895l11.3634 14.8123c.6944.9053 1.0177 2.0411.904 3.1764l-.295 2.9463c-.0425.4246-.2639.811-.6086 1.0624-.3448.2515-.7804.3442-1.1977.2549l-6.0385-1.2915c-.9204-.1969-1.7407-.7152-2.3136-1.462zm3.1263-4.3684c-1.0453.3763-1.4222 1.6609-.746 2.5424l.0949.1236 4.2968-1.6718c-.8814-1.0625-2.3384-1.4649-3.6457-.9942zm5.4253 3.3101-4.2991 1.6727 9.1727 11.9568c.1389.181.3377.3066.5607.3544l2.2941.4906 2.2167-1.2414c-.0418-.2302-.1379-.4493-.2827-.6381z" fill="#fff" fill-rule="evenodd"/></svg>