<svg fill="none" height="80" viewBox="0 0 128 80" width="128" xmlns="http://www.w3.org/2000/svg"><g fill="#fff"><path clip-rule="evenodd" d="m58.2765 5.17299c-2.4292 3.63896-4.427 7.60571-5.9454 11.80301l-4.5908 3.8684c-1.437 1.2109-2.0703 3.1275-1.6375 4.9561.0199.0841.101.1389.1864.1259l7.7047-1.1662h1.6038v2.1708c0 .8284.6715 1.5 1.5 1.5h6.046c.8284 0 1.5-.6716 1.5-1.5v-2.1708h2.7569l7.7047 1.1662c.0855.013.1665-.0418.1864-.1259.4328-1.8286-.2004-3.7452-1.6374-4.9561l-6.3283-5.3324c-1.4392-3.6573-3.2478-7.12593-5.3927-10.33901l-.0577-.08618c-.3879-.57858-.7867-1.14884-1.1962-1.71038-.2954-.40506-.8536-.40506-1.149 0-.4095.56154-.8083 1.13179-1.1962 1.71038zm-4.3417 16.58721h12.3402l-.2998-.9941c-1.3886-4.6056-3.3689-8.9498-5.8703-12.90182-2.5014 3.95202-4.4817 8.29632-5.8703 12.90182zm7.7089 3h-3.046v.6708h3.046z" fill-rule="evenodd"/><g fill-opacity=".5"><path d="m62 14c0 1.1046-.8954 2-2 2s-2-.8954-2-2 .8954-2 2-2 2 .8954 2 2z"/><path d="m35.3438 58.0605c.2969-1.0251.4557-2.1067.4557-3.2246 0-6.5286-5.4187-11.8211-12.1031-11.8211-5.9301 0-10.8641 4.1655-11.9021 9.6641-4.93462 1.6895-8.65858 6.5638-7.61932 12.5413 1.08231 6.2251 6.60432 10.7798 13.06922 10.7798h19.5447c16.6901 0 29.4451-14.5429 26.8826-30.6507l-3.0782-19.3493-2.7464 11.5863c-2.5693 10.8391-11.6226 18.8024-22.5031 20.4742z"/></g></g></svg>