<svg fill="none" height="400" viewBox="0 0 480 400" width="480" xmlns="http://www.w3.org/2000/svg" xmlns:xlink="http://www.w3.org/1999/xlink"><radialGradient id="a" cx="0" cy="0" gradientTransform="matrix(-4.9753871 15.42987207 -54.73425475 -17.64914858 91.7083 330.828)" gradientUnits="userSpaceOnUse" r="1"><stop offset="0" stop-color="#fff73a"/><stop offset=".229165" stop-color="#50fdff" stop-opacity=".21"/><stop offset="1" stop-color="#0643a3" stop-opacity="0"/></radialGradient><radialGradient id="b" cx="0" cy="0" gradientTransform="matrix(-6.12903595 58.63775533 -56.89355731 -5.94672589 190.995 139.531)" gradientUnits="userSpaceOnUse" r="1"><stop offset=".0781224" stop-color="#fff73a"/><stop offset="1" stop-color="#17e6e8" stop-opacity=".13"/></radialGradient><clipPath id="c"><rect height="400" rx="8" width="480"/></clipPath><g clip-path="url(#c)"><path d="m439.088 423.936c29.783 10.378 62.575-52.445 43.152-66.997-29.08-21.787-72.935 56.618-43.152 66.997z" fill="#fff" fill-opacity=".3"/><path clip-rule="evenodd" d="m436.215 56.5346c.257.2506.263.6621.012.9191-16.51 16.933-28.842 22.1156-39.796 21.7049-5.457-.2046-10.516-1.7968-15.51-3.9311-2.898-1.2386-5.823-2.6837-8.795-4.1517-2.107-1.0408-4.237-2.0931-6.397-3.0915-.326-.1506-.468-.5368-.317-.8627.15-.3259.537-.468.862-.3174 2.236 1.0331 4.385 2.0955 6.492 3.1372 2.929 1.4483 5.778 2.8567 8.666 4.0907 4.922 2.1038 9.815 3.6312 15.048 3.8274 10.425.3909 22.423-4.4994 38.816-21.3133.251-.257.662-.2622.919-.0116z" fill="#fff73a" fill-rule="evenodd"/><path d="m146.443 348.477c-2.748 8.521-29.481 7.528-59.71-2.219-30.229-9.748-52.5069-24.557-49.7591-33.079s29.4807-7.528 59.7097 2.219c30.2294 9.747 52.5064 24.557 49.7594 33.079z" fill="url(#a)"/><path clip-rule="evenodd" d="m179.549 184.452c.314.173.429.568.257.883-.639 1.165-1.773 4.443-2.135 7.752-.18 1.649-.163 3.255.175 4.585.335 1.322.969 2.31 1.983 2.851.316.17.436.563.266.88-.169.317-.563.436-.879.267-1.439-.769-2.238-2.133-2.63-3.679-.391-1.538-.396-3.317-.207-5.046.377-3.446 1.552-6.895 2.287-8.235.173-.315.568-.43.883-.258z" fill="#ffbd00" fill-rule="evenodd"/><path clip-rule="evenodd" d="m268.319 149.525c-.062.075-.127.155-.194.238-1.682 2.066-2.496 3.821-2.683 5.318-.183 1.471.231 2.76 1.154 3.94.183.234.184.562.004.797-.181.235-.498.318-.771.202-1.454-.621-3.051-.165-4.714 1.178-1.659 1.339-3.254 3.47-4.58 5.867-.154.278-.486.404-.785.298-.3-.106-.479-.413-.424-.726.445-2.512 1.047-4.475 1.544-6.095.12-.392.234-.764.339-1.118.54-1.839.8-3.174.45-4.59-.053-.212.005-.436.152-.596.148-.161.367-.236.582-.201.417.067.936 0 1.551-.212.61-.209 1.274-.547 1.96-.971 1.373-.849 2.77-2.003 3.914-3.035.86-.776 1.555-1.46 1.994-1.893.146-.144.264-.261.351-.343.041-.04.083-.079.12-.11.015-.014.046-.04.083-.065.016-.01.059-.04.12-.065.029-.013.091-.037.174-.048.076-.009.251-.018.43.095.202.127.277.321.297.453.018.117 0 .209-.009.248-.019.081-.05.14-.058.157-.023.045-.048.082-.06.099-.029.042-.066.092-.105.142-.14.18-.414.517-.836 1.036zm-9.248 5.821c.173 1.469-.154 2.873-.615 4.444-.11.373-.228.758-.35 1.158-.22.716-.455 1.482-.685 2.323.894-1.203 1.863-2.266 2.877-3.084 1.36-1.098 2.872-1.807 4.416-1.738-.512-1.072-.722-2.247-.562-3.529.107-.853.374-1.738.809-2.661-.757.608-1.564 1.2-2.373 1.701-.736.455-1.49.843-2.222 1.095-.429.147-.865.252-1.295.291z" fill="#fff" fill-rule="evenodd"/><path d="m303.15 171.324c-7.841 11.761-19.773 44.585-16.846 58.715l47.893-18.938-2.333-29.092c-1.052.228-5.023.549-12.488 0s-14.401-6.142-16.226-10.685z" fill="#fff" fill-opacity=".3"/><path d="m361.904 370.827c67.905 5.211 64.283-44.611 90.358-62.898 164.516-115.378 0-267.0754-112.641-182.01 1.471.555 10.286 3.346 15.616 7.548 5.378 4.238 10.078 17.944 22.917 25.647 10.738 6.443 19.574 7.78 45.642.171 26.152-7.633 39.864 1.042 43.922 9.017 2.688 5.283 3.348 22.291 1.978 25.785l-25.446 25.957-66.096 9.832-5.037 25.622-8.284 46.59c1.845 2.699 6.668 12.149 8.284 28.696 1.438 14.728-2.523 30.438-11.213 40.043z" fill="#fff" fill-opacity=".3"/><path d="m390.796 235.154c-27.613 2.123-63.819-17.729-66.569-53.5 4.907.198 14.391-3.189 21.343-10.891-.464-1.897-1.585-4.455-2.1-5.58-.089-.19-.178-.381-.266-.572 0 0 .102.213.266.572 16.823 35.887 41.101 49.542 64.76 48.832 26.838-.806 38.035-20.513 45.325-31.215s15.634-7.973 17.367.583c-.417 9.753-1.112 48.622-44.058 53.969 3.91-1.906 9.266-10.448 4.023-12.221-8.913-3.015-17.485 8.284-40.091 10.023z" fill="#043a97"/><path clip-rule="evenodd" d="m327.126 123.645c.038-.357.359-.615.716-.577 5.756.62 10.208 1.291 14.307 2.632 4.111 1.346 7.839 3.356 12.174 6.622 1.22.919 2.446 2.279 3.721 3.887 1.038 1.309 2.132 2.811 3.297 4.413.27.371.544.747.822 1.128 2.968 4.062 6.439 8.649 10.826 12.617 4.382 3.963 9.666 7.295 16.251 8.855 6.584 1.558 14.518 1.357 24.221-1.826 9.598-3.148 24.187-7.011 36.256-5.418 6.05.798 11.535 2.977 15.423 7.37 3.891 4.398 6.098 10.921 5.782 20.236-.012.358-.312.639-.671.627s-.64-.313-.628-.671c.309-9.093-1.849-15.254-5.457-19.331-3.612-4.081-8.76-6.169-14.619-6.942-11.751-1.551-26.091 2.219-35.681 5.365-9.894 3.245-18.073 3.477-24.925 1.855-6.85-1.622-12.323-5.086-16.824-9.156-4.495-4.065-8.032-8.748-11.004-12.814-.282-.386-.558-.766-.83-1.14-1.165-1.6-2.238-3.075-3.257-4.36-1.26-1.588-2.403-2.842-3.485-3.657-4.245-3.198-7.847-5.132-11.797-6.424-3.961-1.297-8.299-1.957-14.041-2.575-.357-.039-.615-.359-.577-.716z" fill="#0c0c0d" fill-rule="evenodd"/><path clip-rule="evenodd" d="m342.271 163.319c.332-.136.712.023.848.355.565 1.382 2.046 4.584 3.118 6.404.183.309.08.708-.229.89-.31.182-.708.079-.89-.23-1.116-1.892-2.623-5.157-3.202-6.571-.136-.333.023-.712.355-.848z" fill="#0c0c0d" fill-rule="evenodd"/><path d="m317.316 135.131c-1.512-.036-1.306-1.989.426-3.457 1.192-1.01 2.811-1.174 4.793.448 3.445 2.82 3.314 7.548 2.9 7.221-.414-.328-.613-1.191-2.704-2.659-2.333-1.639-3.583-1.509-5.415-1.553z" fill="#0c0c0d"/><path clip-rule="evenodd" d="m255.392 310.612c.334-.132.711.031.843.365 2.151 5.44 4.342 16.634 6.21 28.162 1.872 11.556 3.432 23.537 4.305 30.606.045.357-.209.681-.565.725s-.681-.209-.725-.565c-.872-7.063-2.43-19.025-4.298-30.559-1.874-11.562-4.047-22.607-6.136-27.891-.132-.334.032-.711.366-.843z" fill="#0c0c0d" fill-rule="evenodd"/><path clip-rule="evenodd" d="m222.581 358.705c.152.326.011.712-.315.864-10.637 4.954-20.205 10.543-26.96 16.793-6.757 6.25-10.616 13.081-10.053 20.54.513 6.793 4.855 16.673 11.703 28.469 6.829 11.765 16.086 25.333 26.314 39.47 10.226 14.135 21.413 28.826 32.098 42.836l1.074 1.408c10.289 13.491 20.067 26.311 28.001 37.329.209.291.143.697-.148.907s-.697.144-.907-.148c-7.923-11.003-17.691-23.81-27.986-37.308l-1.068-1.4c-10.683-14.008-21.88-28.712-32.117-42.862-10.236-14.149-19.523-27.758-26.385-39.579-6.843-11.789-11.338-21.901-11.876-29.024-.605-8.02 3.568-15.21 10.467-21.593 6.9-6.383 16.61-12.04 27.295-17.016.325-.152.712-.011.863.314z" fill="#0c0c0d" fill-rule="evenodd"/><path d="m264.57 253.41c.701-.191 4.86-2.91 6.851-4.246 8.906 9.582 23.035 25.68 29.731 31.51l-27.177 15.941-17.192-5.872-6.775-6.591s5.206 5.065 6.775 1.858c3.134-6.409-1.307-27.235-3.919-36.846l7.088 3.768c.292-.212 1.194-.717 2.468-1.035 1.593-.398 1.274 1.752 2.15 1.513z" fill="#ffd048"/><path d="m322.205 203.553c-16.373 3.675-18.298 4.692-37.01 25.744 4.532 3.841 14.317 11.154 18.86 13.77 2.064 12.383-.86 28.993-2.58 35.75 0 0-5.959-4.074-12.162-11.425 0 13.268 5.276 31.649 7.913 39.182l9.896 4.722c16.658-5.689 50.683-17.145 53.521-17.449 3.548-.38 5.335 3.934 8.008 1.26 2.673-2.673 16.039-39.094 11.027-70.169s-41.1-25.061-57.473-21.385z" fill="#ffde80"/><path clip-rule="evenodd" d="m168.086 174.047c-.49 4.018-3.711 30.442-12.598 52.444-7.556 18.707-19.539 27.799-31.439 30.44-3.539.785-7.065.998-10.455.726.024 1.414-.003 2.897-.085 4.453-1.391 26.363-8.187 40.814-13.7815 52.059-.1949.391-.3883.779-.5798 1.163-5.2896 10.608-9.1562 18.362-5.987 31.245 3.2583 13.245 15.6613 20.659 29.6183 23.377 7.597 1.479 15.571 1.547 22.64.434 1.322-2.26 2.612-4.369 3.837-6.295 2.394-3.763 5.433-6.277 8.376-7.749 2.928-1.464 5.809-1.919 7.887-1.483 1.039.217 1.941.673 2.503 1.411.581.761.728 1.727.426 2.784-.295 1.035-1.019 2.167-2.189 3.37-1.175 1.208-2.831 2.521-5.045 3.914-3.929 2.474-9.154 4.252-14.98 5.232-9.085 15.64-19.458 38.171-20.571 57.454-.643 11.127 1.803 21.065 9.239 28.01 7.448 6.955 20.037 11.037 39.973 10.13l.059 1.298c-20.101.915-33.107-3.182-40.919-10.478-7.824-7.307-10.305-17.694-9.65-29.035 1.108-19.204 11.22-41.451 20.221-57.125-6.983.976-14.71.834-22.055-.596-14.169-2.759-27.1966-10.375-30.6327-24.343-3.2845-13.351.7767-21.492 6.0529-32.069.2024-.406.4067-.815.6124-1.229 5.5524-11.16 12.2684-25.43 13.6474-51.548.083-1.584.108-3.087.081-4.513-7.459-.88-14.1693-4.104-18.7892-8.711-4.1276-4.116-4.999-8.12-3.6616-11.147 1.3208-2.99 4.6786-4.736 8.3808-4.589 3.732.148 7.855 2.201 10.886 6.835 2.431 3.716 4.152 9.074 4.449 16.434 3.304.279 6.748.08 10.21-.688 11.416-2.534 23.093-11.28 30.516-29.658 8.822-21.843 12.027-48.134 12.513-52.124l.001-.002 1.29.157zm-55.836 82.167c-.311-7.086-1.978-12.144-4.23-15.587-2.821-4.313-6.574-6.117-9.8495-6.247-3.3049-.131-6.0851 1.427-7.1402 3.815-1.0384 2.35-.5235 5.798 3.3905 9.702 4.3656 4.353 10.7282 7.437 17.8292 8.317zm34.848 113.884c5.237-.986 9.897-2.638 13.424-4.858 2.155-1.357 3.722-2.607 4.805-3.721 1.088-1.119 1.657-2.068 1.871-2.82.209-.729.083-1.255-.209-1.639-.311-.407-.884-.748-1.737-.927-1.708-.358-4.286-.002-7.038 1.374-2.735 1.367-5.595 3.722-7.861 7.284-1.046 1.644-2.138 3.42-3.255 5.307z" fill="#fff73a" fill-rule="evenodd"/><path clip-rule="evenodd" d="m283.43 76.9734c-5.629 6.142-8.089 13.2202-6.328 20.0793.346 1.3481.883 2.0965 1.434 2.4574.531.3477 1.182.405 1.942.137 1.575-.5548 3.429-2.4607 4.706-5.3197 2.001-4.4794 2.46-11.0429-1.754-17.354zm-.768-1.0785c-5.977 6.4224-8.744 13.9844-6.819 21.4811.391 1.5237 1.059 2.6178 1.981 3.222.942.617 2.033.646 3.086.275 2.053-.723 4.114-3 5.461-6.0155 2.196-4.9157 2.629-12.0734-2.023-18.8486 2.274-2.3043 5.002-4.4634 8.125-6.4132 11.706-7.3096 28.797-11.5403 47.632-9.2445 5.02.6119 9.508 1.9099 13.637 3.6081.332.1365.712-.022.848-.354.137-.332-.022-.7118-.354-.8483-4.222-1.7366-8.823-3.0684-13.974-3.6963-19.105-2.3287-36.499 1.9527-48.478 9.4323-3.117 1.9461-5.878 4.1181-8.209 6.4548-.988-1.2804-2.167-2.5418-3.559-3.7664-3.154-2.7748-8.18-3.7551-14-3.3568-5.846.4002-12.617 2.1975-19.403 5.1324-13.558 5.8636-27.326 16.3361-33.938 29.546-.161.321-.031.711.29.872s.712.031.872-.29c6.43-12.8466 19.906-23.1456 33.292-28.9348 6.686-2.8915 13.311-4.6409 18.975-5.0286 5.69-.3894 10.286.6013 13.053 3.0359 1.384 1.2172 2.543 2.4694 3.505 3.7374z" fill="#fff73a" fill-rule="evenodd"/><path clip-rule="evenodd" d="m350.303 307.692c.351.076.573.423.497.773-1.278 5.882-2.666 10.315-3.886 13.473-.957 2.478-1.82 4.195-2.457 5.211 3.542 1.751 10.213 6.456 13.617 13.993.546 1.21 1.027 2.031 1.436 2.549.429.542.691.642.773.651.002.001.094.032.268-.241.177-.276.344-.74.467-1.382.242-1.27.275-3.03.067-4.812-.209-1.786-.652-3.528-1.315-4.782-.168-.317-.047-.71.27-.878s.711-.047.878.27c.768 1.45 1.24 3.367 1.458 5.239.219 1.875.193 3.773-.081 5.207-.136.71-.342 1.36-.649 1.839-.309.483-.81.912-1.509.832-.619-.07-1.165-.527-1.647-1.137-.502-.636-1.034-1.564-1.601-2.82-3.477-7.697-10.579-12.331-13.662-13.667l-.774-.335.521-.663c.522-.665 1.528-2.437 2.728-5.542 1.192-3.088 2.562-7.456 3.828-13.281.076-.35.422-.573.773-.497z" fill="#2a8bff" fill-rule="evenodd"/><path d="m289.359 413.622c5.98 0 12.322-6.071 36.261-21.844-11.578 2.273-35.834 6.451-40.229 4.986s-10.551-26.946-13.08-39.503l-8.241-4.055 6.171 46.874s13.138 13.542 19.118 13.542z" fill="#0c0c0d"/><path d="m284.696 396.12c-2.961-3.43-9.182-9.089-17.391-41.661l21.671 9.174c-.26 10.829 0 32.487-4.28 32.487z" fill="#167dff"/><path d="m266.707 370.285c-7.073-.884-24.365-.114-36.945 10.041 8.273 25.641 16.986 41.624 27.785 67.77 5.98-2.471 13.076-3.03 19.77-.511-1.137-9.283.696-21.241 2.148-27.493-1.073-1.011-3.02-3.275-4.99-8.125-1.97-4.851-6-29.809-7.768-41.682z" fill="#fff"/><path clip-rule="evenodd" d="m355.139 337.59c.353-.064.691.17.756.524.357 1.968-.34 5.029-2.312 8.541-1.987 3.54-5.314 7.623-10.36 11.663-10.095 8.081-27.081 16-54.069 19.093-.357.041-.679-.215-.72-.572s.215-.679.572-.72c26.804-3.071 43.542-10.921 53.405-18.816 4.932-3.949 8.143-7.907 10.039-11.285 1.912-3.406 2.444-6.141 2.165-7.672-.064-.353.171-.691.524-.756z" fill="#2a8bff" fill-rule="evenodd"/><path d="m328.944 321.162c-2.83.667-8.42-4.717-13.48-7.659-2.258-1.313-4.256-2.248-5.793-2.647-3.468 1.269-2.815-.295-2.815-.295 8.608-4.229 29.373 6.061 27.745 7.828-2.508 2.722-8.452-3.756-19.137-6.721 5.532 3.52 15.744 8.959 13.48 9.494z" fill="#0c0c0d"/><path d="m368.789 303.459c-.106-1.369-.567-5.056-1.325-7.708-3.79 0-2.781-1.451-5.939-2.241-2.526-.631-9.472 2.173-12.63 3.804l1.103 8.512z" fill="#0c0c0d"/><path d="m343.515 306.194-1.127-6.739-17.349 5.746v3.471z" fill="#0c0c0d"/><path d="m318.856 309.623v-2.408l-11.852 4.136z" fill="#0c0c0d"/><path clip-rule="evenodd" d="m178.436 227.864c-.06-.028-.135-.064-.225-.106-.242-.113-.589-.272-1.008-.458-.838-.372-1.974-.852-3.154-1.283-1.173-.428-2.42-.818-3.473-.995-.524-.088-1.035-.13-1.48-.082-.433.047-.916.192-1.237.587-.48.59-.709 1.289-.465 2.049.224.697.812 1.318 1.627 1.901 1.641 1.173 4.592 2.456 9.08 3.98.835.283 1.537.534 2.166.759 2.235.798 3.539 1.264 6.563 1.681 9.511 1.311 18.25 5.282 24.545 12.445 10.555 12.01 27.676 30.52 44.077 41.816.296.203.7.129.904-.167s.129-.7-.167-.904c-16.254-11.194-33.281-29.592-43.838-41.604-6.542-7.443-15.591-11.529-25.343-12.874-2.885-.397-4.065-.819-6.265-1.604-.634-.227-1.354-.484-2.224-.779-4.491-1.525-7.274-2.758-8.742-3.807-.739-.528-1.05-.945-1.145-1.241-.076-.235-.045-.486.236-.831.005-.007.078-.083.368-.114.277-.03.655-.008 1.125.071.934.157 2.093.515 3.243.934 1.143.418 2.249.885 3.072 1.25.411.182.749.338.985.448.118.055.21.098.272.128l.07.034.018.008.005.003c.103.05.218.072.332.063h.009l.03-.003c.026-.001.065-.004.117-.007.104-.007.257-.017.453-.027.392-.021.954-.046 1.634-.063 1.36-.033 3.181-.033 5.035.1.358.026.669-.243.695-.601.025-.358-.244-.67-.602-.695-1.91-.138-3.775-.138-5.16-.103-.694.017-1.269.042-1.671.064-.198.01-.354.02-.462.027z" fill="#0c0c0d" fill-rule="evenodd"/><path d="m208.261 213.357c-.652 0-5.002-.615-7.034 1.739 1.926-1.017 13.954.423 19.727 1.27l4.213-3.277-3.478-.936c-4.67 1.375-11.477-.797-12.909.454-.493.431-.519.75-.519.75z" fill="#0c0c0d"/><path d="m307.543 155.55c-1.734 2.16-6.877 7.925-6.282 11.999 1.327-1.729 2.447-.962 3.129-1.608 6.097-5.775 6.713-10.216 6.563-12.173z" fill="#0c0c0d"/><path clip-rule="evenodd" d="m347.736 143.648c-3.098.239-5.781 1.783-7.553 4.055-.543.695-1.001 1.459-1.358 2.274-.144.329-.527.478-.856.334s-.478-.527-.334-.856c.401-.915.914-1.772 1.523-2.552 1.987-2.548 5.001-4.283 8.478-4.551 6.558-.504 12.283 4.403 12.788 10.962.504 6.558-4.404 12.283-10.962 12.787-3.005.232-5.837-.674-8.07-2.354-.287-.216-.344-.624-.128-.911s.623-.344.91-.128c1.99 1.497 4.511 2.303 7.189 2.097 5.842-.449 10.214-5.549 9.765-11.392-.45-5.842-5.55-10.214-11.392-9.765z" fill="#0c0c0d" fill-rule="evenodd"/><path d="m305.117 159.454c-5.139 1.489-6.6.91-7.347-2.075 1.493.368 6.244.123 13.305-3.794-.134.934-.682 2.897-1.805 3.275-1.122.378-3.329 1.766-4.153 2.594z" fill="#fff"/><g fill="#0c0c0d"><path clip-rule="evenodd" d="m311.042 155.71c.269.239.293.649.055.918-.953 1.071-2.316 1.711-3.453 2.175-.273.111-.521.207-.752.297-.283.11-.54.21-.79.316-.454.194-.701.338-.806.444l-.119.119-.161.047c-1.296.375-2.361.629-3.24.745-.875.115-1.622.101-2.252-.108-1.35-.448-1.863-1.672-2.237-3.17-.087-.349.125-.702.473-.789s.701.125.788.473c.372 1.487.748 2.04 1.385 2.252.364.12.886.156 1.673.053.753-.099 1.7-.319 2.906-.664.3-.246.701-.436 1.081-.598.252-.107.554-.225.863-.346.234-.091.473-.184.697-.275 1.123-.458 2.235-1.006 2.972-1.835.238-.268.649-.292.917-.054z" fill-rule="evenodd"/><path clip-rule="evenodd" d="m328.28 125.816c.075.351-.149.696-.5.771-7.24 1.541-11.159 3.965-13.854 6.99-1.359 1.524-2.425 3.222-3.451 5.088-.49.892-.968 1.816-1.466 2.778-.023.044-.046.089-.069.134-.521 1.008-1.064 2.053-1.657 3.128-.846 1.534-2.28 2.455-3.834 2.969-1.552.513-3.27.638-4.787.553-1.013-.058-1.769.668-1.706 1.45.155 1.932.541 4.687 1.488 7.257 1.622-.182 3.867-.682 6.08-1.374 2.45-.765 4.775-1.737 6.146-2.71.191-.136.44-.158.652-.059.212.1.354.306.372.539.114 1.477-.257 3.136-.883 4.75-.628 1.622-1.532 3.245-2.534 4.666-.999 1.418-2.115 2.66-3.182 3.505-.532.422-1.072.761-1.596.967-.345.135-.708.222-1.068.221.009.323.097.819.294 1.454.408 1.315 1.246 3.095 2.588 4.9 2.676 3.6 7.322 7.255 14.51 7.552 8.765.362 15.125-2.437 19.294-5.316 2.086-1.442 3.625-2.905 4.64-4.004.507-.549.882-1.007 1.129-1.325.124-.158.215-.282.275-.365.029-.041.051-.072.065-.092l.015-.021.003-.005c.2-.298.603-.378.901-.179.299.2.379.604.179.902l-.492-.329c.492.329.492.329.492.33l-.001.001-.002.002-.006.009-.021.031c-.018.026-.044.063-.078.111-.069.095-.169.231-.303.403-.268.344-.667.83-1.201 1.409-1.068 1.157-2.678 2.686-4.857 4.191-4.361 3.013-10.995 5.922-20.086 5.546-7.658-.316-12.641-4.23-15.5-8.076-1.425-1.917-2.332-3.829-2.786-5.29-.224-.724-.349-1.371-.353-1.87-.002-.242.023-.507.121-.739.106-.249.345-.546.764-.578.078-.006.155.002.23.023.158.045.409.039.778-.106.366-.144.794-.402 1.265-.776.941-.746 1.975-1.886 2.927-3.235.95-1.347 1.799-2.877 2.384-4.387.414-1.068.687-2.105.78-3.047-1.503.844-3.485 1.619-5.467 2.238-2.493.779-5.075 1.338-6.849 1.475-.283.021-.548-.144-.653-.408-1.143-2.868-1.581-5.984-1.75-8.088-.143-1.788 1.515-2.939 3.076-2.851 1.406.079 2.951-.041 4.305-.489 1.35-.447 2.463-1.202 3.104-2.363.584-1.057 1.119-2.089 1.64-3.097.024-.047.048-.093.072-.14.496-.957.981-1.895 1.479-2.802 1.047-1.903 2.167-3.697 3.619-5.326 2.924-3.282 7.118-5.814 14.554-7.397.351-.074.696.15.771.501z" fill-rule="evenodd"/><path clip-rule="evenodd" d="m348.735 152.456c-1.936 1.077-3.711 2.436-4.744 3.352-.269.239-.68.214-.918-.055s-.213-.679.055-.917c1.092-.968 2.943-2.385 4.975-3.516 2.001-1.114 4.312-2.025 6.276-1.805.357.04.614.361.574.718s-.362.613-.719.574c-1.532-.172-3.533.555-5.499 1.649z" fill-rule="evenodd"/><path clip-rule="evenodd" d="m206.536 288.58c2.52-4.195 7.835-7.365 18.697-7.198 4.387.068 10.422 1.358 17.289 3.364 6.881 2.011 14.648 4.758 22.52 7.771 13.196 5.05 26.715 10.861 36.878 15.229 1.962.843 3.799 1.632 5.484 2.352.33.141.484.523.343.853s-.523.484-.853.343c-1.69-.722-3.529-1.513-5.493-2.357-10.165-4.368-23.655-10.166-36.823-15.206-7.856-3.007-15.588-5.74-22.421-7.737-6.847-2.001-12.742-3.247-16.944-3.312-10.614-.163-15.375 2.925-17.563 6.568-2.006 3.34-1.967 7.29-1.937 10.283.003.347.007.681.007 1 0 1.433.488 4.162 1.42 7.991.926 3.804 2.273 8.629 3.954 14.214 3.361 11.169 8.051 25.354 13.362 40.451 10.624 30.201 23.72 64.009 33.62 84.582.155.324.019.712-.304.868-.324.155-.712.019-.868-.304-9.932-20.64-23.046-54.502-33.674-84.714-5.315-15.109-10.012-29.315-13.381-40.508-1.684-5.596-3.038-10.446-3.972-14.281-.927-3.811-1.457-6.687-1.457-8.299 0-.305-.004-.632-.008-.977-.035-2.96-.086-7.296 2.124-10.976z" fill-rule="evenodd"/><path clip-rule="evenodd" d="m275.905 297.244c.247-.261.658-.272.919-.025 2.017 1.911 3.718 4.842 5.157 8.448 1.442 3.617 2.641 7.964 3.627 12.757 1.972 9.587 3.106 21.021 3.621 32.096.514 11.077.409 21.816-.104 30.021-.256 4.1-.615 7.58-1.053 10.158-.218 1.288-.459 2.367-.722 3.193-.132.412-.274.776-.428 1.076-.15.291-.335.569-.574.764-.277.227-.687.186-.914-.092-.228-.278-.187-.687.091-.914.04-.033.126-.13.241-.353.11-.214.227-.505.345-.876.237-.744.466-1.756.68-3.015.426-2.515.782-5.944 1.037-10.023.509-8.152.614-18.843.102-29.879-.512-11.037-1.642-22.397-3.596-31.894-.976-4.748-2.156-9.016-3.561-12.537-1.408-3.531-3.023-6.262-4.843-7.986-.261-.247-.272-.659-.025-.919z" fill-rule="evenodd"/><path clip-rule="evenodd" d="m263.526 352.584c.156-.324.544-.459.867-.303 3.424 1.651 8.766 4.164 13.66 6.336 2.447 1.086 4.778 2.085 6.699 2.847 1.944.772 3.408 1.276 4.154 1.408.353.063.589.4.527.753-.062.354-.4.59-.753.527-.899-.158-2.486-.717-4.408-1.479-1.944-.772-4.292-1.778-6.747-2.868-4.91-2.179-10.264-4.698-13.696-6.354-.324-.156-.459-.544-.303-.867z" fill-rule="evenodd"/><path clip-rule="evenodd" d="m364.159 300.667c.293-.207.699-.137.906.157 1.609 2.285 3.293 6.115 4.749 10.827 1.46 4.727 2.705 10.388 3.415 16.368 1.418 11.932.72 25.254-4.78 34.928-9.568 16.827-28.336 25.475-45.572 29.926-17.259 4.457-33.135 4.746-37.121 4.746-.366 0-.714-.147-1.018-.334-.311-.193-.632-.462-.958-.787-.651-.65-1.383-1.581-2.165-2.737-1.567-2.316-3.391-5.612-5.242-9.571-3.705-7.92-7.553-18.557-9.708-29.44-.07-.352.159-.694.511-.764.352-.069.694.16.764.512 2.131 10.764 5.943 21.3 9.61 29.141 1.834 3.921 3.625 7.152 5.142 9.394.76 1.123 1.438 1.978 2.006 2.544.285.284.526.48.723.602.205.126.31.14.335.14 3.939 0 19.69-.287 36.796-4.705 17.129-4.423 35.463-12.948 44.767-29.31 5.295-9.313 6.025-22.299 4.619-34.132-.701-5.902-1.93-11.486-3.366-16.137-1.441-4.664-3.077-8.342-4.57-10.463-.207-.293-.137-.699.157-.905z" fill-rule="evenodd"/><path clip-rule="evenodd" d="m246.123 200.143c4.339-.146 7.826 1.64 11.197 4.829 14.506 13.724 29.996 25.43 41.832 33.419 5.918 3.995 10.914 7.054 14.411 8.97 1.752.96 3.108 1.622 4.008 1.973.205.08.376.139.515.182.075-1.067.624-1.855 1.424-2.293.838-.46 1.883-.5 2.801-.194.113-.079.274-.219.488-.431.455-.453 1.061-1.154 1.789-2.06 1.451-1.809 3.336-4.374 5.379-7.26 4.085-5.768 8.78-12.778 11.856-17.473.197-.3.6-.384.9-.188.3.197.384.6.187.9-3.081 4.703-7.784 11.727-11.882 17.512-2.047 2.891-3.95 5.483-5.426 7.322-.736.917-1.378 1.663-1.886 2.169-.251.249-.491.462-.709.608-.107.072-.235.145-.376.191-.133.044-.357.089-.598-.008-.657-.262-1.386-.23-1.898.051-.467.256-.828.755-.747 1.653.012.127-.001.286-.083.446-.084.164-.213.275-.344.342-.23.118-.475.11-.625.095-.332-.033-.76-.167-1.237-.353-.98-.382-2.395-1.076-4.161-2.044-3.542-1.941-8.574-5.023-14.514-9.032-11.881-8.02-27.429-19.769-41.998-33.553-3.207-3.035-6.373-4.604-10.259-4.474-1.229.041-2.407.41-3.599.934-.765.336-1.494.715-2.243 1.104-.444.23-.895.465-1.364.696-3.028 1.49-6.388 2.351-9.267 3.089-.822.211-1.605.412-2.33.614-1.667.465-2.993.929-3.877 1.512-.434.286-.73.581-.91.89-.175.299-.261.641-.227 1.065.016.19.087.326.224.445.153.135.411.266.816.364.817.197 2.029.211 3.568.061 3.06-.3 7.157-1.22 11.377-2.284.348-.087.701.124.789.472s-.123.701-.471.789c-4.218 1.063-8.4 2.007-11.568 2.316-1.575.154-2.964.159-3.999-.09-.521-.126-1.001-.327-1.37-.65-.385-.338-.618-.785-.661-1.318-.055-.678.084-1.288.4-1.828.311-.53.773-.959 1.317-1.317 1.071-.707 2.577-1.214 4.242-1.679.775-.217 1.593-.427 2.439-.643 2.863-.735 6.04-1.55 8.934-2.975.414-.203.841-.425 1.277-.651.78-.405 1.585-.823 2.381-1.172 1.267-.557 2.618-.994 4.078-1.043zm72.38 49.463s-.003 0-.009 0c.006-.001.009 0 .009 0z" fill-rule="evenodd"/><path clip-rule="evenodd" d="m321.482 247.256c.2-.298.604-.378.902-.178 2.158 1.446 4.239 4.111 4.934 5.182.196.301.11.704-.191.899-.301.196-.704.11-.899-.191-.652-1.004-2.619-3.505-4.568-4.81-.298-.2-.377-.604-.178-.902zm-3.383 2.467c.251-.257.663-.262.919-.011 4.909 4.799 6.645 9.5 6.891 11.367.047.356-.204.682-.56.729s-.682-.204-.729-.56c-.201-1.527-1.771-5.972-6.51-10.606-.257-.251-.262-.663-.011-.919z" fill-rule="evenodd"/><path clip-rule="evenodd" d="m259.821 252.874c.267-.24.677-.219.918.048 1.464 1.627 2.713 3.819 3.676 5.868.967 2.055 1.665 4.009 2.015 5.192.102.345-.095.706-.439.808s-.706-.095-.808-.439c-.331-1.121-1.006-3.014-1.944-5.008-.941-2.001-2.126-4.062-3.467-5.551-.24-.267-.218-.678.049-.918z" fill-rule="evenodd"/><path clip-rule="evenodd" d="m194.906 216.486c1.336-.251 3.103-.47 5.634-.288.358.026.627.337.601.695s-.337.628-.695.602c-2.4-.173-4.053.034-5.299.269-.314.059-.604.121-.879.179-.031.007-.061.013-.092.02-.239.051-.471.101-.69.143-.492.094-.974.162-1.455.128-1.022-.074-1.966-.171-2.822-.259-.208-.021-.411-.042-.609-.062-1.02-.102-1.892-.177-2.649-.174-1.501.008-2.393.323-3.004 1.207-.204.295-.609.369-.905.165-.295-.204-.369-.609-.165-.904.966-1.397 2.39-1.759 4.068-1.768.833-.004 1.768.079 2.785.181.203.02.409.041.62.063.855.088 1.774.182 2.775.254.306.022.652-.019 1.116-.108.204-.039.421-.085.663-.137.03-.007.061-.013.092-.02.276-.059.579-.123.91-.186zm14.227 4.217c.236-.27.647-.297.917-.06.772.677 1.617 1.46 2.551 2.369 1.181 1.15 3.69 2.923 7.045 5.096 3.336 2.161 7.453 4.684 11.808 7.328 1.147.696 2.311 1.401 3.481 2.109 7.704 4.665 15.689 9.501 21.053 13.214.295.205.369.61.165.905-.205.295-.61.369-.905.164-5.328-3.689-13.272-8.499-20.982-13.168-1.171-.709-2.336-1.415-3.486-2.113-4.355-2.643-8.487-5.175-11.841-7.348-3.335-2.161-5.956-4.001-7.245-5.255-.921-.896-1.749-1.665-2.501-2.324-.27-.237-.297-.647-.06-.917z" fill-rule="evenodd"/><path clip-rule="evenodd" d="m204.398 223.873c.02.359-.254.665-.613.685-2.357.131-4.354.937-6.139 1.843-.56.284-1.08.567-1.588.844-.317.173-.629.343-.943.509-.796.421-1.579.802-2.343 1.034-.343.105-.706-.089-.811-.432-.104-.344.089-.707.433-.811.638-.195 1.329-.525 2.113-.94.284-.15.584-.314.897-.484.525-.286 1.083-.59 1.653-.88 1.854-.94 4.038-1.836 6.656-1.981.359-.02.666.255.685.613z" fill-rule="evenodd"/><path clip-rule="evenodd" d="m177.917 220.921c-3.115-.67-5.987-1.563-8.359-2.302-.25-.077-.494-.153-.732-.227-1.251-.387-2.357-.72-3.247-.921-.446-.1-.856-.172-1.214-.199-.347-.026-.708-.015-1.021.099-.65.235-1.125.606-1.399 1.091-.273.483-.305 1.007-.209 1.47.095.459.319.88.595 1.212.271.324.636.613 1.052.734.344.1.705-.098.805-.443.101-.345-.098-.705-.442-.806-.095-.027-.255-.124-.417-.318-.156-.188-.274-.419-.32-.643-.046-.22-.021-.41.068-.566.088-.156.28-.353.71-.509.057-.021.2-.045.481-.024.269.02.609.077 1.025.17.832.188 1.89.506 3.149.895.237.074.481.15.731.227 2.386.743 5.338 1.661 8.539 2.345.045.01.091.015.136.015.224 0 .488-.001.782-.002 1.135-.005 2.736-.011 4.361.032 2.068.053 4.089.184 5.221.471.348.088.702-.123.79-.471s-.123-.702-.471-.79c-1.294-.327-3.458-.457-5.506-.51-1.647-.043-3.275-.037-4.409-.032-.261.001-.496.002-.699.002z" fill-rule="evenodd"/><path clip-rule="evenodd" d="m167.773 216.911c.606-.524 1.635-.713 3.189-.601 1.393.101 3.053.457 4.907.881.284.065.573.131.868.199 1.616.373 3.389.781 5.319 1.134 4.403-.547 6.827-.541 12.436.011.357.035.618.353.583.71-.035.358-.353.619-.711.584-5.578-.549-7.897-.548-12.246-.002-.066.008-.132.006-.197-.006-2-.363-3.838-.786-5.482-1.165-.293-.068-.579-.134-.86-.198-1.869-.427-3.433-.759-4.71-.851-1.506-.109-2.061.127-2.246.287-.127.11-.172.271-.122.651.046.356-.205.682-.56.729-.356.046-.683-.204-.729-.56-.058-.443-.104-1.228.561-1.803z" fill-rule="evenodd"/><path clip-rule="evenodd" d="m163.869 220.566c.71-.177 1.601-.168 2.638.062 1.304.291 4.297 1.275 6.92 2.17 1.321.451 2.563.884 3.474 1.204.456.161.829.293 1.089.385l.251.089c.022-.003.045-.007.071-.01.152-.021.373-.051.652-.083.559-.065 1.354-.143 2.304-.195 1.895-.103 4.426-.104 6.931.314.355.059.594.394.535.748s-.394.593-.749.534c-2.377-.397-4.804-.398-6.646-.298-.919.051-1.688.126-2.225.188-.268.031-.479.059-.621.079-.071.01-.125.018-.161.024l-.04.006-.009.001-.002.001s0 0-.104-.642l-.219.612c.103.037.214.047.323.03m-10.278.254-.295.579-.091-.046c-.059-.03-.144-.074-.252-.128-.215-.108-.517-.26-.863-.431-.694-.343-1.559-.761-2.26-1.073-.811-.362-1.422-.843-1.776-1.399-.362-.567-.461-1.233-.169-1.834.283-.584.866-.964 1.572-1.141m4.134 5.473-.295.579c.319.163.711.036.874-.284.164-.319.037-.711-.283-.874zm10.174-.896-.219.612-.403-.143c-.258-.092-.63-.223-1.085-.383-.909-.32-2.147-.751-3.463-1.2-2.652-.905-5.565-1.861-6.783-2.132-.901-.2-1.579-.185-2.039-.069-.465.116-.654.315-.718.447-.056.114-.076.299.095.567.178.279.553.618 1.209.91.725.323 1.609.751 2.307 1.096.349.173.654.326.872.435.109.055.196.099.256.13l.093.047-.296.579" fill-rule="evenodd"/><path clip-rule="evenodd" d="m225.49 212.679c.229.276.191.686-.086.915l-4.064 3.363-.3-.056c-2.752-.52-9.247-1.016-14.407-1.41-.476-.037-.942-.072-1.392-.107-2.068-.159-3.042.226-3.508.64-.454.404-.572.966-.585 1.571-.003.133.105.291.292.329l3.685.745c.352.071.58.414.509.766-.072.352-.415.58-.766.508l-3.686-.745c-.746-.151-1.352-.812-1.334-1.631.016-.72.156-1.745 1.021-2.515.855-.759 2.263-1.134 4.472-.964.457.035.931.071 1.419.108 4.95.378 11.246.859 14.219 1.373l3.596-2.977c.277-.228.686-.19.915.087z" fill-rule="evenodd"/><path clip-rule="evenodd" d="m231.219 211.923c.209.292.143.698-.148.908-1.81 1.303-3.991 2.873-5.718 4.118l-3.002 2.162-.001.001-.38-.528-.132.637-.012-.003-.039-.008-.151-.031c-.134-.026-.329-.065-.578-.114-.498-.096-1.209-.23-2.06-.378-1.701-.298-3.953-.654-6.166-.891-2.227-.238-4.366-.35-5.863-.18-.763.087-1.265.239-1.532.414-.122.08-.159.142-.171.171-.01.023-.027.08.009.205.141.493.498.856 1.252 1.169.779.324 1.858.545 3.278.806.167.03.338.062.513.093 2.754.502 6.443 1.174 10.711 3.034.065.028.139.037.203.028 3.67-.54 6.289-.956 9.403-1.873 3.117-.919 6.747-2.345 12.414-4.921.203-.093.439-.074.626.048 1.328.873 3.075 2.527 5.151 4.727 2.088 2.212 4.55 5.02 7.314 8.241 1.591 1.855 3.283 3.847 5.064 5.943 4.412 5.194 9.368 11.028 14.684 17.001 14.944 16.789 32.614 34.533 48.773 42.041 2.823 1.312 6.552 1.231 12.764-1.801 6.216-3.033 14.792-8.96 27.209-19.119.277-.227.687-.186.914.092.228.278.187.687-.091.914-12.43 10.17-21.102 16.178-27.462 19.282-6.365 3.105-10.542 3.363-13.882 1.811-16.436-7.637-34.269-25.585-49.196-42.356-5.327-5.985-10.299-11.838-14.714-17.035-1.778-2.094-3.466-4.08-5.05-5.926-2.762-3.219-5.207-6.008-7.272-8.196-1.913-2.026-3.467-3.502-4.629-4.332-5.496 2.49-9.109 3.907-12.25 4.833-3.209.945-5.909 1.372-9.58 1.912-.31.046-.63.001-.912-.123-4.127-1.797-7.686-2.446-10.436-2.948-.171-.031-.34-.062-.505-.092-1.387-.255-2.611-.497-3.541-.884-.955-.397-1.713-.995-2.003-2.012-.101-.353-.102-.715.038-1.056.138-.335.385-.583.661-.765.532-.348 1.288-.525 2.098-.617 1.648-.188 3.908-.061 6.148.179 2.253.241 4.536.602 6.252.902.859.15 1.578.285 2.083.383.211.041.385.076.516.102l2.772-1.997c1.728-1.245 3.908-2.815 5.718-4.118.292-.21.698-.144.908.147zm-9.249 6.661-.132.637c.178.037.364-.003.512-.109z" fill-rule="evenodd"/><path clip-rule="evenodd" d="m289.487 267.696v.006l.001.018.004.072c.003.065.008.161.016.286.014.25.038.617.072 1.08.069.925.183 2.236.36 3.77.356 3.073.966 7.024 1.982 10.58.099.345-.101.705-.446.803-.345.099-.705-.101-.804-.446-1.044-3.654-1.664-7.684-2.023-10.788-.18-1.555-.295-2.883-.365-3.823-.035-.47-.059-.843-.074-1.1-.008-.128-.013-.227-.017-.294l-.004-.077v-.02l-.001-.007s0 0 .649-.03l-.649.03c-.016-.358.261-.663.62-.679.358-.017.662.261.679.619z" fill-rule="evenodd"/><path clip-rule="evenodd" d="m257.224 377.577c-4.433.5-10.551 1.816-18.432 4.647-.338.121-.71-.054-.832-.392-.121-.338.054-.71.392-.832 7.96-2.859 14.177-4.202 18.727-4.715 4.522-.509 7.461-.206 8.823.296.337.124.509.498.385.835-.124.336-.498.509-.835.385-1.073-.396-3.766-.727-8.228-.224z" fill-rule="evenodd"/><path clip-rule="evenodd" d="m326.257 124.463c-.356.582-.646 1.441-.881 2.227-.102.344-.464.539-.808.436s-.54-.465-.437-.809c.232-.778.563-1.788 1.016-2.531.225-.369.522-.742.915-.965.437-.247.943-.277 1.445-.026.157.078.269.198.335.275.076.089.149.193.218.301.137.216.29.496.453.821.328.652.731 1.541 1.189 2.574.171.385.35.791.536 1.214.82 1.86 1.786 4.052 2.842 6.24 1.297 2.69 2.715 5.341 4.141 7.337.714.998 1.413 1.81 2.082 2.377.676.573 1.265.85 1.764.885.358.026.628.337.602.695-.025.358-.336.627-.694.602-.89-.063-1.736-.532-2.512-1.19-.783-.664-1.554-1.57-2.299-2.613-1.492-2.089-2.949-4.821-4.255-7.528-1.067-2.211-2.044-4.428-2.864-6.288-.185-.421-.363-.823-.531-1.204-.46-1.035-.85-1.897-1.162-2.516-.156-.311-.286-.547-.388-.707-.041-.064-.072-.108-.095-.137-.072-.024-.114-.01-.167.02-.111.062-.266.216-.445.51zm.582-.564s.002.001.005.005c-.003-.003-.005-.005-.005-.005z" fill-rule="evenodd"/><path d="m319.797 141.571c-.421 1.875-1.193 3.299-1.724 3.18s-.62-1.736-.199-3.612c.421-1.875 1.193-3.298 1.724-3.179s.62 1.736.199 3.611z"/></g><path d="m204.232 120.349-51.026 41.828 43.615 37.257 49.541-40.179z" fill="#7f52ff" fill-opacity=".29"/><path d="m153.087 162.075-17.635-41.413 50.494-40.9368 33.567 28.4948 26.943 50.966-49.626 40.234z" fill="url(#b)"/><path clip-rule="evenodd" d="m185.897 83.3401c.32-.1632.711-.0362.874.2836l18.356 35.9833 35.762 33.749c.261.246.273.658.027.919s-.658.273-.919.026l-35.844-33.826c-.055-.051-.1-.111-.133-.177l-18.407-36.0835c-.163-.3198-.036-.7113.284-.8744z" fill="#fff" fill-rule="evenodd"/><path clip-rule="evenodd" d="m200.222 123.941c.226.279.183.688-.096.914l-41.106 33.326c-.279.226-.688.184-.914-.095s-.183-.688.095-.914l41.107-33.327c.278-.226.688-.183.914.096z" fill="#fff" fill-rule="evenodd"/><path clip-rule="evenodd" d="m220.899 89.3234c-4.765-1.0283-10.963-.5801-18.714 1.5819-.346.0964-.704-.1057-.8-.4515-.097-.3458.105-.7043.451-.8007 7.857-2.1913 14.285-2.6906 19.337-1.6004 5.08 1.0962 8.747 3.7973 11.028 7.9278 2.266 4.1035 3.134 9.5595 2.762 16.1355-.371 6.583-1.987 14.343-4.745 23.102-5.524 17.546-15.965 35.268-26.087 48.038-5.061 6.384-10.062 11.556-14.353 14.855-2.144 1.647-4.138 2.849-5.896 3.491-1.745.637-3.369.761-4.667.067-.317-.17-.436-.563-.267-.88s.563-.436.879-.267c.824.441 2.013.442 3.609-.141 1.584-.578 3.459-1.694 5.549-3.301 4.177-3.21 9.103-8.294 14.127-14.632 10.046-12.673 20.399-30.257 25.866-47.621 2.738-8.696 4.324-16.345 4.688-22.784.363-6.446-.5-11.627-2.603-15.434-2.088-3.78-5.427-6.2633-10.164-7.2856z" fill="#fff73a" fill-rule="evenodd"/><path clip-rule="evenodd" d="m252.16 124.004c-.146-.189-.435-.179-.568.02l-2.624 3.935c-.081.122-.078.282.009.401l3.492 4.774c.155.213.48.184.596-.052l2.281-4.63c.059-.12.045-.263-.037-.369zm-1.65-.701c.626-.939 1.989-.986 2.679-.093l3.149 4.079c.385.498.452 1.172.174 1.737l-2.281 4.631c-.547 1.112-2.08 1.245-2.812.245l-3.491-4.775c-.409-.559-.426-1.313-.041-1.889z" fill="#b5ffc1" fill-rule="evenodd"/><path clip-rule="evenodd" d="m232.328 186.705c-1.04 0-1.883.844-1.883 1.884s.843 1.884 1.883 1.884c1.041 0 1.884-.844 1.884-1.884s-.843-1.884-1.884-1.884zm-3.183 1.884c0-1.758 1.425-3.184 3.183-3.184 1.759 0 3.184 1.426 3.184 3.184s-1.425 3.184-3.184 3.184c-1.758 0-3.183-1.426-3.183-3.184z" fill="#fff73a" fill-rule="evenodd"/><path clip-rule="evenodd" d="m110.702 82.8914c1.969.0202 4.093.333 5.498 1.2503 3.221 2.1025 5.364 5.9841 6.252 10.341.039.1912-.01.3899-.134.541-.123.1511-.308.2388-.503.2388h-5.672c-.313 0-.582-.2235-.639-.5316-.308-1.6633-1.184-4.1753-2.789-6.2554-1.595-2.0663-3.873-3.6678-7.026-3.6678-.321 0-.593-.2339-.642-.5508-.049-.317.14-.6223.446-.7189 1.229-.3883 3.217-.667 5.209-.6466zm-1.326 1.3309c1.821.7529 3.263 2.0264 4.368 3.4589 1.593 2.064 2.518 4.489 2.928 6.2813h4.332c-.928-3.8013-2.857-6.9972-5.514-8.7322-1.081-.7054-2.888-1.0193-4.802-1.0389-.443-.0046-.883.0067-1.312.0309z" fill="#17e6e8" fill-rule="evenodd"/><path d="m170.981 42.9594c.127-.5375.666-.8703 1.203-.7434l10.501 2.4793c.537.1269.87.6655.743 1.203l-2.479 10.5c-.127.5375-.666.8704-1.203.7435l-10.501-2.4793c-.537-.127-.87-.6656-.743-1.2031z" fill="#ffde80"/></g></svg>