<svg fill="none" height="80" viewBox="0 0 128 80" width="128" xmlns="http://www.w3.org/2000/svg" xmlns:xlink="http://www.w3.org/1999/xlink"><linearGradient id="a" gradientUnits="userSpaceOnUse" x1="29.509" x2="-8.50565" y1="-27.5103" y2="-21.7779"><stop offset="0" stop-color="#17e6e8"/><stop offset="1" stop-color="#167dff"/></linearGradient><g clip-rule="evenodd" fill-rule="evenodd"><path d="m38.6917 11.9933c0-1.1009-.8924-1.9933-1.9932-1.9933h-5.3965c-1.1008 0-1.9932.8924-1.9932 1.9932v.3537c0 2.6406-1.9329 4.8613-4.3704 5.8768-2.4371 1.0152-5.3059.7743-7.1727-1.0925l-.2517-.2517c-.7788-.7788-2.0413-.7788-2.8201 0l-3.8147 3.8146c-.7787.7787-.7788 2.0413-.0001 2.82l.252.252c1.8667 1.8667 2.1075 4.7353 1.0923 7.1722-1.0154 2.4374-3.23588 4.3704-5.87628 4.3704h-.35407c-1.10073 0-1.99305.8923-1.99305 1.993v5.3963c0 1.1009.89243 1.9933 1.99331 1.9933h.35424c2.64026 0 4.86075 1.9327 5.87585 4.37 1.0152 2.4372.7743 5.306-1.0925 7.1729l-.2518.2517c-.7787.7787-.7787 2.0413 0 2.82l3.8142 3.8143c.7788.7789 2.0415.7789 2.8203.0001l.2519-.2519c1.8669-1.8668 4.7358-2.1077 7.173-1.0923 2.4375 1.0155 4.3703 3.2362 4.3703 5.8768v.3538c0 1.1009.8924 1.9933 1.9933 1.9933h5.3963c1.1009 0 1.9933-.8925 1.9933-1.9934v-.3546c0-2.6402 1.9326-4.8606 4.3697-5.8759 2.4369-1.0151 5.3054-.7742 7.1721 1.0925l.252.2519c.7787.7788 2.0413.7788 2.82.0001l3.8148-3.8147c.7787-.7787.7787-2.0413 0-2.8199l-.2515-.2515c-1.8669-1.8669-2.1079-4.7358-1.0925-7.173 1.0154-2.4374 3.236-4.3702 5.8764-4.3702h.354c1.1009 0 1.9933-.8924 1.9933-1.9933v-5.396c0-1.1009-.8924-1.9933-1.9933-1.9933h-.354c-2.6404 0-4.861-1.9328-5.8764-4.3702-1.0154-2.4372-.7744-5.3061 1.0925-7.173l.2515-.2515c.7787-.7786.7787-2.0412 0-2.8199l-3.8148-3.8147c-.7787-.7787-2.0413-.7787-2.82 0l-.2519.2519c-1.8667 1.8667-4.7351 2.1076-7.172 1.0924-2.4371-1.0153-4.3699-3.2357-4.3699-5.8759zm-4.6917 39.6961c6.4556 0 11.6892-5.2335 11.6892-11.6894 0-6.4558-5.2336-11.6892-11.6892-11.6892s-11.6892 5.2334-11.6892 11.6892c0 6.4559 5.2336 11.6894 11.6892 11.6894z" fill="#167dff"/><path d="m38.6917 11.9933c0-1.1009-.8924-1.9933-1.9932-1.9933h-5.3965c-1.1008 0-1.9932.8924-1.9932 1.9932v.3537c0 2.6406-1.9329 4.8613-4.3704 5.8768-2.4371 1.0152-5.3059.7743-7.1727-1.0925l-.2517-.2517c-.7788-.7788-2.0413-.7788-2.8201 0l-3.8147 3.8146c-.7787.7787-.7788 2.0413-.0001 2.82l.252.252c1.8667 1.8667 2.1075 4.7353 1.0923 7.1722-1.0154 2.4374-3.23588 4.3704-5.87628 4.3704h-.35407c-1.10073 0-1.99305.8923-1.99305 1.993v5.3963c0 1.1009.89243 1.9933 1.99331 1.9933h.35424c2.64026 0 4.86075 1.9327 5.87585 4.37 1.0152 2.4372.7743 5.306-1.0925 7.1729l-.2518.2517c-.7787.7787-.7787 2.0413 0 2.82l3.8142 3.8143c.7788.7789 2.0415.7789 2.8203.0001l.2519-.2519c1.8669-1.8668 4.7358-2.1077 7.173-1.0923 2.4375 1.0155 4.3703 3.2362 4.3703 5.8768v.3538c0 1.1009.8924 1.9933 1.9933 1.9933h5.3963c1.1009 0 1.9933-.8925 1.9933-1.9934v-.3546c0-2.6402 1.9326-4.8606 4.3697-5.8759 2.4369-1.0151 5.3054-.7742 7.1721 1.0925l.252.2519c.7787.7788 2.0413.7788 2.82.0001l3.8148-3.8147c.7787-.7787.7787-2.0413 0-2.8199l-.2515-.2515c-1.8669-1.8669-2.1079-4.7358-1.0925-7.173 1.0154-2.4374 3.236-4.3702 5.8764-4.3702h.354c1.1009 0 1.9933-.8924 1.9933-1.9933v-5.396c0-1.1009-.8924-1.9933-1.9933-1.9933h-.354c-2.6404 0-4.861-1.9328-5.8764-4.3702-1.0154-2.4372-.7744-5.3061 1.0925-7.173l.2515-.2515c.7787-.7786.7787-2.0412 0-2.8199l-3.8148-3.8147c-.7787-.7787-2.0413-.7787-2.82 0l-.2519.2519c-1.8667 1.8667-4.7351 2.1076-7.172 1.0924-2.4371-1.0153-4.3699-3.2357-4.3699-5.8759zm-4.6917 39.6961c6.4556 0 11.6892-5.2335 11.6892-11.6894 0-6.4558-5.2336-11.6892-11.6892-11.6892s-11.6892 5.2334-11.6892 11.6892c0 6.4559 5.2336 11.6894 11.6892 11.6894z" fill="url(#a)"/></g></svg>