<svg fill="none" height="80" viewBox="0 0 128 80" width="128" xmlns="http://www.w3.org/2000/svg" xmlns:xlink="http://www.w3.org/1999/xlink"><linearGradient id="a" gradientUnits="userSpaceOnUse" x1="93.2848" x2="59.9981" y1="41.1489" y2="-20.6794"><stop offset="0" stop-color="#178cfd"/><stop offset="1" stop-color="#18e6e8"/></linearGradient><path d="m42.0804 10.3471c16.0725 2.2765 20.0401 15.6902 20.3376 23.0552 6.874 0 11.582 3.9719 11.582 10.8035 0 5.4246-4.3457 9.8146-9.6975 9.7941-10.3901-.0397-27.8931-.0824-46.343-.0216-7.6941.0253-13.9595-6.2814-13.9595-14.0799 0-6.4961 4.98036-12.1194 12.4396-12.8544 0-8.4008 8.5689-19.11496 25.6408-16.6969z" fill="url(#a)"/><path clip-rule="evenodd" d="m39.9479 53.6875c0 3.0066 2.5168 5.5136 5.7083 5.5136 3.1916 0 5.7084-2.507 5.7084-5.5136h3c0 4.7404-3.938 8.5136-8.7084 8.5136-4.7703 0-8.7083-3.7732-8.7083-8.5136zm-11.2917 1.3148v-1.0555h-3v1.3215c0 1.5099 1.2241 2.734 2.7341 2.734h.3216c.8003 0 1.6683.6091 2.1173 1.6673.4518 1.0647.2638 2.1137-.3346 2.6959l-.1419.1382c-1.0818 1.0525-1.0818 2.7902-.0001 3.8427l2.3521 2.2886c1.0662 1.0374 2.7644 1.0374 3.8306.0001l.1692-.1646c.624-.6071 1.6819-.7844 2.7546-.3458 1.133.4633 1.8043 1.3949 1.8043 2.2634v.108c0 1.4864 1.2049 2.6914 2.6914 2.6914h3.4032c1.4865 0 2.6915-1.205 2.6915-2.6915v-.1084c0-.8683.6711-1.7997 1.8038-2.2629 1.0725-.4385 2.1302-.2611 2.754.3458l.1693.1647c1.0661 1.0373 2.7643 1.0374 3.8304.0001l2.3524-2.2889c1.0818-1.0525 1.0818-2.7902 0-3.8428l-.1418-.1379c-.5984-.5822-.7864-1.6313-.3345-2.6959.4491-1.0583 1.3173-1.6675 2.1176-1.6675h.3215c1.51 0 2.734-1.2241 2.734-2.734v-1.3215h-3v1.0555h-.0555c-2.3343 0-4.1037 1.6681-4.8792 3.4955-.789 1.8589-.7043 4.2691.912 5.9261l-1.9417 1.8891c-1.676-1.624-4.0787-1.7401-5.9739-.9651-1.8603.7606-3.571 2.5162-3.6644 4.8396h-2.7942c-.0936-2.3234-1.8044-4.0789-3.6648-4.8396-1.8953-.7751-4.2983-.6591-5.9744.965l-1.9415-1.889c1.6164-1.657 1.7011-4.0672.9123-5.9261-.7754-1.8274-2.5447-3.4955-4.879-3.4955z" fill="#fff" fill-rule="evenodd"/><g fill="#0c0c0d" opacity=".4"><path d="m44.2608 36.9681c-.072 2.3398-1.7847 4.1095-3.6502 4.8769-1.8978.7807-4.3123.6681-5.9904-.9641l-1.951 1.915c1.6274 1.6651 1.7186 4.0847.9285 5.9578-.7793 1.8474-2.5649 3.5349-4.9206 3.5349l-.0209.0002v1.4383h-3v-1.7063c0-.9458.441-1.7104 1.1224-2.1818.6127-.4238 1.3227-.5504 1.8985-.5504.8181 0 1.7022-.6242 2.1565-1.7009.4524-1.0724.2655-2.1307-.3394-2.7245l.0302-.0309-.0322.0308c-.4397-.4317-.8214-1.0414-.9208-1.7684-.1074-.7853.1363-1.5972.7745-2.2236l.0098.0082-.008-.0083 2.3524-2.3091c.6426-.6308 1.4588-.8632 2.246-.7479.7258.1062 1.3295.4881 1.7587.9094.6223.6109 1.6866.7906 2.7645.3472 1.1275-.4639 1.7939-1.3912 1.7939-2.2557 0-1.2473.8515-2.8468 2.7034-2.8468h3.3792c1.8531 0 2.7035 1.6008 2.7035 2.8474 0 .8641.6662 1.7913 1.7935 2.2551 1.0778.4433 2.1418.2637 2.7641-.3471.4291-.4212 1.0327-.8032 1.7584-.9095.7873-.1154 1.6037.117 2.2463.7478l2.5945 2.5768c1.1587 1.431.428 2.1873-.3976 3.7245-.6601 1.2292-.497 2.3553-.3413 2.7246.4542 1.0767 1.3384 1.7009 2.1564 1.7009.5759 0 1.2859.1266 1.8985.5504.6815.4714 1.1224 1.236 1.1224 2.1818v1.7051h-3v-1.4371l-.0209-.0002c-2.3556 0-4.1412-1.6875-4.9205-3.5349-.791-1.8752-.6987-4.298.9338-5.9632l-1.9453-1.9096c-1.6781 1.6321-4.0924 1.7448-5.9901.9641-1.8654-.7674-3.5782-2.537-3.6499-4.8769z"/><path d="m45.656 48.0523c-3.1203 0-5.6149 2.4305-5.7058 5.4078h-3.0009c.0911-4.6837 3.9801-8.4078 8.7067-8.4078 4.727 0 8.6162 3.7246 8.7068 8.4089l-3.0007.0076c-.0863-2.9812-2.5827-5.4165-5.7061-5.4165z"/></g></svg>