<svg fill="none" height="80" viewBox="0 0 128 80" width="128" xmlns="http://www.w3.org/2000/svg" xmlns:xlink="http://www.w3.org/1999/xlink"><linearGradient id="a"><stop offset="0" stop-color="#178cfd"/><stop offset="1" stop-color="#18e6e8"/></linearGradient><linearGradient id="b" gradientUnits="userSpaceOnUse" x1="51.5" x2="-.000002" xlink:href="#a" y1="52.5015" y2="15.0015"/><linearGradient id="c" gradientUnits="userSpaceOnUse" x1="78.917" x2="62.8545" xlink:href="#a" y1="28.0967" y2="-11.7624"/><linearGradient id="d" gradientUnits="userSpaceOnUse" x1="35.788" x2="5.3891" y1="14.0325" y2="20.565"><stop offset="0" stop-color="#17e6e8"/><stop offset="1" stop-color="#167dff"/></linearGradient><linearGradient id="e" gradientUnits="userSpaceOnUse" x1="77.5224" x2="50.0032" xlink:href="#a" y1="59.9191" y2="14.0846"/><path d="m41.2404 35.5631h-.0519c-12.5471-18.6208-31.5719-25.3336-31.5719-25.3336h-.00362c-9.045543 19.438-7.06136 42.2033 5.25222 59.7734.0212-.0019.0424-.0037.0635-.0056.4906-.3462 23.3097-16.5334 26.3117-34.4342z" fill="url(#b)"/><path d="m41.1891 35.5631h22.7597c-12.2552-17.5701-32.9725-27.20151-54.33161-25.3336 0 0 19.02481 6.7128 31.57191 25.3336z" fill="url(#c)" opacity=".7"/><g opacity=".5"><path d="m64.0012 35.5632h-22.7597c-3.0347 18.0955-26.3196 34.4398-26.3196 34.4398 21.2424-1.8679 39.9754-15.0601 49.0793-34.4398z" fill="#fff"/><path d="m64.0012 35.5632h-22.7597c-3.0347 18.0955-26.3196 34.4398-26.3196 34.4398 21.2424-1.8679 39.9754-15.0601 49.0793-34.4398z" fill="url(#d)"/><path d="m64.0012 35.5632h-22.7597c-3.0347 18.0955-26.3196 34.4398-26.3196 34.4398 21.2424-1.8679 39.9754-15.0601 49.0793-34.4398z" fill="url(#e)"/></g><path d="m41.7448 50.5066-11.9408-11.9408-11.9408 11.9408c-.3905.3905-.3905 1.0237 0 1.4142s1.0237.3905 1.4142 0l4.7219-4.7219v28.3026h2v-30.3026l3.8047-3.8047 4.1953 4.1953v29.912h2v-27.912l4.3313 4.3313c.3905.3905 1.0237.3905 1.4142 0s.3905-1.0237 0-1.4142z" fill="#fff"/></svg>