<svg fill="none" height="80" viewBox="0 0 128 80" width="128" xmlns="http://www.w3.org/2000/svg" xmlns:xlink="http://www.w3.org/1999/xlink"><linearGradient id="a" gradientUnits="userSpaceOnUse" x1="29.509" x2="-7.18002" y1=".816835" y2="9.78067"><stop offset="0" stop-color="#17e6e8"/><stop offset="1" stop-color="#167dff"/></linearGradient><path d="m35.0039 15.1818c.9609-.4026 1.6375-1.3659 1.6375-2.4903 0-1.4865-1.1825-2.6915-2.641-2.6915-1.4586 0-2.641 1.205-2.641 2.6915 0 1.1271.6799 2.0925 1.6445 2.4933v9.589h2z" fill="#fff"/><path d="m46.5 48.8395c3.3137 0 6-2.6863 6-6v-17.4959c6.7473 2.7647 11.5 9.3976 11.5 17.1405 0 10.2261-8.2899 18.5159-18.516 18.5159h-22.968c-10.2261 0-18.516-8.2898-18.516-18.5159 0-7.7416 4.75102-14.3735 11.4964-17.1391v17.4945c0 3.3137 2.6863 6 6 6z" fill="#167dff"/><path d="m46.5 48.8395c3.3137 0 6-2.6863 6-6v-17.4959c6.7473 2.7647 11.5 9.3976 11.5 17.1405 0 10.2261-8.2899 18.5159-18.516 18.5159h-22.968c-10.2261 0-18.516-8.2898-18.516-18.5159 0-7.7416 4.75102-14.3735 11.4964-17.1391v17.4945c0 3.3137 2.6863 6 6 6z" fill="url(#a)"/><path d="m17.4964 24.6566v18.1829c0 2.2091 1.7909 4 4 4h25.0036c2.2091 0 4-1.7909 4-4v-18.1839c-1.5952-.4479-3.2776-.6875-5.016-.6875h-22.968c-1.7397 0-3.4233.24-5.0196.6885z" fill="#167dff"/><path d="m17.4964 24.6566v18.1829c0 2.2091 1.7909 4 4 4h25.0036c2.2091 0 4-1.7909 4-4v-18.1839c-1.5952-.4479-3.2776-.6875-5.016-.6875h-22.968c-1.7397 0-3.4233.24-5.0196.6885z" fill="url(#a)"/><g fill="#fff"><circle cx="23.1719" cy="34.1292" r="2"/><circle cx="45.168" cy="34.1292" r="2"/><path d="m33.9984 41.9357c1.7141 0 3.1038-1.4162 3.1038-3.1631h-6.2077c0 1.7469 1.3897 3.1631 3.1039 3.1631z"/></g></svg>