<svg fill="none" height="80" viewBox="0 0 128 80" width="128" xmlns="http://www.w3.org/2000/svg" xmlns:xlink="http://www.w3.org/1999/xlink"><linearGradient id="a"><stop offset="0" stop-color="#17e6e8"/><stop offset="1" stop-color="#167dff"/></linearGradient><linearGradient id="b" gradientUnits="userSpaceOnUse" x1="47.2623" x2="29.4435" xlink:href="#a" y1="44.3461" y2="49.72"/><linearGradient id="c" gradientUnits="userSpaceOnUse" x1="47.2623" x2="33.5293" xlink:href="#a" y1="-8.75516" y2="2.1782"/><linearGradient id="d" gradientUnits="userSpaceOnUse" x1="11.6527" x2=".042443" xlink:href="#a" y1="3.71676" y2="4.5046"/><path d="m34.5078 55.7236c0-1.1045.8954-2 2-2h26c1.1046 0 2 .8955 2 2v11c0 1.1046-.8954 2-2 2h-26c-1.1046 0-2-.8954-2-2z" fill="#fff" fill-opacity=".4"/><path d="m34.5078 55.7236c0-1.1045.8954-2 2-2h26c1.1046 0 2 .8955 2 2v11c0 1.1046-.8954 2-2 2h-26c-1.1046 0-2-.8954-2-2z" fill="url(#b)"/><path clip-rule="evenodd" d="m58.9386 62.2236h-18.8605v-2h18.8605z" fill="#fff" fill-rule="evenodd"/><path d="m34.5078 12c0-1.1046.8954-2 2-2h26c1.1046 0 2 .8954 2 2v26c0 1.1046-.8954 2-2 2h-26c-1.1046 0-2-.8954-2-2z" fill="url(#c)"/><path d="m33.8204 19.1783c-.63-.6299-1.7071-.1838-1.7071.7071v.9076h-.5057c-2.2092 0-4 1.7908-4 4v29.5822c0 1.1045-.8954 2-2 2h-3.9201v2h3.9201c2.2091 0 4-1.7909 4-4v-29.5822c0-1.1046.8954-2 2-2h.5057v.6164c0 .8909 1.0771 1.3371 1.7071.7071l1.762-1.762c.3905-.3905.3905-1.0237 0-1.4142z" fill="#fff"/><path clip-rule="evenodd" d="m33.5548 58.7545c-.63-.63-1.7071-.1838-1.7071.7071v.762h-11.0547v2h11.0547v.762c0 .8909 1.0771 1.3371 1.7071.7071l1.762-1.762c.3905-.3905.3905-1.0237 0-1.4142z" fill="#fff" fill-rule="evenodd"/><path d="m4 30.7236c0-1.1045.89543-2 2-2h14c1.1046 0 2 .8955 2 2v36c0 1.1046-.8954 2-2 2h-14c-1.10457 0-2-.8954-2-2z" fill="url(#d)"/><path d="m19.832 50.2918c0-1.1001.8919-1.992 1.992-1.992 1.1002 0 1.992.8919 1.992 1.992v14.4396c0 1.1001-.8918 1.992-1.992 1.992-1.1001 0-1.992-.8919-1.992-1.992z" fill="#177eff"/><g fill="#fff"><circle cx="21.8217" cy="57.2611" r="1.0404"/><circle cx="21.8217" cy="61.224" r="1.0404"/><path clip-rule="evenodd" d="m53.7949 18.7773h-13.7168v-2h13.7168z" fill-rule="evenodd"/><path clip-rule="evenodd" d="m58.9386 26.9224h-18.8605v-2h18.8605z" fill-rule="evenodd"/></g></svg>