<svg fill="none" height="80" viewBox="0 0 128 80" width="128" xmlns="http://www.w3.org/2000/svg" xmlns:xlink="http://www.w3.org/1999/xlink"><linearGradient id="a" gradientUnits="userSpaceOnUse" x1="33.7605" x2="-10.2045" y1="-27.0613" y2="-19.233"><stop offset="0" stop-color="#17e6e8"/><stop offset="1" stop-color="#167dff"/></linearGradient><g fill="url(#a)"><path clip-rule="evenodd" d="m22.9805 15.5v3.7817h-7.6504v50h47.3652v-50h-7.6758v-3.7817c0-3.0376-2.4609-5.5-5.5-5.5h-21.039c-3.0371 0-5.5 2.4624-5.5 5.5zm6.5-1.5c-1.3809 0-2.5 1.1191-2.5 2.5v2.7817h24.039v-2.7817c0-1.3809-1.1191-2.5-2.5-2.5z" fill-rule="evenodd"/><path d="m8 19.2817h4.3301v50h-4.3301c-2.20898 0-4-1.791-4-4v-42c0-2.2089 1.79102-4 4-4z"/><path d="m70 69.2817h-4.3047v-50h4.3047c2.209 0 4 1.7911 4 4v42c0 2.209-1.791 4-4 4z"/></g><path d="m42.6128 42.5028h-.0233c-5.6459-8.3789-14.2067-11.3995-14.2067-11.3995h-.0016c-4.0703 8.7467-3.1775 18.9905 2.3634 26.8967.0095-.0009.019-.0017.0285-.0025.2208-.1558 10.4889-7.4397 11.8397-15.4947z" fill="#fff" opacity=".7"/><path d="m42.5895 42.5028h10.2413c-5.5146-7.9061-14.8368-12.24-24.448-11.3995 0 0 8.5608 3.0206 14.2067 11.3995z" fill="#fff" opacity=".4"/><path d="m52.8541 42.5029h-10.2413c-1.3656 8.1426-11.8433 15.4971-11.8433 15.4971 9.5586-.8405 17.9881-6.7767 22.0846-15.4971z" fill="#000" opacity=".5"/></svg>