<svg fill="none" height="80" viewBox="0 0 128 80" width="128" xmlns="http://www.w3.org/2000/svg" xmlns:xlink="http://www.w3.org/1999/xlink"><linearGradient id="a"><stop offset="0" stop-color="#17e6e8"/><stop offset="1" stop-color="#167dff"/></linearGradient><linearGradient id="b" gradientUnits="userSpaceOnUse" x1="26.5353" x2="-1.17948" xlink:href="#a" y1="35.7526" y2="45.7186"/><linearGradient id="c" gradientUnits="userSpaceOnUse" x1="51.3475" x2="56.574" xlink:href="#a" y1="41.9888" y2="13.0041"/><linearGradient id="d" gradientUnits="userSpaceOnUse" x1="34.2208" x2="56.709" xlink:href="#a" y1="59.9401" y2="78.9588"/><g clip-rule="evenodd" fill-rule="evenodd"><path d="m11.3129 47.0737c.741.8191.6777 2.0838-.1414 2.8249-1.95059 1.7648-3.1715 4.3098-3.1715 7.1428 0 5.318 4.311 9.629 9.629 9.629 5.3179 0 9.6289-4.311 9.6289-9.629 0-1.1045.8955-2 2-2h25.0434c1.1045 0 2 .8955 2 2 0 1.1046-.8955 2-2 2h-23.1891c-.9674 6.579-6.6356 11.629-13.4832 11.629-7.5271 0-13.629-6.1019-13.629-13.629 0-4.0101 1.73451-7.6179 4.48797-10.109.81909-.7411 2.08383-.6778 2.82493.1413z" fill="url(#b)"/><path d="m42.1783 15.2923c-4.6054-2.659-10.4944-1.081-13.1534 3.5245-2.659 4.6054-1.081 10.4944 3.5244 13.1534.4594.2652.7946.702.9319 1.2144.1373.5123.0654 1.0583-.1998 1.5176l-12.5217 21.6882c-.5523.9566-1.7754 1.2843-2.732.732-.9566-.5522-1.2844-1.7754-.7321-2.732l11.5946-20.0823c-5.2138-4.1273-6.7532-11.5611-3.3294-17.4913 3.7635-6.5187 12.0989-8.75212 18.6175-4.9886 3.4729 2.0051 5.7301 5.3111 6.5107 8.9412.2323 1.0799-.4549 2.1436-1.5348 2.3758s-2.1435-.4549-2.3758-1.5348c-.553-2.5717-2.1466-4.9016-4.6001-6.3181z" fill="url(#c)"/><path d="m51.6356 67.4627c.3389-1.0514 1.4658-1.6289 2.5171-1.2901 2.5037.8069 5.3182.5917 7.7717-.8248 4.6055-2.659 6.1834-8.5479 3.5245-13.1534-2.659-4.6055-8.548-6.1834-13.1535-3.5245-.9565.5523-2.1797.2246-2.732-.732l-12.5217-21.6882c-.5523-.9566-.2245-2.1797.7321-2.732s2.1797-.2246 2.732.732l11.5945 20.0823c6.1813-2.4516 13.3888-.0678 16.8127 5.8624 3.7635 6.5186 1.53 14.854-4.9886 18.6175-3.4729 2.0051-7.4646 2.3069-10.9987 1.1678-1.0513-.3388-1.6289-1.4657-1.2901-2.517z" fill="url(#d)"/></g><path d="m23.3393 56.8182c0 2.9663-2.4046 5.3709-5.3708 5.3709s-5.3708-2.4046-5.3708-5.3709c0-2.9662 2.4046-5.3708 5.3708-5.3708s5.3708 2.4046 5.3708 5.3708z" fill="#fff"/><path d="m34.7019 28.6895c-2.5688-1.4831-3.4489-4.7678-1.9658-7.3367 1.4831-2.5688 4.7679-3.449 7.3367-1.9658 2.5688 1.4831 3.449 4.7678 1.9658 7.3367-1.4831 2.5688-4.7678 3.4489-7.3367 1.9658z" fill="#fff"/><path d="m54.0613 52.1724c2.5689-1.4832 5.8536-.603 7.3367 1.9658 1.4831 2.5689.603 5.8536-1.9658 7.3367-2.5689 1.4831-5.8536.603-7.3367-1.9658-1.4832-2.5689-.603-5.8536 1.9658-7.3367z" fill="#fff"/></svg>