<svg viewBox="0 0 2804 1547" fill="none" xmlns="http://www.w3.org/2000/svg"><g clip-path="url(#a)"><mask id="c" style="mask-type:alpha" maskUnits="userSpaceOnUse" x="452" y="-24" width="2107" height="1540"><path d="M2558.57 462.011c0 373.41-194.34 701.429-487.39 888.439l-55.74 33.2c-151.11 83.81-325 131.53-510.04 131.53-581.647 0-1053.166-471.52-1053.166-1053.169 0-167.988 39.331-326.789 109.286-467.698l1878.96-17.318c75.45 145.162 118.09 310.11 118.09 485.016Z" fill="url(#b)" fill-opacity=".88"/></mask><g mask="url(#c)"><path d="M2554.69 461.261c0 372.845-193.75 700.439-486.05 887.589-17.84 2.39-60 20.21-62 36.77-149.96 82.12-322.09 128.81-505.11 128.81-464.52 0-858.788-300.73-998.752-718.111-15.717-46.869-29.476-100.849-38.122-149.488-10.709-60.241-16.297-122.253-16.297-185.57 0-581.648 471.519-1053.166 1053.171-1053.166 581.64 0 1053.16 471.518 1053.16 1053.166Z" fill="url(#d)" fill-opacity=".88"/><g filter="url(#e)"><path d="m2105.92 1420.56-90.49-272.81-279.7-115.17c774.35-225.664 743.55-275.889 705.9-117.28-96.97 408.51-254.01 454.85-335.71 505.26Z" fill="url(#f)"/></g><g filter="url(#g)"><path d="M2224.09 1739.64c-139.25 306.78-508.5 439.43-824.94 295.8-316.43-143.62-459.692-508.89-320.45-815.67 139.25-306.787 508.5-439.433 824.93-295.809 316.44 143.619 459.7 508.889 320.46 815.679Z" stroke="#FFE142" stroke-width="11.3"/></g><g filter="url(#h)"><path d="M1430.07 1509.17s-204.24-73.56-291.14-148.76c-116.99-101.23-61.68-171.98-61.68-171.98-291.498 102.57-528.406 106.46-418.354 226.72 283.449 309.75 675.264 89.72 771.174 94.02Z" fill="url(#i)" fill-opacity=".7"/></g><path d="M2213.08 1749.97c-142.54 314.06-520.38 449.6-843.93 302.75-323.55-146.85-470.277-520.49-327.73-834.55 142.54-314.052 520.38-449.596 843.93-302.744 323.55 146.854 470.28 520.494 327.73 834.544Z" fill="#167DFF"/><path d="M2213.08 1749.97c-142.54 314.06-520.38 449.6-843.93 302.75-323.55-146.85-470.277-520.49-327.73-834.55 142.54-314.052 520.38-449.596 843.93-302.744 323.55 146.854 470.28 520.494 327.73 834.544Z" fill="url(#j)" fill-opacity=".9"/><path d="M928.622 1483.92c-1.153-94.4 17.78-190.12 59.127-281.21 154.791-341.034 565.081-488.221 916.421-328.755 197.05 89.437 333.7 256.335 388.42 445.845" stroke="#04B5CE" stroke-width="2.5"/><path d="M2131.62 1211.12c25.18-23.91 24.06-61.57 19.58-77.23 29.28 41.98 57.37 93.37 73.47 137.34-15.07 90.14-168.41-26.66-247.01-8.68-78.6 17.97-11.28 122.78-161.42 135.82-150.15 13.04-365.74-88.77-353.15-98.29 12.58-9.52 142.6 22.59 236.44 25.89 143.46 5.05 146.57-94.84 203.93-132.79 57.36-37.95 196.68 47.82 228.16 17.94Z" fill="url(#k)" fill-opacity=".5" style="mix-blend-mode:screen"/><path d="M1105.36 1383.27c-40.95-34.55-41.91-124.66-74.51-141.23 0 0 28.43-76.14 59.06-102.27 30.63-26.14 48.25 84.65 72.69 121.28 30.55 45.79 82.86-1.24 164.5 18.02 81.63 19.27 70.02 63.95 278.07 158.94-222.67-7.53-239.03-75.51-314.47-78.04-75.43-2.52-138.74 62.59-185.34 23.3Z" fill="url(#l)" fill-opacity=".56"/><g filter="url(#m)"><path d="M1165.36 1038.37c354.07-233 232.17 297.64 1108.85 141.58-36.18 89.14-352.3 363.54-676.31 414.7-324 51.16-443.38-118.73-605.509-208.52 13.519-69.28 26.069-228.22 172.969-347.76Z" fill="url(#n)"/></g><circle cx="567.07" cy="334.806" r="26.352" stroke="#A67DFF" stroke-width="2"/><path d="M1107.34 1106.67c54.71-57.08 64.77 154.67 111.93 139.31 130.79-42.6 261.88 153.05 557.77 187.06 209.43 24.07 163.94-125.98 228.64-129.34 55.58-2.89 94.51 17.47 105.68 20.48" stroke="url(#o)" stroke-width=".7"/><path d="M2096.85 1069.08c-67.33-6.85 60.33 90.25-37.81 77.7-98.14-12.55-149.49-45.65-203.12 0-53.63 45.64-30.81 123.24-123.24 135.79-96.78 13.14-257.19-124.65-467.68-87.08-54.5 9.72-33.52-163.96-125.28-131.28" stroke="url(#p)"/><path d="M2067.82 1038.41c-42.17 6.77 25.7 86.12 1 85.02-45.3-2.01-161.21-58.3-218.09-22.05-56.89 36.24-42.59 126.81-123.63 143.43-81.05 16.61-278.4-94.76-370.84-79.97-161.02 25.76-53.3-98.89-169.54-145.39" stroke="url(#q)" stroke-width=".7"/><ellipse rx="3.823" ry="3.668" transform="matrix(-1 0 0 1 909.896 1240.12)" fill="url(#r)"/><ellipse rx="7.596" ry="7.288" transform="matrix(-1 0 0 1 942.123 1247.74)" fill="url(#s)"/><ellipse cx="970.991" cy="1215.51" rx="5.272" ry="5.059" fill="url(#t)"/><g filter="url(#u)"><path d="M1293.49 965.867C1060.45 1088.6 1014.35 1320.67 986.1 1434.73c4.464-72.69 21.96-145.57 53.7-215.51 143.48-316.111 523.79-452.544 849.46-304.73 153.38 69.616 267.28 189.87 329.88 330.64-74.04-125.96-409.14-551.299-925.65-279.263Z" fill="#7AFEFF" fill-opacity=".6"/></g></g><g filter="url(#v)"><path d="M569.333-20.037C492.735 126.103 449.406 292.42 449.406 468.86c0 582.431 472.156 1054.591 1054.594 1054.591 582.43 0 1054.59-472.16 1054.59-1054.591 0-181.145-45.67-351.622-126.13-500.546" stroke="#74D6FF" stroke-width="10"/></g><path d="M554.383-41.79C472.479 110.201 426 284.101 426 468.86c0 595.361 482.636 1078.001 1078 1078.001 595.36 0 1077.99-482.64 1077.99-1078.001 0-191.162-49.75-370.702-137.02-526.376" stroke="#17E6E8" stroke-width="2"/></g><defs><linearGradient id="f" x1="2230.69" y1="831.134" x2="1990.65" y2="1306.09" gradientUnits="userSpaceOnUse"><stop stop-color="#0C0C0D" stop-opacity="0"/><stop offset=".641" stop-color="#0C0363" stop-opacity=".89"/></linearGradient><linearGradient id="i" x1="664.542" y1="1174.13" x2="1105.31" y2="1472.34" gradientUnits="userSpaceOnUse"><stop stop-color="#5208A4" stop-opacity="0"/><stop offset=".641" stop-color="#060322" stop-opacity=".89"/></linearGradient><linearGradient id="k" x1="2099.54" y1="1125.58" x2="1725.29" y2="1358.85" gradientUnits="userSpaceOnUse"><stop offset=".222" stop-color="#17E6E8"/><stop offset="1" stop-color="#0C2C73"/></linearGradient><linearGradient id="l" x1="1678.94" y1="1154.19" x2="968.419" y2="1348.34" gradientUnits="userSpaceOnUse"><stop offset=".017" stop-color="#0E8BA9"/><stop offset=".906" stop-color="#0A0A68"/></linearGradient><linearGradient id="n" x1="1659.91" y1="1008.82" x2="1361.11" y2="1804.98" gradientUnits="userSpaceOnUse"><stop offset=".139" stop-color="#040711" stop-opacity=".04"/><stop offset=".674" stop-color="#150949"/></linearGradient><linearGradient id="o" x1="1608.04" y1="1096.45" x2="1608.04" y2="1435.65" gradientUnits="userSpaceOnUse"><stop stop-color="#0C0C55"/><stop offset=".245" stop-color="#17E6E8"/><stop offset=".807" stop-color="#17E6E8"/><stop offset="1" stop-color="#0C0C55" stop-opacity="0"/></linearGradient><linearGradient id="p" x1="1269.57" y1="1145.67" x2="2088.89" y2="1168.96" gradientUnits="userSpaceOnUse"><stop stop-color="#0C0C55"/><stop offset=".468" stop-color="#66FFB6"/><stop offset="1" stop-color="#17E6E8"/></linearGradient><linearGradient id="q" x1="1252.42" y1="1187.23" x2="1775.81" y2="1035.37" gradientUnits="userSpaceOnUse"><stop stop-color="#0C0C55"/><stop offset=".464" stop-color="#00FFA3"/><stop offset="1" stop-color="#17E6E8"/></linearGradient><radialGradient id="b" cx="0" cy="0" r="1" gradientUnits="userSpaceOnUse" gradientTransform="matrix(2076.92971 -1236.73315 1414.98878 2376.28645 1390.62 331.771)"><stop stop-color="#7F52FF"/><stop offset=".369" stop-color="#2A8BFF"/><stop offset=".75" stop-color="#0C0C0D" stop-opacity=".63"/></radialGradient><radialGradient id="d" cx="0" cy="0" r="1" gradientUnits="userSpaceOnUse" gradientTransform="matrix(1233.8795 -407.18525 393.42783 1192.19085 1447.12 575.327)"><stop offset=".058" stop-color="#51CCFF"/><stop offset=".558" stop-color="#2E3DBF"/><stop offset=".873" stop-color="#170049"/></radialGradient><radialGradient id="j" cx="0" cy="0" r="1" gradientUnits="userSpaceOnUse" gradientTransform="rotate(-158.468 1035.655 322.23) scale(832.648 627.829)"><stop stop-color="#00F7D3"/><stop offset=".823" stop-color="#23AAE0" stop-opacity=".6"/></radialGradient><radialGradient id="r" cx="0" cy="0" r="1" gradientUnits="userSpaceOnUse" gradientTransform="matrix(-.18517 4.2405 -4.41952 -.193 3.823 3.668)"><stop offset=".615" stop-color="#202D71" stop-opacity="0"/><stop offset="1" stop-color="#fff"/></radialGradient><radialGradient id="s" cx="0" cy="0" r="1" gradientUnits="userSpaceOnUse" gradientTransform="rotate(92.5 .31 7.28) scale(8.43355 8.78958)"><stop offset=".615" stop-color="#202D71" stop-opacity="0"/><stop offset="1" stop-color="#167DFF"/></radialGradient><radialGradient id="t" cx="0" cy="0" r="1" gradientUnits="userSpaceOnUse" gradientTransform="rotate(92.5 -96.3 1072.513) scale(5.85385 6.10097)"><stop stop-color="#202D71" stop-opacity="0"/><stop offset="1" stop-color="#17E6E8"/></radialGradient><filter id="e" x="1712.73" y="800.035" width="767.322" height="643.523" filterUnits="userSpaceOnUse" color-interpolation-filters="sRGB"><feFlood flood-opacity="0" result="BackgroundImageFix"/><feBlend mode="normal" in="SourceGraphic" in2="BackgroundImageFix" result="shape"/><feGaussianBlur stdDeviation="11.5" result="effect1_foregroundBlur_3159_21327"/></filter><filter id="g" x="997.805" y="838.379" width="1307.18" height="1282.65" filterUnits="userSpaceOnUse" color-interpolation-filters="sRGB"><feFlood flood-opacity="0" result="BackgroundImageFix"/><feBlend mode="normal" in="SourceGraphic" in2="BackgroundImageFix" result="shape"/><feGaussianBlur stdDeviation="11" result="effect1_foregroundBlur_3159_21327"/></filter><filter id="h" x="608.414" y="1165.43" width="844.654" height="438.532" filterUnits="userSpaceOnUse" color-interpolation-filters="sRGB"><feFlood flood-opacity="0" result="BackgroundImageFix"/><feBlend mode="normal" in="SourceGraphic" in2="BackgroundImageFix" result="shape"/><feGaussianBlur stdDeviation="11.5" result="effect1_foregroundBlur_3159_21327"/></filter><filter id="m" x="880.391" y="866.277" width="1505.82" height="849.783" filterUnits="userSpaceOnUse" color-interpolation-filters="sRGB"><feFlood flood-opacity="0" result="BackgroundImageFix"/><feBlend mode="normal" in="SourceGraphic" in2="BackgroundImageFix" result="shape"/><feGaussianBlur stdDeviation="56" result="effect1_foregroundBlur_3159_21327"/></filter><filter id="u" x="972.1" y="840.856" width="1261.04" height="607.874" filterUnits="userSpaceOnUse" color-interpolation-filters="sRGB"><feFlood flood-opacity="0" result="BackgroundImageFix"/><feBlend mode="normal" in="SourceGraphic" in2="BackgroundImageFix" result="shape"/><feGaussianBlur stdDeviation="7" result="effect1_foregroundBlur_3159_21327"/></filter><filter id="v" x="427.406" y="-51.063" width="2153.18" height="1596.51" filterUnits="userSpaceOnUse" color-interpolation-filters="sRGB"><feFlood flood-opacity="0" result="BackgroundImageFix"/><feBlend mode="normal" in="SourceGraphic" in2="BackgroundImageFix" result="shape"/><feGaussianBlur stdDeviation="8.5" result="effect1_foregroundBlur_3159_21327"/></filter><clipPath id="a"><path fill="#fff" d="M0 0h2804v1547H0z"/></clipPath></defs></svg>