<svg viewBox="0 0 268 822" fill="none" xmlns="http://www.w3.org/2000/svg"><path fill-rule="evenodd" clip-rule="evenodd" d="M251.392 281.517c.804-7.933-17.871-79.399-27.67-110.882-36.032 18.016-51.675 14.377-54.106 7.408-1.881-5.396 3.071-10.277 6.745-12.795.795-.545 1.623.291 1.227 1.169-1.275 2.824-1.015 4.072 1.382 4.218 20.167 1.236 23.008-10.403 12.334-14.273-14.753-5.348-33.747 0-53.773 6.504-9.875 3.206-23.914-6.183-27.559-10.787-9.655 5.103-17.564 14.815-18.485 21.722-.496 3.723.508 23.596 1.672 46.618 1.534 30.359 3.345 66.196 2.357 77.7-31.37 44.053-63.508 50.501-75.98 47.385-.495-.124-7.443-.797-10.033.498-2.478-.976-6.759-.527-6.786-.498-2.695 0-1.967 8.138.463 11.207 2.065 3.115 4.139 7.424 7.313 11.674 1.201 1.614 2.408 3.225 3.605 4.842 3.816 5.153 6.61 5.755 7.304 2.327.426 2.763 1.546 8.313 4.718 8.415 3.171.103 3.282-3.282 2.941-4.987.62-.391 1.09.919 3.059-.886 1.97-1.805.074-9.535-.329-11.785 6.473.512 15.878.115 20.825-.853 15.398-3.01 26.104-6.453 36.362-11.445 0 0-17.382 118.951-21.593 169.496-4.211 50.544-.915 59.682 5.338 66.914 8.648 10.001 23.407 4.744 33.846-2.373l27.361-31.789c0 6.959.949 13.759 4.364 22.875 2.237 5.971 40.365 81.197 74.723 142.009l17.484 43.3 17.471 44.691c.824 3.295 5.431 11.083 11.116 10.588 5.684-.494 4.728-32.668 3.595-49.761.239-2.252.562-4.91.912-7.791v-.002c1.459-12.01 3.389-27.893 1.665-34.323-1.223-4.561-6.167-11.798-9.252-14.361-13.738-26.284-27.207-63.304-36.911-91.204-9.705-27.901-24.644-56.461-32.92-68.415l13.156-68.642c13.344-13.76 41.01-40.685 37.508-43.687-2.495-2.139-11.178.479-19.592 3.015-3.399 1.024-8.095 1.75-10.98 2.429 1.042-8.548 5.094-32.114 7.596-59.134 2.502-27.021-7.714-62.548-13.135-76.934 39.744-2.41 48.661-19.39 50.662-29.397ZM143.869 450.296l-1.851 29.475-11.96 10.611 13.811-40.086Zm60.34-214.46 10.898 36.827c-1.454 1.38-5.669 4.489-10.898 5.883-5.229 1.395-7.989 1.598-8.715 1.526l8.715-44.236Z" fill="#000"/><path fill-rule="evenodd" clip-rule="evenodd" d="M251.392 281.517c.804-7.933-17.871-79.399-27.67-110.882-36.032 18.016-51.675 14.377-54.106 7.408-1.881-5.396 3.071-10.277 6.745-12.795.795-.545 1.623.291 1.227 1.169-1.275 2.824-1.015 4.072 1.382 4.218 20.167 1.236 23.008-10.403 12.334-14.273-14.753-5.348-33.747 0-53.773 6.504-9.875 3.206-23.914-6.183-27.559-10.787-9.655 5.103-17.564 14.815-18.485 21.722-.496 3.723.508 23.596 1.672 46.618 1.534 30.359 3.345 66.196 2.357 77.7-31.37 44.053-63.508 50.501-75.98 47.385-.495-.124-7.443-.797-10.033.498-2.478-.976-6.759-.527-6.786-.498-2.695 0-1.967 8.138.463 11.207 2.065 3.115 4.139 7.424 7.313 11.674 1.201 1.614 2.408 3.225 3.605 4.842 3.816 5.153 6.61 5.755 7.304 2.327.426 2.763 1.546 8.313 4.718 8.415 3.171.103 3.282-3.282 2.941-4.987.62-.391 1.09.919 3.059-.886 1.97-1.805.074-9.535-.329-11.785 6.473.512 15.878.115 20.825-.853 15.398-3.01 26.104-6.453 36.362-11.445 0 0-17.382 118.951-21.593 169.496-4.211 50.544-.915 59.682 5.338 66.914 8.648 10.001 23.407 4.744 33.846-2.373l27.361-31.789c0 6.959.949 13.759 4.364 22.875 2.237 5.971 40.365 81.197 74.723 142.009l17.484 43.3 17.471 44.691c.824 3.295 5.431 11.083 11.116 10.588 5.684-.494 4.728-32.668 3.595-49.761.239-2.252.562-4.91.912-7.791v-.002c1.459-12.01 3.389-27.893 1.665-34.323-1.223-4.561-6.167-11.798-9.252-14.361-13.738-26.284-27.207-63.304-36.911-91.204-9.705-27.901-24.644-56.461-32.92-68.415l13.156-68.642c13.344-13.76 41.01-40.685 37.508-43.687-2.495-2.139-11.178.479-19.592 3.015-3.399 1.024-8.095 1.75-10.98 2.429 1.042-8.548 5.094-32.114 7.596-59.134 2.502-27.021-7.714-62.548-13.135-76.934 39.744-2.41 48.661-19.39 50.662-29.397ZM143.869 450.296l-1.851 29.475-11.96 10.611 13.811-40.086Zm60.34-214.46 10.898 36.827c-1.454 1.38-5.669 4.489-10.898 5.883-5.229 1.395-7.989 1.598-8.715 1.526l8.715-44.236Z" fill="url(#a)"/><path d="M94.173 216.956c0 5.14 11.389 7.414 12.786-1.897 1.599-10.666.577-39.904-3.763-42.531-4.34-2.627-8.873-2.17-10.586 3.768" stroke="#FFBD00" stroke-width="2" stroke-linecap="round" stroke-linejoin="round"/><path d="M114.329 293.696h16.926c.268 4.373-.724 13.844-2.006 17.104-14.678 37.325-44.392 44.21-55.458 49.9-3.558-.538-4.73-3.651-5.115-5.642-.2-1.034.365-2.011 1.257-2.57 15.66-9.812 38.114-30.136 39.746-38.988 1.608-10.325 2.24-15.412 2.489-17.816.113-1.099 1.056-1.988 2.161-1.988Z" fill="#0C0C0D" fill-opacity=".2"/><path d="M31.785 367c1.376 4.362 3.61 13.085-2.055 12.368M6.275 361.123c4.977 5.736 11.27 18.854 13.744 17.133 3.091-2.151.711-6.981-4.397-16.256" stroke="#0C0C0D" stroke-width="2" stroke-linecap="round" stroke-linejoin="round"/><path d="M24.498 364.834c2.69 3.566 6.664 17.799 3.84 19.303-3.252 1.732-4.858-1.381-6.832-7.959" stroke="#0C0C0D" stroke-width="2" stroke-linecap="round" stroke-linejoin="round"/><path d="M88.712 43h20.366c0 10.915 8.402 15.634 8.402 15.634-8.402 7.113-7.106 22.42 1.918 26.238l-1.918 4.243H91.279a5 5 0 0 1-4.987-4.645l-2.568-36.115A5 5 0 0 1 88.712 43Z" fill="url(#b)"/><path d="M246.087 743.054c-3.428-17.643 20.311-29.941 20.311-9.189l-3.384 36.568c1.001 16.487 1.448 49.46-4.778 49.46-12.149-4.089-6.415-47.327-12.149-76.839Z" fill="#0C0C0D"/><path d="M130.593 491.164c7.664-23.184 22.594-64.55 32.805-90.164" stroke="#0C0C0D" stroke-width="2" stroke-linecap="round" stroke-linejoin="round"/><path d="M209.875 345.28c-7.196-14.818-7.65-11.591-13.579-9.474-5.929 2.117-29.565 2.994-41.916 0-14.808-3.589-18.403 15.952-34.273 38.057-15.407 21.459-19.794 87.065-32.677 138.671-.73 2.925-2.815 5.271-5.465 6.707-4.107 2.224-7.255 4.774-5.599 7.061 2.208 3.048 7.04-3.758 8.613 0 1.266 3.024-6.609 6.281-7.84 10.857-.845 3.136 1.457 3.418 2.713 3.166" stroke="#FFF73A" stroke-width="2" stroke-linecap="round" stroke-linejoin="round"/><path d="M204.36 235c2.994 14.124 14.038 44.659 14.038 44.659M215.398 273s-11.239 7.368-19.178 7.175" stroke="#0C0C0D" stroke-width="2" stroke-linecap="round" stroke-linejoin="round"/><path d="m225.828 253.156 16.834-3.756a1.974 1.974 0 0 1 2.329 1.356c3.629 12.214 5.675 26.066 6.407 33.657-2.081 20.199-34.193 25.727-49.989 25.966 10.293-2.859 18.77-8.081 24.379-12.738 4.641-3.853 5.783-10.103 4.448-15.984l-5.923-26.106a2 2 0 0 1 1.515-2.395Z" fill="#0C0C0D" fill-opacity=".2"/><path d="m142.196 480.717 3.304-32.219" stroke="#0C0C0D" stroke-width="2" stroke-linecap="round" stroke-linejoin="round"/><path d="M78.231 542.51c-1.039 1.558-2.494 5.485 0 8.727 3.118 4.051 73.142-70.058 79.777-72.712 6.634-2.654 76.709-35.593 67.57-20.655" stroke="#FFBD00" stroke-width="2" stroke-linecap="round" stroke-linejoin="round"/><path d="M148.637 485.982c1.054 1.757 4.073 1.883 6.743.281 2.671-1.602 3.981-4.325 2.928-6.082-1.054-1.757-4.074-1.882-6.744-.28-2.671 1.602-3.981 4.324-2.927 6.081Z" stroke="#FFBD00" stroke-width="2"/><path d="M225.165 726.998c1.918-.789 2.512-3.764 1.326-6.644-1.185-2.879-3.701-4.574-5.62-3.784-1.918.79-2.512 3.764-1.326 6.644 1.186 2.88 3.702 4.574 5.62 3.784Z" stroke="#2C375F" stroke-width="2"/><path d="M143.215 546c1.084 4.264-5.878 12.506 0 11.81 3.376-.401 9.236-6.967 11.284-2.922 2.739 5.409-15.93 11.366-13.368 15.684 1.61 2.715 4.856 0 9.112 0s64.367 128.288 73.713 155.604c7.559 22.096 8.972 40.415 22.442 78.842" stroke="#2C375F" stroke-width="2" stroke-linecap="round" stroke-linejoin="round"/><path d="M185.398 555.072c-3.535-1.224-16.178-2.454-22.06 2.735M258.398 716.368c-3.902-4.062-11.699-2.762-14.282 2.854M133.398 210.519c.005 22.892-.59 68.882-2.832 97.088-.145 1.825-.542 3.63-1.259 5.314-15.391 36.141-59.306 51.007-78.124 53.413-17.098 2.186-30.25-.824-39.058-8.489M109.584 153c-4.147 3.595-14.839 8.931-17.186 21.164 0 36.355 4.883 69.5 4.883 122.602-12.669 21.114-34.11 38.714-54.686 46.278s-23.637-1.202-33.187 3.635m2.751 1.543c-12.854-8.308-13.667 5.101-4.718 14.047 3.233 3.232 6.211 5.785 7.27 2.821.846-2.37-1.383-5.904-2.586-7.245m0 0a32.246 32.246 0 0 1-3.13-3.126" stroke="#0C0C0D" stroke-width="2" stroke-linecap="round" stroke-linejoin="round"/><path d="M211.824 193c-3.775 28.312-17.768 83.168-16.186 98.493 1.978 19.156 18.864 50.503 18.864 93.207 0 13.756-3.312 37.654-7.751 63.834m-71.377 106.842s-.083 9.726 0 11.045c1.317 21.077 67.507 135.415 80.249 160.918 12.394 24.806 34.02 93.916 39.091 90.274 0 0 2.7 3.16 4.281 3.047 6.294-1.43 4.078-37.119 4.073-50.968 6.775-49.559 2.09-41.762-4.073-52.285-29.307-50.032-40.226-114.341-72.304-162.959 3.022-15.909 8.228-41.506 13.325-68.538" stroke="#0C0C0D" stroke-width="2" stroke-linecap="round" stroke-linejoin="round"/><path d="M89.019 355c-7.898 51.43-23.647 173.068-23.207 210.538.441 37.471 23.207 35.297 41.291 21.978 24.795-30.123 74.472-84.016 84.406-93.656 13.02-12.635 37.499-39.047 42.045-44.611 5.733-7.017 5.172-9.625-2.478-7.925-7.649 1.7-59.481 18.713-64.921 19.705m-93.51 90.332c9.644-23.42 80.524-78.306 81.657-81.422 3.69-19.546 2.206-8.783 22.908-12.023M224.296 171.353c9.506 24.884 25.249 96.114 26.984 109.712 2.062 16.149-23.065 29.922-50.978 29.922" stroke="#0C0C0D" stroke-width="2" stroke-linecap="round" stroke-linejoin="round"/><path d="M130.398 311c-.262.689-.526 1.37-.792 2.045-7.559 18.001-29.471 33.871-39.84 39.726l-2.278 15.948c8.08-3.231 27.608-18.865 42.118-55.674.285-.679.55-1.361.792-2.045Z" fill="#0C0C0D"/><path d="M210.498 78.536c-5.407-2.923.878-35.077-19.583-47.354C180.286 14.622 160.805 2.835 145.8.517c-18.755-2.897-21.652 7.167-25.464 10.522-3.812 3.354-8.387 8.519-8.387 17.535-9.856 17.267 1.095 26.838 3.965 30.497 0 0 6.902-3.66 10.674-3.66.853 2.075-1.373 22.416-2.593 32.327l-6.2-3.166c-5.525 23.45-14.385 40.682-14.385 52.419 0 8.047 7.731 30.244 32.03 27.503 23.799-2.683 46.78-13.168 56.181-5.774 5.007 3.937-1.186 10.04-10.131 11.226-5.317.706-5.254-1.264-1.461-5.02-15.06 1.643-15.933 16.199-6.663 19.442 20.355 7.119 54.379-5.425 57.216-22.37 20.402-12.139 25.707-45.367-7.221-60.955 9.353-2.192 9.588-12.25 16.223-12.861 8.012-.74 13.884 14.177 9.061 34.492 5.554-7.454 7.097-12.277 8.039-20.315 0 5.046.074 13.233-.942 18.163 10.88-16.925 11.81-43.203-8.082-50.902-12.461-4.823-31.15 12.165-37.162 8.916Z" fill="url(#c)"/><path d="M170.951 131.432c-5.639-1.566-22.881 1.085-36.711 8.588m75.833 21.884c7.413-15.443-7.141-27.099-27.185-29.139" stroke="#0C0C0D" stroke-width="2" stroke-linecap="round" stroke-linejoin="round"/><path d="M124.398 20c-5.772 1.971-15.628 10.658-15.628 20.695 0 11.614 5.631 15.345 7.813 17.95" stroke="#1F2B7A" stroke-width="2" stroke-linecap="round" stroke-linejoin="round"/><path d="M142.398 9.81c-17.558-6.097-29.774 5.463-29.774 19.045" stroke="#1F2B7A" stroke-width="2" stroke-linecap="round" stroke-linejoin="round"/><path d="M192.222 23.323c-6.215-6.787-10.94-6.316-13.986-6.316 8.042 6.7 12.064 13.283 12.064 13.283l6.092 4.475c.112-3.239-1.201-8.2-4.17-11.442Z" fill="#51CCFF" stroke="#fff" stroke-width="2" stroke-linecap="round" stroke-linejoin="round"/><path d="M218.665 152.55c2.055-6.164.168-22.595-30.769-19.056" stroke="#0C0C0D" stroke-width="2" stroke-linecap="round" stroke-linejoin="round"/><path d="M221.398 133c2.76 5.403 3.359 19.538-16.329 32.856M162.029 131.278c-15.52 1.986-26.037-9.453-22.884-33.278M198.669 81c-.322 4.72 1.195 14.59 9.837 16.318 3.791.758 12.896 1.763 19.158 4.823" stroke="#0C0C0D" stroke-width="2" stroke-linecap="round" stroke-linejoin="round"/><path d="M110.443 71.246c0-8.914 6.08-17.373 16.955-16.123l-3.072 32.102c-7.983-.973-13.883-7.734-13.883-15.98Z" fill="#FF8C7C"/><path d="M126.398 66c-2.823 24.599-4.464 30.406-6.751 46.986" stroke="#0C0C0D" stroke-width="2" stroke-linecap="round" stroke-linejoin="round"/><path d="M136.507 26.03c-6.54 2.18-11.097 11.888-8.695 27.959 6.504-17.076 15.074-13.536 20.397-16.922 6.497-4.132-2.678-14.043-11.702-11.036Z" fill="#51CCFF" stroke="#fff" stroke-width="2" stroke-linecap="round" stroke-linejoin="round"/><path d="M163.058 239.972c12.521-.011 24.258-7.646 30.787-20.021-5.993-12.364-17.386-19.945-29.907-19.934-6.528 12.375-6.872 27.591-.88 39.955Z" fill="#FFC729"/><path opacity=".2" d="m180.599 218.639 13.211 1.309s-.003.038 0 0c-5.958-12.361-17.351-19.942-29.872-19.931 0 0 10.602 5.547 16.661 18.622Z" fill="#fff"/><defs><linearGradient id="b" x1="90.52" y1="37.336" x2="115.722" y2="90.671" gradientUnits="userSpaceOnUse"><stop stop-color="#FF6C8C"/><stop offset="1" stop-color="#155ED2" stop-opacity=".5"/></linearGradient><linearGradient id="c" x1="149.981" y1="54.039" x2="211.073" y2="183.012" gradientUnits="userSpaceOnUse"><stop stop-color="#fff"/><stop offset="1" stop-color="#FFBD00"/></linearGradient><radialGradient id="a" cx="0" cy="0" r="1" gradientUnits="userSpaceOnUse" gradientTransform="rotate(68.485 -77.982 158.2) scale(677.27 269.022)"><stop offset=".02" stop-color="#167DFF"/><stop offset=".136" stop-color="#FFBD00"/><stop offset=".76" stop-color="#0B2C99" stop-opacity=".67"/></radialGradient></defs></svg>