<svg viewBox="0 0 128 80" fill="none" xmlns="http://www.w3.org/2000/svg"><path opacity=".3" fill-rule="evenodd" clip-rule="evenodd" d="M7.98 18.743C18.742 17.812 28.352 12.705 35.282 5c6.81 7.572 16.208 12.634 26.743 13.691A46.054 46.054 0 0 1 64 32.071c0 19.31-11.896 35.874-28.842 42.93C18.027 67.944 6 51.38 6 32.07c0-4.631.692-9.105 1.98-13.328Z" fill="#fff"/><path fill-rule="evenodd" clip-rule="evenodd" d="M35 58.132c9.152 0 16.572-7.757 16.572-17.326 0-9.568-7.42-17.325-16.572-17.325S18.43 31.236 18.43 40.805c0 9.569 7.419 17.326 16.571 17.326Zm9.21-27.187L31.094 44.66l-5.868-6.135-2.765 2.89 7.25 7.58 1.383 1.446 1.382-1.445 14.5-15.16-2.764-2.891Z" fill="#fff"/></svg>