<svg viewBox="0 0 128 80" fill="none" xmlns="http://www.w3.org/2000/svg"><path opacity=".3" d="M4.415 23.125 31.347 38.67l-.02-.02c1.283.738 2.304 2.526 2.304 3.99l-.091 33.404c0 1.475-1.041 2.06-2.314 1.323L4.294 61.822C3.021 61.094 2 59.307 2 57.842l.101-33.394c.01-1.464 1.04-2.06 2.314-1.323Z" fill="#fff"/><path opacity=".7" fill-rule="evenodd" clip-rule="evenodd" d="M66.322 22.702 37.936 39.086c-.87.505-1.577 1.727-1.577 2.727l.04 14.485c0 1 .718 1.404 1.587.899l28.387-16.384c.869-.505 1.576-1.727 1.566-2.727l-.04-14.485c0-1-.708-1.414-1.577-.909l1.508 2.594a.655.655 0 0 1-.013.007l-1.495-2.59Zm-1.414 4.28L39.504 41.645a.78.78 0 0 0-.145.246l.031 11.032 25.414-14.668a.625.625 0 0 0 .082-.117.796.796 0 0 0 .053-.111l-.03-11.045Z" fill="#fff"/><path d="m61.461 31.29-2.86 1.656c-.798.455-1.434 1.566-1.424 2.475v3.293c.01.909.657 1.272 1.445.818l2.86-1.657c.798-.454 1.435-1.565 1.435-2.474v-3.293c-.01-.91-.657-1.273-1.456-.819M52.862 36.246l-2.86 1.657c-.799.455-1.435 1.576-1.435 2.475v3.293c.01.909.657 1.272 1.455.818l2.86-1.657c.798-.454 1.435-1.555 1.425-2.474v-3.293c-.01-.91-.657-1.273-1.445-.819" fill="#fff"/><path opacity=".7" fill-rule="evenodd" clip-rule="evenodd" d="M66.383 43.288 37.996 59.672c-.869.505-1.576 1.727-1.576 2.727l.04 14.485c0 1 .718 1.404 1.587.899l28.386-16.384c.87-.505 1.577-1.727 1.567-2.727l-.04-14.485c0-1-.708-1.414-1.577-.909l1.507 2.594a.326.326 0 0 1-.012.007l-1.495-2.59Zm-1.414 4.28L39.564 62.231a.778.778 0 0 0-.144.246l.03 11.032L64.866 58.84a.588.588 0 0 0 .081-.117.805.805 0 0 0 .054-.111l-.031-11.045Z" fill="#fff"/><path d="m61.522 51.875-2.86 1.657c-.798.455-1.435 1.556-1.425 2.475V59.3c.01.909.657 1.272 1.445.818l2.86-1.657c.799-.454 1.435-1.576 1.435-2.474v-3.294c-.01-.908-.656-1.272-1.455-.818M52.922 56.832l-2.86 1.657c-.798.455-1.435 1.566-1.435 2.475v3.293c.01.909.657 1.272 1.456.818l2.86-1.657c.798-.454 1.434-1.565 1.424-2.474V57.65c-.01-.91-.656-1.273-1.445-.819" fill="#fff"/><path opacity=".7" fill-rule="evenodd" clip-rule="evenodd" d="M37.127 2.53 64.21 18.157h.01c1.223.717 1.223 1.868 0 2.575l-26.9 15.626c-1.224.708-3.214.708-4.447 0L5.79 20.732c-1.233-.707-1.233-1.868-.01-2.575L32.68 2.53c1.224-.707 3.214-.707 4.447 0Z" fill="#fff"/></svg>