<svg viewBox="0 0 128 80" fill="none" xmlns="http://www.w3.org/2000/svg"><path fill-rule="evenodd" clip-rule="evenodd" d="m74.865 44.14-2.989-.258a33.47 33.47 0 0 0 0-5.764l2.989-.258a36.435 36.435 0 0 1 0 6.28Zm-.406-9.395-2.955.518a32.726 32.726 0 0 0-1.485-5.553l2.82-1.026a35.745 35.745 0 0 1 1.62 6.061Zm-2.824-8.963-2.718 1.27a32.963 32.963 0 0 0-2.88-4.98l2.455-1.722a35.962 35.962 0 0 1 3.143 5.432Zm-5.057-7.923-2.297 1.93a33.224 33.224 0 0 0-4.07-4.07l1.93-2.297a36.219 36.219 0 0 1 4.437 4.437Zm-6.928-6.351-1.723 2.456a32.959 32.959 0 0 0-4.979-2.88l1.27-2.719a35.963 35.963 0 0 1 5.432 3.143Zm-8.334-4.346a35.738 35.738 0 0 0-6.061-1.62l-.518 2.954c1.913.336 3.769.835 5.553 1.485l1.026-2.82ZM42.14 5.135l-.258 2.989a33.465 33.465 0 0 0-5.764 0l-.258-2.989a36.472 36.472 0 0 1 6.28 0Zm-9.395.406.518 2.955c-1.913.336-3.769.835-5.553 1.485l-1.026-2.82a35.738 35.738 0 0 1 6.061-1.62Zm-8.963 2.824 1.27 2.718a32.963 32.963 0 0 0-4.98 2.88l-1.722-2.455a35.964 35.964 0 0 1 5.432-3.143Zm-7.923 5.057 1.93 2.297a33.224 33.224 0 0 0-4.07 4.07l-2.297-1.93a36.219 36.219 0 0 1 4.437-4.437ZM9.508 20.35a35.96 35.96 0 0 0-3.143 5.432l2.718 1.27a32.958 32.958 0 0 1 2.88-4.98L9.509 20.35Zm-4.346 8.334L7.98 29.71a32.736 32.736 0 0 0-1.485 5.553l-2.955-.518a35.738 35.738 0 0 1 1.62-6.061ZM3.135 37.86a36.472 36.472 0 0 0 0 6.28l2.989-.258a33.465 33.465 0 0 1 0-5.764l-2.989-.258Zm.406 9.395 2.955-.518c.336 1.913.835 3.769 1.485 5.553l-2.82 1.026a35.738 35.738 0 0 1-1.62-6.061Zm2.824 8.963 2.718-1.27a32.962 32.962 0 0 0 2.88 4.98L9.509 61.65a35.96 35.96 0 0 1-3.143-5.432Zm5.057 7.923 2.297-1.93a33.224 33.224 0 0 0 4.07 4.07l-1.93 2.297a36.219 36.219 0 0 1-4.437-4.437Zm6.928 6.351 1.723-2.456a32.959 32.959 0 0 0 4.979 2.88l-1.27 2.719a35.962 35.962 0 0 1-5.432-3.143Zm8.334 4.346 1.026-2.819c1.784.65 3.64 1.15 5.553 1.485l-.518 2.955a35.745 35.745 0 0 1-6.061-1.62Zm9.176 2.027.258-2.989a33.47 33.47 0 0 0 5.764 0l.258 2.989a36.435 36.435 0 0 1-6.28 0Zm9.395-.406-.518-2.955a32.726 32.726 0 0 0 5.553-1.485l1.026 2.82a35.745 35.745 0 0 1-6.061 1.62Zm8.963-2.824-1.27-2.718a32.963 32.963 0 0 0 4.98-2.88l1.722 2.455a35.962 35.962 0 0 1-5.432 3.143Zm7.923-5.057-1.93-2.297a33.224 33.224 0 0 0 4.07-4.07l2.297 1.93a36.219 36.219 0 0 1-4.437 4.437Zm6.351-6.928-2.456-1.723a32.959 32.959 0 0 0 2.88-4.979l2.719 1.27a35.962 35.962 0 0 1-3.143 5.432Zm4.346-8.334L70.02 52.29c.65-1.784 1.15-3.64 1.485-5.553l2.955.518a35.745 35.745 0 0 1-1.62 6.061Z" fill="#fff"/><path opacity=".4" fill-rule="evenodd" clip-rule="evenodd" d="M58.988 41.376v-1.964c0-.965-.44-1.744-1.122-2.225-.613-.432-1.323-.562-1.899-.562-.818 0-1.702-.636-2.156-1.734-.156-.377-.319-1.526.341-2.78.11-.207.218-.402.32-.585.667-1.199 1.083-1.947.078-3.213l-2.595-2.628c-.642-.643-1.459-.88-2.246-.763-.726.109-1.33.498-1.758.928-.623.623-1.687.806-2.764.354-1.128-.473-1.794-1.419-1.794-2.3 0-1.271-.85-2.904-2.703-2.904h-3.38c-1.852 0-2.703 1.631-2.703 2.903 0 .882-.666 1.828-1.794 2.301-1.078.452-2.142.269-2.765-.354-.429-.43-1.032-.82-1.758-.928-.787-.117-1.604.12-2.246.763L23.69 28.04l.009.009-.01-.009a2.666 2.666 0 0 0-.775 2.268c.1.742.481 1.364.921 1.804l.032-.032-.03.032c.605.606.792 1.685.34 2.779-.455 1.098-1.34 1.734-2.157 1.734-.576 0-1.286.13-1.899.562-.681.48-1.122 1.26-1.122 2.225v3.312c0 1.54 1.224 2.789 2.734 2.789h.322c.8 0 1.668.62 2.117 1.7.452 1.086.264 2.156-.335 2.75l-.142.14a2.772 2.772 0 0 0 0 3.92l2.352 2.334a2.708 2.708 0 0 0 3.831 0l.17-.168c.623-.62 1.681-.8 2.754-.353 1.133.473 1.804 1.423 1.804 2.309v.11c0 1.516 1.205 2.745 2.691 2.745h3.404c1.486 0 2.691-1.229 2.691-2.745v-.11c0-.886.671-1.836 1.804-2.309 1.072-.447 2.13-.266 2.754.353l.17.168a2.708 2.708 0 0 0 3.83 0l2.352-2.334a2.772 2.772 0 0 0 0-3.92l-.142-.14c-.598-.594-.786-1.664-.334-2.75.449-1.08 1.317-1.7 2.117-1.7h.322c1.51 0 2.734-1.249 2.734-2.789v-1.348h-.012Z" fill="#fff"/><path fill-rule="evenodd" clip-rule="evenodd" d="M51 41c0 6.627-5.373 12-12 12s-12-5.373-12-12 5.373-12 12-12 12 5.373 12 12Zm-4 0a8 8 0 1 1-16 0 8 8 0 0 1 16 0Zm-8 2a2 2 0 1 0 0-4 2 2 0 0 0 0 4Z" fill="#fff"/></svg>