<svg viewBox="0 0 128 80" fill="none" xmlns="http://www.w3.org/2000/svg"><path d="M2 6h64v64H2V6Z" fill="#fff" fill-opacity=".3"/><path d="M34 59H9v4h25v-4ZM22.673 18.319v-4.854H9.467v4.854h3.725v16.705H9.467v4.853h13.206v-4.853h-3.725V18.318h3.725ZM35.428 40.329c-2.032 0-3.838-.339-5.192-1.129-1.355-.79-2.596-1.693-3.5-2.822l3.725-4.063c.79.79 1.468 1.467 2.258 1.919.79.451 1.58.677 2.596.677 1.129 0 2.032-.339 2.596-1.016.677-.677.903-1.806.903-3.386V13.465h5.983v17.383c0 1.58-.226 2.934-.678 4.176-.451 1.129-1.016 2.145-1.806 2.935s-1.806 1.467-2.934 1.806c-1.242.338-2.484.564-3.951.564Z" fill="#fff"/></svg>