<svg viewBox="0 0 128 80" fill="none" xmlns="http://www.w3.org/2000/svg"><path d="M61.367 52.69h9.812c.102 2.22.971 3.974 2.606 5.264 1.687 1.239 3.884 1.858 6.593 1.858 2.81 0 4.982-.645 6.516-1.935 1.584-1.29 2.376-3.02 2.376-5.187 0-1.91-.588-3.56-1.763-4.954-1.176-1.393-2.837-2.425-4.983-3.096l-5.826-1.703C67.193 40.305 62.44 34.783 62.44 26.37c0-3.87 1.1-7.096 3.297-9.676 2.197-2.632 5.263-4.386 9.198-5.264l-.153-1.238V4h9.582v6.193l-.077 1.006c4.088.67 7.36 2.296 9.812 4.877 2.453 2.58 3.782 5.934 3.986 10.063H88.35c-.102-2.116-.92-3.767-2.453-4.954-1.533-1.187-3.475-1.78-5.826-1.78-2.504 0-4.471.593-5.902 1.78s-2.147 2.76-2.147 4.722c0 3.715 2.223 6.218 6.67 7.508l6.132 1.703c4.6 1.29 8.1 3.406 10.502 6.348 2.402 2.89 3.603 6.476 3.603 10.76 0 4.18-1.278 7.663-3.833 10.45-2.504 2.735-5.98 4.464-10.425 5.186l.153 1.936v6.192h-9.582v-6.192l.23-1.936c-4.14-.774-7.461-2.477-9.965-5.109-2.505-2.632-3.884-5.986-4.14-10.063Z" fill="#fff" fill-opacity=".2"/><path d="M32.648 52.69h9.812c.103 2.22.971 3.974 2.607 5.264 1.686 1.239 3.883 1.858 6.592 1.858 2.81 0 4.983-.645 6.516-1.935 1.584-1.29 2.376-3.02 2.376-5.187 0-1.91-.588-3.56-1.763-4.954-1.175-1.393-2.836-2.425-4.983-3.096l-5.825-1.703c-9.506-2.632-14.258-8.154-14.258-16.566 0-3.87 1.098-7.096 3.296-9.676 2.197-2.632 5.264-4.386 9.199-5.264l-.154-1.238V4h9.582v6.193l-.077 1.006c4.089.67 7.36 2.296 9.812 4.877 2.453 2.58 3.782 5.934 3.987 10.063H59.63c-.102-2.116-.92-3.767-2.453-4.954-1.533-1.187-3.475-1.78-5.826-1.78-2.504 0-4.471.593-5.902 1.78s-2.146 2.76-2.146 4.722c0 3.715 2.223 6.218 6.669 7.508l6.132 1.703c4.6 1.29 8.1 3.406 10.502 6.348 2.402 2.89 3.603 6.476 3.603 10.76 0 4.18-1.278 7.663-3.833 10.45-2.504 2.735-5.98 4.464-10.425 5.186l.153 1.936v6.192h-9.582v-6.192l.23-1.936c-4.14-.774-7.461-2.477-9.965-5.109-2.504-2.632-3.884-5.986-4.14-10.063Z" fill="#fff" fill-opacity=".5"/><path d="M4.922 52.69h9.812c.102 2.22.97 3.974 2.606 5.264 1.686 1.239 3.884 1.858 6.593 1.858 2.81 0 4.982-.645 6.515-1.935 1.584-1.29 2.377-3.02 2.377-5.187 0-1.91-.588-3.56-1.764-4.954-1.175-1.393-2.836-2.425-4.982-3.096l-5.826-1.703C10.748 40.305 5.995 34.783 5.995 26.37c0-3.87 1.099-7.096 3.296-9.676 2.198-2.632 5.264-4.386 9.199-5.264l-.153-1.238V4h9.582v6.193l-.077 1.006c4.088.67 7.359 2.296 9.812 4.877 2.453 2.58 3.781 5.934 3.986 10.063h-9.735c-.103-2.116-.92-3.767-2.453-4.954-1.533-1.187-3.475-1.78-5.826-1.78-2.504 0-4.472.593-5.903 1.78-1.43 1.187-2.146 2.76-2.146 4.722 0 3.715 2.223 6.218 6.67 7.508l6.131 1.703c4.6 1.29 8.1 3.406 10.502 6.348 2.402 2.89 3.603 6.476 3.603 10.76 0 4.18-1.277 7.663-3.833 10.45-2.504 2.735-5.979 4.464-10.425 5.186l.153 1.936v6.192h-9.581v-6.192l.23-1.936c-4.14-.774-7.462-2.477-9.966-5.109-2.504-2.632-3.884-5.986-4.14-10.063Z" fill="#fff"/></svg>