<svg viewBox="0 0 128 80" fill="none" xmlns="http://www.w3.org/2000/svg"><path d="M73.855 39.012c0-19.666-15.865-35.609-35.435-35.609S2.984 19.346 2.984 39.013c0 19.665 15.865 35.608 35.436 35.608 19.57 0 35.435-15.943 35.435-35.609Z" fill="#fff" fill-opacity=".2"/><path fill-rule="evenodd" clip-rule="evenodd" d="M22.362 17.07c-2.334 8.756 2.837 17.747 11.539 20.09s17.654-2.845 19.988-11.6c2.334-8.755-2.837-17.746-11.539-20.09-8.702-2.342-17.653 2.846-19.988 11.6Zm11.024 22.023C23.608 36.46 17.814 26.365 20.43 16.55 23.048 6.737 33.09.906 42.866 3.538 52.642 6.171 58.437 16.266 55.82 26.08c-2.617 9.814-12.658 15.645-22.434 13.013Z" fill="#fff"/><path fill-rule="evenodd" clip-rule="evenodd" d="M22.362 51.07c-2.334 8.756 2.837 17.747 11.539 20.09s17.654-2.846 19.988-11.6c2.334-8.755-2.837-17.746-11.539-20.09-8.702-2.342-17.653 2.846-19.988 11.6Zm11.024 22.023C23.608 70.46 17.814 60.365 20.43 50.55c2.617-9.814 12.659-15.645 22.435-13.013 9.776 2.633 15.571 12.728 12.954 22.542-2.617 9.814-12.658 15.645-22.434 13.013Z" fill="#fff"/><path fill-rule="evenodd" clip-rule="evenodd" d="M5.448 34.07c-2.334 8.756 2.837 17.747 11.539 20.09s17.654-2.845 19.988-11.6c2.334-8.755-2.837-17.746-11.539-20.09-8.702-2.342-17.653 2.846-19.988 11.6Zm11.023 22.023C6.695 53.46.901 43.365 3.517 33.55c2.617-9.814 12.658-15.645 22.435-13.013 9.776 2.633 15.571 12.728 12.954 22.542-2.617 9.814-12.658 15.645-22.435 13.013Z" fill="#fff"/><path fill-rule="evenodd" clip-rule="evenodd" d="M40.276 34.07c-2.334 8.756 2.837 17.747 11.539 20.09s17.654-2.845 19.988-11.6c2.334-8.755-2.836-17.746-11.538-20.09-8.702-2.342-17.654 2.846-19.989 11.6ZM51.3 56.094C41.523 53.46 35.728 43.365 38.345 33.55c2.617-9.814 12.659-15.645 22.435-13.013 9.776 2.633 15.571 12.728 12.954 22.542-2.617 9.814-12.658 15.645-22.434 13.013Z" fill="#fff"/></svg>