<svg viewBox="0 0 128 80" fill="none" xmlns="http://www.w3.org/2000/svg"><path d="m29.51 78.224 31.602-10.096L52 56.1l-18.928 6.03-16.666-21.544L4 44.549l25.51 33.675Z" fill="#fff" fill-opacity=".5"/><path fill-rule="evenodd" clip-rule="evenodd" d="M6.57 28.1a1.5 1.5 0 0 1 .974-.976l19.656-6.28.913 2.857-17.637 5.636 23.589 31.138 28.571-9.128-6.08-8.027 2.39-1.811 7.361 9.716a1.5 1.5 0 0 1-.739 2.335L33.966 63.656a1.5 1.5 0 0 1-1.652-.523L6.804 29.458A1.5 1.5 0 0 1 6.57 28.1Z" fill="#fff"/><path d="M21.137 56.008c-2.018-2.666-.794-6.526 2.391-7.543a.915.915 0 0 1 1.022.34l8.914 12.47 11.354-3.76a1.119 1.119 0 0 1 1.154.28c1.914 1.967 1.092 5.26-1.522 6.095l-7.77 2.482a9.192 9.192 0 0 1-10.125-3.207l-5.418-7.157Z" fill="#fff" fill-opacity=".5"/><path d="m34.786 36.728-1.862-2.345-12.51 4.146 2.3 3.312a1 1 0 0 0 1.643-1.14l-.774-1.115 2.704-.897 8.596 10.642-1.186.378a1 1 0 1 0 .606 1.905l5.219-1.66a1 1 0 0 0-.606-1.906l-1.974.628a.98.98 0 0 0-.158-.276L28.38 37.996l3.847-1.275.992 1.25a1 1 0 1 0 1.567-1.243Z" fill="#fff"/><path opacity=".4" d="M19.852 13.677a1 1 0 0 1 .493-1.557l30.01-9.588a2 2 0 0 1 2.202.698L77.25 35.825a1 1 0 0 1-.493 1.556l-30.684 9.803a1 1 0 0 1-1.101-.348l-25.12-33.16Z" fill="#fff"/><path fill-rule="evenodd" clip-rule="evenodd" d="M38.425 17.876c-1.912-2.493-.846-6.127 2.11-7.191a6.29 6.29 0 0 1 7.121 2.09L59.02 27.586a4.485 4.485 0 0 1 .904 3.176l-.295 2.946a1.5 1.5 0 0 1-1.806 1.317l-6.039-1.291a3.96 3.96 0 0 1-2.314-1.462L38.426 17.876Zm3.127-4.369a1.64 1.64 0 0 0-.746 2.543l.095.123 4.296-1.671a3.29 3.29 0 0 0-3.645-.995Zm5.425 3.31-4.299 1.673 9.173 11.957a.96.96 0 0 0 .56.354l2.294.491 2.217-1.241a1.484 1.484 0 0 0-.282-.638l-9.663-12.596Z" fill="#fff"/></svg>