<svg width="118" height="80" viewBox="0 0 118 80" fill="none" xmlns="http://www.w3.org/2000/svg">
<path d="M28.191 31.7254C28.191 32.9564 28.3241 33.9545 28.557 34.6864C28.8231 35.4184 29.1558 36.2168 29.6216 37.0819C29.788 37.348 29.8545 37.6142 29.8545 37.8471C29.8545 38.1798 29.6549 38.5125 29.2224 38.8452L27.1264 40.2425C26.8269 40.4421 26.5275 40.5419 26.2613 40.5419C25.9286 40.5419 25.5959 40.3756 25.2632 40.0762C24.7974 39.5771 24.3982 39.0448 24.0655 38.5125C23.7328 37.9469 23.4001 37.3148 23.0341 36.5495C20.4391 39.6104 17.1786 41.1408 13.2527 41.1408C10.458 41.1408 8.22894 40.3423 6.59871 38.7454C4.96847 37.1484 4.13672 35.0191 4.13672 32.3575C4.13672 29.5295 5.13482 27.2339 7.1643 25.5039C9.19377 23.7738 11.8887 22.9088 15.3155 22.9088C16.4467 22.9088 17.6111 23.0086 18.8421 23.175C20.0731 23.3413 21.3374 23.6075 22.6682 23.9069V21.4782C22.6682 18.9497 22.1358 17.1863 21.1045 16.155C20.0398 15.1236 18.2432 14.6245 15.6814 14.6245C14.517 14.6245 13.3193 14.7576 12.0883 15.0571C10.8573 15.3565 9.65955 15.7225 8.4951 16.1882C7.96278 16.4211 7.56354 16.5542 7.33065 16.6207C7.09776 16.6873 6.93141 16.7206 6.79833 16.7206C6.33255 16.7206 6.09965 16.3879 6.09965 15.6892V14.059C6.09965 13.5266 6.16619 13.1274 6.33255 12.8945C6.4989 12.6616 6.79833 12.4287 7.26411 12.1958C8.42856 11.597 9.8259 11.0979 11.4561 10.6987C13.0864 10.2662 14.8164 10.0665 16.6463 10.0665C20.6054 10.0665 23.4999 10.9648 25.363 12.7614C27.1929 14.558 28.1245 17.2862 28.1245 20.9459V31.7254H28.191ZM14.6833 36.7824C15.7813 36.7824 16.9124 36.5828 18.1102 36.1836C19.3079 35.7843 20.3725 35.0524 21.2708 34.0543C21.8031 33.4221 22.2024 32.7235 22.402 31.925C22.6016 31.1265 22.7347 30.1617 22.7347 29.0305V27.6332C21.7699 27.4003 20.7385 27.2006 19.6739 27.0676C18.6092 26.9345 17.5778 26.8679 16.5465 26.8679C14.3174 26.8679 12.6871 27.3005 11.5892 28.1987C10.4913 29.097 9.95899 30.3613 9.95899 32.0248C9.95899 33.5885 10.3582 34.753 11.19 35.5514C11.9885 36.3832 13.1529 36.7824 14.6833 36.7824ZM41.3992 40.3756C40.8004 40.3756 40.4011 40.2758 40.135 40.0429C39.8688 39.8433 39.6359 39.3775 39.4363 38.7454L31.6178 13.0276C31.4182 12.3622 31.3184 11.9297 31.3184 11.6968C31.3184 11.1645 31.5845 10.865 32.1169 10.865H35.3773C36.0095 10.865 36.442 10.9648 36.6749 11.1977C36.941 11.3973 37.1407 11.8631 37.3403 12.4953L42.9297 34.5201L48.1198 12.4953C48.2861 11.8299 48.4858 11.3973 48.7519 11.1977C49.0181 10.9981 49.4839 10.865 50.0827 10.865H52.7443C53.3765 10.865 53.809 10.9648 54.0751 11.1977C54.3413 11.3973 54.5742 11.8631 54.7073 12.4953L59.9639 34.7862L65.7197 12.4953C65.9193 11.8299 66.1522 11.3973 66.3851 11.1977C66.6512 10.9981 67.0837 10.865 67.6826 10.865H70.7767C71.309 10.865 71.6085 11.1312 71.6085 11.6968C71.6085 11.8631 71.5752 12.0295 71.5419 12.2291C71.5087 12.4287 71.4421 12.6949 71.309 13.0608L63.2909 38.7786C63.0913 39.444 62.8584 39.8765 62.5923 40.0762C62.3261 40.2758 61.8936 40.4089 61.328 40.4089H58.4668C57.8347 40.4089 57.4021 40.3091 57.136 40.0762C56.8698 39.8433 56.6369 39.4108 56.5038 38.7454L51.347 17.2862L46.2234 38.7121C46.057 39.3775 45.8574 39.81 45.5913 40.0429C45.3251 40.2758 44.8593 40.3756 44.2605 40.3756H41.3992ZM84.1513 41.2739C82.4213 41.2739 80.6912 41.0743 79.0277 40.675C77.3642 40.2758 76.0667 39.8433 75.2016 39.3442C74.6693 39.0448 74.3034 38.7121 74.1703 38.4127C74.0372 38.1132 73.9706 37.7805 73.9706 37.4811V35.7843C73.9706 35.0857 74.2368 34.753 74.7359 34.753C74.9355 34.753 75.1351 34.7862 75.3347 34.8528C75.5343 34.9193 75.8338 35.0524 76.1665 35.1855C77.2977 35.6845 78.5287 36.0838 79.8262 36.3499C81.157 36.6161 82.4545 36.7492 83.7853 36.7492C85.8813 36.7492 87.5116 36.3832 88.6428 35.6512C89.7739 34.9193 90.3728 33.8547 90.3728 32.4906C90.3728 31.559 90.0734 30.7938 89.4745 30.1617C88.8757 29.5295 87.7445 28.964 86.1142 28.4316L81.2901 26.9345C78.8614 26.1693 77.0648 25.0381 75.9669 23.5409C74.8689 22.077 74.3034 20.4468 74.3034 18.7168C74.3034 17.3194 74.6028 16.0884 75.2016 15.0238C75.8005 13.9591 76.599 13.0276 77.5971 12.2956C78.5952 11.5304 79.7264 10.9648 81.0572 10.5656C82.388 10.1664 83.7853 10 85.2492 10C85.9812 10 86.7464 10.0333 87.4783 10.1331C88.2435 10.2329 88.9422 10.366 89.6409 10.4991C90.3063 10.6654 90.9384 10.8318 91.5373 11.0314C92.1361 11.231 92.6019 11.4306 92.9346 11.6302C93.4004 11.8964 93.7331 12.1626 93.9327 12.462C94.1323 12.7281 94.2321 13.0941 94.2321 13.5599V15.1236C94.2321 15.8223 93.966 16.1882 93.4669 16.1882C93.2008 16.1882 92.7683 16.0552 92.2027 15.789C90.3063 14.924 88.177 14.4915 85.8148 14.4915C83.9184 14.4915 82.4213 14.7909 81.3899 15.423C80.3585 16.0552 79.8262 17.02 79.8262 18.3841C79.8262 19.3156 80.1589 20.1141 80.8243 20.7462C81.4897 21.3784 82.7207 22.0105 84.484 22.5761L89.2084 24.0733C91.6038 24.8385 93.3338 25.9031 94.3652 27.2672C95.3966 28.6313 95.8956 30.1949 95.8956 31.925C95.8956 33.3556 95.5962 34.6531 95.0306 35.7843C94.4318 36.9155 93.6333 37.9136 92.6019 38.7121C91.5705 39.5438 90.3395 40.1427 88.9089 40.5752C87.4118 41.041 85.8481 41.2739 84.1513 41.2739Z" fill="#303033"/>
<path fill-rule="evenodd" clip-rule="evenodd" d="M90.4388 57.4397C79.4929 65.5243 63.5898 69.8162 49.9158 69.8162C30.7522 69.8162 13.485 62.7296 0.443163 50.952C-0.58821 50.0205 0.343353 48.7562 1.57435 49.4881C15.6809 57.6726 33.0811 62.6298 51.0802 62.6298C63.2238 62.6298 76.5652 60.1013 88.8418 54.9112C90.6717 54.0794 92.2354 56.1089 90.4388 57.4397Z" fill="#EA9836"/>
<path fill-rule="evenodd" clip-rule="evenodd" d="M94.9969 52.2567C93.5995 50.4601 85.7478 51.3917 82.1879 51.8242C81.1233 51.9573 80.9569 51.0257 81.9217 50.327C88.1765 45.9354 98.457 47.1996 99.6547 48.6635C100.852 50.1607 99.322 60.4411 93.4665 65.3651C92.5682 66.1303 91.7031 65.7311 92.1024 64.733C93.4332 61.4392 96.3942 54.02 94.9969 52.2567Z" fill="#EA9836"/>
</svg>
