<svg width="118" height="80" viewBox="0 0 118 80" fill="none" xmlns="http://www.w3.org/2000/svg">
<g clip-path="url(#clip0_8655_18437)">
<path d="M90.778 31.573C88.6855 30.1184 83.8817 29.5821 80.1282 30.3053C79.6885 26.681 77.6855 23.5037 74.1926 20.6921L72.1815 19.2375L70.7811 21.3259C68.9618 24.387 68.1396 27.9362 68.428 31.4836C68.5784 33.4495 69.2072 35.3491 70.26 37.0175C68.0794 38.1459 65.6481 38.705 63.1926 38.6427H0.0832378L-0.0877392 39.3659C-0.698396 42.9902 -0.698396 54.3262 6.42594 63.0293C11.8404 69.6521 19.8685 73 30.4288 73C53.3 73 70.2355 62.0298 78.1741 42.1695C81.3169 42.2589 88.0341 42.1695 91.4457 35.3679C91.5352 35.1891 91.7062 34.8234 92.3169 33.4664L92.667 32.7431L90.7455 31.5649L90.778 31.573ZM50.5316 6H40.9321V15.0688H50.5316V6ZM50.5316 16.8809H40.9321V25.9497H50.5316V16.8809V16.8809ZM39.1816 16.8809H29.5821V25.9497H39.1816V16.8809V16.8809ZM27.8315 16.8809H18.2401V25.9497H27.8396V16.8809H27.8315ZM16.4814 27.7618H6.89004V36.8306H16.4896V27.7618H16.4814ZM27.8315 27.7618H18.2401V36.8306H27.8396V27.7618H27.8315ZM39.1816 27.7618H29.5821V36.8306H39.1816V27.7618V27.7618ZM50.5316 27.7618H40.9321V36.8306H50.5316V27.7618V27.7618ZM61.8817 27.7618H52.2822V36.8306H61.8817V27.7618V27.7618Z" fill="#247BFF"/>
</g>
<defs>
<clipPath id="clip0_8655_18437">
<rect width="118" height="80" fill="white"/>
</clipPath>
</defs>
</svg>
