<svg width="118" height="80" viewBox="0 0 118 80" fill="none" xmlns="http://www.w3.org/2000/svg">
<path fill-rule="evenodd" clip-rule="evenodd" d="M33.307 6.45728C33.8652 6.19059 34.4715 6.03716 35.0904 6.00599C35.8687 5.96663 36.6446 6.12181 37.3468 6.45728L61.6854 18.0788C62.3152 18.3796 62.8686 18.8173 63.3045 19.3593C63.7405 19.9014 64.0476 20.5339 64.2032 21.2098L70.2163 47.3286C70.3719 48.0049 70.3719 48.7072 70.2162 49.3835C70.0605 50.0597 69.7531 50.6924 69.3168 51.2346L52.479 72.1807C52.0427 72.7221 51.4891 73.159 50.8592 73.4591C50.2294 73.7592 49.5395 73.9148 48.8407 73.9143L21.8286 73.9205C21.1296 73.9207 20.4395 73.7646 19.8097 73.4639C19.1798 73.1633 18.6263 72.7258 18.1903 72.1838L1.34628 51.2408C1.25211 51.1228 1.16382 51.0002 1.08173 50.8736C0.743174 50.3556 0.512819 49.7755 0.404296 49.1677C0.295773 48.5599 0.311289 47.9366 0.449923 47.3349L6.45364 21.216C6.60926 20.5401 6.91644 19.9076 7.35234 19.3655C7.78824 18.8235 8.34167 18.3858 8.97153 18.085L33.307 6.45728ZM33.8754 16.509C33.8753 15.6153 34.5276 14.8907 35.332 14.8906C36.1364 14.8905 36.7885 15.6153 36.7886 16.509C36.7887 16.554 36.7897 16.6045 36.7908 16.6561C36.7926 16.7499 36.7945 16.8474 36.7917 16.923C36.779 17.2631 36.7258 17.5505 36.6717 17.8431C36.6437 17.994 36.6155 18.1464 36.5925 18.308L36.5832 18.3854C36.4647 19.3674 36.3658 20.1871 36.4275 20.9504C36.4772 21.2886 36.6546 21.4503 36.8241 21.6049C36.851 21.6294 36.8777 21.6538 36.9037 21.6787C36.9081 21.7842 36.925 22.1351 36.938 22.3291C41.5693 22.7405 45.8704 24.8584 49.0294 28.171L49.5834 27.7757C49.6057 27.7771 49.6312 27.779 49.6593 27.7812C49.8676 27.7972 50.2184 27.8242 50.4673 27.6793C51.1035 27.251 51.6843 26.661 52.3795 25.9546L52.4312 25.9021C52.541 25.7857 52.641 25.6712 52.7401 25.5577C52.9381 25.331 53.1323 25.1086 53.3929 24.8844C53.4574 24.8289 53.5456 24.76 53.6271 24.6963C53.6585 24.6718 53.6889 24.648 53.7166 24.6261C54.4153 24.0687 55.3874 24.1279 55.889 24.7568C56.3907 25.3856 56.2298 26.3469 55.5311 26.9043C55.4983 26.9307 55.4622 26.9604 55.4252 26.991C55.351 27.0521 55.2732 27.1164 55.2105 27.1626C54.939 27.3631 54.6815 27.4995 54.4201 27.6381C54.282 27.7112 54.1428 27.785 53.9998 27.8691L53.9988 27.8698C53.1281 28.4075 52.4062 28.8534 51.8337 29.3911C51.5993 29.6417 51.5832 29.8809 51.5677 30.1102C51.5653 30.1457 51.5629 30.1809 51.5598 30.2158C51.5209 30.2516 51.4347 30.3286 51.3389 30.4141C51.2357 30.5063 51.1214 30.6084 51.0431 30.6796C52.2986 32.5483 53.24 34.6693 53.7726 36.9883C54.3004 39.2859 54.3826 41.5823 54.0777 43.7888L54.6659 43.96C54.6783 43.9775 54.6922 43.998 54.7076 44.0206C54.8238 44.1915 55.0248 44.4871 55.2946 44.5918C56.0366 44.8254 56.8707 44.9128 57.8753 45.0181L57.9058 45.0213C58.0703 45.0349 58.2271 45.0411 58.3826 45.0472C58.679 45.0589 58.9708 45.0704 59.3033 45.1333C59.379 45.1476 59.4764 45.1718 59.5693 45.1949C59.6253 45.2087 59.6796 45.2222 59.7266 45.2329C60.5852 45.4401 61.1364 46.2294 60.9591 47.0069C60.7817 47.7847 59.9429 48.2573 59.0792 48.0714C59.0761 48.0707 59.0723 48.0702 59.0684 48.0698C59.0645 48.0694 59.0607 48.069 59.0574 48.0683C59.0524 48.0671 59.0477 48.0653 59.043 48.0635C59.0385 48.0618 59.0341 48.0601 59.0294 48.0589C58.9859 48.0494 58.9385 48.0399 58.8906 48.0303C58.806 48.0133 58.7201 47.996 58.6528 47.978C58.3252 47.8903 58.057 47.7742 57.7845 47.6562C57.6424 47.5946 57.4991 47.5326 57.3456 47.4738L57.3015 47.458C56.3574 47.1194 55.5717 46.8376 54.806 46.7268C54.4652 46.7 54.2685 46.8367 54.0802 46.9675C54.0503 46.9883 54.0206 47.0089 53.9905 47.0287C53.8841 47.0074 53.5565 46.9494 53.368 46.9198C51.9723 51.3061 49.0003 55.104 44.9709 57.4831C44.9933 57.537 45.0206 57.6104 45.0492 57.6872C45.1098 57.8499 45.1762 58.0284 45.2137 58.0713C45.201 58.1053 45.1874 58.139 45.1737 58.173C45.0883 58.3848 44.9998 58.6045 45.1016 58.9304C45.3844 59.6635 45.8418 60.3801 46.3933 61.2428C46.4846 61.3791 46.5767 61.5047 46.6679 61.6291C46.8434 61.8684 47.0159 62.1036 47.1745 62.4037C47.2145 62.4796 47.2637 62.5837 47.3087 62.6789C47.3284 62.7207 47.3474 62.7607 47.3643 62.7959C47.7389 63.5968 47.464 64.5192 46.745 64.8656C46.0203 65.2147 45.1192 64.846 44.7313 64.0408C44.7146 64.0066 44.696 63.969 44.6767 63.9302C44.6318 63.8397 44.5837 63.7428 44.5508 63.6673C44.414 63.3541 44.3364 63.0705 44.2573 62.7818C44.2171 62.6348 44.1765 62.4864 44.1275 62.3321L44.1139 62.2922C43.7893 61.3411 43.5199 60.5515 43.1284 59.8827C42.9359 59.5981 42.7055 59.5288 42.485 59.4625C42.4512 59.4523 42.4177 59.4422 42.3846 59.4314C42.3607 59.3902 42.303 59.2857 42.24 59.1716C42.1813 59.0652 42.1181 58.9506 42.0733 58.8712C41.2687 59.1753 40.4363 59.4286 39.5741 59.6244C35.7947 60.4825 32.0112 60.1344 28.6311 58.837L28.3012 59.4346C28.0556 59.5003 27.8188 59.567 27.6735 59.7403C27.3007 60.1851 27.0853 60.819 26.8564 61.4925C26.7596 61.7773 26.6604 62.0693 26.5458 62.357C26.496 62.5139 26.4553 62.6647 26.4148 62.8141C26.3374 63.1003 26.2612 63.3817 26.1257 63.6922C26.0944 63.7639 26.0489 63.8546 26.0057 63.9409C25.9843 63.9835 25.9635 64.025 25.9452 64.0626C25.9448 64.0635 25.9455 64.0648 25.9452 64.0657C25.9446 64.0669 25.9426 64.0677 25.942 64.0688C25.5533 64.8714 24.6551 65.2389 23.9315 64.8905C23.2124 64.5443 22.9377 63.6218 23.3121 62.8208C23.3323 62.779 23.3548 62.7303 23.378 62.68C23.4189 62.5916 23.4621 62.4982 23.4989 62.4286C23.6582 62.127 23.8317 61.8895 24.0081 61.648C24.0985 61.5243 24.1896 61.3996 24.2801 61.2646C24.8315 60.4019 25.3157 59.6281 25.5985 58.8949C25.6695 58.6515 25.5643 58.3179 25.469 58.0713L25.7335 57.4364C21.8563 55.139 18.7944 51.4777 17.3333 46.9478L16.6984 47.0567C16.6791 47.046 16.6576 47.0335 16.6342 47.0199C16.4509 46.9136 16.1492 46.7385 15.8612 46.7611C15.0947 46.872 14.3083 47.1541 13.3632 47.4931L13.3215 47.508C13.1705 47.5659 13.0295 47.6265 12.8897 47.6865C12.6147 47.8047 12.3447 47.9207 12.0143 48.0091C11.9397 48.0291 11.8421 48.0497 11.7488 48.0694C11.7104 48.0775 11.6728 48.0855 11.6377 48.0932C11.633 48.0943 11.6286 48.096 11.6241 48.0977C11.6194 48.0995 11.6147 48.1013 11.6097 48.1025C11.6064 48.1032 11.6026 48.1036 11.5987 48.104C11.5949 48.1045 11.591 48.1049 11.5879 48.1056C10.7242 48.2918 9.88563 47.8188 9.70804 47.0412C9.53049 46.2637 10.082 45.4746 10.9405 45.2671C10.9437 45.2664 10.9475 45.2652 10.9514 45.264C10.9552 45.2629 10.959 45.2617 10.9623 45.2609C10.9649 45.2603 10.9674 45.2596 10.9699 45.259C10.9715 45.2585 10.9731 45.2581 10.9748 45.2578C11.0115 45.2492 11.0512 45.2395 11.0918 45.2296C11.1863 45.2066 11.2858 45.1823 11.3638 45.1675C11.6962 45.1046 11.988 45.0931 12.2844 45.0815C12.4399 45.0753 12.5967 45.0692 12.7613 45.0555L12.7943 45.052C13.7978 44.9468 14.6312 44.8595 15.3725 44.626C15.5826 44.5398 15.7846 44.2743 15.9397 44.0705C15.96 44.0438 15.9795 44.0182 15.9981 43.9942L16.6081 43.8168C15.9246 39.0832 17.0812 34.4375 19.5804 30.6765L19.1136 30.2594C19.1103 30.2395 19.1069 30.2167 19.1032 30.1917C19.073 29.9879 19.0202 29.6314 18.821 29.4191C18.2482 28.8812 17.526 28.4351 16.6548 27.8971C16.513 27.8137 16.3752 27.7405 16.2387 27.6678C15.9771 27.5287 15.7199 27.392 15.4472 27.1906C15.3841 27.144 15.3059 27.0797 15.2314 27.0183C15.2017 26.9939 15.1726 26.97 15.1453 26.9479C15.1382 26.9423 15.1306 26.9379 15.1235 26.9323C14.4247 26.3751 14.2641 25.4138 14.7656 24.7848C15.0477 24.431 15.4787 24.2559 15.9265 24.2712C16.2748 24.2832 16.6354 24.4103 16.9411 24.6541C16.9681 24.6754 16.9976 24.6985 17.0282 24.7224C17.1105 24.7867 17.2001 24.8567 17.2648 24.9124C17.5235 25.1349 17.7154 25.3557 17.911 25.5807C18.011 25.6958 18.112 25.812 18.2234 25.9301L18.2489 25.956C18.9559 26.6741 19.5432 27.2706 20.1873 27.7042C20.4842 27.8771 20.7214 27.8397 20.9487 27.8038C20.9835 27.7983 21.0181 27.7929 21.0525 27.7882C21.1362 27.85 21.4177 28.0519 21.5785 28.1617C24.0577 25.5313 27.314 23.5831 31.0961 22.7244C31.975 22.5248 32.855 22.3922 33.7291 22.3198L33.7634 21.7036C33.9573 21.5158 34.1748 21.2457 34.2365 20.9504C34.2994 20.1726 34.1986 19.3362 34.0772 18.329L34.0746 18.308C34.0516 18.1464 34.0234 17.9941 33.9955 17.8431C33.9413 17.5505 33.8881 17.2631 33.8754 16.923C33.8727 16.8508 33.8746 16.7597 33.8765 16.6705C33.8773 16.6291 33.8782 16.588 33.8785 16.5495C33.8784 16.5431 33.8777 16.5368 33.877 16.5304C33.8762 16.5234 33.8754 16.5163 33.8754 16.509ZM33.0756 33.8293L33.5082 26.1884C32.9919 26.251 32.4736 26.3384 31.9551 26.4561C29.1167 27.1006 26.6538 28.4998 24.7282 30.3932L30.9934 34.8345L31.0058 34.8283C31.2181 34.9833 31.4792 35.0742 31.7621 35.0742C32.4528 35.0742 33.0154 34.5284 33.0444 33.8448L33.0756 33.8293ZM45.886 30.3963C43.5375 28.0966 40.4728 26.596 37.159 26.1884L37.5916 33.8168L37.5978 33.8199C37.6089 34.0825 37.7015 34.3426 37.8779 34.5638C38.3086 35.1037 39.087 35.2038 39.6395 34.8003L39.6613 34.8096L45.886 30.3963ZM28.1767 38.3639L22.4562 33.2473C20.7585 36.013 19.9542 39.3304 20.3274 42.743L27.6601 40.6266L27.6663 40.6017C27.9198 40.5325 28.1559 40.3841 28.3323 40.1629C28.763 39.6229 28.6868 38.8439 28.1705 38.3951L28.1767 38.3639ZM50.0441 37.8348C49.6609 36.1667 49.0173 34.628 48.1673 33.2504L42.478 38.3422L42.4811 38.3577C42.2827 38.5301 42.1363 38.7635 42.0733 39.0393C41.9197 39.7127 42.3253 40.384 42.9853 40.5644L42.9915 40.5955L50.3615 42.7181C50.5176 41.1282 50.4226 39.483 50.0441 37.8348ZM36.5022 38.7592H34.1586L32.699 40.5768L33.2218 42.8488L35.332 43.8635L37.4359 42.8519L37.9588 40.5799L36.5022 38.7592ZM41.9675 45.0119C41.8706 44.9941 41.7714 44.9851 41.6719 44.9901C41.5059 44.9985 41.3394 45.041 41.1801 45.1177C40.5578 45.4174 40.2872 46.1544 40.5576 46.7828L40.5483 46.7953L43.4926 53.907C46.3306 52.099 48.4547 49.3973 49.5648 46.2786L41.98 44.9964L41.9675 45.0119ZM30.1655 46.0203C30.031 45.4311 29.5118 45.0294 28.933 45.0213C28.8503 45.0201 28.765 45.0276 28.6809 45.043L28.6685 45.0275L21.149 46.3036C22.3095 49.5143 24.4789 52.1312 27.2026 53.879L30.1157 46.8389L30.0939 46.8109C30.1978 46.5695 30.2285 46.2962 30.1655 46.0203ZM35.886 48.2332C35.6915 48.1396 35.4869 48.0982 35.2853 48.1056C34.8417 48.1219 34.421 48.3693 34.1991 48.7841H34.1929L30.4954 55.4694C33.0543 56.3413 35.8802 56.5364 38.7151 55.8927C39.221 55.7778 39.7155 55.64 40.1966 55.4787L36.4898 48.781H36.4618C36.3378 48.5492 36.1409 48.356 35.886 48.2332Z" fill="#247BFF"/>
</svg>
