<svg fill="none" height="326" viewBox="0 0 493 326" width="493" xmlns="http://www.w3.org/2000/svg"><g fill="#6b57ff"><path d="m331.591.0400393h-85.768c3.214 5.4661907 4.861 11.7108607 4.763 18.0507607-.033 5.391-1.546 10.6692-4.373 15.2592-2.915 4.9004-8.87 10.8865-17.865 17.958-6.265 4.9639-10.219 8.9494-11.863 11.9565-1.644 3.0099-2.465 6.9331-2.465 11.77h-35.358v-3.5355c0-6.0157.682-10.9006 2.047-14.6548 1.378-3.7747 3.445-7.2611 6.095-10.2818 2.698-3.1011 8.761-8.5597 18.19-16.3759 5.025-4.0938 7.537-7.8466 7.537-11.2583 0-3.4102-1.008-6.0621-3.024-7.9555-2.016-1.89171-5.071-2.83769-9.165-2.838-2.025-.06176-4.041.29468-5.922 1.04706-1.882.75244-3.587 1.88464-5.011 3.32604-2.885 2.9169-4.73 8.0034-5.536 15.2597l-36.102-4.4663c.611-8.222 3.135-16.18755 7.371-23.2611609h-36.074l-42.8414 42.7172609c-1.8438-.4371-3.7378-.6733-5.6543-.6733-4.6299 0-9.1475 1.3047-13.0655 3.7725-3.7939 2.3906-6.8466 5.7607-8.8501 9.7647-.9018-.2608-1.8569-.3516-2.7876-.2637-1.0791.1006-2.1455.4443-3.0839.9922-.9375.5478-1.7598 1.3095-2.377 2.2002-.6182.8916-1.0425 1.9287-1.227 2.998-.1846 1.0693-.1319 2.1885.1518 3.2354.2842 1.0468.8037 2.04 1.5029 2.8701.6997.8301 1.5894 1.5097 2.5733 1.9668.9209.4277 1.9375.667 2.9531.6963.0952.6188.2241 1.2287.3657 1.8348l-46.728 46.6467v80.191h29.333c.0005.198.1177.385.3125.463.061.024.124.035.1856.035.1982 0 .3867-.119.4643-.314l16.499-41.373-9.0903-22.231-13.0264 13.028c-2.1718 2.171-5.0595 3.367-8.1313 3.367-3.0723 0-5.9605-1.196-8.13185-3.367-2.17236-2.173-3.36865-5.061-3.36865-8.133 0-3.07 1.19629-5.958 3.36914-8.132l23.15526-23.199c1.5703-1.574 3.5264-2.745 5.6553-3.389 2.1279-.642 4.4053-.749 6.5849-.304 2.1797.442 4.2354 1.426 5.9454 2.848 1.7089 1.421 3.0532 3.263 3.8867 5.324l13.2422 32.834c.1035.256.3945.381.6504.277.2563-.104.3798-.395.2768-.652l-13.2422-32.834c-.1323-.327-.3008-.637-.4565-.953l2.6391-3.151c1.5708-1.574 3.5259-2.745 5.6548-3.389 2.1284-.642 4.4058-.749 6.5855-.304 2.1797.442 4.2353 1.426 5.9448 2.848s3.0537 3.263 3.8867 5.324l13.2422 32.834c.0786.195.2661.313.4639.313.0625 0 .126-.012.187-.036.2563-.104.3799-.395.2768-.652l-13.2426-32.834c-.1089-.269-.251-.523-.376-.786l3.311-3.318c1.5708-1.574 3.5264-2.745 5.6553-3.389 2.1279-.642 4.4043-.749 6.585-.304 2.1796.442 4.2353 1.426 5.9442 2.848 1.71 1.422 3.054 3.263 3.888 5.326l13.885 33.873.279-.114c.009 0 .016.005.025.005.146 0 .275-.065.366-.165l.254-.105-.12-.294v-32.467c0-3.337-1.3-6.475-3.658-8.835l-12.126-12.136c-2.172-2.1728-3.368-5.0605-3.368-8.1318 0-3.0723 1.196-5.96 3.368-8.1318 2.172-2.1719 5.06-3.3682 8.132-3.3682 3.073 0 5.96 1.1963 8.132 3.3682l19.152 19.1513c2.172 2.1729 3.368 5.0613 3.368 8.1323v41.834l-21.217 52.735c-.103.256.021.547.278.65.06.025.124.036.186.036.198 0 .386-.118.464-.313l21.216-52.735.081.081c2.172-2.172 5.06-3.369 8.131-3.369 3.072 0 5.96 1.197 8.133 3.369 2.171 2.172 3.367 5.059 3.367 8.131s-1.196 5.959-3.367 8.131l-35.595 35.524.416.417-.102.102h.205l.187.188.188-.188h65.733v36.502l97-.362v-24.017l40.34-40.339c1.795-1.796 2.972-4.043 3.435-6.485l.064-.029v-.403c.097-.631.161-1.271.161-1.922s-.064-1.291-.161-1.922zm-294.2433 137.3009607 5.9628 14.581c-1.5073.098-3.0351-.083-4.4628-.569-1.6563-.565-3.1851-1.518-4.4229-2.757-1.4736-1.469-2.5015-3.309-3.0068-5.325zm6.4829-68.6271c-.8526-.3965-1.6236-.9863-2.23-1.705-.6055-.7198-1.0567-1.5801-1.3023-2.4874-.2461-.9072-.2915-1.8769-.1318-2.8037.1597-.9267.5278-1.8252 1.064-2.5976.5346-.7725 1.247-1.4317 2.0595-1.9072.8125-.4747 1.7369-.7725 2.6729-.8594.935-.0928 1.8984.0312 2.7851.3467l.4244.1513.1943-.4062c1.9165-4.0059 4.9155-7.375 8.6733-9.7432 3.7579-2.3672 8.0913-3.6182 12.5323-3.6182 4.4409 0 8.7744 1.251 12.5317 3.6182 3.7578 2.3682 6.7568 5.7373 8.6733 9.7432l.1954.4072.4248-.1523c.7002-.252 1.4316-.3799 2.1748-.3809 1.7363 0 3.3681.6758 4.5957 1.9033 1.228 1.2276 1.904 2.8594 1.904 4.5967 0 1.7363-.676 3.3682-1.904 4.5957-1.2237 1.2236-2.8482 1.8994-4.6729 1.8994-.0068 0-.0137 0-.0205 0l-.5586-.0244-.061.4502c-.7632 5.6357-3.5415 10.7998-7.8238 14.541-4.2822 3.7422-9.7724 5.8027-15.4589 5.8027-5.6866 0-11.1768-2.0605-15.459-5.8027-4.2822-3.7412-7.0606-8.9053-7.8242-14.541l-.0606-.4502-.6562.0293c-.9405 0-1.8887-.21-2.7417-.6055zm219.9214 93.8511v-24.477-47.6866c0-3.0703 1.196-5.959 3.369-8.1318 2.14-2.1406 5.104-3.3682 8.131-3.3682 3.071 0 5.96 1.1963 8.133 3.3682 2.171 2.1728 3.367 5.0605 3.367 8.1318v86.1006c-.566-.02-1.133-.039-1.704-.039-9.317 0-17.218 1.584-23.832 4.83 1.638-2.159 2.536-4.772 2.536-7.529zm-24-24.477c0-3.071 1.196-5.959 3.369-8.132 2.171-2.172 5.059-3.368 8.131-3.368s5.96 1.196 8.133 3.368c2.171 2.172 3.367 5.06 3.367 8.132v24.477 11.199c0 3.072-1.196 5.96-3.367 8.132-.441.44-.918.829-1.413 1.188-.419.258-.834.519-1.241.793-1.663.904-3.534 1.387-5.479 1.387-3.027 0-5.991-1.228-8.131-3.368-2.173-2.173-3.369-5.061-3.369-8.132zm-24 35.676v-35.676c0-3.071 1.196-5.959 3.369-8.132 2.171-2.172 5.059-3.368 8.131-3.368s5.96 1.196 8.133 3.368c2.171 2.172 3.367 5.06 3.367 8.132v35.777c0 3.072-1.196 5.959-3.367 8.132-2.173 2.172-5.062 3.368-8.133 3.368-3.027 0-5.991-1.227-8.131-3.368-2.173-2.173-3.369-5.061-3.369-8.132zm-38.3-55.928v-33.404h37.87v33.404zm37.3 20.252v35.676c0 3.072-1.196 5.96-3.367 8.132-2.173 2.171-5.062 3.368-8.133 3.368-3.027 0-5.991-1.228-8.131-3.368-2.173-2.173-3.369-5.061-3.369-8.132v-10.775-24.901c0-3.071 1.196-5.959 3.369-8.132 2.171-2.172 5.059-3.368 8.131-3.368s5.96 1.196 8.133 3.368c2.171 2.172 3.367 5.06 3.367 8.132zm112.633 31.977-40.425 40.424c-.097.098-.146.226-.146.354h-.062v23.29l-95 .354v-55.822c.619 1.452 1.512 2.788 2.662 3.938 2.36 2.361 5.499 3.661 8.838 3.661 3.338 0 6.477-1.3 8.84-3.661 1.498-1.499 2.565-3.313 3.147-5.291.576 2.017 1.651 3.867 3.175 5.392 2.36 2.361 5.499 3.661 8.838 3.661 3.338 0 6.477-1.3 8.84-3.661 1.518-1.519 2.598-3.36 3.175-5.369.584 1.969 1.653 3.774 3.147 5.268 2.36 2.361 5.499 3.661 8.838 3.661.904 0 1.791-.104 2.655-.29-6.87 5.628-11.873 13.813-15.226 24.721l.956.293c3.827-12.45 9.853-21.272 18.407-26.734.06-.039.122-.074.182-.114 7.129-4.494 16.001-6.677 26.822-6.677.731 0 1.457.018 2.18.05l.003-.072c.138.006.274-.024.374-.125l23.516-23.513c2.171-2.173 5.059-3.369 8.131-3.369s5.96 1.196 8.133 3.369c2.171 2.172 3.367 5.059 3.367 8.131s-1.196 5.96-3.367 8.131z"/><path d="m453.092 137.503c-1.441-1.442-3.358-2.236-5.397-2.236h-.001c-.722.001-1.436.104-2.129.308-2.042-4.082-5.153-7.516-9.018-9.951-3.989-2.514-8.591-3.843-13.307-3.843-4.718 0-9.32 1.329-13.308 3.843-3.866 2.436-6.977 5.87-9.019 9.952-.919-.264-1.894-.356-2.844-.27-1.102.104-2.187.453-3.139 1.009-.95.555-1.787 1.33-2.419 2.24-.639.921-1.059 1.947-1.249 3.051-.187 1.089-.134 2.228.155 3.292.289 1.067.818 2.077 1.53 2.921s1.617 1.536 2.618 2.002c.942.438 1.979.681 3.013.708.893 5.812 3.809 11.124 8.245 15.001 4.547 3.973 10.378 6.161 16.417 6.161 6.038 0 11.868-2.188 16.416-6.161 4.435-3.876 7.351-9.188 8.244-15.001 1.962-.051 3.799-.84 5.192-2.232 1.421-1.421 2.235-3.388 2.235-5.397 0-2.038-.793-3.955-2.235-5.397zm-.707 10.087c-1.253 1.253-2.919 1.942-4.69 1.942l-.661-.029-.061.45c-.778 5.745-3.61 11.01-7.976 14.823-4.365 3.815-9.961 5.915-15.757 5.915-5.797 0-11.394-2.1-15.759-5.915-4.366-3.815-7.198-9.079-7.975-14.823l-.061-.45-.662.029c-.002 0-.004 0-.006 0-.955 0-1.92-.214-2.79-.617-.87-.405-1.658-1.007-2.276-1.74-.618-.735-1.078-1.612-1.329-2.538-.251-.925-.298-1.914-.135-2.861.166-.959.531-1.851 1.085-2.651.55-.791 1.277-1.465 2.103-1.946.827-.484 1.77-.787 2.727-.877.954-.092 1.939.033 2.843.353l.424.152.194-.407c1.955-4.084 5.012-7.518 8.842-9.93 3.828-2.413 8.245-3.689 12.775-3.689 4.527 0 8.945 1.276 12.774 3.689 3.829 2.412 6.887 5.846 8.842 9.93l.194.408.425-.153c2.399-.857 5.124-.232 6.91 1.555 1.253 1.254 1.942 2.92 1.942 4.69 0 1.746-.708 3.455-1.942 4.69z"/><path d="m191.754 322.406h-191.738375v-123.917h191.738375zm-190.73838-1h189.73838v-121.917h-189.73838z"/></g><path d="m391.652 92.1015s0-20.9267-9.037-30.7123c-8.392-9.087-31.017-9.341-31.017-9.341s19.54-.9377 29.632-11.0296c9.707-9.7074 10.422-29.0236 10.422-29.0236s.639 20.444 9.219 29.0236c11.412 11.4119 30.834 11.0296 30.834 11.0296s-22.726.5799-31.603 9.9572c-9.186 9.7036-8.45 30.0961-8.45 30.0961zm-306.4767-30.0744.0028 3.5863c.0003.2159.0431.4297.126.6291.0829.1995.2042.3806.3571.5331s.3344.2734.534.3558.4135.1247.6295.1244c.2159-.0001.4297-.0427.6292-.1254s.3807-.2039.5334-.3566c.1526-.1528.2737-.3341.3563-.5337.0826-.1995.125-.4133.125-.6293l-.0029-3.5863c-.0003-.2159-.0431-.4297-.126-.6291-.0828-.1995-.2042-.3806-.3571-.5331s-.3343-.2734-.5339-.3558c-.1997-.0824-.4136-.1247-.6295-.1244-.4361.0001-.8544.1735-1.1626.482-.3083.3085-.4815.7269-.4813 1.163zm-14.4998 0 .0029 3.5863c.0003.2159.0431.4297.1259.6291.0829.1995.2043.3806.3572.5331s.3343.2734.5339.3558c.1997.0824.4135.1247.6295.1244.4361-.0001.8543-.1735 1.1626-.482s.4814-.7269.4813-1.163l-.0028-3.5863c-.0003-.2159-.0431-.4297-.126-.6291-.0829-.1995-.2043-.3806-.3572-.5331-.1528-.1525-.3343-.2734-.5339-.3558s-.4135-.1247-.6295-.1244c-.4361.0001-.8543.1735-1.1626.482s-.4814.7269-.4813 1.163zm-27.2663 7.593c-.9839-.457-1.8736-1.1367-2.5733-1.9668-.6992-.8301-1.2187-1.8232-1.5029-2.8701-.2837-1.0469-.3364-2.166-.1518-3.2353.1845-1.0694.6088-2.1065 1.227-2.9981.6172-.8906 1.4395-1.6523 2.377-2.2002.9384-.5478 2.0048-.8916 3.0839-.9922.9307-.0879 1.8858.003 2.7876.2637 1.0132-2.0248 2.2964-3.8859 3.8067-5.5418h35.353c-1.0713-1.4672-2.3296-2.7783-3.7295-3.9175.0049.003.0093.0061.0137.0091l-39.1709-39.17078c-4.5098-4.48352-10.6113-7.00012-16.9707-7.00012s-12.46 2.5166-16.9702 7.00012c-4.48392 4.50998-7.00052 10.61118-7.00052 16.97068 0 6.3596 2.5166 12.4607 7.00052 16.9707l39.1562 39.1561c-1.938-2.9304-3.2407-6.2608-3.7827-9.7812-1.0156-.0293-2.0322-.2685-2.9531-.6963zm378.4078 79.8329.002 3.654c.001.22.044.438.129.641.084.203.208.388.364.543.155.156.34.279.544.363.203.084.421.127.641.127s.438-.044.641-.128c.204-.084.388-.208.544-.364.155-.155.279-.34.363-.543.084-.204.127-.422.127-.642l-.003-3.654c0-.444-.177-.87-.492-1.184s-.741-.49-1.185-.489c-.22 0-.438.043-.642.127-.203.085-.388.208-.543.364-.156.155-.279.34-.363.543-.084.204-.128.422-.127.642zm-14.775 0 .003 3.654c0 .22.044.438.128.641s.208.388.364.543c.156.156.341.279.544.363s.421.127.641.127.438-.044.642-.128c.203-.084.388-.208.543-.364.156-.155.279-.34.363-.543.084-.204.128-.422.127-.642l-.002-3.654c-.001-.444-.178-.87-.493-1.184-.314-.314-.741-.49-1.185-.489-.22 0-.438.043-.641.127-.204.085-.388.208-.544.364-.155.155-.279.34-.363.543-.084.204-.127.422-.127.642zm66.377-84.3226c-2.026 7.6904-7.686 13.562-14.603 17.1997-5.356 2.8174-11.194 3.7802-15.919 7.7817-4.266 3.7294-7.282 8.6799-8.64 14.1802-2.649 10.054-10.728 15.472-15.641 17.921-4.661.923-9.014 3.1-12.567 6.344h34.28c2.135 2.006 3.913 4.373 5.236 7.018.694-.204 1.408-.307 2.129-.308 2.039 0 3.957.794 5.399 2.236 1.441 1.442 2.235 3.359 2.235 5.397 0 2.009-.815 3.976-2.235 5.397-1.393 1.392-3.23 2.181-5.193 2.232-.183 1.198-.474 2.367-.825 3.515 4.099-1.675 14.824-7.094 17.955-18.978 1.359-5.5 4.375-10.451 8.641-14.18 4.725-4.002 10.563-4.965 15.919-7.782 1.065-.559 2.1-1.174 3.102-1.841l.308-65.7137s-15.022 2.2803-19.581 19.5811zm-185.636 168.9916-96.031.382v19.12h96.025zm-.024 79.297c-.001.061-.009.121-.009.182 0 .06.008.119.009.179zm201.251-101.475c-2.412-5.824-5.947-11.116-10.405-15.573-4.457-4.457-9.748-7.993-15.572-10.405s-12.065-3.654-18.369-3.654h-54.871c-11.566-.014-22.666 4.554-30.872 12.705l-.001-.043-71.148 71.147.004-11.497h-96.024v63.282h-187.752c-1.06104 0-2.07812.421-2.82861 1.171-.750003.751-1.17139 1.768-1.17139 2.829s.421387 2.078 1.17139 2.828c.75049.75 1.76757 1.266 2.82861 1.266h296c-4.5 0-7.589-1.56-9.588-3.561-2.362-2.359-3.662-5.499-3.662-8.838s1.3-6.479 3.662-8.838c2.36-2.362 5.499-3.662 8.838-3.662v.5l.046.03c0-.01-.001-.02-.001-.03 0-6.545 2.548-12.698 7.176-17.324 4.628-4.628 10.78-7.176 17.324-7.176h15.689 34.482 50.573 9.869v.5.5 47.793l23.011-.018v-47.805h1v47.804l8.139-.006c3.424.009 6.816-.658 9.982-1.961 3.166-1.304 6.044-3.22 8.469-5.637 2.425-2.418 4.35-5.29 5.663-8.452 1.314-3.162 1.991-6.552 1.992-9.976v-69.531c0-6.303-1.241-12.545-3.654-18.368zm-394.4536 53.988c3.0295 0 5.4856-2.455 5.4856-5.485 0-3.029-2.4561-5.485-5.4856-5.485s-5.4854 2.456-5.4854 5.485c0 3.03 2.4559 5.485 5.4854 5.485z" fill="#000"/><path d="m424.539 277.101h-50.573-34.482-15.689c-6.544 0-12.696 2.548-17.324 7.176-4.628 4.626-7.176 10.779-7.176 17.324s2.548 12.698 7.176 17.325c2.937 2.937 6.49 5.033 10.368 6.175h-17.589c-3.072 0-5.96-1.197-8.131-3.369-2.173-2.17-3.369-5.059-3.369-8.131 0-3.073 1.196-5.96 3.369-8.131 2.172-2.173 5.059-3.369 8.131-3.369v-1c-3.339 0-6.478 1.3-8.838 3.662-2.362 2.359-3.662 5.499-3.662 8.838s1.3 6.479 3.662 8.838c2.359 2.362 5.498 3.561 8.838 3.561h97.987c3.339 0 6.478-1.234 8.838-3.596 2.362-2.361 3.662-5.5 3.662-8.839s-1.3-6.478-3.662-8.838c-2.36-2.362-5.499-3.662-8.838-3.662h-23.271v1h23.271c3.072 0 5.959 1.197 8.131 3.369 2.173 2.171 3.369 5.059 3.369 8.131s-1.196 5.959-3.369 8.132c-2.172 2.172-5.059 3.368-8.132 3.368l-17.739.027-.001-.027-6.566.01c-5.889-.253-11.388-2.664-15.581-6.856-4.439-4.439-6.883-10.34-6.883-16.618 0-6.279 2.444-12.179 6.883-16.617 4.439-4.439 10.34-6.883 16.617-6.883h50.573 9.869v-1zm-117.361 41.118c-4.439-4.439-6.883-10.34-6.883-16.618s2.444-12.179 6.883-16.617c4.439-4.439 10.34-6.883 16.617-6.883h8.736c-3.878 1.141-7.432 3.238-10.371 6.176-4.627 4.627-7.176 10.78-7.176 17.324 0 6.545 2.549 12.697 7.176 17.325 2.926 2.925 6.462 5.017 10.321 6.161l-8.686.014c-6.278 0-12.18-2.445-16.617-6.882zm39.887 6.87v-.024l-8.497.013c-5.933-.226-11.479-2.638-15.701-6.859-4.438-4.439-6.883-10.341-6.883-16.618 0-6.278 2.445-12.179 6.883-16.617 4.44-4.439 10.341-6.883 16.617-6.883h9.787c-3.877 1.141-7.432 3.238-10.371 6.176-4.627 4.627-7.175 10.78-7.175 17.324s2.548 12.697 7.175 17.325c2.924 2.924 6.459 5.015 10.316 6.16zm9.577-40.812c-4.627 4.626-7.176 10.779-7.176 17.324s2.549 12.698 7.176 17.325c2.922 2.923 6.455 5.013 10.309 6.158l-4.196.007v-.026l-7.507.012c-5.911-.241-11.434-2.652-15.641-6.858-4.438-4.44-6.882-10.341-6.882-16.618 0-6.278 2.444-12.178 6.882-16.617 4.44-4.439 10.341-6.883 16.618-6.883h10.787c-3.878 1.141-7.432 3.238-10.37 6.176z" fill="#6b57ff"/></svg>