<svg fill="none" height="202" viewBox="0 0 202 202" width="202" xmlns="http://www.w3.org/2000/svg" xmlns:xlink="http://www.w3.org/1999/xlink"><radialGradient id="a" cx="0" cy="0" gradientTransform="matrix(-37.23311291 351.38789297 -494.38637218 -52.38525284 42.5277 62.1653)" gradientUnits="userSpaceOnUse" r="1"><stop offset="0" stop-color="#00e383"/><stop offset=".687112" stop-color="#0aa78b" stop-opacity=".65"/></radialGradient><radialGradient id="b" cx="0" cy="0" gradientTransform="matrix(90.09960994 .12739176 -.12935086 91.48520856 122.9 160.873)" gradientUnits="userSpaceOnUse" r="1"><stop offset="0" stop-color="#fff" stop-opacity=".5"/><stop offset="1" stop-color="#fff" stop-opacity=".66"/></radialGradient><clipPath id="c"><rect height="202" rx="4" width="202"/></clipPath><g clip-path="url(#c)"><rect fill="url(#a)" height="202" rx="4" width="202"/><g fill="#0c0c0d"><path d="m25.9125 39.1c-1.6 0-3.0542-.3917-4.3625-1.175-1.3-.7917-2.3208-1.875-3.0625-3.25-.7417-1.3833-1.1125-2.925-1.1125-4.625s.3708-3.2375 1.1125-4.6125c.7417-1.3833 1.7625-2.4667 3.0625-3.25 1.3083-.7917 2.7625-1.1875 4.3625-1.1875 1.3333 0 2.5708.2958 3.7125.8875 1.15.5833 2.0917 1.3917 2.825 2.425s1.1792 2.1875 1.3375 3.4625h-2.075c-.1667-.9417-.525-1.7833-1.075-2.525-.55-.75-1.2375-1.3375-2.0625-1.7625s-1.7125-.6375-2.6625-.6375c-1.2167 0-2.3125.3125-3.2875.9375-.9667.6167-1.725 1.475-2.275 2.575-.55 1.0917-.825 2.3208-.825 3.6875s.275 2.6.825 3.7c.55 1.0917 1.3083 1.95 2.275 2.575.975.6167 2.0708.925 3.2875.925.95 0 1.8375-.2125 2.6625-.6375s1.5125-1.0083 2.0625-1.75c.55-.75.9083-1.5958 1.075-2.5375h2.075c-.1583 1.275-.6042 2.4292-1.3375 3.4625s-1.675 1.8458-2.825 2.4375c-1.1417.5833-2.3792.875-3.7125.875z"/><path d="m39.5775 38.8h-2.075v-17.5h2.075z"/><path d="m43.966 38.8h-2.05l7.95-17.5h2.05z"/><path d="m61.5883 39.1c-1.6 0-3.0542-.3917-4.3625-1.175-1.3-.7917-2.3209-1.875-3.0625-3.25-.7417-1.3833-1.1125-2.925-1.1125-4.625s.3708-3.2375 1.1125-4.6125c.7416-1.3833 1.7625-2.4667 3.0625-3.25 1.3083-.7917 2.7625-1.1875 4.3625-1.1875 1.3333 0 2.5708.2958 3.7125.8875 1.15.5833 2.0916 1.3917 2.825 2.425.7333 1.0333 1.1791 2.1875 1.3375 3.4625h-2.075c-.1667-.9417-.525-1.7833-1.075-2.525-.55-.75-1.2375-1.3375-2.0625-1.7625s-1.7125-.6375-2.6625-.6375c-1.2167 0-2.3125.3125-3.2875.9375-.9667.6167-1.725 1.475-2.275 2.575-.55 1.0917-.825 2.3208-.825 3.6875s.275 2.6.825 3.7c.55 1.0917 1.3083 1.95 2.275 2.575.975.6167 2.0708.925 3.2875.925.95 0 1.8375-.2125 2.6625-.6375s1.5125-1.0083 2.0625-1.75c.55-.75.9083-1.5958 1.075-2.5375h2.075c-.1584 1.275-.6042 2.4292-1.3375 3.4625-.7334 1.0333-1.675 1.8458-2.825 2.4375-1.1417.5833-2.3792.875-3.7125.875z"/><path d="m73.1783 38.8v-17.5h6.2c1.6417 0 3.0959.3708 4.3625 1.1125 1.275.7333 2.2667 1.7625 2.975 3.0875.7084 1.325 1.0625 2.8417 1.0625 4.55s-.3541 3.225-1.0625 4.55c-.7083 1.325-1.7 2.3583-2.975 3.1-1.2666.7333-2.7208 1.1-4.3625 1.1zm6.2-1.825c1.2584 0 2.3584-.2833 3.3-.85.9417-.575 1.6667-1.3833 2.175-2.425.5167-1.0417.775-2.2583.775-3.65 0-1.3833-.2583-2.5917-.775-3.625-.5083-1.0333-1.2333-1.8333-2.175-2.4-.9416-.5667-2.0416-.85-3.3-.85h-4.125v13.8z"/><path d="m24.6625 53.7c1.1667 0 2.2167.2875 3.15.8625.9333.5667 1.6667 1.3625 2.2 2.3875.5333 1.0167.8 2.1667.8 3.45s-.2667 2.4375-.8 3.4625c-.5333 1.0167-1.2667 1.8125-2.2 2.3875-.9333.5667-1.9833.85-3.15.85-.9667 0-1.85-.2125-2.65-.6375s-1.4625-1.025-1.9875-1.8l.0625 6.1625h-1.975v-4.025h-.0125v-12.8h1.925v2.15c.5167-.7833 1.175-1.3875 1.975-1.8125s1.6875-.6375 2.6625-.6375zm-.1875 11.65c.8083 0 1.5333-.2083 2.175-.625.65-.4167 1.1542-1 1.5125-1.75.3667-.75.55-1.6083.55-2.575s-.1833-1.825-.55-2.575c-.3583-.75-.8625-1.3333-1.5125-1.75-.6417-.4167-1.3667-.625-2.175-.625-.8167 0-1.5583.2083-2.225.625s-1.1917 1-1.575 1.75-.575 1.6083-.575 2.575.1917 1.825.575 2.575.9083 1.3333 1.575 1.75 1.4083.625 2.225.625z"/><path d="m35.8412 66.8h-2v-12.8h2zm-2.075-15.125v-2.375h2.15v2.375z"/><path d="m46.3549 53.7c1.1667 0 2.2166.2875 3.15.8625.9333.5667 1.6667 1.3625 2.2 2.3875.5333 1.0167.8 2.1667.8 3.45s-.2667 2.4375-.8 3.4625c-.5333 1.0167-1.2667 1.8125-2.2 2.3875-.9334.5667-1.9833.85-3.15.85-.9667 0-1.85-.2125-2.65-.6375s-1.4625-1.025-1.9875-1.8l.0625 6.1625h-1.975v-4.025h-.0125v-12.8h1.925v2.15c.5166-.7833 1.175-1.3875 1.975-1.8125s1.6875-.6375 2.6625-.6375zm-.1875 11.65c.8083 0 1.5333-.2083 2.175-.625.65-.4167 1.1542-1 1.5125-1.75.3667-.75.55-1.6083.55-2.575s-.1833-1.825-.55-2.575c-.3583-.75-.8625-1.3333-1.5125-1.75-.6417-.4167-1.3667-.625-2.175-.625-.8167 0-1.5584.2083-2.225.625-.6667.4167-1.1917 1-1.575 1.75-.3834.75-.575 1.6083-.575 2.575s.1916 1.825.575 2.575c.3833.75.9083 1.3333 1.575 1.75.6666.4167 1.4083.625 2.225.625z"/><path d="m66.8336 60.875h-10.3c.0667.8917.2917 1.675.675 2.35s.8917 1.2 1.525 1.575c.6417.3667 1.3667.55 2.175.55.5417 0 1.0625-.0833 1.5625-.25.5-.175.9292-.4125 1.2875-.7125s.6042-.6375.7375-1.0125h2c-.1417.7-.4875 1.3333-1.0375 1.9s-1.2375 1.0125-2.0625 1.3375c-.8167.325-1.6875.4875-2.6125.4875-1.1833 0-2.2542-.2917-3.2125-.875s-1.7125-1.3833-2.2625-2.4c-.55-1.025-.825-2.1667-.825-3.425s.275-2.3958.825-3.4125c.55-1.025 1.3042-1.8292 2.2625-2.4125s2.0292-.875 3.2125-.875c1.1667 0 2.2083.2875 3.125.8625.9167.5667 1.6333 1.3583 2.15 2.375s.775 2.1708.775 3.4625zm-6.05-5.4375c-1.1333 0-2.0708.3417-2.8125 1.025-.7333.675-1.1917 1.6042-1.375 2.7875h8.1625c-.1667-1.2083-.5958-2.1458-1.2875-2.8125-.6833-.6667-1.5792-1-2.6875-1z"/><path d="m71.7367 66.8h-2v-17.5h2z"/><path d="m77.6879 66.8h-2v-12.8h2zm-2.075-15.125v-2.375h2.15v2.375z"/><path d="m87.6641 53.7c.9583 0 1.7958.2083 2.5125.625.7166.4083 1.2666.9917 1.65 1.75.3916.7583.5875 1.6417.5875 2.65v8.075h-2v-7.9875c0-1.075-.275-1.9125-.825-2.5125-.5417-.6-1.3042-.9-2.2875-.9-.7417 0-1.3875.1708-1.9375.5125-.55.3333-.975.8125-1.275 1.4375-.3.6167-.45 1.3458-.45 2.1875v7.2625h-2v-12.8h1.925v1.8375c.425-.6917.9875-1.2208 1.6875-1.5875s1.5041-.55 2.4125-.55z"/><path d="m107.386 60.875h-10.2997c.0667.8917.2917 1.675.675 2.35.3834.675.8917 1.2 1.525 1.575.6417.3667 1.3667.55 2.1747.55.542 0 1.063-.0833 1.563-.25.5-.175.929-.4125 1.287-.7125.359-.3.604-.6375.738-1.0125h2c-.142.7-.488 1.3333-1.038 1.9s-1.237 1.0125-2.062 1.3375c-.817.325-1.688.4875-2.613.4875-1.183 0-2.2538-.2917-3.2122-.875-.9583-.5833-1.7125-1.3833-2.2625-2.4-.55-1.025-.825-2.1667-.825-3.425s.275-2.3958.825-3.4125c.55-1.025 1.3042-1.8292 2.2625-2.4125.9584-.5833 2.0292-.875 3.2122-.875 1.167 0 2.209.2875 3.125.8625.917.5667 1.634 1.3583 2.15 2.375.517 1.0167.775 2.1708.775 3.4625zm-6.05-5.4375c-1.133 0-2.0705.3417-2.8122 1.025-.7333.675-1.1916 1.6042-1.375 2.7875h8.1622c-.166-1.2083-.596-2.1458-1.287-2.8125-.684-.6667-1.579-1-2.688-1z"/><path d="m114.377 67.1c-1.05 0-1.967-.1667-2.75-.5-.775-.3333-1.379-.8-1.813-1.4-.425-.6-.641-1.2917-.65-2.075h2c.017.45.163.8542.438 1.2125s.646.6375 1.112.8375c.467.1917 1 .2875 1.6.2875.584 0 1.096-.0917 1.538-.275.45-.1833.796-.4458 1.037-.7875.242-.3417.363-.7333.363-1.175 0-.5083-.171-.9333-.513-1.275-.341-.35-.816-.5792-1.425-.6875l-2.125-.3625c-1.125-.1917-2.004-.6042-2.637-1.2375s-.95-1.4208-.95-2.3625c0-.7167.183-1.3458.55-1.8875.375-.55.908-.9708 1.6-1.2625.692-.3 1.5-.45 2.425-.45.958 0 1.796.1583 2.512.475.717.3083 1.271.7458 1.663 1.3125.392.5583.596 1.2042.612 1.9375h-2c-.008-.4083-.129-.7708-.362-1.0875s-.558-.5625-.975-.7375-.9-.2625-1.45-.2625c-.492 0-.942.0792-1.35.2375s-.729.3833-.963.675c-.233.2917-.35.625-.35 1 0 .4583.163.85.488 1.175.325.3167.767.525 1.325.625l2.2.3875c1.175.2083 2.075.6333 2.7 1.275.633.6417.95 1.4625.95 2.4625 0 .7833-.196 1.4708-.588 2.0625-.391.5917-.95 1.05-1.675 1.375-.716.325-1.562.4875-2.537.4875z"/></g><path d="m53.0737 123.019 11.7421 8.489c1.4046-.192 2.8403-.286 4.2997-.274 2.2759.019 5.9733 1.104 11.0673 4.117 4.8977 2.898 10.0764 6.971 15.058 11.472 5.5752 5.037 10.4222 10.055 14.0832 14.142-.237.256-.479.518-.725.784l-.01.011c-3.631 3.928-8.289 8.966-13.5816 13.592-5.0546 4.419-10.2993 8.407-15.2437 11.224l-.146.083-.1542.087 15.1558 4.061-3.0254 11.291h6.9961c4.142-2.902 8.097-6.096 11.709-9.254 4.692-4.102 8.996-8.31 12.601-12.039 3.606 3.729 7.91 7.937 12.602 12.039 3.587 3.136 7.512 6.308 11.624 9.194h16.159l-1.967-2.74 12.833-9.212c-2.118-.541-4.824-1.635-8.114-3.51-4.944-2.817-10.189-6.805-15.244-11.224-5.656-4.945-10.727-10.12-14.455-14.147 3.662-4.087 8.647-9.345 14.222-14.382 2.829-2.555 5.721-4.973 8.589-7.116l1.34-15.205-17.659-1.557c-2.746 2.16-5.378 4.41-7.846 6.639-4.486 4.054-8.606 8.201-12.084 11.903-3.478-3.702-7.597-7.849-12.084-11.903-5.613-5.071-12.075-10.248-18.8034-14.229-6.5322-3.864-14.4464-7.286-22.707-7.353-1.8736-.016-3.7251.067-5.5499.242z" fill="url(#b)"/><path d="m39.2342 160.631c.1134-13.856 9.7165-25.414 22.5905-28.555l-11.8405-8.56 10.77-14.897c-25.1698 3.879-44.5373 25.531-44.7524 51.821-.0242 2.954.1943 5.853.6369 8.679l15.9718 9.575 7.1939-12c-.3902-1.959-.5872-3.987-.5702-6.063z" fill="url(#b)"/><path d="m40.574 169.714-7.2034 12.015-16.1935-9.708c2.5783 12.011 9.2403 22.519 18.4719 29.985l53.6542.092 2.6062-9.726-15.3605-4.116c-3.5068 1.654-6.1479 2.27-7.9184 2.256-13.2049-.108-24.3222-8.835-28.0565-20.798z" fill="url(#b)"/><path d="m177.355 190.51-12.949 9.295 1.631 2.272 35.935-.032v-25.312c-5.181 8.163-14.245 13.629-24.617 13.777z" fill="url(#b)"/><path d="m176.495 108.002c9.215-.076 17.899 2.211 25.477 6.294v30.716c-5.302-8.353-14.665-13.865-25.287-13.778-2.276.019-5.973 1.104-11.067 4.117-1.348.798-2.717 1.684-4.097 2.644l1.367-15.503-17.455-1.539c2.708-2.014 5.508-3.913 8.355-5.598 6.532-3.864 14.447-7.286 22.707-7.353z" fill="url(#b)"/><path clip-rule="evenodd" d="m124.886 138.958c.317.266.359.739.092 1.056-2.916 3.473-5.841 7.611-8.446 11.428-.781 1.143-1.534 2.26-2.25 3.322-1.662 2.465-3.124 4.632-4.253 6.133-.249.331-.719.397-1.05.148s-.398-.719-.149-1.05c1.105-1.469 2.53-3.582 4.179-6.026.721-1.07 1.485-2.203 2.284-3.373 2.61-3.823 5.57-8.013 8.537-11.546.266-.317.739-.359 1.056-.092z" fill="#000" fill-rule="evenodd"/><path d="m126.673 184.629-3.763-3.796 13.518-19.718 2.129 2.284z" fill="#0c0c0d"/></g></svg>