<svg fill="none" height="202" viewBox="0 0 202 202" width="202" xmlns="http://www.w3.org/2000/svg" xmlns:xlink="http://www.w3.org/1999/xlink"><radialGradient id="a" cx="0" cy="0" gradientTransform="matrix(-37.23311291 351.38789297 -494.38637218 -52.38525284 42.5277 62.1653)" gradientUnits="userSpaceOnUse" r="1"><stop offset="0" stop-color="#00e383"/><stop offset=".687112" stop-color="#0aa78b" stop-opacity=".65"/></radialGradient><clipPath id="b"><rect height="202" rx="4" width="202"/></clipPath><g clip-path="url(#b)"><rect fill="url(#a)" height="202" rx="4" width="202"/><path d="m25.9125 39.1c-1.6 0-3.0542-.3917-4.3625-1.175-1.3-.7917-2.3208-1.875-3.0625-3.25-.7417-1.3833-1.1125-2.925-1.1125-4.625s.3708-3.2375 1.1125-4.6125c.7417-1.3833 1.7625-2.4667 3.0625-3.25 1.3083-.7917 2.7625-1.1875 4.3625-1.1875 1.3333 0 2.5708.2958 3.7125.8875 1.15.5833 2.0917 1.3917 2.825 2.425s1.1792 2.1875 1.3375 3.4625h-2.075c-.1667-.9417-.525-1.7833-1.075-2.525-.55-.75-1.2375-1.3375-2.0625-1.7625s-1.7125-.6375-2.6625-.6375c-1.2167 0-2.3125.3125-3.2875.9375-.9667.6167-1.725 1.475-2.275 2.575-.55 1.0917-.825 2.3208-.825 3.6875s.275 2.6.825 3.7c.55 1.0917 1.3083 1.95 2.275 2.575.975.6167 2.0708.925 3.2875.925.95 0 1.8375-.2125 2.6625-.6375s1.5125-1.0083 2.0625-1.75c.55-.75.9083-1.5958 1.075-2.5375h2.075c-.1583 1.275-.6042 2.4292-1.3375 3.4625s-1.675 1.8458-2.825 2.4375c-1.1417.5833-2.3792.875-3.7125.875z" fill="#0c0c0d"/><path d="m42.4525 39.1c-1.2166 0-2.3208-.2875-3.3125-.8625-.9833-.5833-1.7583-1.3833-2.325-2.4-.5666-1.0167-.85-2.1625-.85-3.4375s.2834-2.4208.85-3.4375c.575-1.0167 1.3584-1.8125 2.35-2.3875.9917-.5833 2.0959-.875 3.3125-.875 1.2167 0 2.3209.2917 3.3125.875.9917.575 1.7709 1.3708 2.3375 2.3875.575 1.0167.8625 2.1625.8625 3.4375s-.2875 2.4208-.8625 3.4375c-.5666 1.0167-1.35 1.8167-2.35 2.4-.9916.575-2.1.8625-3.325.8625zm.025-1.775c.8334 0 1.5834-.2083 2.25-.625.675-.4167 1.2042-.9958 1.5875-1.7375.3834-.75.575-1.6042.575-2.5625s-.1916-1.8083-.575-2.55c-.3833-.75-.9125-1.3333-1.5875-1.75-.6666-.4167-1.4166-.625-2.25-.625-.8333 0-1.5875.2083-2.2625.625-.6666.4167-1.1916 1-1.575 1.75-.3833.7417-.575 1.5917-.575 2.55s.1917 1.8125.575 2.5625c.3834.7417.9084 1.3208 1.575 1.7375.675.4167 1.4292.625 2.2625.625z" fill="#0c0c0d"/><path d="m63.6768 26h.0125v12.8h-1.925v-2.1375c-.5167.775-1.175 1.375-1.975 1.8s-1.6875.6375-2.6625.6375c-1.1667 0-2.2167-.2833-3.15-.85-.9334-.575-1.6667-1.3708-2.2-2.3875-.5334-1.025-.8-2.1792-.8-3.4625s.2666-2.4333.8-3.45c.5333-1.025 1.2666-1.8208 2.2-2.3875.9333-.575 1.9833-.8625 3.15-.8625.9666 0 1.85.2125 2.65.6375.8.4167 1.4583 1.0125 1.975 1.7875l-.075-6.825h2zm-6.3625 11.35c.8166 0 1.5583-.2083 2.225-.625.6666-.4167 1.1916-1 1.575-1.75.3833-.75.575-1.6083.575-2.575s-.1917-1.825-.575-2.575c-.3834-.75-.9084-1.3333-1.575-1.75-.6667-.4167-1.4084-.625-2.225-.625-.8084 0-1.5375.2083-2.1875.625-.6417.4167-1.1459 1-1.5125 1.75-.3584.75-.5375 1.6083-.5375 2.575s.1791 1.825.5375 2.575c.3666.75.8708 1.3333 1.5125 1.75.65.4167 1.3791.625 2.1875.625z" fill="#0c0c0d"/><path d="m78.8453 32.875h-10.3c.0667.8917.2917 1.675.675 2.35s.8917 1.2 1.525 1.575c.6417.3667 1.3667.55 2.175.55.5417 0 1.0625-.0833 1.5625-.25.5-.175.9292-.4125 1.2875-.7125s.6042-.6375.7375-1.0125h2c-.1417.7-.4875 1.3333-1.0375 1.9s-1.2375 1.0125-2.0625 1.3375c-.8167.325-1.6875.4875-2.6125.4875-1.1833 0-2.2542-.2917-3.2125-.875s-1.7125-1.3833-2.2625-2.4c-.55-1.025-.825-2.1667-.825-3.425s.275-2.3958.825-3.4125c.55-1.025 1.3042-1.8292 2.2625-2.4125s2.0292-.875 3.2125-.875c1.1667 0 2.2083.2875 3.125.8625.9167.5667 1.6333 1.3583 2.15 2.375s.775 2.1708.775 3.4625zm-6.05-5.4375c-1.1333 0-2.0708.3417-2.8125 1.025-.7333.675-1.1917 1.6042-1.375 2.7875h8.1625c-.1667-1.2083-.5958-2.1458-1.2875-2.8125-.6833-.6667-1.5792-1-2.6875-1z" fill="#0c0c0d"/><path d="m24.35 53.875v2h-.4625c-.775 0-1.4458.1583-2.0125.475s-1.0042.7792-1.3125 1.3875c-.3083.6-.4625 1.3208-.4625 2.1625v6.9h-2v-12.8h2v2.375c.3833-.8083.9-1.425 1.55-1.85.6583-.4333 1.4292-.65 2.3125-.65z" fill="#0c0c0d"/><path d="m37.8658 60.875h-10.3c.0667.8917.2917 1.675.675 2.35.3834.675.8917 1.2 1.525 1.575.6417.3667 1.3667.55 2.175.55.5417 0 1.0625-.0833 1.5625-.25.5-.175.9292-.4125 1.2875-.7125.3584-.3.6042-.6375.7375-1.0125h2c-.1416.7-.4875 1.3333-1.0375 1.9s-1.2375 1.0125-2.0625 1.3375c-.8166.325-1.6875.4875-2.6125.4875-1.1833 0-2.2541-.2917-3.2125-.875-.9583-.5833-1.7125-1.3833-2.2625-2.4-.55-1.025-.825-2.1667-.825-3.425s.275-2.3958.825-3.4125c.55-1.025 1.3042-1.8292 2.2625-2.4125.9584-.5833 2.0292-.875 3.2125-.875 1.1667 0 2.2084.2875 3.125.8625.9167.5667 1.6334 1.3583 2.15 2.375.5167 1.0167.775 2.1708.775 3.4625zm-6.05-5.4375c-1.1333 0-2.0708.3417-2.8125 1.025-.7333.675-1.1916 1.6042-1.375 2.7875h8.1625c-.1666-1.2083-.5958-2.1458-1.2875-2.8125-.6833-.6667-1.5791-1-2.6875-1z" fill="#0c0c0d"/><path d="m46.1105 66.8h-2.125l-4.9625-12.8h2.175l3.925 10.4625 3.85-10.4625h2.1z" fill="#0c0c0d"/><path d="m55.4584 66.8h-2v-12.8h2zm-2.075-15.125v-2.375h2.15v2.375z" fill="#0c0c0d"/><path d="m70.7096 60.875h-10.3c.0666.8917.2916 1.675.675 2.35.3833.675.8916 1.2 1.525 1.575.6416.3667 1.3666.55 2.175.55.5416 0 1.0625-.0833 1.5625-.25.5-.175.9291-.4125 1.2875-.7125.3583-.3.6041-.6375.7375-1.0125h2c-.1417.7-.4875 1.3333-1.0375 1.9s-1.2375 1.0125-2.0625 1.3375c-.8167.325-1.6875.4875-2.6125.4875-1.1834 0-2.2542-.2917-3.2125-.875-.9584-.5833-1.7125-1.3833-2.2625-2.4-.55-1.025-.825-2.1667-.825-3.425s.275-2.3958.825-3.4125c.55-1.025 1.3041-1.8292 2.2625-2.4125.9583-.5833 2.0291-.875 3.2125-.875 1.1666 0 2.2083.2875 3.125.8625.9166.5667 1.6333 1.3583 2.15 2.375.5166 1.0167.775 2.1708.775 3.4625zm-6.05-5.4375c-1.1334 0-2.0709.3417-2.8125 1.025-.7334.675-1.1917 1.6042-1.375 2.7875h8.1625c-.1667-1.2083-.5959-2.1458-1.2875-2.8125-.6834-.6667-1.5792-1-2.6875-1z" fill="#0c0c0d"/><path d="m78.3168 66.8h-2.075l-4.3-12.8h2.125l3.0125 9.4125.2875 1.025.2375-1.025 2.95-9.4125h2.0625l3.1125 9.4125.2875 1.025.2625-1.025 2.7875-9.4125h2.075l-4.15 12.8h-2.1l-3.0625-9.8375-.2375-.825-.2125.8z" fill="#0c0c0d"/><path d="m151.152 172.484c-1.913 11.293-6.77 21.351-13.651 29.52l-94.8408-.013c-11.2795-13.435-16.8108-31.549-13.6512-50.199 5.714-33.729 37.6888-56.4394 71.418-50.725 33.729 5.714 56.439 37.688 50.725 71.417z" fill="#fff" fill-opacity=".5"/><path clip-rule="evenodd" d="m76.6016 138.807c0-.414.3357-.75.75-.75h25.5084c.415 0 .75.336.75.75s-.335.75-.75.75h-25.5084c-.4143 0-.75-.336-.75-.75zm30.9594 0c0-.414.336-.75.75-.75h13.194c.414 0 .75.336.75.75s-.336.75-.75.75h-13.194c-.414 0-.75-.336-.75-.75z" fill="#0c0c0d" fill-rule="evenodd"/><path clip-rule="evenodd" d="m125.5 138.807c0-.414.336-.75.75-.75h9.703c.414 0 .75.336.75.75s-.336.75-.75.75h-9.703c-.414 0-.75-.336-.75-.75z" fill="#0c0c0d" fill-rule="evenodd"/><path clip-rule="evenodd" d="m49.6016 138.807c0-.414.3357-.75.75-.75h21.0687c.4143 0 .75.336.75.75s-.3357.75-.75.75h-21.0687c-.4143 0-.75-.336-.75-.75z" fill="#fff" fill-rule="evenodd"/><path clip-rule="evenodd" d="m56.0117 150.803c0-.414.3358-.75.75-.75h10.1817c.4142 0 .75.336.75.75s-.3358.75-.75.75h-10.1817c-.4142 0-.75-.336-.75-.75z" fill="#0c0c0d" fill-rule="evenodd"/><path clip-rule="evenodd" d="m56.0117 161.176c0-.414.3358-.75.75-.75h28.5576c.4142 0 .75.336.75.75s-.3358.75-.75.75h-28.5576c-.4142 0-.75-.336-.75-.75z" fill="#0c0c0d" fill-rule="evenodd"/><path clip-rule="evenodd" d="m48.3912 133.591c.2613.322.2125.794-.1089 1.055l-5.1135 4.157 5.114 4.165c.3212.261.3695.734.108 1.055-.2616.321-.734.369-1.0552.108l-5.8287-4.746c-.175-.143-.2765-.357-.2764-.582.0001-.226.1018-.44.2769-.582l5.8287-4.739c.3214-.261.7938-.212 1.0551.109z" fill="#0c0c0d" fill-rule="evenodd"/><path clip-rule="evenodd" d="m73.6014 168.9c.2615-.321.7339-.369 1.0551-.108l5.8288 4.747c.175.142.2765.356.2764.581-.0001.226-.1018.44-.2769.582l-5.8287 4.739c-.3214.261-.7938.212-1.0551-.109s-.2125-.794.1089-1.055l5.1135-4.157-5.114-4.165c-.3212-.261-.3696-.734-.108-1.055zm-10.9798.001c.2613.321.2126.794-.1088 1.055l-5.1135 4.157 5.114 4.164c.3212.262.3695.734.108 1.056-.2616.321-.734.369-1.0552.108l-5.8287-4.747c-.175-.142-.2766-.356-.2765-.582.0001-.225.1018-.439.2769-.581l5.8288-4.739c.3214-.261.7937-.213 1.055.109zm.5757 5.216c0-.415.3358-.75.75-.75h7.614c.4142 0 .75.335.75.75 0 .414-.3358.75-.75.75h-7.614c-.4142 0-.75-.336-.75-.75z" fill="#0c0c0d" fill-rule="evenodd"/><path clip-rule="evenodd" d="m100.367 161.176c0-.414.336-.75.75-.75h14.593c.414 0 .75.336.75.75s-.336.75-.75.75h-14.593c-.414 0-.75-.336-.75-.75z" fill="#0c0c0d" fill-rule="evenodd"/><path clip-rule="evenodd" d="m74.8398 150.803c0-.414.3358-.75.75-.75h9.681c.4142 0 .75.336.75.75s-.3358.75-.75.75h-9.681c-.4142 0-.75-.336-.75-.75z" fill="#fff" fill-rule="evenodd"/><path clip-rule="evenodd" d="m89.2461 150.803c0-.414.3358-.75.75-.75h18.8779c.414 0 .75.336.75.75s-.336.75-.75.75h-18.8779c-.4142 0-.75-.336-.75-.75z" fill="#0c0c0d" fill-rule="evenodd"/><path clip-rule="evenodd" d="m121.258 161.176c0-.414.336-.75.75-.75h16.878c.414 0 .75.336.75.75s-.336.75-.75.75h-16.878c-.414 0-.75-.336-.75-.75z" fill="#0c0c0d" fill-rule="evenodd"/><path clip-rule="evenodd" d="m129.023 150.803c0-.414.336-.75.75-.75h14.735c.414 0 .75.336.75.75s-.336.75-.75.75h-14.735c-.414 0-.75-.336-.75-.75z" fill="#fff" fill-rule="evenodd"/><path d="m167.132 112.789 34.976-19.2974v19.3334l-27.912 13.581z" fill="#0c0c0d"/><g clip-rule="evenodd" fill-rule="evenodd"><path d="m160.39 109.433-11.127 5.772-.599-1.154 11.127-5.772c2.77-1.437 6.181-.356 7.617 2.414l8.659 16.692c1.437 2.77.356 6.18-2.414 7.617l-11.127 5.772-.599-1.154 11.127-5.772c2.133-1.106 2.965-3.732 1.859-5.864l-8.659-16.692c-1.106-2.133-3.731-2.965-5.864-1.859z" fill="#0c0c0d"/><path d="m156.772 127.617c-19.081-36.7855-64.37-51.1374-101.1553-32.0561-36.7854 19.0811-51.13731 64.3701-32.056 101.1551.8701 1.678 1.7947 3.309 2.7704 4.892.2173.352.1077.814-.2449 1.032-.3526.217-.8147.107-1.032-.245-.9951-1.615-1.9379-3.278-2.825-4.988-19.46279-37.521-4.8239-83.715 32.6968-103.1776 37.5207-19.4628 83.715-4.8239 103.178 32.6966 12.886 24.842 10.822 53.486-2.93 75.654-.219.352-.681.46-1.033.242-.352-.219-.46-.681-.242-1.033 13.485-21.738 15.506-49.819 2.873-74.172z" fill="#fff"/><path d="m74.2544 147.359c-1.1781.697-1.9653 1.979-1.9653 3.444s.7872 2.747 1.9653 3.444l-.7641 1.291c-1.6153-.956-2.7012-2.718-2.7012-4.735s1.0859-3.779 2.7012-4.735z" fill="#0c0c0d"/><path d="m80.522 184.732c-1.1781.697-1.9654 1.979-1.9654 3.444s.7873 2.746 1.9654 3.444l-.7641 1.291c-1.6154-.957-2.7013-2.719-2.7013-4.735 0-2.017 1.0859-3.779 2.7013-4.735zm-17.3267 3.444c0-.414.3358-.75.75-.75h9.681c.4142 0 .75.336.75.75s-.3358.75-.75.75h-9.681c-.4142 0-.75-.336-.75-.75zm18.2578 0c0-.414.3358-.75.75-.75h5.1352c.4142 0 .75.336.75.75s-.3358.75-.75.75h-5.1352c-.4142 0-.75-.336-.75-.75zm9.2735 0c0-.414.3357-.75.75-.75h19.1164c.415 0 .75.336.75.75s-.335.75-.75.75h-19.1164c-.4143 0-.75-.336-.75-.75z" fill="#0c0c0d"/><path d="m133.1 183.441c1.615.956 2.701 2.718 2.701 4.735 0 2.016-1.086 3.778-2.701 4.735l-.765-1.291c1.179-.698 1.966-1.979 1.966-3.444s-.787-2.747-1.966-3.444zm-19.334 2.577c0-.415.335-.75.75-.75h6.828c.414 0 .75.335.75.75 0 .414-.336.75-.75.75h-6.828c-.415 0-.75-.336-.75-.75zm10.474 2.158c0-.414.336-.75.75-.75h5.135c.415 0 .75.336.75.75s-.335.75-.75.75h-5.135c-.414 0-.75-.336-.75-.75zm-10.474 2.158c0-.414.335-.75.75-.75h6.828c.414 0 .75.336.75.75s-.336.75-.75.75h-6.828c-.415 0-.75-.336-.75-.75z" fill="#0c0c0d"/><path d="m102.778 174.077c.35.223.453.686.23 1.036l-.892 1.402c-.222.349-.686.452-1.035.23-.35-.223-.453-.686-.23-1.036l.892-1.402c.222-.349.686-.452 1.035-.23zm-.402-2.706c.414 0 .75.336.75.75v.084c0 .415-.336.75-.75.75-.415 0-.75-.335-.75-.75v-.084c0-.414.335-.75.75-.75z" fill="#0c0c0d"/><path d="m92.708 170.672c-1.1781.698-1.9653 1.98-1.9653 3.444 0 1.465.7872 2.747 1.9653 3.445l-.764 1.29c-1.6154-.956-2.7013-2.718-2.7013-4.735 0-2.016 1.0859-3.778 2.7013-4.734z" fill="#0c0c0d"/><path d="m94.7461 170.672c1.1781.698 1.9653 1.98 1.9653 3.444 0 1.465-.7872 2.747-1.9653 3.445l.7641 1.29c1.6153-.956 2.7012-2.718 2.7012-4.735 0-2.016-1.0859-3.778-2.7012-4.734z" fill="#0c0c0d"/><path d="m83.1914 170.672c1.1781.698 1.9654 1.98 1.9654 3.444 0 1.465-.7873 2.747-1.9654 3.445l.7641 1.29c1.6153-.956 2.7013-2.718 2.7013-4.735 0-2.016-1.086-3.778-2.7013-4.734z" fill="#0c0c0d"/><path d="m110.808 147.359c1.178.697 1.965 1.979 1.965 3.444s-.787 2.747-1.965 3.444l.764 1.291c1.616-.956 2.701-2.718 2.701-4.735s-1.085-3.779-2.701-4.735z" fill="#0c0c0d"/><path d="m87.5051 106.456c.0243.413-.2911.768-.7046.792-4.4767.264-8.844 1.075-13.0226 2.376-.3955.123-.816-.098-.9391-.493-.1231-.396.0976-.816.4931-.939 4.2932-1.337 8.7805-2.17 13.3804-2.441.4135-.024.7684.291.7928.705zm11.146.614c.0692-.408.4564-.683.8648-.614 30.7521 5.21 51.4591 34.363 46.2491 65.115-.069.409-.457.684-.865.615-.408-.07-.683-.457-.614-.865 5.071-29.936-15.085-58.315-45.0207-63.386-.4084-.069-.6833-.456-.6142-.865z" fill="#fff"/><path d="m89.2383 159.018c0-.415.3358-.75.75-.75h6.8284c.4142 0 .75.335.75.75 0 .414-.3358.75-.75.75h-6.8284c-.4142 0-.75-.336-.75-.75z" fill="#fff"/><path d="m89.2383 163.334c0-.414.3358-.75.75-.75h6.8284c.4142 0 .75.336.75.75s-.3358.75-.75.75h-6.8284c-.4142 0-.75-.336-.75-.75z" fill="#fff"/><path d="m117.641 148.645c0-.414.335-.75.75-.75h6.828c.414 0 .75.336.75.75s-.336.75-.75.75h-6.828c-.415 0-.75-.336-.75-.75z" fill="#0c0c0d"/><path d="m117.641 152.961c0-.414.335-.75.75-.75h6.828c.414 0 .75.336.75.75s-.336.75-.75.75h-6.828c-.415 0-.75-.336-.75-.75z" fill="#0c0c0d"/></g></g></svg>