<svg fill="none" height="202" viewBox="0 0 202 202" width="202" xmlns="http://www.w3.org/2000/svg" xmlns:xlink="http://www.w3.org/1999/xlink"><radialGradient id="a" cx="0" cy="0" gradientTransform="matrix(-37.23311291 351.38789297 -494.38637218 -52.38525284 42.5277 62.1653)" gradientUnits="userSpaceOnUse" r="1"><stop offset="0" stop-color="#00e383"/><stop offset=".687112" stop-color="#0aa78b" stop-opacity=".65"/></radialGradient><clipPath id="b"><rect height="202" rx="4" width="202"/></clipPath><g clip-path="url(#b)"><rect fill="url(#a)" height="202" rx="4" width="202"/><path d="m45 136.967c0-5.018 1.9853-9.833 5.5226-13.392l45.6773-45.9675c3.5666-3.5892 8.4171-5.6075 13.4771-5.6075h92.358v130.001h-157.035z" fill="#fff" fill-opacity=".5"/><g fill="#0c0c0d"><path d="m18.5859 38.5v-17.5h6.2c1.6417 0 3.0959.3708 4.3625 1.1125 1.275.7333 2.2667 1.7625 2.975 3.0875.7084 1.325 1.0625 2.8417 1.0625 4.55s-.3541 3.225-1.0625 4.55c-.7083 1.325-1.7 2.3583-2.975 3.1-1.2666.7333-2.7208 1.1-4.3625 1.1zm6.2-1.825c1.2584 0 2.3584-.2833 3.3-.85.9417-.575 1.6667-1.3833 2.175-2.425.5167-1.0417.775-2.2583.775-3.65 0-1.3833-.2583-2.5917-.775-3.625-.5083-1.0333-1.2333-1.8333-2.175-2.4-.9416-.5667-2.0416-.85-3.3-.85h-4.125v13.8z"/><path d="m41.8406 38.8c-1.2166 0-2.3208-.2875-3.3125-.8625-.9833-.5833-1.7583-1.3833-2.325-2.4-.5666-1.0167-.85-2.1625-.85-3.4375s.2834-2.4208.85-3.4375c.575-1.0167 1.3584-1.8125 2.35-2.3875.9917-.5833 2.0959-.875 3.3125-.875 1.2167 0 2.3209.2917 3.3125.875.9917.575 1.7709 1.3708 2.3375 2.3875.575 1.0167.8625 2.1625.8625 3.4375s-.2875 2.4208-.8625 3.4375c-.5666 1.0167-1.35 1.8167-2.35 2.4-.9916.575-2.1.8625-3.325.8625zm.025-1.775c.8334 0 1.5834-.2083 2.25-.625.675-.4167 1.2042-.9958 1.5875-1.7375.3834-.75.575-1.6042.575-2.5625s-.1916-1.8083-.575-2.55c-.3833-.75-.9125-1.3333-1.5875-1.75-.6666-.4167-1.4166-.625-2.25-.625-.8333 0-1.5875.2083-2.2625.625-.6666.4167-1.1916 1-1.575 1.75-.3833.7417-.575 1.5917-.575 2.55s.1917 1.8125.575 2.5625c.3834.7417.9084 1.3208 1.575 1.7375.675.4167 1.4292.625 2.2625.625z"/><path d="m56.7023 38.8c-1.2083 0-2.3083-.2917-3.3-.875-.9833-.5833-1.7583-1.3833-2.325-2.4-.5583-1.025-.8375-2.1667-.8375-3.425s.2792-2.3958.8375-3.4125c.5667-1.025 1.3417-1.8292 2.325-2.4125.9917-.5833 2.0917-.875 3.3-.875 1.0334 0 1.9875.2083 2.8625.625.8834.4083 1.5959.975 2.1375 1.7.55.7167.8667 1.5208.95 2.4125h-2c-.1-.5667-.3375-1.075-.7125-1.525s-.8458-.8-1.4125-1.05c-.5666-.2583-1.175-.3875-1.825-.3875-.8333 0-1.5833.2125-2.25.6375-.6583.4167-1.175 1-1.55 1.75s-.5625 1.5958-.5625 2.5375.1875 1.7875.5625 2.5375c.375.7417.8917 1.325 1.55 1.75.6667.4167 1.4167.625 2.25.625.6584 0 1.2709-.125 1.8375-.375.5667-.25 1.0334-.6 1.4-1.05.375-.45.6125-.9583.7125-1.525h2c-.0833.8917-.4 1.7-.95 2.425-.5416.7167-1.2541 1.2833-2.1375 1.7-.875.4083-1.8291.6125-2.8625.6125z"/><path d="m74.0418 25.7h2v12.8h-1.925v-1.8375c-.425.6917-.9875 1.2208-1.6875 1.5875s-1.5042.55-2.4125.55c-.9583 0-1.7958-.2042-2.5125-.6125-.7167-.4167-1.2708-1.0042-1.6625-1.7625-.3833-.7583-.575-1.6417-.575-2.65v-8.075h2v7.9875c0 1.075.2708 1.9125.8125 2.5125.55.6 1.3167.9 2.3.9.7417 0 1.3875-.1667 1.9375-.5.55-.3417.975-.8208 1.275-1.4375.3-.625.45-1.3583.45-2.2z"/><path d="m94.4641 25.4c.9333 0 1.7583.2125 2.475.6375.7166.4167 1.2708 1.0083 1.6625 1.775.3916.7583.5875 1.6292.5875 2.6125v8.075h-2v-7.9875c0-1.075-.2667-1.9125-.8-2.5125-.5334-.6-1.275-.9-2.225-.9-.7167 0-1.3459.1708-1.8875.5125-.5417.3417-.9584.825-1.25 1.45-.2917.6167-.4375 1.3417-.4375 2.175v7.2625h-2v-7.9875c0-1.075-.2667-1.9125-.8-2.5125-.5334-.6-1.275-.9-2.225-.9-.7167 0-1.3459.1708-1.8875.5125-.5417.3417-.9584.825-1.25 1.45-.2917.6167-.4375 1.3417-.4375 2.175v7.2625h-2v-12.8h1.925v1.9875c.4166-.7333.9666-1.2958 1.65-1.6875.6916-.4 1.4791-.6 2.3625-.6.95 0 1.7833.2292 2.5.6875.725.45 1.275 1.075 1.65 1.875.4416-.8083 1.0416-1.4375 1.8-1.8875.7583-.45 1.6208-.675 2.5875-.675z"/><path d="m114.159 32.575h-10.3c.067.8917.292 1.675.675 2.35.384.675.892 1.2 1.525 1.575.642.3667 1.367.55 2.175.55.542 0 1.063-.0833 1.563-.25.5-.175.929-.4125 1.287-.7125.359-.3.604-.6375.738-1.0125h2c-.142.7-.488 1.3333-1.038 1.9s-1.237 1.0125-2.062 1.3375c-.817.325-1.688.4875-2.613.4875-1.183 0-2.254-.2917-3.212-.875-.959-.5833-1.713-1.3833-2.263-2.4-.55-1.025-.825-2.1667-.825-3.425s.275-2.3958.825-3.4125c.55-1.025 1.304-1.8292 2.263-2.4125.958-.5833 2.029-.875 3.212-.875 1.167 0 2.209.2875 3.125.8625.917.5667 1.634 1.3583 2.15 2.375.517 1.0167.775 2.1708.775 3.4625zm-6.05-5.4375c-1.133 0-2.071.3417-2.812 1.025-.734.675-1.192 1.6042-1.375 2.7875h8.162c-.166-1.2083-.596-2.1458-1.287-2.8125-.684-.6667-1.579-1-2.688-1z"/><path d="m123.087 25.4c.959 0 1.796.2083 2.513.625.716.4083 1.266.9917 1.65 1.75.391.7583.587 1.6417.587 2.65v8.075h-2v-7.9875c0-1.075-.275-1.9125-.825-2.5125-.541-.6-1.304-.9-2.287-.9-.742 0-1.388.1708-1.938.5125-.55.3333-.975.8125-1.275 1.4375-.3.6167-.45 1.3458-.45 2.1875v7.2625h-2v-12.8h1.925v1.8375c.425-.6917.988-1.2208 1.688-1.5875s1.504-.55 2.412-.55z"/><path d="m135.222 38.5c-.942 0-1.679-.2458-2.212-.7375-.525-.4917-.788-1.1708-.788-2.0375l-.012-8.25h-2.3l.012-1.775h1.438c.358 0 .612-.0792.762-.2375.158-.1583.238-.4125.238-.7625v-2.2h1.862v3.2h3.013l-.013 1.775h-3.012l.012 8.125c0 .35.1.625.3.825s.475.3.825.3h1.875v1.775z"/><path d="m144.234 38.8c-1.05 0-1.967-.1667-2.75-.5-.775-.3333-1.379-.8-1.813-1.4-.425-.6-.641-1.2917-.65-2.075h2c.017.45.163.8542.438 1.2125s.646.6375 1.112.8375c.467.1917 1 .2875 1.6.2875.584 0 1.096-.0917 1.538-.275.45-.1833.796-.4458 1.037-.7875.242-.3417.363-.7333.363-1.175 0-.5083-.171-.9333-.513-1.275-.341-.35-.816-.5792-1.425-.6875l-2.125-.3625c-1.125-.1917-2.004-.6042-2.637-1.2375-.634-.6333-.95-1.4208-.95-2.3625 0-.7167.183-1.3458.55-1.8875.375-.55.908-.9708 1.6-1.2625.691-.3 1.5-.45 2.425-.45.958 0 1.796.1583 2.512.475.717.3083 1.271.7458 1.663 1.3125.391.5583.596 1.2042.612 1.9375h-2c-.008-.4083-.129-.7708-.362-1.0875-.234-.3167-.559-.5625-.975-.7375-.417-.175-.9-.2625-1.45-.2625-.492 0-.942.0792-1.35.2375-.409.1583-.729.3833-.963.675-.233.2917-.35.625-.35 1 0 .4583.163.85.488 1.175.325.3167.766.525 1.325.625l2.2.3875c1.175.2083 2.075.6333 2.7 1.275.633.6417.95 1.4625.95 2.4625 0 .7833-.196 1.4708-.588 2.0625-.391.5917-.95 1.05-1.675 1.375-.716.325-1.562.4875-2.537.4875z"/></g><path clip-rule="evenodd" d="m202.11 144.75h-126.11v-1.5h126.11z" fill="#000" fill-rule="evenodd"/><path clip-rule="evenodd" d="m202.085 164.75h-126.085v-1.5h126.085z" fill="#000" fill-rule="evenodd"/><path clip-rule="evenodd" d="m202.118 183.75h-126.118v-1.5h126.118z" fill="#000" fill-rule="evenodd"/><path d="m95.8272 77.9816v42.2624h-41.9913z" fill="#fff"/></g></svg>