<svg fill="none" height="202" viewBox="0 0 202 202" width="202" xmlns="http://www.w3.org/2000/svg" xmlns:xlink="http://www.w3.org/1999/xlink"><radialGradient id="a" cx="0" cy="0" gradientTransform="matrix(-37.23311291 351.38789297 -494.38637218 -52.38525284 42.5277 62.1653)" gradientUnits="userSpaceOnUse" r="1"><stop offset="0" stop-color="#00e383"/><stop offset=".687112" stop-color="#0aa78b" stop-opacity=".65"/></radialGradient><clipPath id="b"><rect height="202" rx="4" width="202"/></clipPath><g clip-path="url(#b)"><rect fill="url(#a)" height="202" rx="4" width="202"/><g fill="#0c0c0d"><path d="m20.6609 38.5h-2.075v-17.5h11.1v1.875h-9.025v6.1875h8.525v1.875h-8.525z"/><path d="m34.6922 38.5h-2v-12.8h2zm-2.075-15.125v-2.375h2.15v2.375z"/><path d="m40.6434 38.5h-2v-17.5h2z"/><path d="m55.8945 32.575h-10.3c.0667.8917.2917 1.675.675 2.35.3834.675.8917 1.2 1.525 1.575.6417.3667 1.3667.55 2.175.55.5417 0 1.0625-.0833 1.5625-.25.5-.175.9292-.4125 1.2875-.7125.3584-.3.6042-.6375.7375-1.0125h2c-.1416.7-.4875 1.3333-1.0375 1.9s-1.2375 1.0125-2.0625 1.3375c-.8166.325-1.6875.4875-2.6125.4875-1.1833 0-2.2541-.2917-3.2125-.875-.9583-.5833-1.7125-1.3833-2.2625-2.4-.55-1.025-.825-2.1667-.825-3.425s.275-2.3958.825-3.4125c.55-1.025 1.3042-1.8292 2.2625-2.4125.9584-.5833 2.0292-.875 3.2125-.875 1.1667 0 2.2084.2875 3.125.8625.9167.5667 1.6334 1.3583 2.15 2.375.5167 1.0167.775 2.1708.775 3.4625zm-6.05-5.4375c-1.1333 0-2.0708.3417-2.8125 1.025-.7333.675-1.1916 1.6042-1.375 2.7875h8.1625c-.1666-1.2083-.5958-2.1458-1.2875-2.8125-.6833-.6667-1.5791-1-2.6875-1z"/><path d="m68.4457 38.8c-1.05 0-1.9667-.1667-2.75-.5-.775-.3333-1.3792-.8-1.8125-1.4-.425-.6-.6417-1.2917-.65-2.075h2c.0167.45.1625.8542.4375 1.2125s.6458.6375 1.1125.8375c.4667.1917 1 .2875 1.6.2875.5833 0 1.0958-.0917 1.5375-.275.45-.1833.7958-.4458 1.0375-.7875s.3625-.7333.3625-1.175c0-.5083-.1708-.9333-.5125-1.275-.3417-.35-.8167-.5792-1.425-.6875l-2.125-.3625c-1.125-.1917-2.0042-.6042-2.6375-1.2375s-.95-1.4208-.95-2.3625c0-.7167.1833-1.3458.55-1.8875.375-.55.9083-.9708 1.6-1.2625.6917-.3 1.5-.45 2.425-.45.9583 0 1.7958.1583 2.5125.475.7167.3083 1.2708.7458 1.6625 1.3125.3917.5583.5958 1.2042.6125 1.9375h-2c-.0083-.4083-.1292-.7708-.3625-1.0875s-.5583-.5625-.975-.7375-.9-.2625-1.45-.2625c-.4917 0-.9417.0792-1.35.2375s-.7292.3833-.9625.675-.35.625-.35 1c0 .4583.1625.85.4875 1.175.325.3167.7667.525 1.325.625l2.2.3875c1.175.2083 2.075.6333 2.7 1.275.6333.6417.95 1.4625.95 2.4625 0 .7833-.1958 1.4708-.5875 2.0625s-.95 1.05-1.675 1.375c-.7167.325-1.5625.4875-2.5375.4875z"/><path d="m80.0766 38.5c-.9417 0-1.6792-.2458-2.2125-.7375-.525-.4917-.7875-1.1708-.7875-2.0375l-.0125-8.25h-2.3l.0125-1.775h1.4375c.3583 0 .6125-.0792.7625-.2375.1583-.1583.2375-.4125.2375-.7625v-2.2h1.8625v3.2h3.0125l-.0125 1.775h-3.0125l.0125 8.125c0 .35.1.625.3.825s.475.3.825.3h1.875v1.775z"/><path d="m90.4383 38.8c-1.2167 0-2.3209-.2875-3.3125-.8625-.9834-.5833-1.7584-1.3833-2.325-2.4-.5667-1.0167-.85-2.1625-.85-3.4375s.2833-2.4208.85-3.4375c.575-1.0167 1.3583-1.8125 2.35-2.3875.9916-.5833 2.0958-.875 3.3125-.875 1.2166 0 2.3208.2917 3.3125.875.9916.575 1.7708 1.3708 2.3375 2.3875.575 1.0167.8625 2.1625.8625 3.4375s-.2875 2.4208-.8625 3.4375c-.5667 1.0167-1.35 1.8167-2.35 2.4-.9917.575-2.1.8625-3.325.8625zm.025-1.775c.8333 0 1.5833-.2083 2.25-.625.675-.4167 1.2041-.9958 1.5875-1.7375.3833-.75.575-1.6042.575-2.5625s-.1917-1.8083-.575-2.55c-.3834-.75-.9125-1.3333-1.5875-1.75-.6667-.4167-1.4167-.625-2.25-.625-.8334 0-1.5875.2083-2.2625.625-.6667.4167-1.1917 1-1.575 1.75-.3834.7417-.575 1.5917-.575 2.55s.1916 1.8125.575 2.5625c.3833.7417.9083 1.3208 1.575 1.7375.675.4167 1.4291.625 2.2625.625z"/><path d="m106.137 25.575v2h-.462c-.775 0-1.446.1583-2.013.475-.566.3167-1.004.7792-1.312 1.3875-.308.6-.463 1.3208-.463 2.1625v6.9h-1.9995v-12.8h1.9995v2.375c.384-.8083.9-1.425 1.551-1.85.658-.4333 1.429-.65 2.312-.65z"/><path d="m113.153 25.4c.934 0 1.763.1792 2.488.5375.733.3583 1.304.8583 1.712 1.5.409.6417.613 1.3708.613 2.1875v8.875h-1.95v-1.8125c-.442.6667-1.029 1.1875-1.763 1.5625-.725.3667-1.546.55-2.462.55-.842 0-1.596-.1542-2.263-.4625-.666-.3167-1.187-.7542-1.562-1.3125s-.563-1.1917-.563-1.9c0-.6667.167-1.2792.5-1.8375.342-.5667.813-1.025 1.413-1.375.6-.3583 1.279-.575 2.037-.65l3.738-.375c.275-.025.491-.1458.65-.3625.166-.2167.25-.5208.25-.9125 0-.5083-.121-.9542-.363-1.3375-.241-.3833-.583-.6792-1.025-.8875-.433-.2083-.937-.3125-1.512-.3125s-1.092.1042-1.55.3125c-.459.2-.829.4833-1.113.85-.283.3667-.45.7875-.5 1.2625h-1.95c.075-.7917.346-1.4958.813-2.1125.475-.625 1.091-1.1125 1.85-1.4625.758-.35 1.596-.525 2.512-.525zm-.925 11.8375c.717 0 1.359-.1542 1.925-.4625.575-.3167 1.025-.75 1.35-1.3s.488-1.1708.488-1.8625v-1.35l-4.363.45c-.425.0417-.808.1708-1.15.3875-.333.2167-.596.4917-.787.825-.192.3333-.288.6958-.288 1.0875 0 .4333.117.8208.35 1.1625.242.3333.575.5958 1 .7875.434.1833.925.275 1.475.275z"/><path d="m130.679 25.7h1.925l-.025 12.1125c0 .9833-.242 1.85-.725 2.6-.475.7583-1.146 1.3458-2.013 1.7625-.858.4167-1.846.625-2.962.625-1 0-1.904-.1625-2.713-.4875-.8-.325-1.446-.7792-1.937-1.3625-.492-.5833-.779-1.2542-.863-2.0125h2c.142.65.534 1.1708 1.175 1.5625.642.3917 1.434.5875 2.375.5875.734 0 1.375-.1375 1.925-.4125.559-.2667.988-.6458 1.288-1.1375s.45-1.0667.45-1.725v-1.2125l.037-1.2375c-.483.6833-1.096 1.2125-1.837 1.5875-.734.3667-1.554.55-2.463.55-1.075 0-2.037-.2542-2.887-.7625-.85-.5167-1.513-1.2333-1.988-2.15s-.712-1.9542-.712-3.1125.237-2.1958.712-3.1125 1.138-1.6292 1.988-2.1375c.85-.5167 1.812-.775 2.887-.775.925 0 1.763.1958 2.513.5875.75.3833 1.366.9333 1.85 1.65zm-4 10.05c.766 0 1.446-.1792 2.037-.5375.592-.3583 1.054-.8583 1.388-1.5.333-.65.5-1.3958.5-2.2375s-.167-1.5833-.5-2.225c-.334-.65-.796-1.1542-1.388-1.5125-.591-.3583-1.271-.5375-2.037-.5375-.759 0-1.429.1792-2.013.5375-.583.3583-1.037.8625-1.362 1.5125-.317.6417-.475 1.3833-.475 2.225s.158 1.5875.475 2.2375c.325.6417.779 1.1417 1.362 1.5.584.3583 1.254.5375 2.013.5375z"/><path d="m147.767 32.575h-10.3c.066.8917.291 1.675.675 2.35.383.675.891 1.2 1.525 1.575.641.3667 1.366.55 2.175.55.541 0 1.062-.0833 1.562-.25.5-.175.929-.4125 1.288-.7125.358-.3.604-.6375.737-1.0125h2c-.142.7-.487 1.3333-1.037 1.9s-1.238 1.0125-2.063 1.3375c-.817.325-1.687.4875-2.612.4875-1.184 0-2.255-.2917-3.213-.875s-1.712-1.3833-2.262-2.4c-.55-1.025-.825-2.1667-.825-3.425s.275-2.3958.825-3.4125c.55-1.025 1.304-1.8292 2.262-2.4125s2.029-.875 3.213-.875c1.166 0 2.208.2875 3.125.8625.916.5667 1.633 1.3583 2.15 2.375.516 1.0167.775 2.1708.775 3.4625zm-6.05-5.4375c-1.134 0-2.071.3417-2.813 1.025-.733.675-1.192 1.6042-1.375 2.7875h8.163c-.167-1.2083-.596-2.1458-1.288-2.8125-.683-.6667-1.579-1-2.687-1z"/><path clip-rule="evenodd" d="m.390625 110.093h9.372935c.19377 0 .38004.075.51974.209l7.0417 6.768h11.0741c.4143 0 .75.336.75.75 0 .415-.3357.75-.75.75h-11.3761c-.1937 0-.38-.075-.5197-.209l-7.04174-6.768h-9.070935zm.006136 56.953c2.118929 4.673 4.278029 8.639 6.395669 11.473 1.09788 1.47 2.16632 2.61 3.19064 3.386 1.02033.773 1.95373 1.153 2.80123 1.188h2.7164c.2932 0 .5471.168.6704.413-.7844.678-1.6281 1.087-1.7802 1.087-.5484 0-1.6489-.001-1.6489-.001-1.2613-.046-2.4905-.602-3.66479-1.492-1.1756-.89-2.34004-2.149-3.48638-3.683-1.7429-2.332-3.48625-5.36-5.194069-8.849z" fill-rule="evenodd"/></g><g fill="#fff"><path d="m187.641 101.102c.397-1.2622-.553-2.5075-1.876-2.5075h-40.864c-.573 0-1.119.2458-1.499.6751l-7.624 8.6204c-.379.43-.925.675-1.498.675h-74.653c-.8118 0-1.5378.478-1.8509 1.227-2.0219 4.837-9.7885 23.1-18.2207 38.754-18.8987 35.085-25.157 36.048-25.157 36.048h124.7196c3.487 0 6.827-1.261 9.021-3.971 3.785-4.673 10.445-14.177 19.58-32.077 11.841-23.203 17.926-41.09 19.922-47.444z" fill-opacity=".5"/><path clip-rule="evenodd" d="m45.2183 89.4157c.2508-17.7652 14.532-32.0712 32.0914-32.0712 13.4246 0 24.9323 8.3599 29.7213 20.2391l.213.5304.569-.0658c.905-.1049 1.827-.1587 2.761-.1587 13.286 0 24.074 10.9216 24.074 24.4155 0 2.139-.27 4.24-.777 6.26h.409c.449 0 .881-.15 1.229-.422.419-1.897.639-3.853.639-5.838 0-14.3029-11.44-25.9155-25.574-25.9155-.798 0-1.588.037-2.368.1096-5.13-12.1399-17.028-20.6546-30.8963-20.6546-18.186 0-32.982 14.6391-33.5762 32.9049-9.6815 1.4964-17.0851 9.9679-17.0851 20.1806 0 11.265 9.0109 20.414 20.1479 20.414h2.322c.2354-.504.4677-1.004.6968-1.5h-3.0188c-10.2893 0-18.6479-8.458-18.6479-18.914 0-9.6865 7.1746-17.6606 16.4103-18.7803l.6504-.0789z" fill-rule="evenodd"/></g></g></svg>