<svg fill="none" height="202" viewBox="0 0 202 202" width="202" xmlns="http://www.w3.org/2000/svg" xmlns:xlink="http://www.w3.org/1999/xlink"><radialGradient id="a" cx="0" cy="0" gradientTransform="matrix(-37.23311291 351.38789297 -494.38637218 -52.38525284 42.5277 62.1653)" gradientUnits="userSpaceOnUse" r="1"><stop offset="0" stop-color="#00e383"/><stop offset=".687112" stop-color="#0aa78b" stop-opacity=".65"/></radialGradient><clipPath id="b"><rect height="202" rx="4" width="202"/></clipPath><g clip-path="url(#b)"><rect fill="url(#a)" height="202" rx="4" width="202"/><g fill="#0c0c0d"><path d="m25.775 39.1c-1.575 0-3.0042-.3917-4.2875-1.175-1.275-.7917-2.2792-1.875-3.0125-3.25-.7333-1.3833-1.1-2.925-1.1-4.625s.3667-3.2375 1.1-4.6125c.7333-1.3833 1.7375-2.4667 3.0125-3.25 1.2833-.7917 2.7125-1.1875 4.2875-1.1875 1.325 0 2.5583.2833 3.7.85 1.15.5583 2.0917 1.3292 2.825 2.3125s1.175 2.0792 1.325 3.2875h-2.05c-.15-.8833-.5-1.6792-1.05-2.3875s-1.2417-1.2625-2.075-1.6625-1.725-.6-2.675-.6c-1.2 0-2.2792.3125-3.2375.9375s-1.7083 1.4875-2.25 2.5875-.8125 2.3417-.8125 3.725.2708 2.625.8125 3.725 1.2917 1.9625 2.25 2.5875 2.0375.9375 3.2375.9375c1.1 0 2.0917-.2292 2.975-.6875.8917-.4583 1.5958-1.0917 2.1125-1.9.5167-.8167.7833-1.7292.8-2.7375v-.15h-4.625v-1.8h6.725v1.2c0 1.475-.35 2.8125-1.05 4.0125-.6917 1.2-1.6458 2.1458-2.8625 2.8375-1.2167.6833-2.575 1.025-4.075 1.025z"/><path d="m39.7475 38.8h-2v-12.8h2zm-2.075-15.125v-2.375h2.15v2.375z"/><path d="m47.4111 38.8c-.9416 0-1.6791-.2458-2.2125-.7375-.525-.4917-.7875-1.1708-.7875-2.0375l-.0125-8.25h-2.3l.0125-1.775h1.4375c.3584 0 .6125-.0792.7625-.2375.1584-.1583.2375-.4125.2375-.7625v-2.2h1.8625v3.2h3.0125l-.0125 1.775h-3.0125l.0125 8.125c0 .35.1.625.3.825s.475.3.825.3h1.875v1.775z"/><path d="m24.125 53.7c.9583 0 1.7958.2083 2.5125.625.7167.4083 1.2667.9917 1.65 1.75.3917.7583.5875 1.6417.5875 2.65v8.075h-2v-7.9875c0-1.075-.275-1.9125-.825-2.5125-.5417-.6-1.3042-.9-2.2875-.9-.7417 0-1.3875.1708-1.9375.5125-.55.3333-.975.8125-1.275 1.4375-.3.6167-.45 1.3458-.45 2.1875v7.2625h-2v-17.5h2v4.1125l-.075 2.5375c.4-.7333.9458-1.2917 1.6375-1.675.7-.3833 1.5208-.575 2.4625-.575z"/><path d="m37.9848 67.1c-1.2167 0-2.3209-.2875-3.3125-.8625-.9834-.5833-1.7584-1.3833-2.325-2.4-.5667-1.0167-.85-2.1625-.85-3.4375s.2833-2.4208.85-3.4375c.575-1.0167 1.3583-1.8125 2.35-2.3875.9916-.5833 2.0958-.875 3.3125-.875 1.2166 0 2.3208.2917 3.3125.875.9916.575 1.7708 1.3708 2.3375 2.3875.575 1.0167.8625 2.1625.8625 3.4375s-.2875 2.4208-.8625 3.4375c-.5667 1.0167-1.35 1.8167-2.35 2.4-.9917.575-2.1.8625-3.325.8625zm.025-1.775c.8333 0 1.5833-.2083 2.25-.625.675-.4167 1.2041-.9958 1.5875-1.7375.3833-.75.575-1.6042.575-2.5625s-.1917-1.8083-.575-2.55c-.3834-.75-.9125-1.3333-1.5875-1.75-.6667-.4167-1.4167-.625-2.25-.625-.8334 0-1.5875.2083-2.2625.625-.6667.4167-1.1917 1-1.575 1.75-.3834.7417-.575 1.5917-.575 2.55s.1916 1.8125.575 2.5625c.3833.7417.9083 1.3208 1.575 1.7375.675.4167 1.4291.625 2.2625.625z"/><path d="m51.5215 67.1c-1.05 0-1.9667-.1667-2.75-.5-.775-.3333-1.3792-.8-1.8125-1.4-.425-.6-.6417-1.2917-.65-2.075h2c.0166.45.1625.8542.4375 1.2125s.6458.6375 1.1125.8375c.4667.1917 1 .2875 1.6.2875.5833 0 1.0958-.0917 1.5375-.275.45-.1833.7958-.4458 1.0375-.7875s.3625-.7333.3625-1.175c0-.5083-.1708-.9333-.5125-1.275-.3417-.35-.8167-.5792-1.425-.6875l-2.125-.3625c-1.125-.1917-2.0042-.6042-2.6375-1.2375s-.95-1.4208-.95-2.3625c0-.7167.1833-1.3458.55-1.8875.375-.55.9083-.9708 1.6-1.2625.6917-.3 1.5-.45 2.425-.45.9583 0 1.7958.1583 2.5125.475.7167.3083 1.2708.7458 1.6625 1.3125.3916.5583.5958 1.2042.6125 1.9375h-2c-.0083-.4083-.1292-.7708-.3625-1.0875s-.5583-.5625-.975-.7375-.9-.2625-1.45-.2625c-.4917 0-.9417.0792-1.35.2375s-.7292.3833-.9625.675-.35.625-.35 1c0 .4583.1625.85.4875 1.175.325.3167.7667.525 1.325.625l2.2.3875c1.175.2083 2.075.6333 2.7 1.275.6333.6417.95 1.4625.95 2.4625 0 .7833-.1958 1.4708-.5875 2.0625s-.95 1.05-1.675 1.375c-.7167.325-1.5625.4875-2.5375.4875z"/><path d="m63.1523 66.8c-.9416 0-1.6791-.2458-2.2125-.7375-.525-.4917-.7875-1.1708-.7875-2.0375l-.0125-8.25h-2.3l.0125-1.775h1.4375c.3584 0 .6125-.0792.7625-.2375.1584-.1583.2375-.4125.2375-.7625v-2.2h1.8625v3.2h3.0125l-.0125 1.775h-3.0125l.0125 8.125c0 .35.1.625.3.825s.475.3.825.3h1.875v1.775z"/><path d="m70.0766 66.8h-2v-12.8h2zm-2.075-15.125v-2.375h2.15v2.375z"/><path d="m80.0527 53.7c.9584 0 1.7959.2083 2.5125.625.7167.4083 1.2667.9917 1.65 1.75.3917.7583.5875 1.6417.5875 2.65v8.075h-2v-7.9875c0-1.075-.275-1.9125-.825-2.5125-.5416-.6-1.3041-.9-2.2875-.9-.7416 0-1.3875.1708-1.9375.5125-.55.3333-.975.8125-1.275 1.4375-.3.6167-.45 1.3458-.45 2.1875v7.2625h-2v-12.8h1.925v1.8375c.425-.6917.9875-1.2208 1.6875-1.5875s1.5042-.55 2.4125-.55z"/><path d="m97.525 54h1.925l-.025 12.1125c0 .9833-.2417 1.85-.725 2.6-.475.7583-1.1458 1.3458-2.0125 1.7625-.8583.4167-1.8458.625-2.9625.625-1 0-1.9042-.1625-2.7125-.4875-.8-.325-1.4458-.7792-1.9375-1.3625s-.7792-1.2542-.8625-2.0125h2c.1417.65.5333 1.1708 1.175 1.5625s1.4333.5875 2.375.5875c.7333 0 1.375-.1375 1.925-.4125.5583-.2667.9875-.6458 1.2875-1.1375s.45-1.0667.45-1.725v-1.2125l.0375-1.2375c-.4833.6833-1.0958 1.2125-1.8375 1.5875-.7333.3667-1.5542.55-2.4625.55-1.075 0-2.0375-.2542-2.8875-.7625-.85-.5167-1.5125-1.2333-1.9875-2.15s-.7125-1.9542-.7125-3.1125.2375-2.1958.7125-3.1125 1.1375-1.6292 1.9875-2.1375c.85-.5167 1.8125-.775 2.8875-.775.925 0 1.7625.1958 2.5125.5875.75.3833 1.3667.9333 1.85 1.65zm-4 10.05c.7667 0 1.4458-.1792 2.0375-.5375s1.0542-.8583 1.3875-1.5c.3333-.65.5-1.3958.5-2.2375s-.1667-1.5833-.5-2.225c-.3333-.65-.7958-1.1542-1.3875-1.5125s-1.2708-.5375-2.0375-.5375c-.7583 0-1.4292.1792-2.0125.5375s-1.0375.8625-1.3625 1.5125c-.3167.6417-.475 1.3833-.475 2.225s.1583 1.5875.475 2.2375c.325.6417.7792 1.1417 1.3625 1.5s1.2542.5375 2.0125.5375z"/></g><path clip-rule="evenodd" d="m49.4366 157.943h-49.43659956l-.00000044 10h151.564v-10h-87.9853l30.8884-30.888h25.8999v-10h-30.042z" fill="#fff" fill-opacity=".5" fill-rule="evenodd"/><path d="m52.8893 175.708c6.8899 0 12.4752-5.585 12.4752-12.475s-5.5853-12.475-12.4752-12.475-12.4752 5.585-12.4752 12.475 5.5853 12.475 12.4752 12.475z" fill="#05aa72"/><path d="m52.8893 175.708c6.8899 0 12.4752-5.585 12.4752-12.475s-5.5853-12.475-12.4752-12.475-12.4752 5.585-12.4752 12.475 5.5853 12.475 12.4752 12.475z" fill="#fff"/><path d="m91.1432 133.95c6.8899 0 12.4748-5.585 12.4748-12.475s-5.5849-12.475-12.4748-12.475-12.4752 5.585-12.4752 12.475 5.5853 12.475 12.4752 12.475z" fill="#fff"/><path clip-rule="evenodd" d="m120.672 121.475c0-6.475 5.249-11.725 11.725-11.725s11.725 5.25 11.725 11.725c0 6.476-5.249 11.725-11.725 11.725s-11.725-5.249-11.725-11.725zm11.725-13.225c-7.304 0-13.225 5.921-13.225 13.225s5.921 13.225 13.225 13.225 13.225-5.921 13.225-13.225-5.921-13.225-13.225-13.225z" fill="#0c0c0d" fill-rule="evenodd"/><path clip-rule="evenodd" d="m152.012 163.233c0-6.476 5.249-11.725 11.725-11.725s11.725 5.249 11.725 11.725-5.249 11.725-11.725 11.725-11.725-5.249-11.725-11.725zm11.725-13.225c-7.304 0-13.225 5.921-13.225 13.225s5.921 13.225 13.225 13.225 13.225-5.921 13.225-13.225-5.921-13.225-13.225-13.225z" fill="#fff" fill-rule="evenodd"/></g></svg>