<svg fill="none" height="202" viewBox="0 0 202 202" width="202" xmlns="http://www.w3.org/2000/svg" xmlns:xlink="http://www.w3.org/1999/xlink"><radialGradient id="a" cx="0" cy="0" gradientTransform="matrix(-37.23311291 351.38789297 -494.38637218 -52.38525284 42.5277 62.1653)" gradientUnits="userSpaceOnUse" r="1"><stop offset="0" stop-color="#00e383"/><stop offset=".687112" stop-color="#0aa78b" stop-opacity=".65"/></radialGradient><clipPath id="b"><rect height="202" rx="4" width="202"/></clipPath><g clip-path="url(#b)"><rect fill="url(#a)" height="202" rx="4" width="202"/><path d="m107.177 84.5486-5.31-52.649c-.121-1.1995-1.8694-1.1995-1.9904 0l-5.3109 52.649c-.1023 1.0136-1.4776 1.2431-1.9034.3176l-22.1183-48.0718c-.504-1.0952-2.1571-.5277-1.8821.6461l12.0719 51.5208c.2324.9919-.9939 1.6555-1.6971.9184l-36.5288-38.2854c-.8322-.8722-2.2116.2013-1.5703 1.2223l28.1466 44.8094c.5419.8627-.4025 1.8886-1.307 1.4198l-46.9807-24.3501c-1.0704-.5548-2.0264.9085-1.0884 1.6658l20.5855 16.6212 4.6216-2.4742c2.6365.9337 4.7901 1.8971 6.6602 5.6375 1.4735 0 4.7038.9067 6.8574 3.6836l6.6313 13.8204s3.4357-2.323 7.9631 8.344 12.2946 22.922 17.818 34.487c5.5234 11.564 4.053 34.204 4.053 34.204l5.0085-18.391c.2673-.983 1.6623-.983 1.9293 0l8.1 29.746h6.151l-1.414-30.293c0-.808.484-5.304 1.625-10.456 1.141-5.153 13.839-27.401 20.32-42.236 2.344-4.001 4.246-6.164 6.096-7.132-2.25.795-2.643-1.679-1.85-2.319l7.419-5.99 5.405-8.3541s2.514-1.2168 5.435-.4867c3.244-5.8119 7.761-6.1783 7.761-6.1783l15.151-12.2334c.938-.7573-.018-2.2206-1.088-1.6658l-46.981 24.3501c-.905.4688-1.849-.5571-1.307-1.4198l28.147-44.8094c.641-1.0209-.739-2.0945-1.571-1.2223l-36.529 38.2854c-.703.7371-1.929.0735-1.697-.9184l12.072-51.5208c.275-1.1738-1.378-1.7413-1.882-.6461l-22.118 48.0718c-.426.9255-1.801.696-1.904-.3176z" fill="#fff" fill-opacity=".5"/><path d="m7.76239 103.595c-1.19251-.177-1.6216 1.517-.4885 1.929l30.68911 11.152-1.213-8.774z" fill="#fff" fill-opacity=".5"/><path d="m4.81813 135.161c-1.18543.219-1.04109 1.961.16432 1.983l25.34045.452s2.1367-5.059 8.8486.159c1.1221.915 1.6838.03 1.6838.03l-.9411-9.127z" fill="#fff" fill-opacity=".5"/><path d="m12.2827 165.972c-1.0498.593-.3477 2.193.7994 1.822l24.3033-7.861-1.5562-7.253z" fill="#fff" fill-opacity=".5"/><path d="m29.3474 192.69c-.8006.902.3832 2.188 1.3477 1.464l13.4151-10.062-2.254-5.487z" fill="#fff" fill-opacity=".5"/><path d="m171.048 194.154c.964.724 2.148-.562 1.348-1.464l-7.138-8.037v5.158z" fill="#fff" fill-opacity=".5"/><path d="m188.661 167.794c1.147.371 1.849-1.229.799-1.822l-16.459-9.291-1.092 5.695z" fill="#fff" fill-opacity=".5"/><path d="m196.761 137.144c1.205-.022 1.349-1.764.164-1.983l-26.999-5.003-.871 7.481s5.964-4.598 8.235-4.331c2.27.268 2.27 4.143 2.27 4.143z" fill="#fff" fill-opacity=".5"/><path d="m194.469 105.524c1.133-.412.704-2.106-.488-1.929l-20.487 3.044-1.312 6.984z" fill="#fff" fill-opacity=".5"/><path d="m52.5833 96.2608c-1.3916-3.2068-4.6619-6.4095-8.4221-5.9711-3.3722.3931-5.7744 3.0543-5.278 6.3898.2594 1.7431.7572 3.4375.99 5.1875-1.55.52-3.6248 2.087-3.6248 5.109 0 4.604 1.1563 9.353 1.8049 13.905.6631 4.655 1.432 10.053 2.1672 15.533.0408.304.0815.609.1221.913-2.1399-2.487-5.3585-3.373-7.7831-2.933-2.5608.464-3.7719 2.552-3.0841 5.019 1.5507 5.561 4.7851 10.288 5.899 16.143 3.5076 18.438 4.6224 22.011 7.9644 29.678.4415 1.013.6576 2.539.6409 4.498-.0165 1.942-.2602 4.238-.6826 6.743-.2974 1.764-.6821 3.624-1.1348 5.526h1.5413c.4245-1.812.7875-3.586 1.0726-5.276.4304-2.553.6861-4.932.7035-6.98.0172-2.03-.1982-3.808-.7658-5.111-3.2748-7.512-4.365-10.955-7.866-29.358-1.1215-5.896-4.3676-10.671-5.9276-16.266-.4555-1.634.1995-2.831 1.9068-3.14 4.0665-.738 7.6352 2.712 8.1589 6.578.0083.062.0238.12.0456.175.6172 4.876 1.1646 9.613 1.5421 13.738.3575 3.906 1.1437 8.447.3084 12.345-.0869.405.1711.803.5761.89s.8037-.171.8905-.576c.8691-4.055.0909-8.73-.2813-12.796-.5397-5.897-1.4232-13.025-2.3602-20.01-.7361-5.487-1.5061-10.892-2.1694-15.548l-.0037-.026c-.637-4.471-1.7857-9.143-1.7857-13.664 0-2.204 1.399-3.221 2.4289-3.624 1.3004 6.156 2.0442 12.407 2.7322 18.655l.0002.002c.366 3.323.866 6.575 1.4837 9.857 1.0175 5.406 2.7675 14.703 3.6554 17.81.1138.399.5289.629.9272.515.3983-.113.6289-.528.5151-.927-.8658-3.03-2.5797-12.134-3.6008-17.557l-.0002-.001c-.6116-3.249-1.115-6.464-1.4772-9.754-.7388-6.711-1.5379-13.429-3.0105-20.026-.005-.023-.0108-.044-.0176-.066-.229-1.825-.7479-3.5865-1.018-5.4012-.3728-2.5053 1.4189-4.382 3.9681-4.6792 2.9778-.3472 5.5498 2.3099 6.7307 4.7684-1.6241.4725-2.6108 2.1238-2.7804 3.747-.1535 1.469.1923 3.165.6821 4.888.9978 3.511 2.6107 6.98 2.8614 10.657.1914 2.807 1.153 8.355 2.2636 14.1 1.1143 5.764 2.39 11.784 3.225 15.568.0893.405.4895.66.894.571s.66-.489.5708-.894c-.8329-3.774-2.1058-9.781-3.2171-15.53-1.115-5.768-2.0559-11.22-2.2398-13.917-.2587-3.795-1.8858-7.344-2.9151-10.965-.4825-1.697-.7548-3.158-.633-4.323.1134-1.085.561-1.8867 1.5647-2.4187 3.2688-1.0217 5.5463 1.1362 7.1468 3.7677 2.2347 3.674 3.6351 7.852 5.4574 11.736-1.8187.812-2.8433 2.359-2.6706 4.342.0846.972.3694 2.222.837 3.901.4699 1.686 1.1388 3.853 2.0109 6.671 2.731 8.825 4.4975 18.283 5.0067 21.732.0605.41.4417.693.8515.633.4097-.061.6929-.442.6324-.852-.5174-3.505-2.2986-13.041-5.0577-21.956-.8743-2.825-1.5359-4.969-1.9989-6.631-.4653-1.67-.716-2.806-.7876-3.628-.2804-3.222 3.0111-3.727 5.245-1.406 1.8024 1.872 3.9596 5.475 6.4244 11.484 2.042 4.979 5.9036 10.87 9.6264 17.23 3.7509 6.409 7.41 13.366 9.1968 20.632 1.1553 4.698 1.2597 12.4.7875 21.054-.2696 4.941-.7251 10.163-1.2688 15.263h1.5085c.5384-5.07.9896-10.261 1.2581-15.181.472-8.65.3857-16.556-.8287-21.494-1.8415-7.489-5.5958-14.602-9.3589-21.032-3.7911-6.477-7.5444-12.193-9.5331-17.041-2.4824-6.052-4.7261-9.872-6.7315-11.956-.9574-.994-2.1896-1.957-3.6223-2.044-1.9218-4.038-3.375-8.409-5.7029-12.237-1.5798-2.5969-3.9091-5.0258-7.1869-4.7582z" fill="#0c0c0d"/><path clip-rule="evenodd" d="m158.734 94.4595c.914-2.1824 2.269-4.4266 4.135-5.5239 3.862-2.271 8.89 1.5186 8.245 5.851-.256 1.719-.746 3.3901-.98 5.1152.614.4862 1.39.7042 1.991 1.2672 2.271 2.131 1.549 5.262 1.191 7.99-1.195 9.105-2.593 18.182-3.796 27.286 1.702-1.95 3.379-3.156 4.923-3.75 2.537-.976 4.785-.289 5.849 1.569 1.277 2.228-.389 4.996-1.352 7.012l-.023.048c-1.388 2.903-3.236 6.768-4.294 12.33-3.508 18.438-4.623 22.01-7.965 29.677-.419.962-.563 2.534-.418 4.634.327 4.718 1.416 9.43 2.822 14.04h-1.564c-1.374-4.579-2.43-9.254-2.754-13.937-.149-2.148-.032-4.027.539-5.336 3.275-7.513 4.365-10.956 7.866-29.359 1.095-5.753 3.011-9.76 4.407-12.681l.009-.019c.693-1.449 2.378-4.001 1.426-5.664-.612-1.067-1.991-1.691-4.009-.914-2.053.79-4.683 3.034-7.336 7.626-2.678 4.634-4.304 7.441-6.028 9.355-1.774 1.968-3.638 2.98-6.694 4.139-4.722 1.791-12.387 6.205-16.727 13.573-.211.357-.67.476-1.027.265-.357-.21-.476-.67-.266-1.027 4.577-7.769 12.588-12.355 17.488-14.214 2.958-1.122 4.568-2.028 6.111-3.741 1.594-1.767 3.13-4.403 5.844-9.101.439-.76 1.284-1.637 1.394-2.485 1.275-9.853 2.795-19.671 4.088-29.521.282-2.145 1.087-4.996-.73-6.701-1.183-1.109-2.741-1.419-4.025-.372-.829.677-1.641 1.865-2.259 3.685-1.717 5.053-2.678 10.358-4.353 15.427-.085.259-.177.535-.274.826-1.086 3.268-2.847 8.561-4.028 14.452-.081.406-.477.669-.883.588-.406-.082-.669-.477-.588-.883 1.2-5.986 2.988-11.361 4.075-14.627.097-.293.189-.569.274-.826 1.677-5.076 2.638-10.381 4.357-15.439.676-1.992 1.617-3.457 2.731-4.365.782-.638 1.644-.9947 2.525-1.0592.237-1.7211.724-3.389.979-5.1039.462-3.1063-3.185-5.9932-6.001-4.3373-1.429.8403-2.626 2.6965-3.512 4.8106-2.858 6.8218-4.858 13.9948-7.983 20.7068-2.502 5.374-3.959 9.886-5.204 13.743-.586 1.816-1.126 3.487-1.705 5.035-.146.387-.578.584-.966.439s-.584-.578-.439-.966c.541-1.445 1.063-3.06 1.639-4.841 1.259-3.897 2.776-8.59 5.315-14.043 2.901-6.231 4.813-12.869 7.378-19.2357-3.075-.6762-5.097 1.7753-6.467 4.1927-2.299 4.059-3.69 8.613-5.718 12.807-2.925 8.202-4.82 12.434-6.566 16.332-.571 1.275-1.127 2.515-1.697 3.846-.163.381-.604.557-.984.394-.381-.163-.558-.604-.395-.984.58-1.355 1.141-2.607 1.716-3.89 1.7-3.797 3.521-7.862 6.309-15.63-1.317-.707-2.716.676-3.512 1.57-1.776 1.996-3.899 5.726-6.366 11.739-2.036 4.965-5.658 10.884-9.155 17.286-3.521 6.445-6.959 13.447-8.749 20.726-1.18 4.8-1.342 12.532-.988 21.39.208 5.223.594 10.805 1.044 16.357h-1.505c-.447-5.526-.83-11.087-1.038-16.297-.353-8.849-.206-16.778 1.031-21.808 1.838-7.476 5.354-14.618 8.888-21.087 3.09-5.656 6.637-11.168 9.085-17.136 2.48-6.047 4.68-9.974 6.633-12.167 1.276-1.434 3.23-2.918 5.215-1.959 1.884-4.028 3.251-8.352 5.447-12.2286 1.767-3.1178 4.483-5.8428 8.348-4.8575z" fill="#fff" fill-rule="evenodd"/><g fill="#0c0c0d"><path d="m25.775 39.1c-1.575 0-3.0042-.3917-4.2875-1.175-1.275-.7917-2.2792-1.875-3.0125-3.25-.7333-1.3833-1.1-2.925-1.1-4.625s.3667-3.2375 1.1-4.6125c.7333-1.3833 1.7375-2.4667 3.0125-3.25 1.2833-.7917 2.7125-1.1875 4.2875-1.1875 1.325 0 2.5583.2833 3.7.85 1.15.5583 2.0917 1.3292 2.825 2.3125s1.175 2.0792 1.325 3.2875h-2.05c-.15-.8833-.5-1.6792-1.05-2.3875s-1.2417-1.2625-2.075-1.6625-1.725-.6-2.675-.6c-1.2 0-2.2792.3125-3.2375.9375s-1.7083 1.4875-2.25 2.5875-.8125 2.3417-.8125 3.725.2708 2.625.8125 3.725 1.2917 1.9625 2.25 2.5875 2.0375.9375 3.2375.9375c1.1 0 2.0917-.2292 2.975-.6875.8917-.4583 1.5958-1.0917 2.1125-1.9.5167-.8167.7833-1.7292.8-2.7375v-.15h-4.625v-1.8h6.725v1.2c0 1.475-.35 2.8125-1.05 4.0125-.6917 1.2-1.6458 2.1458-2.8625 2.8375-1.2167.6833-2.575 1.025-4.075 1.025z"/><path d="m46.2475 26h2v12.8h-1.925v-1.8375c-.425.6917-.9875 1.2208-1.6875 1.5875s-1.5042.55-2.4125.55c-.9584 0-1.7959-.2042-2.5125-.6125-.7167-.4167-1.2709-1.0042-1.6625-1.7625-.3834-.7583-.575-1.6417-.575-2.65v-8.075h2v7.9875c0 1.075.2708 1.9125.8125 2.5125.55.6 1.3166.9 2.3.9.7416 0 1.3875-.1667 1.9375-.5.55-.3417.975-.8208 1.275-1.4375.3-.625.45-1.3583.45-2.2z"/><path d="m63.4947 32.875h-10.3c.0667.8917.2917 1.675.675 2.35.3834.675.8917 1.2 1.525 1.575.6417.3667 1.3667.55 2.175.55.5417 0 1.0625-.0833 1.5625-.25.5-.175.9292-.4125 1.2875-.7125.3584-.3.6042-.6375.7375-1.0125h2c-.1416.7-.4875 1.3333-1.0375 1.9s-1.2375 1.0125-2.0625 1.3375c-.8166.325-1.6875.4875-2.6125.4875-1.1833 0-2.2541-.2917-3.2125-.875-.9583-.5833-1.7125-1.3833-2.2625-2.4-.55-1.025-.825-2.1667-.825-3.425s.275-2.3958.825-3.4125c.55-1.025 1.3042-1.8292 2.2625-2.4125.9584-.5833 2.0292-.875 3.2125-.875 1.1667 0 2.2084.2875 3.125.8625.9167.5667 1.6334 1.3583 2.15 2.375.5167 1.0167.775 2.1708.775 3.4625zm-6.05-5.4375c-1.1333 0-2.0708.3417-2.8125 1.025-.7333.675-1.1916 1.6042-1.375 2.7875h8.1625c-.1666-1.2083-.5958-2.1458-1.2875-2.8125-.6833-.6667-1.5791-1-2.6875-1z"/><path d="m70.4854 39.1c-1.05 0-1.9667-.1667-2.75-.5-.775-.3333-1.3792-.8-1.8125-1.4-.425-.6-.6417-1.2917-.65-2.075h2c.0166.45.1625.8542.4375 1.2125s.6458.6375 1.1125.8375c.4666.1917 1 .2875 1.6.2875.5833 0 1.0958-.0917 1.5375-.275.45-.1833.7958-.4458 1.0375-.7875.2416-.3417.3625-.7333.3625-1.175 0-.5083-.1709-.9333-.5125-1.275-.3417-.35-.8167-.5792-1.425-.6875l-2.125-.3625c-1.125-.1917-2.0042-.6042-2.6375-1.2375-.6334-.6333-.95-1.4208-.95-2.3625 0-.7167.1833-1.3458.55-1.8875.375-.55.9083-.9708 1.6-1.2625.6916-.3 1.5-.45 2.425-.45.9583 0 1.7958.1583 2.5125.475.7166.3083 1.2708.7458 1.6625 1.3125.3916.5583.5958 1.2042.6125 1.9375h-2c-.0084-.4083-.1292-.7708-.3625-1.0875-.2334-.3167-.5584-.5625-.975-.7375-.4167-.175-.9-.2625-1.45-.2625-.4917 0-.9417.0792-1.35.2375-.4084.1583-.7292.3833-.9625.675-.2334.2917-.35.625-.35 1 0 .4583.1625.85.4875 1.175.325.3167.7666.525 1.325.625l2.2.3875c1.175.2083 2.075.6333 2.7 1.275.6333.6417.95 1.4625.95 2.4625 0 .7833-.1959 1.4708-.5875 2.0625-.3917.5917-.95 1.05-1.675 1.375-.7167.325-1.5625.4875-2.5375.4875z"/><path d="m82.1162 38.8c-.9417 0-1.6792-.2458-2.2125-.7375-.525-.4917-.7875-1.1708-.7875-2.0375l-.0125-8.25h-2.3l.0125-1.775h1.4375c.3583 0 .6125-.0792.7625-.2375.1583-.1583.2375-.4125.2375-.7625v-2.2h1.8625v3.2h3.0125l-.0125 1.775h-3.0125l.0125 8.125c0 .35.1.625.3.825s.475.3.825.3h1.875v1.775z"/><path d="m101.467 26h2v12.8h-1.925v-1.8375c-.425.6917-.987 1.2208-1.6873 1.5875-.7.3667-1.5042.55-2.4125.55-.9583 0-1.7958-.2042-2.5125-.6125-.7167-.4167-1.2708-1.0042-1.6625-1.7625-.3833-.7583-.575-1.6417-.575-2.65v-8.075h2v7.9875c0 1.075.2708 1.9125.8125 2.5125.55.6 1.3167.9 2.3.9.7417 0 1.3875-.1667 1.9375-.5.5498-.3417.9748-.8208 1.2748-1.4375.3-.625.45-1.3583.45-2.2z"/><path d="m111.502 39.1c-1.05 0-1.967-.1667-2.75-.5-.775-.3333-1.379-.8-1.813-1.4-.425-.6-.641-1.2917-.65-2.075h2c.017.45.163.8542.438 1.2125s.646.6375 1.112.8375c.467.1917 1 .2875 1.6.2875.584 0 1.096-.0917 1.538-.275.45-.1833.796-.4458 1.037-.7875.242-.3417.363-.7333.363-1.175 0-.5083-.171-.9333-.513-1.275-.341-.35-.816-.5792-1.425-.6875l-2.125-.3625c-1.125-.1917-2.004-.6042-2.637-1.2375s-.95-1.4208-.95-2.3625c0-.7167.183-1.3458.55-1.8875.375-.55.908-.9708 1.6-1.2625.692-.3 1.5-.45 2.425-.45.958 0 1.796.1583 2.512.475.717.3083 1.271.7458 1.663 1.3125.392.5583.596 1.2042.612 1.9375h-2c-.008-.4083-.129-.7708-.362-1.0875s-.558-.5625-.975-.7375-.9-.2625-1.45-.2625c-.492 0-.942.0792-1.35.2375s-.729.3833-.963.675c-.233.2917-.35.625-.35 1 0 .4583.163.85.488 1.175.325.3167.767.525 1.325.625l2.2.3875c1.175.2083 2.075.6333 2.7 1.275.633.6417.95 1.4625.95 2.4625 0 .7833-.196 1.4708-.588 2.0625-.391.5917-.95 1.05-1.675 1.375-.716.325-1.562.4875-2.537.4875z"/><path d="m130.72 32.875h-10.3c.067.8917.292 1.675.675 2.35.384.675.892 1.2 1.525 1.575.642.3667 1.367.55 2.175.55.542 0 1.063-.0833 1.563-.25.5-.175.929-.4125 1.287-.7125.359-.3.604-.6375.738-1.0125h2c-.142.7-.488 1.3333-1.038 1.9s-1.237 1.0125-2.062 1.3375c-.817.325-1.688.4875-2.613.4875-1.183 0-2.254-.2917-3.212-.875-.959-.5833-1.713-1.3833-2.263-2.4-.55-1.025-.825-2.1667-.825-3.425s.275-2.3958.825-3.4125c.55-1.025 1.304-1.8292 2.263-2.4125.958-.5833 2.029-.875 3.212-.875 1.167 0 2.209.2875 3.125.8625.917.5667 1.634 1.3583 2.15 2.375.517 1.0167.775 2.1708.775 3.4625zm-6.05-5.4375c-1.133 0-2.071.3417-2.812 1.025-.734.675-1.192 1.6042-1.375 2.7875h8.162c-.166-1.2083-.596-2.1458-1.287-2.8125-.684-.6667-1.579-1-2.688-1z"/><path d="m139.873 25.875v2h-.462c-.775 0-1.446.1583-2.013.475-.566.3167-1.004.7792-1.312 1.3875-.308.6-.463 1.3208-.463 2.1625v6.9h-2v-12.8h2v2.375c.384-.8083.9-1.425 1.55-1.85.659-.4333 1.43-.65 2.313-.65z"/><path d="m146.25 39.1c-1.05 0-1.967-.1667-2.75-.5-.775-.3333-1.379-.8-1.812-1.4-.426-.6-.642-1.2917-.651-2.075h2c.017.45.163.8542.438 1.2125s.646.6375 1.112.8375c.467.1917 1.001.2875 1.601.2875.583 0 1.095-.0917 1.537-.275.45-.1833.796-.4458 1.037-.7875.242-.3417.363-.7333.363-1.175 0-.5083-.171-.9333-.512-1.275-.342-.35-.817-.5792-1.425-.6875l-2.126-.3625c-1.124-.1917-2.004-.6042-2.637-1.2375s-.95-1.4208-.95-2.3625c0-.7167.183-1.3458.55-1.8875.375-.55.908-.9708 1.6-1.2625.692-.3 1.5-.45 2.425-.45.958 0 1.796.1583 2.512.475.717.3083 1.271.7458 1.663 1.3125.392.5583.596 1.2042.612 1.9375h-2c-.008-.4083-.129-.7708-.362-1.0875s-.558-.5625-.975-.7375-.9-.2625-1.45-.2625c-.492 0-.942.0792-1.35.2375s-.729.3833-.962.675c-.234.2917-.351.625-.351 1 0 .4583.163.85.488 1.175.325.3167.767.525 1.325.625l2.2.3875c1.175.2083 2.075.6333 2.7 1.275.633.6417.95 1.4625.95 2.4625 0 .7833-.196 1.4708-.588 2.0625-.391.5917-.949 1.05-1.674 1.375-.717.325-1.563.4875-2.538.4875z"/></g></g></svg>