<svg fill="none" height="202" viewBox="0 0 202 202" width="202" xmlns="http://www.w3.org/2000/svg" xmlns:xlink="http://www.w3.org/1999/xlink"><radialGradient id="a" cx="0" cy="0" gradientTransform="matrix(-37.23311291 351.38789297 -494.38637218 -52.38525284 42.5277 62.1653)" gradientUnits="userSpaceOnUse" r="1"><stop offset="0" stop-color="#00e383"/><stop offset=".687112" stop-color="#0aa78b" stop-opacity=".65"/></radialGradient><clipPath id="b"><rect height="202" rx="4" width="202"/></clipPath><g clip-path="url(#b)"><rect fill="url(#a)" height="202" rx="4" width="202"/><g opacity=".8"><path d="m178.835 143.68h.165c-3.528 20.881-16.604 41.197-30.593 58.329h-78.0033c-1.7587-5.444-3.2686-11.135-4.5287-16.705h42.407v-90.304h-39.6631l-1.4649-.0376c2.8947-11.2577 6.8367-22.2996 11.8356-32.9624h.0114s61.998 22 99.834 81.68z" fill="#fff" opacity=".5"/><path d="m178.814 143.25h23.175l.024-49.0527c-35.622-24.501-79.046-36.3878-123.3411-32.4584 0 0 60.3441 21.5987 100.1421 81.5111z" fill="#fff" opacity=".2"/><path d="m202.013 143.25h-22.847c-3.604 21.204-16.387 41.626-30.818 58.773l53.665-.284z" fill="#000" opacity=".2"/></g><path d="m17.75 184.554v-88.804h89.784v88.804z" stroke="#0c0c0d" stroke-width="1.5"/><path d="m62.6416 168.242h-34.2314v5.644h34.2314z" fill="#fff"/><path d="m45.4 112.303v-6.208h-17.0523v6.208h4.8177v21.385h-4.8177v6.146h17.0523v-6.146h-4.7544v-21.385z" fill="#fff"/><path d="m61.8132 140.335c-2.6625 0-4.8812-.501-6.7195-1.505-1.775-1.003-3.2964-2.195-4.4375-3.574l4.7544-5.205c.9509 1.066 1.9652 1.881 2.916 2.508 1.0143.564 2.0919.878 3.2964.878 1.458 0 2.5356-.439 3.3597-1.317s1.2045-2.32 1.2045-4.264v-21.761h7.6703v22.074c0 2.007-.2535 3.763-.824 5.268-.5706 1.505-1.3313 2.759-2.4089 3.763-1.0143 1.003-2.2821 1.818-3.8035 2.32-1.5214.564-3.1696.815-5.0079.815z" fill="#fff"/><g fill="#0c0c0d"><path d="m20.6609 38.5h-2.075v-17.5h2.075z"/><path d="m25.5869 38.5v-17.5h6.2c1.6417 0 3.0958.3708 4.3625 1.1125 1.275.7333 2.2667 1.7625 2.975 3.0875.7084 1.325 1.0625 2.8417 1.0625 4.55s-.3541 3.225-1.0625 4.55c-.7083 1.325-1.7 2.3583-2.975 3.1-1.2667.7333-2.7208 1.1-4.3625 1.1zm6.2-1.825c1.2583 0 2.3583-.2833 3.3-.85.9417-.575 1.6667-1.3833 2.175-2.425.5167-1.0417.775-2.2583.775-3.65 0-1.3833-.2583-2.5917-.775-3.625-.5083-1.0333-1.2333-1.8333-2.175-2.4s-2.0417-.85-3.3-.85h-4.125v13.8z"/><path d="m43.8916 38.5h12.225v-1.875h-10.2v-6.0125h9.1v-1.875h-9.1v-5.8625h9.95v-1.875h-11.975z"/><path d="m71.9275 25.4c1.1667 0 2.2167.2875 3.15.8625.9334.5667 1.6667 1.3625 2.2 2.3875.5334 1.0167.8 2.1667.8 3.45s-.2666 2.4375-.8 3.4625c-.5333 1.0167-1.2666 1.8125-2.2 2.3875-.9333.5667-1.9833.85-3.15.85-.9666 0-1.85-.2125-2.65-.6375s-1.4625-1.025-1.9875-1.8l.0625 6.1625h-1.975v-4.025h-.0125v-12.8h1.925v2.15c.5167-.7833 1.175-1.3875 1.975-1.8125s1.6875-.6375 2.6625-.6375zm-.1875 11.65c.8084 0 1.5334-.2083 2.175-.625.65-.4167 1.1542-1 1.5125-1.75.3667-.75.55-1.6083.55-2.575s-.1833-1.825-.55-2.575c-.3583-.75-.8625-1.3333-1.5125-1.75-.6416-.4167-1.3666-.625-2.175-.625-.8166 0-1.5583.2083-2.225.625-.6666.4167-1.1916 1-1.575 1.75-.3833.75-.575 1.6083-.575 2.575s.1917 1.825.575 2.575c.3834.75.9084 1.3333 1.575 1.75.6667.4167 1.4084.625 2.225.625z"/><path d="m83.1062 38.5h-2v-17.5h2z"/><path d="m95.5574 25.7h2v12.8h-1.925v-1.8375c-.425.6917-.9875 1.2208-1.6875 1.5875s-1.5041.55-2.4125.55c-.9583 0-1.7958-.2042-2.5125-.6125-.7166-.4167-1.2708-1.0042-1.6625-1.7625-.3833-.7583-.575-1.6417-.575-2.65v-8.075h2v7.9875c0 1.075.2709 1.9125.8125 2.5125.55.6 1.3167.9 2.3.9.7417 0 1.3875-.1667 1.9375-.5.55-.3417.975-.8208 1.275-1.4375.3-.625.45-1.3583.45-2.2z"/><path d="m110.555 25.7h1.925l-.025 12.1125c0 .9833-.242 1.85-.725 2.6-.475.7583-1.146 1.3458-2.013 1.7625-.858.4167-1.846.625-2.962.625-1 0-1.904-.1625-2.713-.4875-.8-.325-1.446-.7792-1.937-1.3625-.492-.5833-.779-1.2542-.863-2.0125h2c.142.65.534 1.1708 1.175 1.5625.642.3917 1.434.5875 2.375.5875.734 0 1.375-.1375 1.925-.4125.559-.2667.988-.6458 1.288-1.1375s.45-1.0667.45-1.725v-1.2125l.037-1.2375c-.483.6833-1.096 1.2125-1.837 1.5875-.734.3667-1.554.55-2.463.55-1.075 0-2.037-.2542-2.887-.7625-.85-.5167-1.513-1.2333-1.988-2.15s-.712-1.9542-.712-3.1125.237-2.1958.712-3.1125 1.138-1.6292 1.988-2.1375c.85-.5167 1.812-.775 2.887-.775.925 0 1.763.1958 2.513.5875.75.3833 1.366.9333 1.85 1.65zm-4 10.05c.766 0 1.446-.1792 2.037-.5375.592-.3583 1.054-.8583 1.388-1.5.333-.65.5-1.3958.5-2.2375s-.167-1.5833-.5-2.225c-.334-.65-.796-1.1542-1.388-1.5125-.591-.3583-1.271-.5375-2.037-.5375-.759 0-1.429.1792-2.013.5375-.583.3583-1.037.8625-1.362 1.5125-.317.6417-.475 1.3833-.475 2.225s.158 1.5875.475 2.2375c.325.6417.779 1.1417 1.362 1.5.584.3583 1.254.5375 2.013.5375z"/><path d="m118.343 38.5h-2v-12.8h2zm-2.075-15.125v-2.375h2.15v2.375z"/><path d="m128.319 25.4c.958 0 1.796.2083 2.512.625.717.4083 1.267.9917 1.65 1.75.392.7583.588 1.6417.588 2.65v8.075h-2v-7.9875c0-1.075-.275-1.9125-.825-2.5125-.542-.6-1.304-.9-2.288-.9-.741 0-1.387.1708-1.937.5125-.55.3333-.975.8125-1.275 1.4375-.3.6167-.45 1.3458-.45 2.1875v7.2625h-2v-12.8h1.925v1.8375c.425-.6917.987-1.2208 1.687-1.5875s1.504-.55 2.413-.55z"/></g></g></svg>