<svg fill="none" height="202" viewBox="0 0 202 202" width="202" xmlns="http://www.w3.org/2000/svg" xmlns:xlink="http://www.w3.org/1999/xlink"><radialGradient id="a" cx="0" cy="0" gradientTransform="matrix(-37.23311291 351.38789297 -494.38637218 -52.38525284 42.5277 62.1653)" gradientUnits="userSpaceOnUse" r="1"><stop offset="0" stop-color="#00e383"/><stop offset=".687112" stop-color="#0aa78b" stop-opacity=".65"/></radialGradient><rect fill="url(#a)" height="202" rx="4" width="202"/><g fill="#0c0c0d"><path d="m20.4633 38.5h-2.075v-17.5h2.075z"/><path d="m28.9893 38.8c-1.05 0-1.9667-.1667-2.75-.5-.775-.3333-1.3792-.8-1.8125-1.4-.425-.6-.6417-1.2917-.65-2.075h2c.0166.45.1625.8542.4375 1.2125s.6458.6375 1.1125.8375c.4666.1917 1 .2875 1.6.2875.5833 0 1.0958-.0917 1.5375-.275.45-.1833.7958-.4458 1.0375-.7875.2416-.3417.3625-.7333.3625-1.175 0-.5083-.1709-.9333-.5125-1.275-.3417-.35-.8167-.5792-1.425-.6875l-2.125-.3625c-1.125-.1917-2.0042-.6042-2.6375-1.2375-.6334-.6333-.95-1.4208-.95-2.3625 0-.7167.1833-1.3458.55-1.8875.375-.55.9083-.9708 1.6-1.2625.6916-.3 1.5-.45 2.425-.45.9583 0 1.7958.1583 2.5125.475.7166.3083 1.2708.7458 1.6625 1.3125.3916.5583.5958 1.2042.6125 1.9375h-2c-.0084-.4083-.1292-.7708-.3625-1.0875-.2334-.3167-.5584-.5625-.975-.7375-.4167-.175-.9-.2625-1.45-.2625-.4917 0-.9417.0792-1.35.2375-.4084.1583-.7292.3833-.9625.675-.2334.2917-.35.625-.35 1 0 .4583.1625.85.4875 1.175.325.3167.7666.525 1.325.625l2.2.3875c1.175.2083 2.075.6333 2.7 1.275.6333.6417.95 1.4625.95 2.4625 0 .7833-.1959 1.4708-.5875 2.0625-.3917.5917-.95 1.05-1.675 1.375-.7167.325-1.5625.4875-2.5375.4875z"/><path d="m40.9951 38.8c-1.05 0-1.9666-.1667-2.75-.5-.775-.3333-1.3791-.8-1.8125-1.4-.425-.6-.6416-1.2917-.65-2.075h2c.0167.45.1625.8542.4375 1.2125s.6459.6375 1.1125.8375c.4667.1917 1 .2875 1.6.2875.5834 0 1.0959-.0917 1.5375-.275.45-.1833.7959-.4458 1.0375-.7875.2417-.3417.3625-.7333.3625-1.175 0-.5083-.1708-.9333-.5125-1.275-.3417-.35-.8166-.5792-1.425-.6875l-2.125-.3625c-1.125-.1917-2.0042-.6042-2.6375-1.2375s-.95-1.4208-.95-2.3625c0-.7167.1834-1.3458.55-1.8875.375-.55.9084-.9708 1.6-1.2625.6917-.3 1.5-.45 2.425-.45.9584 0 1.7959.1583 2.5125.475.7167.3083 1.2709.7458 1.6625 1.3125.3917.5583.5959 1.2042.6125 1.9375h-2c-.0083-.4083-.1291-.7708-.3625-1.0875-.2333-.3167-.5583-.5625-.975-.7375-.4166-.175-.9-.2625-1.45-.2625-.4916 0-.9416.0792-1.35.2375-.4083.1583-.7292.3833-.9625.675s-.35.625-.35 1c0 .4583.1625.85.4875 1.175.325.3167.7667.525 1.325.625l2.2.3875c1.175.2083 2.075.6333 2.7 1.275.6334.6417.95 1.4625.95 2.4625 0 .7833-.1958 1.4708-.5875 2.0625-.3916.5917-.95 1.05-1.675 1.375-.7166.325-1.5625.4875-2.5375.4875z"/><path d="m57.4135 25.7h2v12.8h-1.925v-1.8375c-.425.6917-.9875 1.2208-1.6875 1.5875s-1.5042.55-2.4125.55c-.9584 0-1.7959-.2042-2.5125-.6125-.7167-.4167-1.2709-1.0042-1.6625-1.7625-.3834-.7583-.575-1.6417-.575-2.65v-8.075h2v7.9875c0 1.075.2708 1.9125.8125 2.5125.55.6 1.3166.9 2.3.9.7416 0 1.3875-.1667 1.9375-.5.55-.3417.975-.8208 1.275-1.4375.3-.625.45-1.3583.45-2.2z"/><path d="m74.6607 32.575h-10.3c.0667.8917.2917 1.675.675 2.35.3834.675.8917 1.2 1.525 1.575.6417.3667 1.3667.55 2.175.55.5417 0 1.0625-.0833 1.5625-.25.5-.175.9292-.4125 1.2875-.7125.3584-.3.6042-.6375.7375-1.0125h2c-.1416.7-.4875 1.3333-1.0375 1.9s-1.2375 1.0125-2.0625 1.3375c-.8166.325-1.6875.4875-2.6125.4875-1.1833 0-2.2541-.2917-3.2125-.875-.9583-.5833-1.7125-1.3833-2.2625-2.4-.55-1.025-.825-2.1667-.825-3.425s.275-2.3958.825-3.4125c.55-1.025 1.3042-1.8292 2.2625-2.4125.9584-.5833 2.0292-.875 3.2125-.875 1.1667 0 2.2084.2875 3.125.8625.9167.5667 1.6334 1.3583 2.15 2.375.5167 1.0167.775 2.1708.775 3.4625zm-6.05-5.4375c-1.1333 0-2.0708.3417-2.8125 1.025-.7333.675-1.1916 1.6042-1.375 2.7875h8.1625c-.1666-1.2083-.5958-2.1458-1.2875-2.8125-.6833-.6667-1.5791-1-2.6875-1z"/><path d="m21.6133 66.5c-.9417 0-1.6792-.2458-2.2125-.7375-.525-.4917-.7875-1.1708-.7875-2.0375l-.0125-8.25h-2.3l.0125-1.775h1.4375c.3583 0 .6125-.0792.7625-.2375.1583-.1583.2375-.4125.2375-.7625v-2.2h1.8625v3.2h3.0125l-.0125 1.775h-3.0125l.0125 8.125c0 .35.1.625.3.825s.475.3.825.3h1.875v1.775z"/><path d="m32.7875 53.575v2h-.4625c-.775 0-1.4458.1583-2.0125.475s-1.0042.7792-1.3125 1.3875c-.3083.6-.4625 1.3208-.4625 2.1625v6.9h-2v-12.8h2v2.375c.3833-.8083.9-1.425 1.55-1.85.6583-.4333 1.4292-.65 2.3125-.65z"/><path d="m39.8033 53.4c.9334 0 1.7625.1792 2.4875.5375.7334.3583 1.3042.8583 1.7125 1.5.4084.6417.6125 1.3708.6125 2.1875v8.875h-1.95v-1.8125c-.4416.6667-1.0291 1.1875-1.7625 1.5625-.725.3667-1.5458.55-2.4625.55-.8416 0-1.5958-.1542-2.2625-.4625-.6666-.3167-1.1875-.7542-1.5625-1.3125s-.5625-1.1917-.5625-1.9c0-.6667.1667-1.2792.5-1.8375.3417-.5667.8125-1.025 1.4125-1.375.6-.3583 1.2792-.575 2.0375-.65l3.7375-.375c.275-.025.4917-.1458.65-.3625.1667-.2167.25-.5208.25-.9125 0-.5083-.1208-.9542-.3625-1.3375-.2416-.3833-.5833-.6792-1.025-.8875-.4333-.2083-.9375-.3125-1.5125-.3125s-1.0916.1042-1.55.3125c-.4583.2-.8291.4833-1.1125.85-.2833.3667-.45.7875-.5 1.2625h-1.95c.075-.7917.3459-1.4958.8125-2.1125.475-.625 1.0917-1.1125 1.85-1.4625.7584-.35 1.5959-.525 2.5125-.525zm-.925 11.8375c.7167 0 1.3584-.1542 1.925-.4625.575-.3167 1.025-.75 1.35-1.3s.4875-1.1708.4875-1.8625v-1.35l-4.3625.45c-.425.0417-.8083.1708-1.15.3875-.3333.2167-.5958.4917-.7875.825-.1916.3333-.2875.6958-.2875 1.0875 0 .4333.1167.8208.35 1.1625.2417.3333.575.5958 1 .7875.4334.1833.925.275 1.475.275z"/><path d="m53.6912 66.8c-1.2083 0-2.3083-.2917-3.3-.875-.9833-.5833-1.7583-1.3833-2.325-2.4-.5583-1.025-.8375-2.1667-.8375-3.425s.2792-2.3958.8375-3.4125c.5667-1.025 1.3417-1.8292 2.325-2.4125.9917-.5833 2.0917-.875 3.3-.875 1.0333 0 1.9875.2083 2.8625.625.8833.4083 1.5958.975 2.1375 1.7.55.7167.8667 1.5208.95 2.4125h-2c-.1-.5667-.3375-1.075-.7125-1.525s-.8458-.8-1.4125-1.05c-.5667-.2583-1.175-.3875-1.825-.3875-.8333 0-1.5833.2125-2.25.6375-.6583.4167-1.175 1-1.55 1.75s-.5625 1.5958-.5625 2.5375.1875 1.7875.5625 2.5375c.375.7417.8917 1.325 1.55 1.75.6667.4167 1.4167.625 2.25.625.6583 0 1.2708-.125 1.8375-.375s1.0333-.6 1.4-1.05c.375-.45.6125-.9583.7125-1.525h2c-.0833.8917-.4 1.7-.95 2.425-.5417.7167-1.2542 1.2833-2.1375 1.7-.875.4083-1.8292.6125-2.8625.6125z"/><path d="m64.5307 66.5h-2v-17.5h2v10.6125l5.7875-5.9125h2.5l-6 6.075 6.225 6.725h-2.5375l-5.975-6.4625z"/><path d="m86.1295 60.575h-10.3c.0667.8917.2917 1.675.675 2.35s.8917 1.2 1.525 1.575c.6417.3667 1.3667.55 2.175.55.5417 0 1.0625-.0833 1.5625-.25.5-.175.9292-.4125 1.2875-.7125s.6042-.6375.7375-1.0125h2c-.1417.7-.4875 1.3333-1.0375 1.9s-1.2375 1.0125-2.0625 1.3375c-.8167.325-1.6875.4875-2.6125.4875-1.1833 0-2.2542-.2917-3.2125-.875s-1.7125-1.3833-2.2625-2.4c-.55-1.025-.825-2.1667-.825-3.425s.275-2.3958.825-3.4125c.55-1.025 1.3042-1.8292 2.2625-2.4125s2.0292-.875 3.2125-.875c1.1667 0 2.2083.2875 3.125.8625.9167.5667 1.6333 1.3583 2.15 2.375s.775 2.1708.775 3.4625zm-6.05-5.4375c-1.1333 0-2.0708.3417-2.8125 1.025-.7333.675-1.1917 1.6042-1.375 2.7875h8.1625c-.1667-1.2083-.5958-2.1458-1.2875-2.8125-.6833-.6667-1.5792-1-2.6875-1z"/><path d="m95.2826 53.575v2h-.4625c-.775 0-1.4458.1583-2.0125.475-.5666.3167-1.0041.7792-1.3125 1.3875-.3083.6-.4625 1.3208-.4625 2.1625v6.9h-2v-12.8h2v2.375c.3833-.8083.9-1.425 1.55-1.85.6584-.4333 1.4292-.65 2.3125-.65z"/><path clip-rule="evenodd" d="m143.434 78.5618c.414 0 .75.3358.75.75v37.1702c0 .414-.336.75-.75.75s-.75-.336-.75-.75v-37.1702c0-.4142.336-.75.75-.75z" fill-rule="evenodd"/><path clip-rule="evenodd" d="m126.568 88.847c.206-.3593.664-.4837 1.024-.2777l32.244 18.4827c.36.206.484.664.278 1.023-.206.36-.664.484-1.024.278l-32.244-18.4823c-.359-.206-.484-.6643-.278-1.0237z" fill-rule="evenodd"/><path clip-rule="evenodd" d="m160.114 88.847c.206.3594.082.8177-.278 1.0237l-32.244 18.4823c-.36.206-.818.082-1.024-.278-.206-.359-.081-.817.278-1.023l32.244-18.4827c.36-.206.818-.0816 1.024.2777z" fill-rule="evenodd"/></g><path d="m78.3789 184.751c27.3811 0 49.5781-22.197 49.5781-49.578 0-27.382-22.197-49.5785-49.5781-49.5785-27.3812 0-49.5781 22.1965-49.5781 49.5785 0 27.381 22.1969 49.578 49.5781 49.578z" fill="#fff" fill-opacity=".5"/><path d="m104.849 93.2436c2.372-19.1091 18.669-33.8991 38.42-33.8991 21.382 0 38.716 17.3338 38.716 38.7162 0 21.3823-17.334 38.7163-38.716 38.7163-5.447 0-10.632-1.125-15.334-3.155.016.515.024 1.032.024 1.551v.087c4.719 1.944 9.889 3.017 15.31 3.017 22.211 0 40.216-18.005 40.216-40.2163 0-22.2108-18.005-40.2162-40.216-40.2162-20.286 0-37.064 15.0199-39.82 34.5455.472.2771.939.5616 1.4.8536z" fill="#0c0c0d"/><path clip-rule="evenodd" d="m78.3438 110.716c.5522 0 1 .448 1 1v21.844l19.1925-11.002c.4792-.274 1.0903-.108 1.3649.371.2748.479.1088 1.09-.3703 1.365l-18.7394 10.741 18.7394 10.741c.4791.275.6451.886.3703 1.365-.2746.479-.8857.645-1.3649.371l-19.1925-11.002v21.9c0 .552-.4478 1-1 1-.5523 0-1-.448-1-1v-21.399l-18.319 10.501c-.4791.274-1.0902.108-1.3649-.371-.2746-.479-.1088-1.09.3703-1.365l18.7395-10.741-18.7395-10.741c-.4791-.275-.6449-.886-.3703-1.365.2747-.479.8858-.645 1.3649-.371l18.319 10.501v-21.343c0-.552.4477-1 1-1z" fill="#fff" fill-rule="evenodd"/></svg>