<svg fill="none" height="202" viewBox="0 0 202 202" width="202" xmlns="http://www.w3.org/2000/svg" xmlns:xlink="http://www.w3.org/1999/xlink"><radialGradient id="a" cx="0" cy="0" gradientTransform="matrix(-37.23311291 351.38789297 -494.38637218 -52.38525284 42.5277 62.1653)" gradientUnits="userSpaceOnUse" r="1"><stop offset="0" stop-color="#00e383"/><stop offset=".687112" stop-color="#0aa78b" stop-opacity=".65"/></radialGradient><rect fill="url(#a)" height="202" rx="4" width="202"/><g fill="#0c0c0d"><path d="m18.5891 38.5v-17.5h7c1.1166 0 2.0958.2083 2.9375.625.85.4167 1.5041 1.0083 1.9625 1.775.4666.7667.7 1.6583.7 2.675s-.2375 1.9125-.7125 2.6875c-.4667.7667-1.1292 1.3625-1.9875 1.7875-.8584.4167-1.8584.625-3 .625h-4.825v7.325zm7-9.2c.6833 0 1.2791-.1333 1.7875-.4.5166-.2667.9125-.6417 1.1875-1.125.2833-.4917.425-1.0583.425-1.7 0-.6333-.1417-1.1917-.425-1.675-.275-.4833-.6709-.8583-1.1875-1.125-.5084-.2667-1.1042-.4-1.7875-.4h-4.925v6.425z"/><path d="m37.9592 25.4c.9333 0 1.7625.1792 2.4875.5375.7333.3583 1.3041.8583 1.7125 1.5.4083.6417.6125 1.3708.6125 2.1875v8.875h-1.95v-1.8125c-.4417.6667-1.0292 1.1875-1.7625 1.5625-.725.3667-1.5459.55-2.4625.55-.8417 0-1.5959-.1542-2.2625-.4625-.6667-.3167-1.1875-.7542-1.5625-1.3125s-.5625-1.1917-.5625-1.9c0-.6667.1666-1.2792.5-1.8375.3416-.5667.8125-1.025 1.4125-1.375.6-.3583 1.2791-.575 2.0375-.65l3.7375-.375c.275-.025.4916-.1458.65-.3625.1666-.2167.25-.5208.25-.9125 0-.5083-.1209-.9542-.3625-1.3375-.2417-.3833-.5834-.6792-1.025-.8875-.4334-.2083-.9375-.3125-1.5125-.3125s-1.0917.1042-1.55.3125c-.4584.2-.8292.4833-1.1125.85-.2834.3667-.45.7875-.5 1.2625h-1.95c.075-.7917.3458-1.4958.8125-2.1125.475-.625 1.0916-1.1125 1.85-1.4625.7583-.35 1.5958-.525 2.5125-.525zm-.925 11.8375c.7166 0 1.3583-.1542 1.925-.4625.575-.3167 1.025-.75 1.35-1.3s.4875-1.1708.4875-1.8625v-1.35l-4.3625.45c-.425.0417-.8084.1708-1.15.3875-.3334.2167-.5959.4917-.7875.825-.1917.3333-.2875.6958-.2875 1.0875 0 .4333.1166.8208.35 1.1625.2416.3333.575.5958 1 .7875.4333.1833.925.275 1.475.275z"/><path d="m51.8471 38.8c-1.2084 0-2.3084-.2917-3.3-.875-.9834-.5833-1.7584-1.3833-2.325-2.4-.5584-1.025-.8375-2.1667-.8375-3.425s.2791-2.3958.8375-3.4125c.5666-1.025 1.3416-1.8292 2.325-2.4125.9916-.5833 2.0916-.875 3.3-.875 1.0333 0 1.9875.2083 2.8625.625.8833.4083 1.5958.975 2.1375 1.7.55.7167.8666 1.5208.95 2.4125h-2c-.1-.5667-.3375-1.075-.7125-1.525s-.8459-.8-1.4125-1.05c-.5667-.2583-1.175-.3875-1.825-.3875-.8334 0-1.5834.2125-2.25.6375-.6584.4167-1.175 1-1.55 1.75s-.5625 1.5958-.5625 2.5375.1875 1.7875.5625 2.5375c.375.7417.8916 1.325 1.55 1.75.6666.4167 1.4166.625 2.25.625.6583 0 1.2708-.125 1.8375-.375.5666-.25 1.0333-.6 1.4-1.05.375-.45.6125-.9583.7125-1.525h2c-.0834.8917-.4 1.7-.95 2.425-.5417.7167-1.2542 1.2833-2.1375 1.7-.875.4083-1.8292.6125-2.8625.6125z"/><path d="m62.6865 38.5h-2v-17.5h2v10.6125l5.7875-5.9125h2.5l-6 6.075 6.225 6.725h-2.5375l-5.975-6.4625z"/><path d="m77.7854 25.4c.9333 0 1.7624.1792 2.4875.5375.7333.3583 1.3041.8583 1.7125 1.5.4083.6417.6125 1.3708.6125 2.1875v8.875h-1.95v-1.8125c-.4417.6667-1.0292 1.1875-1.7625 1.5625-.725.3667-1.5459.55-2.4625.55-.8417 0-1.5959-.1542-2.2625-.4625-.6667-.3167-1.1875-.7542-1.5625-1.3125s-.5625-1.1917-.5625-1.9c0-.6667.1666-1.2792.5-1.8375.3416-.5667.8125-1.025 1.4125-1.375.6-.3583 1.2791-.575 2.0375-.65l3.7375-.375c.275-.025.4916-.1458.65-.3625.1666-.2167.25-.5208.25-.9125 0-.5083-.1209-.9542-.3625-1.3375-.2417-.3833-.5834-.6792-1.025-.8875-.4334-.2083-.9375-.3125-1.5125-.3125s-1.0917.1042-1.55.3125c-.4584.2-.8292.4833-1.1125.85-.2834.3667-.45.7875-.5 1.2625h-1.95c.075-.7917.3458-1.4958.8125-2.1125.475-.625 1.0916-1.1125 1.85-1.4625.7583-.35 1.5958-.525 2.5125-.525zm-.925 11.8375c.7166 0 1.3583-.1542 1.925-.4625.575-.3167 1.025-.75 1.35-1.3s.4875-1.1708.4875-1.8625v-1.35l-4.3625.45c-.425.0417-.8084.1708-1.15.3875-.3334.2167-.5959.4917-.7875.825-.1917.3333-.2875.6958-.2875 1.0875 0 .4333.1166.8208.35 1.1625.2416.3333.575.5958 1 .7875.4333.1833.925.275 1.475.275z"/><path d="m95.3107 25.7h1.925l-.025 12.1125c0 .9833-.2416 1.85-.725 2.6-.475.7583-1.1458 1.3458-2.0125 1.7625-.8583.4167-1.8458.625-2.9625.625-1 0-1.9041-.1625-2.7125-.4875-.8-.325-1.4458-.7792-1.9375-1.3625-.4916-.5833-.7791-1.2542-.8625-2.0125h2c.1417.65.5334 1.1708 1.175 1.5625.6417.3917 1.4334.5875 2.375.5875.7334 0 1.375-.1375 1.925-.4125.5584-.2667.9875-.6458 1.2875-1.1375s.45-1.0667.45-1.725v-1.2125l.0375-1.2375c-.4833.6833-1.0958 1.2125-1.8375 1.5875-.7333.3667-1.5541.55-2.4625.55-1.075 0-2.0375-.2542-2.8875-.7625-.85-.5167-1.5125-1.2333-1.9875-2.15s-.7125-1.9542-.7125-3.1125.2375-2.1958.7125-3.1125 1.1375-1.6292 1.9875-2.1375c.85-.5167 1.8125-.775 2.8875-.775.925 0 1.7625.1958 2.5125.5875.75.3833 1.3667.9333 1.85 1.65zm-4 10.05c.7667 0 1.4459-.1792 2.0375-.5375.5917-.3583 1.0542-.8583 1.3875-1.5.3334-.65.5-1.3958.5-2.2375s-.1666-1.5833-.5-2.225c-.3333-.65-.7958-1.1542-1.3875-1.5125-.5916-.3583-1.2708-.5375-2.0375-.5375-.7583 0-1.4291.1792-2.0125.5375-.5833.3583-1.0375.8625-1.3625 1.5125-.3166.6417-.475 1.3833-.475 2.225s.1584 1.5875.475 2.2375c.325.6417.7792 1.1417 1.3625 1.5.5834.3583 1.2542.5375 2.0125.5375z"/><path d="m112.399 32.575h-10.3c.066.8917.291 1.675.675 2.35.383.675.891 1.2 1.525 1.575.641.3667 1.366.55 2.175.55.541 0 1.062-.0833 1.562-.25.5-.175.929-.4125 1.288-.7125.358-.3.604-.6375.737-1.0125h2c-.142.7-.487 1.3333-1.037 1.9s-1.238 1.0125-2.063 1.3375c-.817.325-1.687.4875-2.612.4875-1.184 0-2.255-.2917-3.213-.875s-1.712-1.3833-2.262-2.4c-.55-1.025-.825-2.1667-.825-3.425s.275-2.3958.825-3.4125c.55-1.025 1.304-1.8292 2.262-2.4125s2.029-.875 3.213-.875c1.166 0 2.208.2875 3.125.8625.916.5667 1.633 1.3583 2.15 2.375.516 1.0167.775 2.1708.775 3.4625zm-6.05-5.4375c-1.134 0-2.071.3417-2.813 1.025-.733.675-1.192 1.6042-1.375 2.7875h8.163c-.167-1.2083-.596-2.1458-1.288-2.8125-.683-.6667-1.579-1-2.687-1z"/><path d="m32.5766 53.4c.9333 0 1.7583.2125 2.475.6375.7166.4167 1.2708 1.0083 1.6625 1.775.3916.7583.5875 1.6292.5875 2.6125v8.075h-2v-7.9875c0-1.075-.2667-1.9125-.8-2.5125-.5334-.6-1.275-.9-2.225-.9-.7167 0-1.3459.1708-1.8875.5125-.5417.3417-.9584.825-1.25 1.45-.2917.6167-.4375 1.3417-.4375 2.175v7.2625h-2v-7.9875c0-1.075-.2667-1.9125-.8-2.5125-.5334-.6-1.275-.9-2.225-.9-.7167 0-1.3459.1708-1.8875.5125-.5417.3417-.9584.825-1.25 1.45-.2917.6167-.4375 1.3417-.4375 2.175v7.2625h-2v-12.8h1.925v1.9875c.4166-.7333.9666-1.2958 1.65-1.6875.6916-.4 1.4791-.6 2.3625-.6.95 0 1.7833.2292 2.5.6875.725.45 1.275 1.075 1.65 1.875.4416-.8083 1.0416-1.4375 1.8-1.8875.7583-.45 1.6208-.675 2.5875-.675z"/><path d="m45.7717 53.4c.9333 0 1.7625.1792 2.4875.5375.7333.3583 1.3041.8583 1.7125 1.5.4083.6417.6125 1.3708.6125 2.1875v8.875h-1.95v-1.8125c-.4417.6667-1.0292 1.1875-1.7625 1.5625-.725.3667-1.5459.55-2.4625.55-.8417 0-1.5959-.1542-2.2625-.4625-.6667-.3167-1.1875-.7542-1.5625-1.3125s-.5625-1.1917-.5625-1.9c0-.6667.1666-1.2792.5-1.8375.3416-.5667.8125-1.025 1.4125-1.375.6-.3583 1.2791-.575 2.0375-.65l3.7375-.375c.275-.025.4916-.1458.65-.3625.1666-.2167.25-.5208.25-.9125 0-.5083-.1209-.9542-.3625-1.3375-.2417-.3833-.5834-.6792-1.025-.8875-.4334-.2083-.9375-.3125-1.5125-.3125s-1.0917.1042-1.55.3125c-.4584.2-.8292.4833-1.1125.85-.2834.3667-.45.7875-.5 1.2625h-1.95c.075-.7917.3458-1.4958.8125-2.1125.475-.625 1.0916-1.1125 1.85-1.4625.7583-.35 1.5958-.525 2.5125-.525zm-.925 11.8375c.7166 0 1.3583-.1542 1.925-.4625.575-.3167 1.025-.75 1.35-1.3s.4875-1.1708.4875-1.8625v-1.35l-4.3625.45c-.425.0417-.8084.1708-1.15.3875-.3334.2167-.5959.4917-.7875.825-.1917.3333-.2875.6958-.2875 1.0875 0 .4333.1166.8208.35 1.1625.2416.3333.575.5958 1 .7875.4333.1833.925.275 1.475.275z"/><path d="m60.2721 53.4c.9583 0 1.7958.2083 2.5125.625.7166.4083 1.2666.9917 1.65 1.75.3916.7583.5875 1.6417.5875 2.65v8.075h-2v-7.9875c0-1.075-.275-1.9125-.825-2.5125-.5417-.6-1.3042-.9-2.2875-.9-.7417 0-1.3875.1708-1.9375.5125-.55.3333-.975.8125-1.275 1.4375-.3.6167-.45 1.3458-.45 2.1875v7.2625h-2v-12.8h1.925v1.8375c.425-.6917.9875-1.2208 1.6875-1.5875s1.5041-.55 2.4125-.55z"/><path d="m73.4943 53.4c.9334 0 1.7625.1792 2.4875.5375.7334.3583 1.3042.8583 1.7125 1.5.4084.6417.6125 1.3708.6125 2.1875v8.875h-1.95v-1.8125c-.4416.6667-1.0291 1.1875-1.7625 1.5625-.725.3667-1.5458.55-2.4625.55-.8416 0-1.5958-.1542-2.2625-.4625-.6666-.3167-1.1875-.7542-1.5625-1.3125s-.5625-1.1917-.5625-1.9c0-.6667.1667-1.2792.5-1.8375.3417-.5667.8125-1.025 1.4125-1.375.6-.3583 1.2792-.575 2.0375-.65l3.7375-.375c.275-.025.4917-.1458.65-.3625.1667-.2167.25-.5208.25-.9125 0-.5083-.1208-.9542-.3625-1.3375-.2416-.3833-.5833-.6792-1.025-.8875-.4333-.2083-.9375-.3125-1.5125-.3125s-1.0916.1042-1.55.3125c-.4583.2-.8291.4833-1.1125.85-.2833.3667-.45.7875-.5 1.2625h-1.95c.075-.7917.3459-1.4958.8125-2.1125.475-.625 1.0917-1.1125 1.85-1.4625.7584-.35 1.5959-.525 2.5125-.525zm-.925 11.8375c.7167 0 1.3584-.1542 1.925-.4625.575-.3167 1.025-.75 1.35-1.3s.4875-1.1708.4875-1.8625v-1.35l-4.3625.45c-.425.0417-.8083.1708-1.15.3875-.3333.2167-.5958.4917-.7875.825-.1916.3333-.2875.6958-.2875 1.0875 0 .4333.1167.8208.35 1.1625.2417.3333.575.5958 1 .7875.4334.1833.925.275 1.475.275z"/><path d="m91.0197 53.7h1.925l-.025 12.1125c0 .9833-.2416 1.85-.725 2.6-.475.7583-1.1458 1.3458-2.0125 1.7625-.8583.4167-1.8458.625-2.9625.625-1 0-1.9041-.1625-2.7125-.4875-.8-.325-1.4458-.7792-1.9375-1.3625-.4916-.5833-.7791-1.2542-.8625-2.0125h2c.1417.65.5334 1.1708 1.175 1.5625.6417.3917 1.4334.5875 2.375.5875.7334 0 1.375-.1375 1.925-.4125.5584-.2667.9875-.6458 1.2875-1.1375s.45-1.0667.45-1.725v-1.2125l.0375-1.2375c-.4833.6833-1.0958 1.2125-1.8375 1.5875-.7333.3667-1.5541.55-2.4625.55-1.075 0-2.0375-.2542-2.8875-.7625-.85-.5167-1.5125-1.2333-1.9875-2.15s-.7125-1.9542-.7125-3.1125.2375-2.1958.7125-3.1125 1.1375-1.6292 1.9875-2.1375c.85-.5167 1.8125-.775 2.8875-.775.925 0 1.7625.1958 2.5125.5875.75.3833 1.3667.9333 1.85 1.65zm-4 10.05c.7667 0 1.4459-.1792 2.0375-.5375.5917-.3583 1.0542-.8583 1.3875-1.5.3334-.65.5-1.3958.5-2.2375s-.1666-1.5833-.5-2.225c-.3333-.65-.7958-1.1542-1.3875-1.5125-.5916-.3583-1.2708-.5375-2.0375-.5375-.7583 0-1.4291.1792-2.0125.5375-.5833.3583-1.0375.8625-1.3625 1.5125-.3166.6417-.475 1.3833-.475 2.225s.1584 1.5875.475 2.2375c.325.6417.7792 1.1417 1.3625 1.5.5834.3583 1.2542.5375 2.0125.5375z"/><path d="m108.108 60.575h-10.3004c.0667.8917.2917 1.675.675 2.35.3834.675.8917 1.2 1.5254 1.575.641.3667 1.366.55 2.175.55.541 0 1.062-.0833 1.562-.25.5-.175.929-.4125 1.288-.7125.358-.3.604-.6375.737-1.0125h2c-.142.7-.487 1.3333-1.037 1.9s-1.238 1.0125-2.063 1.3375c-.817.325-1.687.4875-2.612.4875-1.184 0-2.2546-.2917-3.2129-.875s-1.7125-1.3833-2.2625-2.4c-.55-1.025-.825-2.1667-.825-3.425s.275-2.3958.825-3.4125c.55-1.025 1.3042-1.8292 2.2625-2.4125s2.0289-.875 3.2129-.875c1.166 0 2.208.2875 3.125.8625.916.5667 1.633 1.3583 2.15 2.375.516 1.0167.775 2.1708.775 3.4625zm-6.05-5.4375c-1.134 0-2.0712.3417-2.8129 1.025-.7333.675-1.1916 1.6042-1.375 2.7875h8.1629c-.167-1.2083-.596-2.1458-1.288-2.8125-.683-.6667-1.579-1-2.687-1z"/><path d="m125.486 53.4c.933 0 1.758.2125 2.475.6375.716.4167 1.271 1.0083 1.662 1.775.392.7583.588 1.6292.588 2.6125v8.075h-2v-7.9875c0-1.075-.267-1.9125-.8-2.5125-.534-.6-1.275-.9-2.225-.9-.717 0-1.346.1708-1.888.5125-.541.3417-.958.825-1.25 1.45-.291.6167-.437 1.3417-.437 2.175v7.2625h-2v-7.9875c0-1.075-.267-1.9125-.8-2.5125-.534-.6-1.275-.9-2.225-.9-.717 0-1.346.1708-1.888.5125-.541.3417-.958.825-1.25 1.45-.291.6167-.437 1.3417-.437 2.175v7.2625h-2v-12.8h1.925v1.9875c.416-.7333.966-1.2958 1.65-1.6875.691-.4 1.479-.6 2.362-.6.95 0 1.784.2292 2.5.6875.725.45 1.275 1.075 1.65 1.875.442-.8083 1.042-1.4375 1.8-1.8875.759-.45 1.621-.675 2.588-.675z"/><path d="m145.181 60.575h-10.3c.067.8917.292 1.675.675 2.35s.892 1.2 1.525 1.575c.642.3667 1.367.55 2.175.55.542 0 1.062-.0833 1.562-.25.5-.175.93-.4125 1.288-.7125s.604-.6375.737-1.0125h2c-.141.7-.487 1.3333-1.037 1.9s-1.238 1.0125-2.063 1.3375c-.816.325-1.687.4875-2.612.4875-1.183 0-2.254-.2917-3.213-.875-.958-.5833-1.712-1.3833-2.262-2.4-.55-1.025-.825-2.1667-.825-3.425s.275-2.3958.825-3.4125c.55-1.025 1.304-1.8292 2.262-2.4125.959-.5833 2.03-.875 3.213-.875 1.167 0 2.208.2875 3.125.8625.917.5667 1.633 1.3583 2.15 2.375s.775 2.1708.775 3.4625zm-6.05-5.4375c-1.133 0-2.071.3417-2.813 1.025-.733.675-1.191 1.6042-1.375 2.7875h8.163c-.167-1.2083-.596-2.1458-1.288-2.8125-.683-.6667-1.579-1-2.687-1z"/><path d="m154.109 53.4c.958 0 1.796.2083 2.512.625.717.4083 1.267.9917 1.65 1.75.392.7583.588 1.6417.588 2.65v8.075h-2v-7.9875c0-1.075-.275-1.9125-.825-2.5125-.542-.6-1.304-.9-2.288-.9-.741 0-1.387.1708-1.937.5125-.55.3333-.975.8125-1.275 1.4375-.3.6167-.45 1.3458-.45 2.1875v7.2625h-2v-12.8h1.925v1.8375c.425-.6917.987-1.2208 1.687-1.5875s1.505-.55 2.413-.55z"/><path d="m166.244 66.5c-.942 0-1.679-.2458-2.213-.7375-.525-.4917-.787-1.1708-.787-2.0375l-.013-8.25h-2.3l.013-1.775h1.437c.359 0 .613-.0792.763-.2375.158-.1583.237-.4125.237-.7625v-2.2h1.863v3.2h3.012l-.012 1.775h-3.013l.013 8.125c0 .35.1.625.3.825s.475.3.825.3h1.875v1.775z"/></g><path clip-rule="evenodd" d="m26 89.25c-.4142 0-.75.3358-.75.75v13.25h-3.25c-2.6234 0-4.75 2.127-4.75 4.75v14.212c0 2.623 2.1267 4.75 4.75 4.75h3.25v21.288h-3.25c-2.6234 0-4.75 2.127-4.75 4.75v14.212c0 2.623 2.1267 4.75 4.75 4.75h3.25v13.702c0 .415.3358.75.75.75h14.7568c.4142 0 .75-.335.75-.75v-8.339l-1.5-1.597v9.186h-13.2568v-94.164h13.2568v47.802l1.5-1.564v-46.988c0-.4142-.3358-.75-.75-.75zm-.75 81.212v-20.712h-3.25c-1.7949 0-3.25 1.455-3.25 3.25v14.212c0 1.795 1.4551 3.25 3.25 3.25zm0-45v-20.712h-3.25c-1.7949 0-3.25 1.455-3.25 3.25v14.212c0 1.795 1.4551 3.25 3.25 3.25z" fill="#fff" fill-rule="evenodd"/><path clip-rule="evenodd" d="m184.109 111h-57.109v74.798h57.109zm-42.911 18.006c2.916 0 5.28-2.363 5.28-5.279s-2.364-5.28-5.28-5.28-5.279 2.364-5.279 5.28 2.363 5.279 5.279 5.279z" fill="#fff" fill-opacity=".5" fill-rule="evenodd"/><path d="m101.029 171.28c0 2.915-1.3496 5.279-3.0145 5.279s-3.0145-2.364-3.0145-5.279c0-2.916 1.3496-5.28 3.0145-5.28s3.0145 2.364 3.0145 5.28z" fill="#fff"/><path clip-rule="evenodd" d="m61.1548 185.31c15.5493 0 28.1548-12.606 28.1548-28.155 0-15.55-12.6055-28.155-28.1548-28.155-15.5495 0-28.1548 12.605-28.1548 28.155 0 15.549 12.6053 28.155 28.1548 28.155zm-4.9986-37.791c-2.2765-.002-3.4604.456-4.0978 2.276-.5102 1.456-.2126 3.52 0 4.37-1.7912.121-5.1182 1.439-4.0981 5.737 1.0198 4.298 5.221 4.948 7.1941 4.735.1822 2.49 1.9852 7.322 7.7407 6.739 5.7553-.582 5.4943-4.735 4.6444-6.739 1.9124-.637 5.4276-2.768 4.1889-6.192-1.2384-3.424-5.4943-4.28-7.4674-4.28.0304-2.791-1.548-8.029-8.1048-6.646z" fill="#fff" fill-opacity=".5" fill-rule="evenodd"/><path clip-rule="evenodd" d="m54.0077 146.52c1.7817-.545 3.8839-.305 5.5131.06 1.7407.391 3.3348 1.72 4.258 3.208.6168.996 1.0674 2.208 1.2249 3.458 1.891-.054 3.8935.074 5.5269 1.519 1.6867 1.488 2.1183 4.107 1.6533 6.101-.3007 1.279-1.1522 2.306-2.3001 2.923-.4889.262-.9929.44-1.4518.56.0768.205.1281.414.1592.614.2416 1.553.2618 3.758-.9978 5.264-1.7117 2.047-4.8595 1.669-7.1673 1.14-.014-.003-.0279-.007-.0417-.011-1.7549-.509-3.2574-1.648-4.2136-3.196-.583-.942-.975-1.98-1.161-3.057-.8828.026-1.8232.018-2.7299-.12-1.1269-.172-2.2551-.554-3.1844-1.369-3.5555-2.972-2.1349-9.095 2.3715-10.167-.0492-.15-.0843-.303-.108-.456-.1814-1.166-.1392-2.363.1211-3.514.2892-1.228 1.2725-2.572 2.5276-2.957zm13.0714 16.56c.7234-.087 1.4496-.266 2.0948-.613.7153-.384 1.3208-.977 1.5495-1.943.3618-1.553.06-3.534-1.1869-4.635-1.1847-1.049-2.6605-1.191-4.4922-1.143-.1063 1.379-.6308 2.715-1.7439 3.765-1.5495 1.502-3.7664 2.225-5.8995 2.224-.619.503-.943 1.432-1.0026 2.479-.0859 1.455.2801 2.917 1.048 4.156.7559 1.222 1.9579 2.135 3.3361 2.54 1.686.384 4.3719.896 5.6604-.645.8155-.975.8962-2.593.6662-4.072-.0563-.362-.1495-.621-.5206-.634l-5.8713-.213c-.4139-.015-.7374-.363-.7224-.777s.3627-.737.7766-.722c2.0269.073 4.0111.233 6.3078.233zm-9.3896-3.852c-.3075.013-.6508-.056-.9241.118-1.3446.856-1.79 2.475-1.8646 3.781-.0097.16-.0149.319-.0157.479-.8181.022-1.623.01-2.3786-.106-.896-.137-1.7538-.437-2.447-1.036-3.3042-2.946-.7312-7.723 3.2473-7.575l5.8713.218c.4139.016.762-.308.7774-.721.0153-.414-.3077-.762-.7217-.778l-5.8428-.217c-.3552-.044-.4977-.295-.5498-.63-.1522-.979-.1184-1.977.0997-2.943.1924-.812.7791-1.524 1.5485-1.876 1.3882-.411 3.1458-.245 4.6793.097 1.3901.412 2.5769 1.317 3.3351 2.539 1.3578 2.192 1.5507 5.163-.236 6.845l-.0081.008c-1.2069 1.172-2.9127 1.727-4.5702 1.797z" fill="#0c0c0d" fill-rule="evenodd"/><path clip-rule="evenodd" d="m88.25 112c0-1.519 1.2312-2.75 2.75-2.75h90.737c1.519 0 2.75 1.231 2.75 2.75v71.265c0 1.519-1.231 2.75-2.75 2.75h-90.737c-1.5188 0-2.75-1.231-2.75-2.75zm2.75-1.25c-.6904 0-1.25.56-1.25 1.25v71.265c0 .691.5596 1.25 1.25 1.25h90.737c.69 0 1.25-.559 1.25-1.25v-71.265c0-.69-.56-1.25-1.25-1.25z" fill="#0c0c0d" fill-rule="evenodd"/><ellipse cx="55.7631" cy="150.985" fill="#0c0c0d" rx=".700206" ry=".917445" transform="matrix(.93380479 .35778292 -.35778292 .93380479 57.711105 -9.956601)"/></svg>