<svg fill="none" height="202" viewBox="0 0 202 202" width="202" xmlns="http://www.w3.org/2000/svg" xmlns:xlink="http://www.w3.org/1999/xlink"><radialGradient id="a" cx="0" cy="0" gradientTransform="matrix(-37.23311291 351.38789297 -494.38637218 -52.38525284 42.5277 62.1653)" gradientUnits="userSpaceOnUse" r="1"><stop offset="0" stop-color="#00e383"/><stop offset=".687112" stop-color="#0aa78b" stop-opacity=".65"/></radialGradient><clipPath id="b"><rect height="202" rx="4" width="202"/></clipPath><g clip-path="url(#b)"><rect fill="url(#a)" height="202" rx="4" width="202"/><g fill="#0c0c0d"><path d="m25.9125 39.1c-1.6 0-3.0542-.3917-4.3625-1.175-1.3-.7917-2.3208-1.875-3.0625-3.25-.7417-1.3833-1.1125-2.925-1.1125-4.625s.3708-3.2375 1.1125-4.6125c.7417-1.3833 1.7625-2.4667 3.0625-3.25 1.3083-.7917 2.7625-1.1875 4.3625-1.1875 1.3333 0 2.5708.2958 3.7125.8875 1.15.5833 2.0917 1.3917 2.825 2.425s1.1792 2.1875 1.3375 3.4625h-2.075c-.1667-.9417-.525-1.7833-1.075-2.525-.55-.75-1.2375-1.3375-2.0625-1.7625s-1.7125-.6375-2.6625-.6375c-1.2167 0-2.3125.3125-3.2875.9375-.9667.6167-1.725 1.475-2.275 2.575-.55 1.0917-.825 2.3208-.825 3.6875s.275 2.6.825 3.7c.55 1.0917 1.3083 1.95 2.275 2.575.975.6167 2.0708.925 3.2875.925.95 0 1.8375-.2125 2.6625-.6375s1.5125-1.0083 2.0625-1.75c.55-.75.9083-1.5958 1.075-2.5375h2.075c-.1583 1.275-.6042 2.4292-1.3375 3.4625s-1.675 1.8458-2.825 2.4375c-1.1417.5833-2.3792.875-3.7125.875z"/><path d="m43.04 25.7c.9584 0 1.7959.2083 2.5125.625.7167.4083 1.2667.9917 1.65 1.75.3917.7583.5875 1.6417.5875 2.65v8.075h-2v-7.9875c0-1.075-.275-1.9125-.825-2.5125-.5416-.6-1.3041-.9-2.2875-.9-.7416 0-1.3875.1708-1.9375.5125-.55.3333-.975.8125-1.275 1.4375-.3.6167-.45 1.3458-.45 2.1875v7.2625h-2v-17.5h2v4.1125l-.075 2.5375c.4-.7333.9459-1.2917 1.6375-1.675.7-.3833 1.5209-.575 2.4625-.575z"/><path d="m56.2623 25.7c.9333 0 1.7625.1792 2.4875.5375.7333.3583 1.3042.8583 1.7125 1.5s.6125 1.3708.6125 2.1875v8.875h-1.95v-1.8125c-.4417.6667-1.0292 1.1875-1.7625 1.5625-.725.3667-1.5458.55-2.4625.55-.8417 0-1.5958-.1542-2.2625-.4625-.6667-.3167-1.1875-.7542-1.5625-1.3125s-.5625-1.1917-.5625-1.9c0-.6667.1667-1.2792.5-1.8375.3417-.5667.8125-1.025 1.4125-1.375.6-.3583 1.2792-.575 2.0375-.65l3.7375-.375c.275-.025.4917-.1458.65-.3625.1667-.2167.25-.5208.25-.9125 0-.5083-.1208-.9542-.3625-1.3375s-.5833-.6792-1.025-.8875c-.4333-.2083-.9375-.3125-1.5125-.3125s-1.0917.1042-1.55.3125c-.4583.2-.8292.4833-1.1125.85s-.45.7875-.5 1.2625h-1.95c.075-.7917.3458-1.4958.8125-2.1125.475-.625 1.0917-1.1125 1.85-1.4625s1.5958-.525 2.5125-.525zm-.925 11.8375c.7167 0 1.3583-.1542 1.925-.4625.575-.3167 1.025-.75 1.35-1.3s.4875-1.1708.4875-1.8625v-1.35l-4.3625.45c-.425.0417-.8083.1708-1.15.3875-.3333.2167-.5958.4917-.7875.825s-.2875.6958-.2875 1.0875c0 .4333.1167.8208.35 1.1625.2417.3333.575.5958 1 .7875.4333.1833.925.275 1.475.275z"/><path d="m68.4502 38.8c-.9417 0-1.6792-.2458-2.2125-.7375-.525-.4917-.7875-1.1708-.7875-2.0375l-.0125-8.25h-2.3l.0125-1.775h1.4375c.3583 0 .6125-.0792.7625-.2375.1583-.1583.2375-.4125.2375-.7625v-2.2h1.8625v3.2h3.0125l-.0125 1.775h-3.0125l.0125 8.125c0 .35.1.625.3.825s.475.3.825.3h1.875v1.775z"/><path d="m77.4619 39.1c-1.05 0-1.9667-.1667-2.75-.5-.775-.3333-1.3792-.8-1.8125-1.4-.425-.6-.6417-1.2917-.65-2.075h2c.0167.45.1625.8542.4375 1.2125s.6458.6375 1.1125.8375c.4667.1917 1 .2875 1.6.2875.5833 0 1.0958-.0917 1.5375-.275.45-.1833.7958-.4458 1.0375-.7875s.3625-.7333.3625-1.175c0-.5083-.1708-.9333-.5125-1.275-.3417-.35-.8167-.5792-1.425-.6875l-2.125-.3625c-1.125-.1917-2.0042-.6042-2.6375-1.2375s-.95-1.4208-.95-2.3625c0-.7167.1833-1.3458.55-1.8875.375-.55.9083-.9708 1.6-1.2625.6917-.3 1.5-.45 2.425-.45.9583 0 1.7958.1583 2.5125.475.7167.3083 1.2708.7458 1.6625 1.3125.3917.5583.5958 1.2042.6125 1.9375h-2c-.0083-.4083-.1292-.7708-.3625-1.0875s-.5583-.5625-.975-.7375-.9-.2625-1.45-.2625c-.4917 0-.9417.0792-1.35.2375s-.7292.3833-.9625.675-.35.625-.35 1c0 .4583.1625.85.4875 1.175.325.3167.7667.525 1.325.625l2.2.3875c1.175.2083 2.075.6333 2.7 1.275.6333.6417.95 1.4625.95 2.4625 0 .7833-.1958 1.4708-.5875 2.0625s-.95 1.05-1.675 1.375c-.7167.325-1.5625.4875-2.5375.4875z"/><path clip-rule="evenodd" d="m174.917 113.844h20.898c2.125.007 4.197.276 6.186.776v1.549l-.114-.03c-1.948-.512-3.985-.788-6.075-.795h-21.668zm-43.995 50.646h45.435c3.176 0 5.75 2.574 5.75 5.75v15.628c2.056-1.922 4.109-3.853 6.163-5.784 4.5-4.231 9.176-8.611 13.734-12.779v2.021c-4.264 3.912-8.478 7.874-12.694 11.839-2.476 2.328-4.953 4.657-7.441 6.978-.219.204-.537.258-.811.139s-.451-.389-.451-.688v-17.354c0-2.347-1.903-4.25-4.25-4.25h-45.435z" fill-rule="evenodd"/><path clip-rule="evenodd" d="m107.607 134.364-.068.302c-3.36 14.835 8.84 29.839 24.13 29.824l.75-.001.001 1.5-.75.001c-16.221.016-29.156-15.841-25.601-31.626 0 0 1.367-.004 1.538 0z" fill-rule="evenodd"/></g><path d="m51.9762 63.5945h90.3648c14.353-.0139 27.651 8.7411 33.147 21.8234 3.617 8.6088 3.62 18.4821.01 27.0941-5.49 13.095-18.794 21.861-33.157 21.847h-64.9984c-2.7614 0-5 2.239-5 5v26.235c-14.4594-13.371-28.698-27.005-43.6523-39.842-7.875-6.674-12.4977-16.619-12.4871-26.8618.0278-9.3526 3.8056-18.3143 10.5084-24.9275 6.7027-6.6133 15.7855-10.3407 25.2646-10.3682z" fill="#fff" fill-opacity=".6"/><path clip-rule="evenodd" d="m136.499 135.905c.38.163.557.604.394.985l-3 7c-.163.381-.604.557-.985.394s-.557-.604-.394-.985l3-7c.163-.381.604-.557.985-.394zm29.04.019c.37.185.52.635.335 1.006l-4 8c-.185.37-.636.521-1.006.335-.371-.185-.521-.635-.336-1.006l4-8c.186-.37.636-.521 1.007-.335zm27 0c.37.185.52.635.335 1.006l-4 8c-.185.37-.636.521-1.006.335-.371-.185-.521-.635-.336-1.006l4-8c.186-.37.636-.521 1.007-.335z" fill="#0c0c0d" fill-rule="evenodd"/><path clip-rule="evenodd" d="m58.7513 92.0749c.484.266.6608.8739.3948 1.358l-5.8047 10.5641c-.2659.484-.8739.661-1.3579.395-.4841-.266-.6608-.874-.3949-1.358l5.8047-10.5643c.266-.484.874-.6608 1.358-.3948zm44.9227 1.1568c.475.2809.633.894.352 1.3696l-5.0476 8.5447c-.2809.476-.8941.633-1.3696.352-.4756-.28-.6333-.894-.3524-1.369l5.0476-8.545c.281-.4755.894-.6332 1.37-.3523zm40.812.0087c.47.289.618.9048.329 1.3755l-4.759 7.7511c-.289.471-.905.618-1.376.329-.471-.288-.618-.904-.329-1.375l4.759-7.7516c.289-.4706.905-.6179 1.376-.329z" fill="#fff" fill-rule="evenodd"/></g></svg>