<svg width="642" height="186" viewBox="0 0 642 186" fill="none" xmlns="http://www.w3.org/2000/svg">
<path d="M135.883 44.4929V185.986L292.926 185.986V5.99512H227.453L135.883 44.4929Z" fill="white" fill-opacity="0.12"/>
<path d="M38.4023 104.289C38.4023 103.251 38.9385 102.287 39.82 101.74L117.374 53.5925C118.343 52.9908 119.57 52.9908 120.539 53.5925L198.093 101.74C198.974 102.287 199.51 103.251 199.51 104.289V182.963C199.51 184.62 198.167 185.963 196.51 185.963H41.4024C39.7455 185.963 38.4023 184.62 38.4023 182.963V104.289Z" fill="white" fill-opacity="0.07"/>
<path d="M142.293 103.592L139.098 95.1616C138.813 94.4111 137.831 94.2341 137.303 94.8381L131.72 101.215C131.191 101.819 131.496 102.769 132.278 102.952L141.057 105.004C141.886 105.198 142.595 104.388 142.293 103.592Z" stroke="white" stroke-width="1.5"/>
<path d="M359.568 99.8016C359.042 99.578 358.464 99.509 357.901 99.6026L164.455 131.761C163.008 132.001 161.947 133.253 161.947 134.72L161.947 161.484C161.947 162.676 162.654 163.756 163.747 164.233L192.234 176.671C192.768 176.904 193.357 176.977 193.932 176.88L387.429 144.366C388.874 144.123 389.932 142.872 389.932 141.407V114.709C389.932 113.506 389.213 112.419 388.107 111.948L359.568 99.8016Z" fill="#21D789"/>
<path d="M359.568 99.8016C359.042 99.578 358.464 99.509 357.901 99.6026L164.455 131.761C163.008 132.001 161.947 133.253 161.947 134.72L161.947 161.484C161.947 162.676 162.654 163.756 163.747 164.233L192.234 176.671C192.768 176.904 193.357 176.977 193.932 176.88L387.429 144.366C388.874 144.123 389.932 142.872 389.932 141.407V114.709C389.932 113.506 389.213 112.419 388.107 111.948L359.568 99.8016Z" fill="url(#paint0_linear_4860_6745)"/>
<path d="M359.568 99.8016C359.042 99.578 358.464 99.509 357.901 99.6026L164.455 131.761C163.008 132.001 161.947 133.253 161.947 134.72L161.947 161.484C161.947 162.676 162.654 163.756 163.747 164.233L192.234 176.671C192.768 176.904 193.357 176.977 193.932 176.88L387.429 144.366C388.874 144.123 389.932 142.872 389.932 141.407V114.709C389.932 113.506 389.213 112.419 388.107 111.948L359.568 99.8016Z" fill="url(#paint1_radial_4860_6745)"/>
<path d="M388.845 113.309L192.945 145.583L192.945 174.448" stroke="#0C0C0D" stroke-opacity="0.2" stroke-width="1.5" stroke-linecap="round" stroke-linejoin="round"/>
<path d="M230.887 155.378L338.034 137.726" stroke="white" stroke-width="1.5" stroke-linecap="round" stroke-linejoin="round"/>
<path d="M166.631 134.441L188.879 144.044" stroke="#0C0C0D" stroke-opacity="0.2" stroke-width="1.5" stroke-linecap="round"/>
<ellipse cx="212.693" cy="157.926" rx="2.00589" ry="3.7117" fill="white"/>
<ellipse cx="345.157" cy="133.353" rx="1.00038" ry="1.85109" fill="#21D789"/>
<ellipse cx="347.606" cy="137.58" rx="1.00038" ry="1.85109" fill="#21D789"/>
<ellipse cx="221.18" cy="156.375" rx="2.00589" ry="3.7117" fill="white"/>
<ellipse cx="349.918" cy="132.59" rx="1.00038" ry="1.85109" fill="#21D789"/>
<ellipse cx="352.881" cy="136.697" rx="1.00038" ry="1.85109" fill="#21D789"/>
<ellipse cx="354.784" cy="131.737" rx="1.00038" ry="1.85109" fill="#21D789"/>
<ellipse cx="357.62" cy="135.79" rx="1.00038" ry="1.85109" fill="#21D789"/>
<ellipse cx="359.444" cy="130.958" rx="1.00038" ry="1.85109" fill="#21D789"/>
<ellipse cx="362.219" cy="134.728" rx="1.00038" ry="1.85109" fill="#21D789"/>
<ellipse cx="364.336" cy="129.992" rx="1.00038" ry="1.85109" fill="#21D789"/>
<path d="M359.568 56.442C359.042 56.2184 358.464 56.1494 357.901 56.243L164.455 88.4009C163.008 88.6415 161.947 89.8933 161.947 91.3603L161.947 118.124C161.947 119.317 162.654 120.396 163.747 120.873L192.234 133.311C192.768 133.544 193.357 133.617 193.932 133.521L387.429 101.006C388.874 100.763 389.932 99.5124 389.932 98.0474V71.349C389.932 70.1462 389.213 69.0597 388.107 68.5886L359.568 56.442Z" fill="#21D789"/>
<path d="M359.568 56.442C359.042 56.2184 358.464 56.1494 357.901 56.243L164.455 88.4009C163.008 88.6415 161.947 89.8933 161.947 91.3603L161.947 118.124C161.947 119.317 162.654 120.396 163.747 120.873L192.234 133.311C192.768 133.544 193.357 133.617 193.932 133.521L387.429 101.006C388.874 100.763 389.932 99.5124 389.932 98.0474V71.349C389.932 70.1462 389.213 69.0597 388.107 68.5886L359.568 56.442Z" fill="url(#paint2_linear_4860_6745)"/>
<path d="M359.568 56.442C359.042 56.2184 358.464 56.1494 357.901 56.243L164.455 88.4009C163.008 88.6415 161.947 89.8933 161.947 91.3603L161.947 118.124C161.947 119.317 162.654 120.396 163.747 120.873L192.234 133.311C192.768 133.544 193.357 133.617 193.932 133.521L387.429 101.006C388.874 100.763 389.932 99.5124 389.932 98.0474V71.349C389.932 70.1462 389.213 69.0597 388.107 68.5886L359.568 56.442Z" fill="url(#paint3_radial_4860_6745)"/>
<path d="M388.845 69.949L192.945 102.224L192.945 131.089" stroke="#0C0C0D" stroke-opacity="0.2" stroke-width="1.5" stroke-linecap="round" stroke-linejoin="round"/>
<path d="M230.887 112.019L338.034 94.3662" stroke="white" stroke-width="1.5" stroke-linecap="round" stroke-linejoin="round"/>
<path d="M166.631 91.0815L188.879 100.684" stroke="#0C0C0D" stroke-opacity="0.2" stroke-width="1.5" stroke-linecap="round"/>
<ellipse cx="212.693" cy="114.566" rx="2.00589" ry="3.7117" fill="white"/>
<ellipse cx="345.157" cy="89.9934" rx="1.00038" ry="1.85109" fill="#21D789"/>
<ellipse cx="347.606" cy="94.2205" rx="1.00038" ry="1.85109" fill="#21D789"/>
<ellipse cx="221.18" cy="113.015" rx="2.00589" ry="3.7117" fill="white"/>
<ellipse cx="349.918" cy="89.23" rx="1.00038" ry="1.85109" fill="#21D789"/>
<ellipse cx="352.881" cy="93.3377" rx="1.00038" ry="1.85109" fill="#21D789"/>
<ellipse cx="354.784" cy="88.3777" rx="1.00038" ry="1.85109" fill="#21D789"/>
<ellipse cx="357.62" cy="92.4304" rx="1.00038" ry="1.85109" fill="#21D789"/>
<ellipse cx="359.444" cy="87.5984" rx="1.00038" ry="1.85109" fill="#21D789"/>
<ellipse cx="362.219" cy="91.3684" rx="1.00038" ry="1.85109" fill="#21D789"/>
<ellipse cx="364.336" cy="86.6323" rx="1.00038" ry="1.85109" fill="#21D789"/>
<path d="M359.568 13.0824C359.042 12.8588 358.464 12.7898 357.901 12.8834L164.455 45.0413C163.008 45.2819 161.947 46.5337 161.947 48.0007L161.947 74.7645C161.947 75.9572 162.654 77.0366 163.747 77.5139L192.234 89.9518C192.768 90.1847 193.357 90.2574 193.932 90.1609L387.429 57.6463C388.874 57.4035 389.932 56.1528 389.932 54.6878V27.9894C389.932 26.7866 389.213 25.7001 388.107 25.229L359.568 13.0824Z" fill="#21D789"/>
<path d="M359.568 13.0824C359.042 12.8588 358.464 12.7898 357.901 12.8834L164.455 45.0413C163.008 45.2819 161.947 46.5337 161.947 48.0007L161.947 74.7645C161.947 75.9572 162.654 77.0366 163.747 77.5139L192.234 89.9518C192.768 90.1847 193.357 90.2574 193.932 90.1609L387.429 57.6463C388.874 57.4035 389.932 56.1528 389.932 54.6878V27.9894C389.932 26.7866 389.213 25.7001 388.107 25.229L359.568 13.0824Z" fill="url(#paint4_linear_4860_6745)"/>
<path d="M359.568 13.0824C359.042 12.8588 358.464 12.7898 357.901 12.8834L164.455 45.0413C163.008 45.2819 161.947 46.5337 161.947 48.0007L161.947 74.7645C161.947 75.9572 162.654 77.0366 163.747 77.5139L192.234 89.9518C192.768 90.1847 193.357 90.2574 193.932 90.1609L387.429 57.6463C388.874 57.4035 389.932 56.1528 389.932 54.6878V27.9894C389.932 26.7866 389.213 25.7001 388.107 25.229L359.568 13.0824Z" fill="url(#paint5_radial_4860_6745)"/>
<path d="M388.845 26.5894L192.945 58.8639L192.945 87.7291" stroke="#0C0C0D" stroke-opacity="0.2" stroke-width="1.5" stroke-linecap="round" stroke-linejoin="round"/>
<path d="M230.887 68.6591L338.034 51.0066" stroke="white" stroke-width="1.5" stroke-linecap="round" stroke-linejoin="round"/>
<path d="M166.631 47.7219L188.879 57.3244" stroke="#0C0C0D" stroke-opacity="0.2" stroke-width="1.5" stroke-linecap="round"/>
<ellipse cx="212.693" cy="71.2066" rx="2.00589" ry="3.7117" fill="white"/>
<ellipse cx="345.157" cy="46.6338" rx="1.00038" ry="1.85109" fill="#21D789"/>
<ellipse cx="347.606" cy="50.8609" rx="1.00038" ry="1.85109" fill="#21D789"/>
<ellipse cx="221.18" cy="69.6558" rx="2.00589" ry="3.7117" fill="white"/>
<ellipse cx="349.918" cy="45.8704" rx="1.00038" ry="1.85109" fill="#21D789"/>
<ellipse cx="352.881" cy="49.978" rx="1.00038" ry="1.85109" fill="#21D789"/>
<ellipse cx="354.784" cy="45.0181" rx="1.00038" ry="1.85109" fill="#21D789"/>
<ellipse cx="357.62" cy="49.0708" rx="1.00038" ry="1.85109" fill="#21D789"/>
<ellipse cx="359.444" cy="44.2388" rx="1.00038" ry="1.85109" fill="#21D789"/>
<ellipse cx="362.219" cy="48.0088" rx="1.00038" ry="1.85109" fill="#21D789"/>
<ellipse cx="364.336" cy="43.2727" rx="1.00038" ry="1.85109" fill="#21D789"/>
<circle cx="61.4472" cy="78.1369" r="5.9003" stroke="white" stroke-width="1.5"/>
<circle cx="93.1032" cy="100.103" r="2.10322" fill="white"/>
<path opacity="0.3" d="M625.293 83.5918L622.098 75.1616C621.813 74.4111 620.831 74.2341 620.303 74.8381L614.72 81.2153C614.191 81.8193 614.496 82.7688 615.278 82.9516L624.057 85.0044C624.886 85.1983 625.595 84.3879 625.293 83.5918Z" stroke="white" stroke-width="1.5"/>
<path d="M560.568 101.807C560.042 101.583 559.464 101.514 558.901 101.608L365.455 133.765C364.008 134.006 362.947 135.258 362.947 136.725L362.947 163.489C362.947 164.681 363.654 165.761 364.747 166.238L393.234 178.676C393.768 178.909 394.357 178.982 394.932 178.885L588.429 146.37C589.874 146.128 590.932 144.877 590.932 143.412V116.714C590.932 115.511 590.213 114.424 589.107 113.953L560.568 101.807Z" fill="#21D789"/>
<path d="M560.568 101.807C560.042 101.583 559.464 101.514 558.901 101.608L365.455 133.765C364.008 134.006 362.947 135.258 362.947 136.725L362.947 163.489C362.947 164.681 363.654 165.761 364.747 166.238L393.234 178.676C393.768 178.909 394.357 178.982 394.932 178.885L588.429 146.37C589.874 146.128 590.932 144.877 590.932 143.412V116.714C590.932 115.511 590.213 114.424 589.107 113.953L560.568 101.807Z" fill="url(#paint6_linear_4860_6745)"/>
<path d="M560.568 101.807C560.042 101.583 559.464 101.514 558.901 101.608L365.455 133.765C364.008 134.006 362.947 135.258 362.947 136.725L362.947 163.489C362.947 164.681 363.654 165.761 364.747 166.238L393.234 178.676C393.768 178.909 394.357 178.982 394.932 178.885L588.429 146.37C589.874 146.128 590.932 144.877 590.932 143.412V116.714C590.932 115.511 590.213 114.424 589.107 113.953L560.568 101.807Z" fill="url(#paint7_radial_4860_6745)"/>
<path d="M589.845 115.313L393.945 147.588L393.945 176.453" stroke="#0C0C0D" stroke-opacity="0.2" stroke-width="1.5" stroke-linecap="round" stroke-linejoin="round"/>
<path d="M431.887 157.383L539.034 139.731" stroke="white" stroke-width="1.5" stroke-linecap="round" stroke-linejoin="round"/>
<path d="M367.631 136.446L389.879 146.048" stroke="#0C0C0D" stroke-opacity="0.2" stroke-width="1.5" stroke-linecap="round"/>
<ellipse cx="413.693" cy="159.931" rx="2.00589" ry="3.7117" fill="white"/>
<ellipse cx="546.157" cy="135.358" rx="1.00038" ry="1.85109" fill="#21D789"/>
<ellipse cx="548.606" cy="139.585" rx="1.00038" ry="1.85109" fill="#21D789"/>
<ellipse cx="422.18" cy="158.38" rx="2.00589" ry="3.7117" fill="white"/>
<ellipse cx="550.918" cy="134.594" rx="1.00038" ry="1.85109" fill="#21D789"/>
<ellipse cx="553.881" cy="138.702" rx="1.00038" ry="1.85109" fill="#21D789"/>
<ellipse cx="555.784" cy="133.742" rx="1.00038" ry="1.85109" fill="#21D789"/>
<ellipse cx="558.62" cy="137.795" rx="1.00038" ry="1.85109" fill="#21D789"/>
<ellipse cx="560.444" cy="132.963" rx="1.00038" ry="1.85109" fill="#21D789"/>
<ellipse cx="563.219" cy="136.733" rx="1.00038" ry="1.85109" fill="#21D789"/>
<ellipse cx="565.336" cy="131.997" rx="1.00038" ry="1.85109" fill="#21D789"/>
<path d="M560.568 58.4469C560.042 58.2233 559.464 58.1543 558.901 58.2479L365.455 90.4058C364.008 90.6464 362.947 91.8982 362.947 93.3652L362.947 120.129C362.947 121.322 363.654 122.401 364.747 122.878L393.234 135.316C393.768 135.549 394.357 135.622 394.932 135.525L588.429 103.011C589.874 102.768 590.932 101.517 590.932 100.052V73.3539C590.932 72.1511 590.213 71.0646 589.107 70.5935L560.568 58.4469Z" fill="#21D789"/>
<path d="M560.568 58.4469C560.042 58.2233 559.464 58.1543 558.901 58.2479L365.455 90.4058C364.008 90.6464 362.947 91.8982 362.947 93.3652L362.947 120.129C362.947 121.322 363.654 122.401 364.747 122.878L393.234 135.316C393.768 135.549 394.357 135.622 394.932 135.525L588.429 103.011C589.874 102.768 590.932 101.517 590.932 100.052V73.3539C590.932 72.1511 590.213 71.0646 589.107 70.5935L560.568 58.4469Z" fill="url(#paint8_linear_4860_6745)"/>
<path d="M560.568 58.4469C560.042 58.2233 559.464 58.1543 558.901 58.2479L365.455 90.4058C364.008 90.6464 362.947 91.8982 362.947 93.3652L362.947 120.129C362.947 121.322 363.654 122.401 364.747 122.878L393.234 135.316C393.768 135.549 394.357 135.622 394.932 135.525L588.429 103.011C589.874 102.768 590.932 101.517 590.932 100.052V73.3539C590.932 72.1511 590.213 71.0646 589.107 70.5935L560.568 58.4469Z" fill="url(#paint9_radial_4860_6745)"/>
<path d="M589.845 71.9539L393.945 104.228L393.945 133.094" stroke="#0C0C0D" stroke-opacity="0.2" stroke-width="1.5" stroke-linecap="round" stroke-linejoin="round"/>
<path d="M431.887 114.024L539.034 96.3711" stroke="white" stroke-width="1.5" stroke-linecap="round" stroke-linejoin="round"/>
<path d="M367.631 93.0864L389.879 102.689" stroke="#0C0C0D" stroke-opacity="0.2" stroke-width="1.5" stroke-linecap="round"/>
<ellipse cx="413.693" cy="116.571" rx="2.00589" ry="3.7117" fill="white"/>
<ellipse cx="546.157" cy="91.9983" rx="1.00038" ry="1.85109" fill="#21D789"/>
<ellipse cx="548.606" cy="96.2254" rx="1.00038" ry="1.85109" fill="#21D789"/>
<ellipse cx="422.18" cy="115.02" rx="2.00589" ry="3.7117" fill="white"/>
<ellipse cx="550.918" cy="91.2349" rx="1.00038" ry="1.85109" fill="#21D789"/>
<ellipse cx="553.881" cy="95.3426" rx="1.00038" ry="1.85109" fill="#21D789"/>
<ellipse cx="555.784" cy="90.3826" rx="1.00038" ry="1.85109" fill="#21D789"/>
<ellipse cx="558.62" cy="94.4353" rx="1.00038" ry="1.85109" fill="#21D789"/>
<ellipse cx="560.444" cy="89.6033" rx="1.00038" ry="1.85109" fill="#21D789"/>
<ellipse cx="563.219" cy="93.3733" rx="1.00038" ry="1.85109" fill="#21D789"/>
<ellipse cx="565.336" cy="88.6372" rx="1.00038" ry="1.85109" fill="#21D789"/>
<path d="M560.568 15.0873C560.042 14.8637 559.464 14.7946 558.901 14.8883L365.455 47.0462C364.008 47.2868 362.947 48.5386 362.947 50.0056L362.947 76.7694C362.947 77.9621 363.654 79.0415 364.747 79.5187L393.234 91.9567C393.768 92.1896 394.357 92.2623 394.932 92.1658L588.429 59.6512C589.874 59.4084 590.932 58.1576 590.932 56.6926V29.9943C590.932 28.7915 590.213 27.705 589.107 27.2339L560.568 15.0873Z" fill="#21D789"/>
<path d="M560.568 15.0873C560.042 14.8637 559.464 14.7946 558.901 14.8883L365.455 47.0462C364.008 47.2868 362.947 48.5386 362.947 50.0056L362.947 76.7694C362.947 77.9621 363.654 79.0415 364.747 79.5187L393.234 91.9567C393.768 92.1896 394.357 92.2623 394.932 92.1658L588.429 59.6512C589.874 59.4084 590.932 58.1576 590.932 56.6926V29.9943C590.932 28.7915 590.213 27.705 589.107 27.2339L560.568 15.0873Z" fill="url(#paint10_linear_4860_6745)"/>
<path d="M560.568 15.0873C560.042 14.8637 559.464 14.7946 558.901 14.8883L365.455 47.0462C364.008 47.2868 362.947 48.5386 362.947 50.0056L362.947 76.7694C362.947 77.9621 363.654 79.0415 364.747 79.5187L393.234 91.9567C393.768 92.1896 394.357 92.2623 394.932 92.1658L588.429 59.6512C589.874 59.4084 590.932 58.1576 590.932 56.6926V29.9943C590.932 28.7915 590.213 27.705 589.107 27.2339L560.568 15.0873Z" fill="url(#paint11_radial_4860_6745)"/>
<path d="M589.845 28.5942L393.945 60.8688L393.945 89.734" stroke="#0C0C0D" stroke-opacity="0.2" stroke-width="1.5" stroke-linecap="round" stroke-linejoin="round"/>
<path d="M431.887 70.664L539.034 53.0115" stroke="white" stroke-width="1.5" stroke-linecap="round" stroke-linejoin="round"/>
<path d="M367.631 49.7268L389.879 59.3293" stroke="#0C0C0D" stroke-opacity="0.2" stroke-width="1.5" stroke-linecap="round"/>
<ellipse cx="413.693" cy="73.2115" rx="2.00589" ry="3.7117" fill="white"/>
<ellipse cx="546.157" cy="48.6387" rx="1.00038" ry="1.85109" fill="#21D789"/>
<ellipse cx="548.606" cy="52.8657" rx="1.00038" ry="1.85109" fill="#21D789"/>
<ellipse cx="422.18" cy="71.6607" rx="2.00589" ry="3.7117" fill="white"/>
<ellipse cx="550.918" cy="47.8753" rx="1.00038" ry="1.85109" fill="#21D789"/>
<ellipse cx="553.881" cy="51.9829" rx="1.00038" ry="1.85109" fill="#21D789"/>
<ellipse cx="555.784" cy="47.023" rx="1.00038" ry="1.85109" fill="#21D789"/>
<ellipse cx="558.62" cy="51.0757" rx="1.00038" ry="1.85109" fill="#21D789"/>
<ellipse cx="560.444" cy="46.2437" rx="1.00038" ry="1.85109" fill="#21D789"/>
<ellipse cx="563.219" cy="50.0137" rx="1.00038" ry="1.85109" fill="#21D789"/>
<ellipse cx="565.336" cy="45.2776" rx="1.00038" ry="1.85109" fill="#21D789"/>
<circle cx="612.9" cy="118.9" r="5.9003" stroke="white" stroke-width="1.5"/>
<circle cx="203.103" cy="111.46" r="2.10322" fill="white"/>
<defs>
<linearGradient id="paint0_linear_4860_6745" x1="235.202" y1="159.832" x2="227.992" y2="140.448" gradientUnits="userSpaceOnUse">
<stop stop-color="#8AEBC2"/>
<stop offset="1" stop-color="#0DC482"/>
</linearGradient>
<radialGradient id="paint1_radial_4860_6745" cx="0" cy="0" r="1" gradientUnits="userSpaceOnUse" gradientTransform="translate(155.775 164.765) rotate(-32.4492) scale(38.9361 47.4089)">
<stop stop-color="white"/>
<stop offset="1" stop-color="#21D789" stop-opacity="0"/>
</radialGradient>
<linearGradient id="paint2_linear_4860_6745" x1="235.202" y1="116.472" x2="227.992" y2="97.0886" gradientUnits="userSpaceOnUse">
<stop stop-color="#8AEBC2"/>
<stop offset="1" stop-color="#0DC482"/>
</linearGradient>
<radialGradient id="paint3_radial_4860_6745" cx="0" cy="0" r="1" gradientUnits="userSpaceOnUse" gradientTransform="translate(155.775 121.406) rotate(-32.4492) scale(38.9361 47.4089)">
<stop stop-color="white"/>
<stop offset="1" stop-color="#21D789" stop-opacity="0"/>
</radialGradient>
<linearGradient id="paint4_linear_4860_6745" x1="235.202" y1="73.1123" x2="227.992" y2="53.729" gradientUnits="userSpaceOnUse">
<stop stop-color="#8AEBC2"/>
<stop offset="1" stop-color="#0DC482"/>
</linearGradient>
<radialGradient id="paint5_radial_4860_6745" cx="0" cy="0" r="1" gradientUnits="userSpaceOnUse" gradientTransform="translate(155.775 78.046) rotate(-32.4492) scale(38.9361 47.4089)">
<stop stop-color="white"/>
<stop offset="1" stop-color="#21D789" stop-opacity="0"/>
</radialGradient>
<linearGradient id="paint6_linear_4860_6745" x1="436.202" y1="161.836" x2="428.992" y2="142.453" gradientUnits="userSpaceOnUse">
<stop stop-color="#8AEBC2"/>
<stop offset="1" stop-color="#0DC482"/>
</linearGradient>
<radialGradient id="paint7_radial_4860_6745" cx="0" cy="0" r="1" gradientUnits="userSpaceOnUse" gradientTransform="translate(356.775 166.77) rotate(-32.4492) scale(38.9361 47.4089)">
<stop stop-color="white"/>
<stop offset="1" stop-color="#21D789" stop-opacity="0"/>
</radialGradient>
<linearGradient id="paint8_linear_4860_6745" x1="436.202" y1="118.477" x2="428.992" y2="99.0935" gradientUnits="userSpaceOnUse">
<stop stop-color="#8AEBC2"/>
<stop offset="1" stop-color="#0DC482"/>
</linearGradient>
<radialGradient id="paint9_radial_4860_6745" cx="0" cy="0" r="1" gradientUnits="userSpaceOnUse" gradientTransform="translate(356.775 123.41) rotate(-32.4492) scale(38.9361 47.4089)">
<stop stop-color="white"/>
<stop offset="1" stop-color="#21D789" stop-opacity="0"/>
</radialGradient>
<linearGradient id="paint10_linear_4860_6745" x1="436.202" y1="75.1172" x2="428.992" y2="55.7338" gradientUnits="userSpaceOnUse">
<stop stop-color="#8AEBC2"/>
<stop offset="1" stop-color="#0DC482"/>
</linearGradient>
<radialGradient id="paint11_radial_4860_6745" cx="0" cy="0" r="1" gradientUnits="userSpaceOnUse" gradientTransform="translate(356.775 80.0509) rotate(-32.4492) scale(38.9361 47.4089)">
<stop stop-color="white"/>
<stop offset="1" stop-color="#21D789" stop-opacity="0"/>
</radialGradient>
</defs>
</svg>
