<svg viewBox="0 0 390 186" fill="none" xmlns="http://www.w3.org/2000/svg"><g clip-path="url(#a)"><path d="M251.883 48.498V189.99h157.043V10h-65.473l-91.57 38.498Z" fill="#fff" fill-opacity=".12"/><path d="M154.402 122.679c0-1.038.536-2.002 1.418-2.549l77.554-48.148a3 3 0 0 1 3.165 0l77.554 48.148a3 3 0 0 1 1.417 2.549v78.674a3 3 0 0 1-3 3H157.402a3 3 0 0 1-3-3v-78.674Z" fill="#fff" fill-opacity=".11"/><path opacity=".3" d="m294.293 161.592-3.195-8.43a1.064 1.064 0 0 0-1.795-.324l-5.583 6.377a1.064 1.064 0 0 0 .558 1.737l8.779 2.052a1.063 1.063 0 0 0 1.236-1.412Z" stroke="#fff" stroke-width="1.5"/><circle opacity=".2" cx="268.9" cy="60.9" r="5.9" stroke="#fff" stroke-width="1.5"/><circle cx="221.103" cy="146.103" r="2.103" fill="#fff"/><path d="M462.489 136.362a2.315 2.315 0 0 0-1.287-.154l-149.35 24.828a2.315 2.315 0 0 0-1.936 2.285v20.663c0 .92.545 1.754 1.389 2.122l21.994 9.603c.412.18.867.236 1.311.161L484 170.767a2.316 2.316 0 0 0 1.932-2.284v-20.612c0-.929-.555-1.768-1.409-2.131l-22.034-9.378Z" fill="#21D789"/><path d="M462.489 136.362a2.315 2.315 0 0 0-1.287-.154l-149.35 24.828a2.315 2.315 0 0 0-1.936 2.285v20.663c0 .92.545 1.754 1.389 2.122l21.994 9.603c.412.18.867.236 1.311.161L484 170.767a2.316 2.316 0 0 0 1.932-2.284v-20.612c0-.929-.555-1.768-1.409-2.131l-22.034-9.378Z" fill="url(#b)"/><path d="M462.489 136.362a2.315 2.315 0 0 0-1.287-.154l-149.35 24.828a2.315 2.315 0 0 0-1.936 2.285v20.663c0 .92.545 1.754 1.389 2.122l21.994 9.603c.412.18.867.236 1.311.161L484 170.767a2.316 2.316 0 0 0 1.932-2.284v-20.612c0-.929-.555-1.768-1.409-2.131l-22.034-9.378Z" fill="url(#c)"/><path d="m485.092 146.79-151.244 24.917v22.286" stroke="#0C0C0D" stroke-opacity=".2" stroke-width="1.5" stroke-linecap="round" stroke-linejoin="round"/><path d="m363.141 179.27 82.723-13.629" stroke="#fff" stroke-width="1.5" stroke-linecap="round" stroke-linejoin="round"/><path d="m313.531 163.105 17.177 7.414" stroke="#0C0C0D" stroke-opacity=".2" stroke-width="1.5" stroke-linecap="round"/><ellipse cx="349.096" cy="181.237" rx="1.549" ry="2.866" fill="#fff"/><ellipse cx="355.646" cy="180.039" rx="1.549" ry="2.866" fill="#fff"/><path d="M462.489 100.636a2.315 2.315 0 0 0-1.287-.153l-149.35 24.827a2.316 2.316 0 0 0-1.936 2.285v20.663c0 .921.545 1.754 1.389 2.123l21.994 9.602c.412.18.867.236 1.311.162L484 135.042a2.317 2.317 0 0 0 1.932-2.284v-20.613c0-.928-.555-1.767-1.409-2.131l-22.034-9.378Z" fill="#21D789"/><path d="M462.489 100.636a2.315 2.315 0 0 0-1.287-.153l-149.35 24.827a2.316 2.316 0 0 0-1.936 2.285v20.663c0 .921.545 1.754 1.389 2.123l21.994 9.602c.412.18.867.236 1.311.162L484 135.042a2.317 2.317 0 0 0 1.932-2.284v-20.613c0-.928-.555-1.767-1.409-2.131l-22.034-9.378Z" fill="url(#d)"/><path d="M462.489 100.636a2.315 2.315 0 0 0-1.287-.153l-149.35 24.827a2.316 2.316 0 0 0-1.936 2.285v20.663c0 .921.545 1.754 1.389 2.123l21.994 9.602c.412.18.867.236 1.311.162L484 135.042a2.317 2.317 0 0 0 1.932-2.284v-20.613c0-.928-.555-1.767-1.409-2.131l-22.034-9.378Z" fill="url(#e)"/><path d="m485.092 111.064-151.244 24.918v22.285" stroke="#0C0C0D" stroke-opacity=".2" stroke-width="1.5" stroke-linecap="round" stroke-linejoin="round"/><path d="m363.141 143.544 82.723-13.628" stroke="#fff" stroke-width="1.5" stroke-linecap="round" stroke-linejoin="round"/><path d="m313.531 127.38 17.177 7.413" stroke="#0C0C0D" stroke-opacity=".2" stroke-width="1.5" stroke-linecap="round"/><ellipse cx="349.096" cy="145.511" rx="1.549" ry="2.866" fill="#fff"/><ellipse cx="355.646" cy="144.314" rx="1.549" ry="2.866" fill="#fff"/><path d="M462.489 64.91a2.317 2.317 0 0 0-1.287-.153l-149.35 24.828a2.316 2.316 0 0 0-1.936 2.284v20.663c0 .921.545 1.755 1.389 2.123l21.994 9.603c.412.18.867.236 1.311.161L484 99.316a2.316 2.316 0 0 0 1.932-2.284V76.42c0-.93-.555-1.768-1.409-2.132l-22.034-9.377Z" fill="#21D789"/><path d="M462.489 64.91a2.317 2.317 0 0 0-1.287-.153l-149.35 24.828a2.316 2.316 0 0 0-1.936 2.284v20.663c0 .921.545 1.755 1.389 2.123l21.994 9.603c.412.18.867.236 1.311.161L484 99.316a2.316 2.316 0 0 0 1.932-2.284V76.42c0-.93-.555-1.768-1.409-2.132l-22.034-9.377Z" fill="url(#f)"/><path d="M462.489 64.91a2.317 2.317 0 0 0-1.287-.153l-149.35 24.828a2.316 2.316 0 0 0-1.936 2.284v20.663c0 .921.545 1.755 1.389 2.123l21.994 9.603c.412.18.867.236 1.311.161L484 99.316a2.316 2.316 0 0 0 1.932-2.284V76.42c0-.93-.555-1.768-1.409-2.132l-22.034-9.377Z" fill="url(#g)"/><path d="m485.092 75.339-151.244 24.917v22.286" stroke="#0C0C0D" stroke-opacity=".2" stroke-width="1.5" stroke-linecap="round" stroke-linejoin="round"/><path d="m363.141 107.819 82.723-13.63" stroke="#fff" stroke-width="1.5" stroke-linecap="round" stroke-linejoin="round"/><path d="m313.531 91.654 17.177 7.414" stroke="#0C0C0D" stroke-opacity=".2" stroke-width="1.5" stroke-linecap="round"/><ellipse cx="349.096" cy="109.786" rx="1.549" ry="2.866" fill="#fff"/><ellipse cx="355.646" cy="108.588" rx="1.549" ry="2.866" fill="#fff"/><path d="M462.489 29.185a2.316 2.316 0 0 0-1.287-.154L311.852 53.86a2.316 2.316 0 0 0-1.936 2.285v20.663c0 .92.545 1.754 1.389 2.122l21.994 9.603c.412.18.867.236 1.311.162L484 63.59a2.316 2.316 0 0 0 1.932-2.285V40.695c0-.929-.555-1.768-1.409-2.131l-22.034-9.378Z" fill="#21D789"/><path d="M462.489 29.185a2.316 2.316 0 0 0-1.287-.154L311.852 53.86a2.316 2.316 0 0 0-1.936 2.285v20.663c0 .92.545 1.754 1.389 2.122l21.994 9.603c.412.18.867.236 1.311.162L484 63.59a2.316 2.316 0 0 0 1.932-2.285V40.695c0-.929-.555-1.768-1.409-2.131l-22.034-9.378Z" fill="url(#h)"/><path d="M462.489 29.185a2.316 2.316 0 0 0-1.287-.154L311.852 53.86a2.316 2.316 0 0 0-1.936 2.285v20.663c0 .92.545 1.754 1.389 2.122l21.994 9.603c.412.18.867.236 1.311.162L484 63.59a2.316 2.316 0 0 0 1.932-2.285V40.695c0-.929-.555-1.768-1.409-2.131l-22.034-9.378Z" fill="url(#i)"/><path d="M485.092 39.613 333.848 64.531v22.285" stroke="#0C0C0D" stroke-opacity=".2" stroke-width="1.5" stroke-linecap="round" stroke-linejoin="round"/><path d="m363.141 72.093 82.723-13.629" stroke="#fff" stroke-width="1.5" stroke-linecap="round" stroke-linejoin="round"/><path d="m313.531 55.928 17.177 7.414" stroke="#0C0C0D" stroke-opacity=".2" stroke-width="1.5" stroke-linecap="round"/><ellipse cx="349.096" cy="74.06" rx="1.549" ry="2.866" fill="#fff"/><ellipse cx="355.646" cy="72.863" rx="1.549" ry="2.866" fill="#fff"/></g><defs><radialGradient id="c" cx="0" cy="0" r="1" gradientUnits="userSpaceOnUse" gradientTransform="matrix(25.36725 -16.12912 19.63892 30.88732 305.151 186.517)"><stop stop-color="#fff"/><stop offset="1" stop-color="#21D789" stop-opacity="0"/></radialGradient><radialGradient id="e" cx="0" cy="0" r="1" gradientUnits="userSpaceOnUse" gradientTransform="matrix(25.36725 -16.12912 19.63892 30.88732 305.151 150.791)"><stop stop-color="#fff"/><stop offset="1" stop-color="#21D789" stop-opacity="0"/></radialGradient><radialGradient id="g" cx="0" cy="0" r="1" gradientUnits="userSpaceOnUse" gradientTransform="matrix(25.36725 -16.12912 19.63892 30.88732 305.151 115.066)"><stop stop-color="#fff"/><stop offset="1" stop-color="#21D789" stop-opacity="0"/></radialGradient><radialGradient id="i" cx="0" cy="0" r="1" gradientUnits="userSpaceOnUse" gradientTransform="matrix(25.36725 -16.12912 19.63892 30.88732 305.151 79.34)"><stop stop-color="#fff"/><stop offset="1" stop-color="#21D789" stop-opacity="0"/></radialGradient><linearGradient id="b" x1="366.472" y1="182.708" x2="360.906" y2="167.743" gradientUnits="userSpaceOnUse"><stop stop-color="#8AEBC2"/><stop offset="1" stop-color="#0DC482"/></linearGradient><linearGradient id="d" x1="366.472" y1="146.982" x2="360.906" y2="132.017" gradientUnits="userSpaceOnUse"><stop stop-color="#8AEBC2"/><stop offset="1" stop-color="#0DC482"/></linearGradient><linearGradient id="f" x1="366.472" y1="111.257" x2="360.906" y2="96.292" gradientUnits="userSpaceOnUse"><stop stop-color="#8AEBC2"/><stop offset="1" stop-color="#0DC482"/></linearGradient><linearGradient id="h" x1="366.472" y1="75.531" x2="360.906" y2="60.566" gradientUnits="userSpaceOnUse"><stop stop-color="#8AEBC2"/><stop offset="1" stop-color="#0DC482"/></linearGradient><clipPath id="a"><path fill="#fff" d="M0 0h390v186H0z"/></clipPath></defs></svg>