<svg viewBox="0 0 24 24" fill="none" xmlns="http://www.w3.org/2000/svg"><path d="M6.975.074c.032-.099.177-.099.21 0L8.35 3.597c.011.033.038.058.072.069l3.66 1.124a.105.105 0 0 1 0 .201l-3.66 1.124a.108.108 0 0 0-.072.069L7.184 9.707c-.032.098-.177.098-.21 0L5.808 6.184a.108.108 0 0 0-.07-.069l-3.66-1.124a.105.105 0 0 1 0-.201l3.66-1.124a.108.108 0 0 0 .07-.069L6.975.074ZM18.046 6.388c.033-.098.177-.098.21 0l.87 2.625c.01.033.037.058.07.069l2.727.837a.105.105 0 0 1 0 .202l-2.726.837a.108.108 0 0 0-.072.069l-.87 2.625c-.032.098-.176.098-.209 0l-.87-2.625a.108.108 0 0 0-.07-.069l-2.728-.837a.105.105 0 0 1 0-.202l2.727-.837a.108.108 0 0 0 .071-.069l.87-2.625ZM11.695 11.924c-.033-.098-.177-.098-.21 0l-1.464 4.421a.108.108 0 0 1-.071.07l-4.593 1.41a.105.105 0 0 0 0 .201l4.593 1.41c.034.01.06.036.07.069l1.466 4.421c.032.099.176.099.21 0l1.464-4.421a.108.108 0 0 1 .071-.069l4.592-1.41a.105.105 0 0 0 0-.202l-4.592-1.41a.108.108 0 0 1-.071-.069l-1.465-4.421Z" fill="#fff"/></svg>