<svg fill="none" height="202" viewBox="0 0 202 202" width="202" xmlns="http://www.w3.org/2000/svg" xmlns:xlink="http://www.w3.org/1999/xlink"><radialGradient id="a" cx="0" cy="0" gradientTransform="matrix(-37.23311291 351.38789297 -494.38637218 -52.38525284 42.5277 62.1653)" gradientUnits="userSpaceOnUse" r="1"><stop offset="0" stop-color="#00e383"/><stop offset=".687112" stop-color="#0aa78b" stop-opacity=".65"/></radialGradient><clipPath id="b"><rect height="202" rx="4" width="202"/></clipPath><g clip-path="url(#b)"><rect fill="url(#a)" height="202" rx="4" width="202"/><path d="m83.6248 157.905c-2.6344-1.892-17.0997-4.096-27.0154 0 2.2031 2.062 8.0423 6.107 13.7746 5.785 5.7323-.323 11.2157-3.991 13.2408-5.785z" fill="#27cd94" opacity=".7"/><path clip-rule="evenodd" d="m70.2692 162.663c9.9949 0 18.0974-8.103 18.0974-18.098s-8.1025-18.097-18.0974-18.097-18.0973 8.102-18.0973 18.097 8.1024 18.098 18.0973 18.098zm0 1.5c10.8234 0 19.5974-8.774 19.5974-19.598 0-10.823-8.774-19.597-19.5974-19.597-10.8233 0-19.5973 8.774-19.5973 19.597 0 10.824 8.774 19.598 19.5973 19.598z" fill="#0c0c0d" fill-rule="evenodd"/><g fill="#0c0c0d"><path clip-rule="evenodd" d="m67.816 146.233c.1033-.237.3372-.39.5957-.39h3.4176c.2399 0 .4604.132.5734.344s.1003.468-.0332.668c-.3478.519-1.0682.94-1.8534 1.047-.8319.113-1.7905-.115-2.5808-.967-.1759-.189-.2227-.465-.1193-.702z" fill-rule="evenodd"/><path d="m66.7165 142.534c0 .698-.3003 1.265-.6707 1.265-.3705 0-.6708-.567-.6708-1.265 0-.699.3003-1.265.6708-1.265.3704 0 .6707.566.6707 1.265z"/><path d="m74.6892 142.534c0 .698-.3003 1.265-.6708 1.265-.3704 0-.6707-.567-.6707-1.265 0-.699.3003-1.265.6707-1.265.3705 0 .6708.566.6708 1.265z"/><path d="m67.6447 138.611c.6549.328.6465 1.22 0 1.351-.4932.1-1.2659-.002-4.0021 0-.0371-1.415 3.3472-1.678 4.0021-1.351z"/><path d="m72.7146 138.611c-.6549.328-.6465 1.22 0 1.351.4932.1 1.2659-.002 4.0022 0 .037-1.415-3.3473-1.678-4.0022-1.351z"/><path clip-rule="evenodd" d="m79.2359 147.48c-1.5344 3.37-4.9219 5.646-8.8596 5.646-3.9187 0-7.2955-2.313-8.8427-5.646h-.8257c-2.2786 0-4.1259-1.847-4.1259-4.126 0-2.278 1.8473-4.125 4.1259-4.125h.0942c-.6652-2.624-.2781-3.295.6591-3.932.4545-.309.5295-.554.6376-.906.1351-.44.3219-1.049 1.3676-2.162 1.1768-1.254 2.7259-1.012 3.8287-.84.6607.104 1.1613.182 1.3258-.101 1.195-2.059 3.6408-3.109 5.8499-1.841.6779.389 1.194.755 1.6275 1.062.9791.695 1.5369 1.09 2.586.779 1.5136-.45 3.7254 1.891 3.1527 3.732-.2616.841-.5579 1.125-.7714 1.33-.254.243-.3909.374-.2131 1.197.1508.697-.0547 1.273-.4322 1.691 2.1441.148 3.8375 1.935 3.8375 4.116 0 2.279-1.8472 4.126-4.1259 4.126zm-18.528-6.751c.1106 0 .2048.002.2894.008-.0824.383.1448.769.5263.878.3982.115.8136-.115.9279-.513.1002-.349.2228-.689.3661-1.017.9539-.599 1.8037-1.913 1.8731-2.673.18-.171.3677-.335.5626-.489.695-.196 1.4027-.668 1.8953-1.129.2613-.111.5295-.21.8038-.294.8055.414 2.406.983 4.432.983 1.3267 0 2.0948 0 2.5773.047 1.214.814 1.8585 1.476 2.6215 2.845.3036.545.5472 1.128.7219 1.74.1136.398.5286.629.927.516.3851-.11.6136-.502.5255-.888.1108-.01.2331-.014.3743-.014 1.4503 0 2.6259 1.175 2.6259 2.625 0 1.451-1.1756 2.626-2.6259 2.626h-1.2552c-.022 0-.0438.001-.0653.003-.3253-.031-.6452.154-.7703.473-1.1989 3.06-4.1656 5.17-7.6648 5.17-3.4641 0-6.431-2.137-7.6509-5.167-.1093-.272-.3595-.444-.6324-.468-.0422-.007-.0856-.011-.1299-.011h-1.2552c-1.4502 0-2.6259-1.175-2.6259-2.626 0-1.45 1.1757-2.625 2.6259-2.625z" fill-rule="evenodd"/></g><path clip-rule="evenodd" d="m2.76953 119.089c-1.65685 0-2.999999 1.343-2.999999 3v42.993c0 1.657 1.343149 3 2.999999 3h93.89977c1.6568 0 3-1.343 3-3v-42.993c0-1.657-1.3432-3-3-3zm38.10537 11.565h-40.87647258v1.47h40.87647258c.1353 0 .245.11.245.245v8.174h-26.7566v9.081h26.7566v9.711c0 .135-.1097.245-.245.245h-40.87647258v1.47h40.87647258c.947 0 1.7148-.768 1.7148-1.715v-26.966c0-.947-.7678-1.715-1.7148-1.715zm-27.6803 9.889h-13.2024125v9.081h13.2024125z" fill="#000" fill-opacity=".13" fill-rule="evenodd"/><path clip-rule="evenodd" d="m-.0078125 126.192h18.9983125c.3338 0 .6044.329.6044.735s-.2706.735-.6044.735h-18.9983125z" fill="#0c0c0d" fill-rule="evenodd"/><path clip-rule="evenodd" d="m106 85.75c0-.9665.784-1.75 1.75-1.75h82.059c.966 0 1.75.7835 1.75 1.75v28.099c0 .967-.784 1.75-1.75 1.75h-82.059c-.966 0-1.75-.783-1.75-1.75zm1.75-.25c-.138 0-.25.1119-.25.25v28.099c0 .138.112.25.25.25h82.059c.138 0 .25-.112.25-.25v-28.099c0-.1381-.112-.25-.25-.25z" fill="#fff" fill-rule="evenodd"/><path d="m136.805 132.095h32.261" stroke="#fff" stroke-linecap="round" stroke-width="1.5"/><path d="m111.945 130.349c0-.552.448-1 1-1h17.579c.552 0 1 .448 1 1v17.129c0 .553-.448 1-1 1h-17.579c-.552 0-1-.447-1-1z" fill="#000" opacity=".23"/><path clip-rule="evenodd" d="m136.055 137.042c0-.414.335-.75.75-.75h15.909c.414 0 .75.336.75.75s-.336.75-.75.75h-15.909c-.415 0-.75-.336-.75-.75z" fill="#fff" fill-rule="evenodd"/><path clip-rule="evenodd" d="m136.055 148.349c0-.414.335-.75.75-.75h12.635c.414 0 .75.336.75.75 0 .415-.336.75-.75.75h-12.635c-.415 0-.75-.335-.75-.75z" fill="#0c0c0d" fill-rule="evenodd"/><path clip-rule="evenodd" d="m106 125.349c0-.966.784-1.75 1.75-1.75h82.059c.966 0 1.75.784 1.75 1.75v28.1c0 .966-.784 1.75-1.75 1.75h-82.059c-.966 0-1.75-.784-1.75-1.75zm1.75-.25c-.138 0-.25.112-.25.25v28.1c0 .138.112.25.25.25h82.059c.138 0 .25-.112.25-.25v-28.1c0-.138-.112-.25-.25-.25z" fill="#fff" fill-rule="evenodd"/><path clip-rule="evenodd" d="m135.305 170.944c0-.414.335-.75.75-.75h32.261c.414 0 .75.336.75.75s-.336.75-.75.75h-32.261c-.415 0-.75-.336-.75-.75z" fill="#fff" fill-rule="evenodd"/><path d="m111.945 169.198c0-.552.448-1 1-1h17.579c.552 0 1 .448 1 1v17.129c0 .553-.448 1-1 1h-17.579c-.552 0-1-.447-1-1z" fill="#000" opacity=".23"/><path clip-rule="evenodd" d="m135.305 175.891c0-.414.335-.75.75-.75h15.909c.414 0 .75.336.75.75s-.336.75-.75.75h-15.909c-.415 0-.75-.336-.75-.75z" fill="#fff" fill-rule="evenodd"/><path clip-rule="evenodd" d="m135.305 187.198c0-.414.335-.75.75-.75h12.635c.414 0 .75.336.75.75 0 .415-.336.75-.75.75h-12.635c-.415 0-.75-.335-.75-.75z" fill="#0c0c0d" fill-rule="evenodd"/><path clip-rule="evenodd" d="m105.969 164.198c0-.966.783-1.75 1.75-1.75h82.84c.967 0 1.75.784 1.75 1.75v28.1c0 .966-.783 1.75-1.75 1.75h-82.84c-.967 0-1.75-.784-1.75-1.75zm1.75-.25c-.138 0-.25.112-.25.25v28.1c0 .138.112.25.25.25h82.84c.138 0 .25-.112.25-.25v-28.1c0-.138-.112-.25-.25-.25z" fill="#fff" fill-rule="evenodd"/><path d="m22.3734 22.875h-5.6v-1.875h13.25v1.875h-5.575v15.675h-2.075z" fill="#0c0c0d"/><path d="m41.5752 32.575h-10.3c.0667.8917.2917 1.675.675 2.35s.8917 1.2 1.525 1.575c.6417.3667 1.3667.55 2.175.55.5417 0 1.0625-.0833 1.5625-.25.5-.175.9292-.4125 1.2875-.7125s.6042-.6375.7375-1.0125h2c-.1417.7-.4875 1.3333-1.0375 1.9s-1.2375 1.0125-2.0625 1.3375c-.8167.325-1.6875.4875-2.6125.4875-1.1833 0-2.2542-.2917-3.2125-.875s-1.7125-1.3833-2.2625-2.4c-.55-1.025-.825-2.1667-.825-3.425s.275-2.3958.825-3.4125c.55-1.025 1.3042-1.8292 2.2625-2.4125s2.0292-.875 3.2125-.875c1.1667 0 2.2083.2875 3.125.8625.9167.5667 1.6333 1.3583 2.15 2.375s.775 2.1708.775 3.4625zm-6.05-5.4375c-1.1333 0-2.0708.3417-2.8125 1.025-.7333.675-1.1917 1.6042-1.375 2.7875h8.1625c-.1667-1.2083-.5958-2.1458-1.2875-2.8125-.6833-.6667-1.5792-1-2.6875-1z" fill="#0c0c0d"/><path d="m49.2783 25.4c.9334 0 1.7625.1792 2.4875.5375.7334.3583 1.3042.8583 1.7125 1.5.4084.6417.6125 1.3708.6125 2.1875v8.875h-1.95v-1.8125c-.4416.6667-1.0291 1.1875-1.7625 1.5625-.725.3667-1.5458.55-2.4625.55-.8416 0-1.5958-.1542-2.2625-.4625-.6666-.3167-1.1875-.7542-1.5625-1.3125s-.5625-1.1917-.5625-1.9c0-.6667.1667-1.2792.5-1.8375.3417-.5667.8125-1.025 1.4125-1.375.6-.3583 1.2792-.575 2.0375-.65l3.7375-.375c.275-.025.4917-.1458.65-.3625.1667-.2167.25-.5208.25-.9125 0-.5083-.1208-.9542-.3625-1.3375-.2416-.3833-.5833-.6792-1.025-.8875-.4333-.2083-.9375-.3125-1.5125-.3125s-1.0916.1042-1.55.3125c-.4583.2-.8291.4833-1.1125.85-.2833.3667-.45.7875-.5 1.2625h-1.95c.075-.7917.3459-1.4958.8125-2.1125.475-.625 1.0917-1.1125 1.85-1.4625.7584-.35 1.5959-.525 2.5125-.525zm-.925 11.8375c.7167 0 1.3584-.1542 1.925-.4625.575-.3167 1.025-.75 1.35-1.3s.4875-1.1708.4875-1.8625v-1.35l-4.3625.45c-.425.0417-.8083.1708-1.15.3875-.3333.2167-.5958.4917-.7875.825-.1916.3333-.2875.6958-.2875 1.0875 0 .4333.1167.8208.35 1.1625.2417.3333.575.5958 1 .7875.4334.1833.925.275 1.475.275z" fill="#0c0c0d"/><path d="m72.2287 25.4c.9333 0 1.7583.2125 2.475.6375.7167.4167 1.2708 1.0083 1.6625 1.775.3917.7583.5875 1.6292.5875 2.6125v8.075h-2v-7.9875c0-1.075-.2667-1.9125-.8-2.5125s-1.275-.9-2.225-.9c-.7167 0-1.3458.1708-1.8875.5125s-.9583.825-1.25 1.45c-.2917.6167-.4375 1.3417-.4375 2.175v7.2625h-2v-7.9875c0-1.075-.2667-1.9125-.8-2.5125s-1.275-.9-2.225-.9c-.7167 0-1.3458.1708-1.8875.5125s-.9583.825-1.25 1.45c-.2917.6167-.4375 1.3417-.4375 2.175v7.2625h-2v-12.8h1.925v1.9875c.4167-.7333.9667-1.2958 1.65-1.6875.6917-.4 1.4792-.6 2.3625-.6.95 0 1.7833.2292 2.5.6875.725.45 1.275 1.075 1.65 1.875.4417-.8083 1.0417-1.4375 1.8-1.8875s1.6208-.675 2.5875-.675z" fill="#0c0c0d"/><path d="m84.7113 38.8c-1.05 0-1.9666-.1667-2.75-.5-.775-.3333-1.3791-.8-1.8125-1.4-.425-.6-.6416-1.2917-.65-2.075h2c.0167.45.1625.8542.4375 1.2125s.6459.6375 1.1125.8375c.4667.1917 1 .2875 1.6.2875.5834 0 1.0959-.0917 1.5375-.275.45-.1833.7959-.4458 1.0375-.7875.2417-.3417.3625-.7333.3625-1.175 0-.5083-.1708-.9333-.5125-1.275-.3416-.35-.8166-.5792-1.425-.6875l-2.125-.3625c-1.125-.1917-2.0041-.6042-2.6375-1.2375-.6333-.6333-.95-1.4208-.95-2.3625 0-.7167.1834-1.3458.55-1.8875.375-.55.9084-.9708 1.6-1.2625.6917-.3 1.5-.45 2.425-.45.9584 0 1.7959.1583 2.5125.475.7167.3083 1.2709.7458 1.6625 1.3125.3917.5583.5959 1.2042.6125 1.9375h-2c-.0083-.4083-.1291-.7708-.3625-1.0875-.2333-.3167-.5583-.5625-.975-.7375-.4166-.175-.9-.2625-1.45-.2625-.4916 0-.9416.0792-1.35.2375-.4083.1583-.7291.3833-.9625.675-.2333.2917-.35.625-.35 1 0 .4583.1625.85.4875 1.175.325.3167.7667.525 1.325.625l2.2.3875c1.175.2083 2.075.6333 2.7 1.275.6334.6417.95 1.4625.95 2.4625 0 .7833-.1958 1.4708-.5875 2.0625-.3916.5917-.95 1.05-1.675 1.375-.7166.325-1.5625.4875-2.5375.4875z" fill="#0c0c0d"/><rect fill="#23cf93" height="68.9714" rx="3" width="153.972" x="19.3125" y="64"/><rect fill="#fff" fill-opacity=".4" height="68.9714" rx="3" width="153.972" x="19.3125" y="64"/><g fill="#0c0c0d"><path clip-rule="evenodd" d="m52.1923 99.7064c.2631-.2442.6744-.2288.9186.0343.664.7153 1.4077.8973 2.0343.8373.6721-.064 1.1563-.395 1.3087-.623.1997-.2984.6034-.3784.9017-.1788.2984.1997.3784.6038.1787.9018-.4203.628-1.3061 1.103-2.2657 1.194-1.0052.096-2.155-.217-3.1107-1.247-.2442-.263-.2288-.6745.0344-.9186z" fill-rule="evenodd"/><path d="m50.4653 96.4079c0 .8911-.3831 1.6135-.8557 1.6135s-.8557-.7224-.8557-1.6135c0-.8912.3831-1.6136.8557-1.6136s.8557.7224.8557 1.6136z"/><path d="m60.641 96.4079c0 .8911-.3831 1.6135-.8556 1.6135-.4726 0-.8557-.7224-.8557-1.6135 0-.8912.3831-1.6136.8557-1.6136.4725 0 .8556.7224.8556 1.6136z"/><path d="m51.6289 91.4062c.8355.4178.8247 1.5555 0 1.723-.6291.1278-1.6149-.0028-5.1055 0 1.9033-1.4854 4.27-2.1407 5.1055-1.723z"/><path d="m58.0327 91.4062c-.8354.4178-.8247 1.5555 0 1.723.6292.1278 1.615-.0028 5.1055 0-1.9032-1.4854-4.27-2.1407-5.1055-1.723z"/><path clip-rule="evenodd" d="m38.5289 115.762c3.4616-.11 3.9677-4.337 4.4374-8.26.2278-1.903.4471-3.734.991-4.989h-1.1625c-2.7926 0-5.0565-2.264-5.0565-5.0568 0-2.7926 2.2639-5.0565 5.0565-5.0565.4434 0 .7993.0289 1.164.1227 1.9036-4.2753 6.1889-7.2568 11.1721-7.2568 4.9866 0 9.2744 2.9855 11.176 7.2656.4143-.1031.8209-.1315 1.2694-.1315 2.7926 0 5.0565 2.2639 5.0565 5.0565 0 2.7928-2.2639 5.0568-5.0565 5.0568h-1.2782c-.1181.267-.2454.528-.3815.784.0251.176.0496.365.0756.568.2412 1.871.6214 4.821 2.9272 7.733 1.5364 1.94 2.5451 2.594 3.1456 2.983.1275.082.2366.153.3284.222 3.7941-4.174 6.1066-9.718 6.1066-15.803 0-12.9787-10.5213-23.5-23.5-23.5s-23.5 10.5213-23.5 23.5c0 6.563 2.6906 12.498 7.0289 16.762zm41.4711-16.762c0 13.807-11.1929 25-25 25s-25-11.193-25-25c0-13.8071 11.1929-25 25-25s25 11.1929 25 25zm-25.6114-12.2091c.2453-.0168.4928-.0253.7423-.0253.2425 0 .4831.0081.7215.0239 1.6044.4798 3.0877 1.4402 4.841 3.481 1.422 1.655 2.8322 2.3682 3.9733 2.3079.3206.6212.5822 1.2778.7775 1.9623.1137.3983.5287.6291.927.5155.3984-.1137.6291-.5287.5155-.927-.0169-.0594-.0343-.1185-.0521-.1775.2151-.0381.4506-.052.7417-.052 1.9642 0 3.5565 1.5923 3.5565 3.5565s-1.5923 3.5568-3.5565 3.5568h-1.6013c-.0254 0-.0505.001-.0753.003-.3348-.045-.6698.142-.7985.47-1.5603 3.982-5.4208 6.727-9.9703 6.727-4.5064 0-8.3654-2.78-9.952-6.721-.1135-.282-.3791-.458-.6642-.47-.0386-.006-.0782-.009-.1186-.009h-1.6013c-1.9642 0-3.5565-1.5926-3.5565-3.5568s1.5923-3.5565 3.5565-3.5565c.2596 0 .456.0107.6354.0421-.0168.0555-.0333.1113-.0493.1672-.1143.3981.1157.8135.5138.9279.3982.1143.8136-.1158.9279-.5139.3677-1.2802.9674-2.4622 1.7508-3.4976 2.57-.4962 6.9981-2.221 7.8152-4.2345zm-12.9478 8.8179c-.3219-.2607-.7942-.211-1.0549.1109s-.211.7942.1109 1.0548c1.3307 1.0776 2.4048 2.3019 2.7595 2.7581.2543.3269.7256.3858 1.0525.1315.327-.2543.3859-.7255.1316-1.0525-.4134-.5314-1.566-1.8419-2.9996-3.0028zm28.5131.1109c-.2606-.3219-.7329-.3716-1.0548-.1109-1.4336 1.1609-2.5863 2.4714-2.9996 3.0028-.2543.327-.1954.7982.1315 1.0525.327.2543.7982.1954 1.0525-.1315.3548-.4562 1.4289-1.6805 2.7596-2.7581.3219-.2606.3715-.7329.1108-1.0548z" fill-rule="evenodd"/></g><path d="m131 91.5408h-8v10.0002h8z" fill="#fff"/><path d="m133 91.5408h8v10.0002h-8z" fill="#fff"/><path d="m143 91.5408h8v10.0002h-8z" fill="#fff"/><path clip-rule="evenodd" d="m94.7891 81.1917c-.9665 0-1.75.7835-1.75 1.75v8.5991h-.0391v10.0002h.0391v17.661c0 .967.7835 1.75 1.75 1.75h67.2979c.967 0 1.75-.783 1.75-1.75v-36.2603c0-.9665-.783-1.75-1.75-1.75zm-.25 20.3493v17.661c0 .138.1119.25.25.25h67.2979c.139 0 .25-.111.25-.25v-17.661h-9.337v-10.0002h9.337v-8.5991c0-.1381-.111-.25-.25-.25h-67.2979c-.1381 0-.25.1119-.25.25v8.5991h26.4609v10.0002z" fill="#fff" fill-rule="evenodd"/><path clip-rule="evenodd" d="m93.0391 77c0-.4142.3357-.75.75-.75h34.5189c.414 0 .75.3358.75.75s-.336.75-.75.75h-34.5189c-.4143 0-.75-.3358-.75-.75z" fill="#0c0c0d" fill-rule="evenodd"/><path clip-rule="evenodd" d="m97.1172 107.972c0-.415.3358-.75.75-.75h19.7468c.414 0 .75.335.75.75 0 .414-.336.75-.75.75h-19.7468c-.4142 0-.75-.336-.75-.75z" fill="#fff" fill-rule="evenodd"/><path clip-rule="evenodd" d="m97.1172 113.726c0-.414.3358-.75.75-.75h14.0018c.415 0 .75.336.75.75 0 .415-.335.75-.75.75h-14.0018c-.4142 0-.75-.335-.75-.75z" fill="#fff" fill-rule="evenodd"/><path clip-rule="evenodd" d="m147.023 113.726c0-.414.336-.75.75-.75h10.73c.415 0 .75.336.75.75 0 .415-.335.75-.75.75h-10.73c-.414 0-.75-.335-.75-.75z" fill="#fff" fill-rule="evenodd"/></g></svg>